<svg xmlns="http://www.w3.org/2000/svg" viewBox="0 0 2121 1887.494" id="aged-man">
  <g id="art">
    <path d="M1120.441 194.586a58.965 58.965 0 0 1 21.802-4.606c7.964.085 15.152 4.161 21.206 9.014 7.103 5.505 11.965 14.083 12.305 23.135.473 6.555 2.478 13.79 8.4 17.48 3.272 2.052 6.866-.512 9.997-1.637 6.233-2.204 8.456-9.165 13.544-12.883 7.784-6.034 18.397-6.393 27.79-5.296 13.856 1.57 26.104 11.435 31.354 24.232 2.024 4.89 1.958 10.281 1.873 15.474 7.434-.189 14.802 4.663 17.006 11.852 2.563 7.623.927 15.682.766 23.504-.596 8.456 10.32 14.868 17.47 10.47 5.656-3.263 9.846-8.853 16.174-10.99a54.416 54.416 0 0 1 23.617-2.204c10.802 2.365 18.87 11.615 22.795 21.584 3.235 10.64 1.958 22.142-1.438 32.594-1.712 4.578-3.216 9.524-2.147 14.443 1.57 4.048 5.089 7.075 8.75 9.25 6.346 2.648 13.355.378 19.323-2.242 7.009-2.865 14.065-6.148 21.735-6.677 12.031-.473 24.507-1.542 36.046 2.733 7.813 2.393 14.122 7.766 20.875 12.135 4.53 3.008 8.664 6.98 10.612 12.183 2.961 6.45 1.693 14.017-1.475 20.146-4.342 8.078-14.33 11.426-17.83 20.1-2.212 6.034-2.818 13.733 1.817 18.812 2.989 3.084 7.633 2.649 11.558 3.197 4.341.303 9.572 1.476 11.577 5.846 2.393 4.823-2.639 9.23-2.119 14.187 7.236 1.665 14.85-3.48 21.717.322 6.167 3.972 11.151 10.205 12.703 17.479 2.071 8.692 2.232 18.378-2.1 26.445-3.66 6.962-7.766 13.961-14.055 18.898-7.009 6.158-16.155 8.853-23.75 14.112-3.642 2.573-7.756 5.108-9.705 9.308-1.665 3.509.719 7.405 3.453 9.6 4.057 3.13 8.219 6.233 11.52 10.196 3.253 3.887 2.08 9.752-.568 13.64-2.005 3.319-5.703 4.927-8.295 7.66-1.977 2.299.483 4.767 2.006 6.47a15.434 15.434 0 0 1 3.461 16.022c-2.412 6.725-7.15 12.202-11.643 17.621-6.025 6.905-11.34 14.453-18.037 20.752-12.92 12.542-28.385 22.048-44.152 30.551-15.237 8.172-30.333 16.628-45.94 24.09-17.498 8.636-35.762 15.579-53.998 22.464-18.17 6.716-36.698 12.599-55.767 16.108a414.321 414.321 0 0 1-60.184 7.425c-11.36-.246-22.738.416-34.069-.416-53.989-3.651-107.637-13.715-158.94-31.024-18.651-6.517-37.776-11.587-56.286-18.52-16.638-6.327-33.615-13.572-46.347-26.445a82.103 82.103 0 0 1-20.136-30.967c-4.682-12.126-6.99-24.98-9.412-37.692-1.2-6.29-1.239-12.797-2.941-18.973-3.434-6.65-4.427-14.245-4.02-21.641.388-5.326 2.63-10.802 7.17-13.895 2.922-2.289 7.197-3.783 8.228-7.727.208-5.127-3.83-8.882-5.987-13.157-1.93-4.464-2.156-9.912.388-14.188 1.863-3.215 5.297-4.965 8.39-6.772-.596-4.568-4.824-7.585-8.93-8.9-6.08-1.93-11.964 3.026-18.046.813-1.494-3.755-.217-7.548 1.797-10.82-6.403.454-13.08-.416-18.765-3.538-5.373-3.112-7.5-9.562-7.983-15.417-.606-9.336 5.08-18.368 13.355-22.501 8.806-4.9 19.239-2.876 28.801-4.39 3.074-.784 6.81-1.664 8.323-4.795 1.826-4.332 2.393-9.136 4.749-13.26 2.544-4.493 5.826-9.128 10.896-10.925 4.076-1.608 8.531-1.116 12.806-1.106.208-4.474-.047-9.553 3.112-13.148 3.102-3.613 8.097-4.142 12.39-5.448-3.556-6.27-8.805-11.68-10.697-18.803-3.14-11.388-2.497-24.043 2.734-34.74 4.672-9.8 12.74-18.379 23.173-21.963a43.357 43.357 0 0 1 17.025-2.11c4.625.436 8.73 2.819 12.58 5.26a25.643 25.643 0 0 1 12.456-23.855c3.226-2.09 7.18-2.024 10.84-1.504-.142-5.533 1.352-11.312 5.287-15.38a32.807 32.807 0 0 1 23.116-9.911c7.057.255 12.628 5.211 17.527 9.77a29.793 29.793 0 0 0 23.164 8.115c7.812-.397 14.556-8.134 13.62-15.947-1.088-4.445-3.065-8.72-3.008-13.383a34.977 34.977 0 0 1 10.64-25.074 20.277 20.277 0 0 1 13.555-5.553c-1.192-9.146.87-18.879 6.602-26.228 6.025-7.86 13.458-15.093 22.794-18.84Z" style="fill:#b65a35"></path>
    <path d="M1088.311 550.677c13.58-2.897 27.988-2.516 41.125 2.194 7.151 2.639 14.945 4.53 20.78 9.714a379.557 379.557 0 0 0-.104 3.386c-7.065-1.362-13.885-3.85-21.082-4.578-6.962-.567-13.79-2.402-20.8-2.27-7.642.066-15.37-.473-22.908 1.088-15.871 1.769-31.127 7.311-45.258 14.613a73.05 73.05 0 0 1-19.693 7.34c.114-.445.35-1.343.464-1.788 6.242-4.691 13.298-8.124 19.9-12.267 14.538-8.882 31.018-13.9 47.576-17.432ZM1635.996 1639.997c-1.888-19.687-4.813-39.195-8.013-58.727-9.243-56.415-22.226-115.606-45.827-166.802-2.863-6.21-5.81-12.437-9.103-18.433a96.373 96.373 0 0 0-4.549-7.432q-1.226-1.82-2.524-3.588c-.236-.322-.474-.64-.712-.959-.202-.262-.54-.704-.65-.84a278.75 278.75 0 0 0-24.507-25.648c-2.421-2.295-4.876-4.596-7.335-6.916a181.1 181.1 0 0 1-23.812-22.448q-6.242-5.845-12.154-12.053a79.036 79.036 0 0 1-10.095-6.1 15.795 15.795 0 0 1-5.818-7.436c-8.428-6.455-16.544-13.327-24.597-20.235-8.673-7.387-16.136-16.013-24.487-23.74-7.208-6.725-13.82-14.027-20.573-21.197-11.728-11.927-22.965-24.336-34.958-36.008-13.402-13.034-26.71-26.153-39.782-39.527-5.07-5.363-11.123-9.827-15.72-15.597a77.646 77.646 0 0 1 6.763-5.079 464.632 464.632 0 0 1 48.02-29.482c15.39-8.758 31.374-16.637 45.78-27.013 8.304-6.763 16.131-14.518 21.3-24.034 2.953-5.44 3.82-11.596 3.64-17.678.54-9.004-5.788-16.968-13.458-20.96-18.35-9.25-38.799-12.797-58.056-19.579-16.202-6.129-32.424-12.21-48.475-18.718a140.259 140.259 0 0 1-22.274-11.785c-15.287-9.94-32.83-15.73-50.224-20.922-21.386-6.432-43.244-11.066-64.97-16.146-49.884-11.208-99.456-23.872-149.652-33.68-25.272-4.702-50.602-9.592-75.07-17.64-15.607-4.711-30.116-12.306-44.39-20.053-7.244-4.823-16.58-5.041-24.865-3.5a213.112 213.112 0 0 0-30.646 10.906c-9.24 4.238-17.696 9.97-26.152 15.56-8.116 5.627-15.446 12.267-22.984 18.623-11.89 10.158-21.811 22.322-31.714 34.343-8.238 9.79-16.212 19.825-23.504 30.343-16.269 23.816-27.931 50.442-37.787 77.455-3.698 11.322-5.77 23.079-8.55 34.646a8.883 8.883 0 0 1-2.422 4.805c-13.573 12.438-28.848 22.785-43.281 34.164-14.254 11.634-57.782 47.614-65.604 53.591-11.766 9.222-24.336 17.328-36.396 26.143-13.478 9.724-26.408 20.166-38.884 31.147a228.983 228.983 0 0 0-34.428 36.349c-10.594 13.675-18.832 28.996-25.694 44.843-19.874 28.638-30.857 62.538-39.296 96.565-11.912 48.03-21.283 96.647-29.725 145.394-4.746 27.407-9.2 54.863-13.652 82.32-.152.933-.276 1.85-.387 2.758Z" style="fill:#193857"></path>
    <path d="M906.378 894.121a28.83 28.83 0 0 1 3.945-.33 63.635 63.635 0 0 1-1.117 7.424c-.16 1.675 1.911 1.996 2.97 2.753a59.645 59.645 0 0 1-1.182 13.27c3.613 4.2 6.318 9.08 9.998 13.232 9.203 10.537 16.297 22.663 24.733 33.786 13.696 18.5 25.708 38.145 37.73 57.762 8.059 13.356 15.313 27.269 20.525 42.015a481.865 481.865 0 0 1 15.918 55.218 327.042 327.042 0 0 0 22.256 59.777c4.322 8.815 7.973 17.933 11.454 27.117 2.96 8.135 6.744 16.013 8.607 24.517.416 2.393.918 5.013-.113 7.349-2.081 1.56-4.644.68-6.687-.416-7.87-4.049-15.938-7.709-23.523-12.277-12.277-7.246-25.425-12.798-38.458-18.492-7.785-4.36-15.616-8.692-22.842-13.95-8.93-6.111-16.571-13.914-25.727-19.693-14.254-8.125-29.142-15.143-42.904-24.11-5.098-3.216-10.612-5.675-15.691-8.89-9.837-6.319-20.109-11.956-29.624-18.766-5.732-4.124-11.965-7.491-17.65-11.662-4.833-3.547-4.379-10.263-4.379-15.588-.085-8.286 4.626-15.37 7.425-22.87 7.983-22.757 19.05-44.285 26.91-67.089 2.695-8.248 6.866-15.956 8.928-24.422 6.489-24.317 14.736-48.096 22.237-72.101 1.504-4.748 2.998-9.695 6.261-13.564ZM1258.988 1003.924l2.422-.908c.51.303 1.541.927 2.052 1.23 3.074 9.477 2.204 19.579 4.162 29.264 1.768 9.1 3.632 18.208 4.54 27.449a123.982 123.982 0 0 1-10.735 64.345 214.485 214.485 0 0 1-22.691 37.881c-10.14 13.034-20.572 26.068-33.55 36.434-6.053 5.391-13.184 9.383-19.323 14.66-6.706 5.59-12.38 12.25-18.481 18.463-5.288 6.054-11.133 11.615-15.976 18.057-12.277 15.634-26.36 30.361-34.135 48.947-1.845 5.476-3.916 10.877-5.808 16.335a78.754 78.754 0 0 0-2.97-.057c-.34-11.303-3.433-22.37-2.875-33.71 1.126-23.362 6.044-46.299 10.679-69.15a429.34 429.34 0 0 1 15.644-56.571 637.786 637.786 0 0 1 34.797-75.696c5.571-9.97 12.306-19.22 18.955-28.48 11.54-16.154 28.262-27.656 45.741-36.575 8.57-4.18 17.366-8.607 27.07-9.165q.227-1.39.482-2.753Z" style="fill:#a1ae9c"></path>
    <path d="M1255.252 1013.846c1.05-.917 1.674-.7 1.864.653-1.07.898-1.694.68-1.864-.653ZM1244.725 1017.734ZM1242.701 1018.66ZM989.3 1044.236ZM990.218 1046.1ZM1005.162 1085.967c3.15-.17-1.192 2.922 0 0ZM1006.127 1088.757c3.15.255-1.58 2.724 0 0ZM1167.052 1096.305ZM1010.847 1105.952q2.014.128.766 1.816-2.043-.156-.766-1.816ZM1159.467 1111.41ZM1014.677 1121.086c1.343.123 1.58.728.71 1.835-1.353-.133-1.59-.748-.71-1.835ZM1017.553 1131.395c3.15.18-1.523 2.762 0 0ZM1021.308 1142.698c3.15.284-1.618 2.705 0 0ZM1022.216 1145.574c3.159.123-1.466 2.79 0 0ZM1143.473 1147.285Z" style="fill:#193857"></path>
    <path d="M1023.19 1148.288c3.159.132-1.476 2.79 0 0Z" style="fill:#b65a35"></path>
    <path d="M1137.599 1161.577c3.13.34-1.655 2.686 0 0ZM1028.997 1163.384ZM1136.691 1164.368c3.159.132-1.476 2.79 0 0ZM1135.707 1167.243c3.15.208-1.541 2.752 0 0ZM1031.825 1169.787ZM1032.81 1171.896ZM1131.858 1179.558c3.159-.218-1.154 2.932 0 0ZM1128.093 1192.837c3.15.057-1.41 2.828 0 0ZM1043.157 1193.717ZM1125.294 1204.291c1.333.095 1.58.71.747 1.845-1.353-.123-1.599-.738-.747-1.845ZM1048.879 1207.829ZM1124.367 1208.17c1.333.15 1.56.765.69 1.863-1.352-.17-1.58-.785-.69-1.863ZM1120.574 1226.017c1.343.133 1.57.748.7 1.845-1.353-.16-1.59-.776-.7-1.845ZM1119.742 1229.99c1.324-.293 1.56 1.996.576 2.554-1.361.274-1.589-2.024-.576-2.554ZM1118.635 1234.615c1.334.047 1.598.653.785 1.816-1.353-.076-1.618-.68-.785-1.816ZM1117.755 1239.26c1.334.113 1.57.737.72 1.853-1.353-.142-1.59-.766-.72-1.854ZM1116.894 1243.26c1.353-.284 1.533 2.015.53 2.544-1.371.265-1.56-2.043-.53-2.544ZM1114.965 1253.636c1.315-.303 1.646 1.958.653 2.535-1.343.284-1.665-1.986-.653-2.535ZM1112.222 1270.633c1.457-.01 1.438 3.5 0 3.566a2.884 2.884 0 0 1 0-3.566ZM1111.257 1282.768c-.823-1.636-.605-4.483.625-5.675.444 1.627.945 4.71-.625 5.675Z" style="fill:#193857"></path>
    <path d="M1125.757 341.466c22.031-6.064 44.757-9.042 67.495-10.32 17.688-.226 35.82-.879 52.901 4.513 6.47 2.26 13.195 3.631 19.768 5.59 9.591 2.553 18.737 6.488 28.007 9.997 7.32 2.762 13.989 6.895 20.884 10.518 11.549 6.337 23.154 12.806 33.284 21.319 9.298 7.718 18.917 15.105 27.41 23.75 8.844 8.229 16.6 17.508 23.987 27.042 5.023 5.4 6.734 12.768 10.414 19.002 10.101 19.21 14.405 40.614 19.91 61.413 1.002 3.415.548 6.99.388 10.49-.398 6.933.53 13.847.86 20.76-.047 8.816.454 17.698-1.078 26.428-1.617 12.371-4.55 24.525-7.037 36.746-2.062 12.22-5.23 24.289-5.798 36.717l-.407.634c-3.187 4.568-3.339 10.338-5.202 15.446-4.597 13.714-8.285 27.703-12.088 41.645-.898.028-1.787.066-2.658.113-4.322 7.993-8.465 16.118-13.459 23.722-4.928 6.952-10.555 13.374-16.06 19.872-6.054 6.3-11.01 13.554-17.29 19.645-5.07 5.458-11.332 9.553-17.167 14.112-13.072 10.414-27.855 19.352-37.38 33.474-4.89 5.6-7.567 12.825-12.94 17.97-7.15-4.02-12.92-9.912-19.521-14.66-11.993-6.961-25.812-10.149-39.451-11.936a307.74 307.74 0 0 0-43.301-.492c-12.986 1.333-26.077 2.43-38.78 5.57-14.575 2.829-28.517 8.022-42.827 11.852-3.935.984-8.995 1.618-11.965-1.816-7.056-8.03-9.477-18.784-14.642-27.93-8.247-15.125-20.402-27.477-31.458-40.502a122.88 122.88 0 0 0-9.96-9.893c-7.765-6.715-15.143-13.857-22.757-20.733-7.028-6.242-15.938-9.742-23.306-15.502a59.34 59.34 0 0 1-16.694-20.194 84.916 84.916 0 0 1-7.415-25.85c-.378-5.807-1.778-11.463-3.13-17.1.992-7.17 2.42-14.368 2.222-21.65-.237-7.908.52-15.806.104-23.704.047-9.146-1.362-18.255-.747-27.41-.029-18.756 1.589-37.456 3.528-56.089 1.409-8.9 4.35-17.45 6.62-26.143a206.792 206.792 0 0 1 11.039-30.9c5.902-14.784 15.36-27.733 24.506-40.624 6.583-8.182 13.09-16.515 20.856-23.618 11.029-9.94 22.35-19.872 35.498-26.9 4.076-1.333 7.755-3.556 11.652-5.325 17.007-8.2 35-14.043 53.185-19.049Z" style="fill:#f2844f"></path>
    <path d="M838.987 595.056c17.249-7.377 37.616-10.575 55.256-2.838 6.366 3.112 13.11 5.883 18.36 10.792 4.01 3.576 6.251 8.598 8.407 13.412 3.528 8.56 8.532 16.439 12.211 24.923.36 5.562.048 11.142.123 16.713.114 12.003-1.428 23.94-1.778 35.923-1.9 18.577-4.152 37.115-6.62 55.625-.918 8.882-2.725 17.65-3.302 26.569-.473 7-2.62 13.696-4.445 20.42-2.61 5.316-5.95 10.5-6.545 16.543-1.05 4.749.444 10.414-3.197 14.302a151.06 151.06 0 0 1-14.131-6.46c-9.96-3.708-20.534-5.884-29.964-10.953a79.516 79.516 0 0 1-21.755-15.824c-5.325-5.789-9.78-12.306-14.585-18.52a215.09 215.09 0 0 1-26.843-51.785c-2.667-7.245-4.114-14.84-5.95-22.312a98.354 98.354 0 0 1 2.29-47.907c4.067-15.21 11.095-29.804 21.49-41.702 5.854-6.858 12.556-13.32 20.978-16.921Z" style="fill:#f95939"></path>
    <path d="M933.221 641.345a13.524 13.524 0 0 0 9.071 6.763q6.71 1.249 13.355 2.856c.52-2.705 1.05-5.4 1.646-8.087 1.353 5.638 2.753 11.294 3.13 17.101a84.916 84.916 0 0 0 7.416 25.85 59.34 59.34 0 0 0 16.694 20.194c7.368 5.76 16.278 9.26 23.306 15.502 7.614 6.876 14.992 14.018 22.757 20.733a122.88 122.88 0 0 1 9.96 9.893c11.056 13.025 23.21 25.377 31.458 40.501 5.165 9.147 7.586 19.901 14.642 27.931 2.97 3.434 8.03 2.8 11.965 1.816 14.31-3.83 28.252-9.023 42.828-11.851 12.702-3.14 25.793-4.238 38.779-5.571a307.74 307.74 0 0 1 43.3.492c13.64 1.787 27.459 4.975 39.452 11.936 6.602 4.748 12.371 10.64 19.522 14.66 5.372-5.145 8.049-12.37 12.94-17.97 9.524-14.122 24.307-23.06 37.379-33.474 5.835-4.559 12.097-8.654 17.167-14.112 6.28-6.09 11.236-13.345 17.29-19.645 5.505-6.498 11.132-12.92 16.06-19.872 4.994-7.604 9.137-15.73 13.46-23.722.87-.047 1.759-.085 2.657-.113-2.08 6.47-4.379 12.854-6.412 19.333-6.65 18.32-17.168 34.854-27.014 51.558-8.815 16.145-18.188 32.187-23.863 49.78-1.94 5.807-4.04 11.586-5.26 17.602a6.283 6.283 0 0 0 .474 3.991l.066.227a175.175 175.175 0 0 0-21.017 56.448c-1.541 8.522-3.348 16.997-5.211 25.453-2.885 13.043-7.85 25.49-13.28 37.653a162.477 162.477 0 0 1-9.222 19.135c-7.132 13.677-19.598 23.485-32.026 32.111-9.979 6.517-20.27 12.684-31.468 16.874-4.616 2.194-9.743 3.273-14.112 5.94-4.398-1.031-8.73.823-13.072 1.296-9.023 1.806-18.255 1.995-27.42 2.071-8.162 0-16.363.076-24.478-.927-8.55-1.617-17.252-2.667-25.49-5.609-10.622-2.724-20.08-8.512-29.256-14.32-6.507-5.155-13.95-8.995-20.127-14.566-4.71-4.209-10.007-7.69-14.632-11.993-12.495-12.078-24.12-25.017-36.198-37.503-6.299-8.446-14.433-15.247-21.007-23.447-7.377-8.938-16.155-16.6-23.684-25.386-5.57-7.35-11.955-14.056-17.148-21.68-8.342-12.531-16.92-25.13-22.057-39.393-3.736-10.773-10.12-20.421-13.497-31.336-2.213-6.545-3.5-13.365-5.845-19.872 1.825-6.725 3.972-13.422 4.445-20.421.577-8.92 2.384-17.687 3.301-26.569 2.469-18.51 4.72-37.048 6.621-55.625.35-11.983 1.892-23.92 1.778-35.923-.075-5.57.237-11.151-.123-16.713Z" style="fill:#b06642"></path>
    <path d="M1411.543 661.51c1.796-5.131 2.015-10.877 5.202-15.445 4.389 1.977 9.317 1.598 14.008 1.485a166.907 166.907 0 0 1 19.816.218c2.582.236 5.353.293 7.699 1.56 2.989 2.28 4.303 5.968 6.3 9.052a34.558 34.558 0 0 1 5.201 13.875 128.639 128.639 0 0 1-2.743 31.213c-2.695 10.735-6.848 21.035-10.64 31.412a136.998 136.998 0 0 1-10.045 21.196c-5.865 8.598-11.01 17.678-17.28 25.991a153.883 153.883 0 0 1-31.564 30.097 205.379 205.379 0 0 1-24.175 16.42c-8.702 4.597-18.028 7.86-27.014 11.851-3.14 1.42-7.273 1.42-8.928 4.985a6.283 6.283 0 0 1-.473-3.991c1.22-6.016 3.32-11.795 5.259-17.602 5.675-17.593 15.048-33.635 23.863-49.78 9.846-16.704 20.364-33.237 27.014-51.558 2.033-6.479 4.331-12.863 6.412-19.333 3.803-13.942 7.31-27.993 12.088-41.645Z" style="fill:#f95939"></path>
    <path d="M910.654 813.138c.596-6.043 3.934-11.227 6.545-16.542 2.346 6.507 3.632 13.327 5.845 19.872 3.377 10.915 9.761 20.563 13.497 31.336 5.136 14.263 13.715 26.861 22.057 39.394 5.193 7.623 11.577 14.33 17.148 21.679 7.53 8.787 16.307 16.448 23.684 25.386 6.574 8.2 14.708 15.001 21.008 23.447 12.078 12.486 23.702 25.425 36.197 37.503 4.625 4.304 9.922 7.784 14.632 11.993 6.176 5.571 13.62 9.411 20.128 14.566 9.174 5.808 18.633 11.596 29.254 14.32 8.239 2.942 16.94 3.992 25.491 5.61 8.115 1.002 16.316.926 24.478.926 9.166-.076 18.397-.265 27.42-2.071 4.342-.473 8.674-2.327 13.072-1.296-1.305 4.171-3.424 8.02-4.833 12.154-2.62 7.595-4.947 15.332-8.541 22.54-5.571 11.435-8.778 23.92-15.238 34.939-4.303 7.131-8.011 14.594-12.24 21.764-5.39 8.805-10.62 17.725-16.003 26.54-4.483 7.359-7.945 15.275-12.277 22.72-8.578 15.577-12.21 33.16-15.814 50.393-3.992 22.635-8.825 45.127-11.937 67.912-1.683 8.985-2.052 18.17-3.963 27.127a14.096 14.096 0 0 1-4.18.132c-8.05-15.758-16.524-31.307-26.068-46.223-3.859-6.507-8.314-12.665-11.69-19.447-4.295-8.55-8.75-17.025-13.545-25.3a214.131 214.131 0 0 1-15.389-30.76 231.93 231.93 0 0 0-20.648-43.877c-4.691-7.775-9.004-15.9-11.34-24.715-2.724-8.844-4.38-17.962-6.943-26.843-3.33-12.145-5.382-24.696-10.026-36.453-10.29-24.913-29.35-44.615-43.262-67.391-4.153-5.675-6.943-12.126-9.63-18.567-4.7-10.007-7.774-20.638-11.661-30.957-5.06-14.112-13.866-26.456-19.4-40.34-2.686-6.404-1.172-13.413-.737-20.08.804-12.6 2.005-25.198 1.759-37.835-.019-9.751.038-19.503-.047-29.254 3.641-3.888 2.147-9.553 3.197-14.302Z" style="fill:#e56324"></path>
    <path d="M1106.358 1315.523c3.093.208-1.504 2.818 0 0Z" style="fill:#fcc996"></path>
    <path d="M1073.253 386.705a97.23 97.23 0 0 1 38.458-12.087c-.104.889-.208 1.787-.293 2.696a105.601 105.601 0 0 0-45.504 19.919 22.734 22.734 0 0 1-6.48 3.575c0-.624-.018-1.882-.018-2.506 4.114-4.399 8.526-8.653 13.837-11.597Z" style="fill:#feb48e"></path>
    <path d="M1149.299 499.46c7.5-.17 14.623 2.629 21.584 5.079a30.392 30.392 0 0 1 10.376 6.015c-1.806 2.686-4.247.057-6.346-.596-8.277-3.424-17.385-4.17-25.68-7.557.019-.984.038-1.968.066-2.942Z" style="fill:#fdb58f"></path>
    <path d="M1101.922 512.644c12.57-4.067 26.133-2.714 38.742.473 8.219 2.185 17.044 3.86 23.769 9.459.047.52.15 1.56.208 2.08a22.335 22.335 0 0 1-4.852-1.409c-7.312-3.414-15.352-4.72-23.211-6.214-11.417-2.119-23.06-1.939-34.609-2.156-.019-.558-.038-1.675-.047-2.233Z" style="fill:#feb58f"></path>
    <path d="M1223.264 530.947c.473.009 1.419.018 1.892.018-.303 6.735-.738 13.46-.464 20.204.35 13.468-3.027 26.73-7.5 39.328-.984.085-1.949.17-2.914.255 2.346-8.9 3.453-18.056 4.417-27.193 1.637-10.849.473-22.208 4.569-32.612Z" style="fill:#b85c37"></path>
    <path d="M1239.334 531.817c.908-.076 1.816-.142 2.743-.208 1.891 13.166 1.825 26.767-1.192 39.753-2.11 6.924-4.039 14.188-8.579 19.995l-1.882-.189c5.703-12.154 6.838-25.83 7.548-39.054.265-6.772.283-13.591 1.362-20.297Z" style="fill:#b85b39"></path>
    <path d="M1077.226 551.471a94.263 94.263 0 0 1 20.62-2.289 123.29 123.29 0 0 1 45.589 12.23c10.281 5.335 19.995 11.7 30.409 16.789 2.875 1.683 6.715 3.15 7.396 6.838.397 2.838-.217 6.186-2.639 8.002-2.78 2.005-6.28 2.478-9.553 3.112a73.718 73.718 0 0 1-24.753-.104c-8.247-1.324-16.533-2.469-24.63-4.521-8.786-2.431-17.478-5.221-26.303-7.539-9.411-2.355-19.163-2.317-28.782-2.44a107.321 107.321 0 0 0-32.613 2.232c-6.072 1.542-12.23 2.677-18.368 3.888-1.57.416-2.97-.662-4.35-1.173-.01-.87-.02-1.731-.01-2.582 4.956-3.708 11-5.288 16.202-8.532 16.41-9.619 33.155-19.427 51.785-23.91ZM1315.2 579.941c8.48-.871 17.11-1.513 25.566-.028 4.9.88 10.045 1.608 14.291 4.407a72.808 72.808 0 0 1 11.823 9.865c4.786 4.74 8.125 10.726 13.034 15.36 4.88 4.437 8.9 9.686 12.854 14.936l.653-.076c-.104.946-.19 1.901-.265 2.856-4.947.663-9.742-.908-14.32-2.582-14.14-4.19-28.65-9.07-43.613-7.51-13.535 1.457-27.146 2.923-40.766 2.223-14.963-1.589-29.945-4.294-44.038-9.657l-.066-1.712c.01-1.362-.048-2.714-.01-4.058l.038-1.806c10.385-5.23 19.957-12.286 31.27-15.465a189.013 189.013 0 0 1 33.549-6.753Z" style="fill:#38312d"></path>
    <path d="M1246.21 608.837a21.925 21.925 0 0 1 4.133-4.872c-.038 1.344.02 2.696.01 4.058-2.119 4.266-3.055 8.967-4.616 13.45-4.03 11.066-4.559 23.164-3.216 34.788.776 13.781 2.904 27.439 4.408 41.163a245.484 245.484 0 0 0 10.319 48.929c1.646 5.58 3.745 11.397 2.667 17.29-.577 3.698-3.074 7.226-6.867 8.096-9.193 2.554-18.49-.86-27.59-2.213-9.581-2.308-19.484-3.169-28.962-5.827.02-1.286.057-2.572.095-3.84a16.644 16.644 0 0 1 7.15-.615c8.021 1.183 16.014 2.592 23.921 4.399 8.418 1.466 16.93 5.637 25.51 2.553 1.503-3.764 1.03-7.822-.294-11.558-4.786-13.885-8.938-28.035-11.236-42.563-1.485-10.782-3.216-21.537-4.455-32.348-1.958-14.509-3.708-29.283-1.769-43.887a137.615 137.615 0 0 0-28.82-2.175 42.509 42.509 0 0 1-7.283-.34c.066-1.013.151-2.025.237-3.027a40.673 40.673 0 0 1 10.848-1.098c8.418.511 16.893 1.39 25.027 3.793a60.716 60.716 0 0 1 2.781-9.808c.284-.785.577-1.57.88-2.336a36.218 36.218 0 0 1 7.122-12.012Z" style="fill:#b75a35"></path>
    <path d="M1057.552 612.232c3.188-.86 7.066-1.712 10.064.16 3.206 2.053 3.774 6.225 3.821 9.715-.425 5.476-1.182 11.19-4.02 16.013-1.9 3.178-5.504 5.77-9.363 4.956-4.512-.842-7.132-5.382-7.85-9.581a29.713 29.713 0 0 1 2.94-16.373 9.556 9.556 0 0 1 4.408-4.89Z" style="fill:#160e0b"></path>
    <path d="M1198.473 619.43c8.948-4.635 19.305-3.83 28.867-1.892a50.861 50.861 0 0 1 11.748 3.31 85.385 85.385 0 0 0-.88 2.337c-4.843-2.232-10.281-2.384-15.483-3.055a61.948 61.948 0 0 0-24.545 1.854c.076-.643.227-1.91.293-2.554Z" style="fill:#bf6542"></path>
    <path d="M1145.913 252.178c-2.403.918-3.415 3.424-4.616 5.477a3110.31 3110.31 0 0 1-3.452-.17c.974-3.746 2.647-7.686 1.362-11.596-1.135-3.454-4.38-7.227-8.37-6.073a17.605 17.605 0 0 0-3.633 3.48c-.794-.018-1.57-.037-2.336-.056-.217-2.828-.54-5.75-2.677-7.831-2.09.208-4.414-.212-6.261.955-4.155 2.623-7.652 7.056-7.416 12.249.757.87 1.533 1.75 2.299 2.63l-.416 2.666c-5.278-.321-6.844-6.898-5.06-11.075 2.575-6.034 8.105-12.143 15.275-11.483 3.266.3 5.476 2.752 7.254 5.221 2.932-1.107 6.48-1.882 9.298-.028 4.246 2.667 6.053 7.86 5.959 12.693 2.828-1.334 6.138-2.374 9.203-1.107 3.565 1.76 5.202 6.073 4.786 9.884-.02 3.027-1.816 6.555-5.25 6.46 1.627-3.178 2.913-6.999 1.069-10.394-.937-2.904-4.691-3.14-7.018-1.902Zm76.206-6.866c1.883 1.835 2.185 4.672 1.76 7.14-1.41 2.763-4.19 4.919-3.983 8.314 3.046.379 4.512-2.08 6.14-4.142 1.125-1.608 3.083-.246 4.596-.142 1.267 3.32 1.523 6.876 2.081 10.348l1.088 1.012c3.007-.625 6.034-1.39 9.146-1.031 4.03 5.287 3.197 12.58.605 18.311.653 0 1.958-.01 2.601-.01 3.027-6.034 4.62-14.422-.501-19.853-2.697-2.859-6.839-2.411-10.158-1.182-.445-4.19-1.07-8.73-4.767-11.36-1.183-.037-2.346-.075-3.51-.104-.142-3.329.142-7.32-2.705-9.675-3.594-2.99-9.118-1.079-11.633 2.373-.549 1.656-.029 3.415.047 5.108.321-1.002.652-2.005.974-3.008 2.355-1.655 5.269-3.367 8.22-2.1Zm-30.096 29.87q-1.178-2.597-2.28-5.203c-7.481-3.339-15.2 6.063-12.002 13.015.463.076 1.409.227 1.872.293-.662-4.937 3.093-10.811 8.57-9.912.671 3.49-1.93 6.157-3.14 9.174.718.436 2.156 1.306 2.884 1.74a43.914 43.914 0 0 0 3.433-4.776c.52-.321 1.542-.955 2.053-1.267a10.454 10.454 0 0 1 6.072 6.139c-1.002 4.445-2.979 9.155-7.415 11.113-3.3 1.438-7.293 3.547-10.81 1.721.709.975 1.324 2.015 1.957 3.055 5.58-.86 11.624-2.184 15.474-6.677 3.206-3.263 3.537-8.248 2.582-12.495-1.23-3.897-5.477-5.675-9.25-5.92Zm-64.29 13.563c-4.445-1.06-8.332 1.74-12.2 3.395-.35-.615-1.031-1.863-1.382-2.478a27.842 27.842 0 0 0-6.157-1.021c-.804-1.192-1.38-2.61-2.582-3.462-2.932-1.173-6.181.353-8.276 2.468-3.361 3.394-6.262 8.608-3.434 13.167 1.495.104 2.999.208 4.512.302.028-.416.095-1.248.123-1.664-.558-.417-1.684-1.258-2.251-1.675 1.447-3.395 3.746-7.093 7.699-7.755-1.702 3.045-4.7 5.74-3.935 9.571 1.552-.454 3.614-.245 4.531-1.872 1.74-1.816 2.639-5.316 5.713-5.051 2.913-.653 3.112 3.14 4.446 4.88 3.83-2.364 7.746-5.807 12.607-5.003 2.687.151 4.247 2.762 4.796 5.126.68 2.327-1.069 4.276-2.024 6.234.643.019 1.92.066 2.563.085 5.202-4.692 1.939-14.131-4.748-15.247Zm126.1 21.215c-1.504-2.894-3.178-6.403-6.687-7.15-6.384-.909-12.012 3.461-16.117 7.86-1.276-2.45-3.064-4.607-5.892-5.184a13.166 13.166 0 0 0-2.204-6.555c-4.332-.283-7.52 2.819-9.648 6.234.104.747.303 2.241.398 2.988a35.186 35.186 0 0 1 7.462-5.845c1.845 4.171-2.327 7.179-4.02 10.527.71.398 2.128 1.192 2.828 1.59a67.325 67.325 0 0 1 4.74-5.496c3.622-1.75 3.574 3.566 4.388 5.76 3.414-1.03 5.4-4.256 8.313-6.12 2.933-1.929 6.565-3.632 10.13-2.657 2.545 1.693 3.056 5.022 4.276 7.623 3.906-.577 6.167-4 8.957-6.403-.038-.397-.104-1.192-.142-1.599-2.25 1.495-4.521 2.96-6.781 4.427Zm-81.342-8.72c-2.09 1.37-4.2 2.723-6.337 4.01.038 2.62.586 5.287.085 7.888a10.242 10.242 0 0 1-9.856 6.895c-.416-.567-1.238-1.702-1.655-2.27 1.144-4.17 3.963-7.49 6.28-11.038-4.615-.463-8.18 3.103-10.214 6.839-.88-.105-1.741-.2-2.592-.303 1.201-4.446 3.906-8.986 8.522-10.452 2.81-.86 5.542.587 8.267 1.126a39.06 39.06 0 0 0 4.738-2.942c.69.067 2.072.18 2.762.246Zm-9.723 8.672c-2.904 1.05-3.717 4.162-4.172 6.858a9.01 9.01 0 0 0 4.172-6.857Zm177.761 6.423c-.198.927-.397 1.863-.577 2.8 1.684-.133 3.377-.237 5.07-.34 1.513 3.518 3.5 8.975-.908 11.254a71.519 71.519 0 0 0-.047 3.179c1.021.01 2.062.018 3.111.037 3.755-4.057 3.85-10.432 1.75-15.285-1.57-3.376-5.552-2.695-8.399-1.645Zm-336.493 6.592c4.011-1.466 7.36 1.57 9.544 4.588.7-.01 1.41-.01 2.128-.02 2.024-2.581 3.897-6.147 7.652-6.176 3.065 3.547 3.348 8.277 4.644 12.58a28.569 28.569 0 0 0 .265-8.465c-.634-2.753-2.828-4.7-4.578-6.772-2.128.198-4.672-.076-5.987 1.995-1.267.937-2.1 3.235-3.878 2.98-2.63-1.835-5.117-5.25-8.74-4.304-4.814 1.192-6.12 6.659-7.377 10.773-3.197-2.052-7.122-4.123-10.925-2.374-4.842 3.226-6.573 9.515-5.977 15.068.917.009 1.835.028 2.762.037.302-4.398 1.806-9.26 5.637-11.823 4.436-1.182 7.595 2.819 10.433 5.505 2.033-2.194 1.447-5.306 2.165-7.992a46.69 46.69 0 0 1 2.232-5.6Zm76.917 5.6c-.795-.066-1.59-.123-2.374-.17a63.066 63.066 0 0 1-4.862 8.73c-1.23-.048-2.46-.085-3.67-.133a175.523 175.523 0 0 1-2.383-6.45c-1.04-.038-2.081-.067-3.113-.095-1.428 2.402-2.54 5.133-4.738 6.97-1.384 1.158-3.292.578-4.919.682-1.172-1.948-2.752-3.869-2.761-6.261-.35-3.424 1.163-6.612 2.478-9.667 1.38.586 2.743 1.24 4.142 1.835-.444-1.75-.85-3.49-1.286-5.221-1.57.246-3.518-.218-4.672 1.135-5.4 5.694-6.006 17.053 1.589 21.196 4.256 2.223 9.042-.51 11.35-4.247 1.93 2.025 4.417 4.588 7.538 3.528 3.699-.671 5.373-4.37 7.009-7.32a27.187 27.187 0 0 0 6.791.132c2.743-.89 4.757-3.093 6.838-4.985-.132-.539-.406-1.608-.538-2.137-3.15 3.187-8.608 6.715-12.42 2.478Zm241.17-3.84c-2.307.671-4.502 1.674-6.81 2.308-1.617-3.178-4.937-5.43-8.598-4.767-3.622.624-8.74 2.714-8.049 7.235 3.784-1.967 8.267-4.502 12.438-2.005.227.643.681 1.92.899 2.563-1.854 2.12-4.786 4.18-4.048 7.416.01 2.563 3.603 2.932 5.173 1.447 3.14-1.949 3.027-6.025 3.594-9.241a29.867 29.867 0 0 1 12.552-4.663c-2.374-.237-4.786-.72-7.15-.293Zm14.263 24.61a22.445 22.445 0 0 0-5.4-.227c-.104 1.07-.19 2.147-.274 3.235 1.191-.085 2.393-.16 3.603-.236a50.208 50.208 0 0 1 2.29 5.155c-.493 1.22-.956 2.45-1.4 3.688 1.011-.085 2.042-.17 3.083-.245a9.59 9.59 0 0 0-1.902-11.37Zm-315.22 7.265c-2.96.085-4.749 2.705-6.933 4.294a17.98 17.98 0 0 1-3.613-.956c-6.867.663-12.126 7.908-10.726 14.652l1.655.264c.274-5.6 4.7-9.76 9.648-11.7-.02 2.015-.095 4.02-.123 6.044l2.582-.142c1.466-5.92 7.756-10.536 13.818-8.106a17.24 17.24 0 0 1-1.05 5.827c1.183-.265 2.375-.502 3.576-.738.066-2.421 1.088-5.363-.795-7.35-1.863-2.468-5.277-2.335-8.04-2.09Zm-75.658 28.81c4.253-.246 7.784-2.838 11.02-5.354 1.9 1.693 4.047 3.623 6.8 3.425 5.088-.35 9.23-3.765 12.078-7.775a221.912 221.912 0 0 1-.047-3.547 19.976 19.976 0 0 1-12.022 8.38c-1.683-.89-5.306-2.128-3.963-4.616 1.06-3.046 3.745-6.47 1.589-9.647-1.22-1.438-3.017-.095-4.502.037-2.28 3.32-2.308 7.302-1.882 11.142-2.62 2.204-5.354 4.976-9.052 4.872-4.36.416-8.38-2.942-9.279-7.113-1.239-3.963-.17-8.059.728-11.956-1.125.01-2.241.01-3.348.02a22.434 22.434 0 0 0-.473 12.986 12.505 12.505 0 0 0 12.353 9.146Zm470.916 12.41a21.233 21.233 0 0 1 15.956-11.748c-.066-.482-.18-1.447-.236-1.93-6.006-.17-11.407 2.942-15.626 6.98-1.91-1.768-3.925-3.81-6.658-4.076-3.122-.586-5.96 1.05-8.655 2.337-2.052-2.214-4.012-5.3-7.368-5.43-4.034-.157-7.368 2.44-9.979 5.184-.019.936-.019 1.872-.01 2.809.767-.057 1.552-.104 2.347-.16 2.402-4.182 9.505-5.506 11.794-.502-1.012 2.364-2.137 4.72-1.976 7.368a36.721 36.721 0 0 0 3.036-.18c2.137-1.4 2.345-4.19 3.215-6.375 2.829-1.021 6.11-2.98 9.033-1.144 3.34 1.03 1.712 5.892 5.127 6.866Zm-450.912 15.87c-3.698-2.856-8.39-2.184-12.475-.69-.86-1.107-1.731-2.213-2.583-3.32-4.379-1.069-9.467 1.845-9.477 6.63.492.02 1.485.067 1.977.086 1.977-1.864 4.323-3.623 7.18-2.715a78.062 78.062 0 0 0-.417 9.402c1.154-.057 2.317-.095 3.49-.142a32.312 32.312 0 0 1 1.788-5.959c2.09-2.033 5.174-1.73 7.84-1.551.474.946.956 1.892 1.438 2.847 1.022.047 2.053.095 3.094.151a112.432 112.432 0 0 1 3.716-6.895c.72.057 2.166.18 2.885.237.36.927.72 1.853 1.098 2.79.113-1.24.236-2.478.359-3.708-.672-.738-1.324-1.485-1.977-2.223-3.736-.624-6.148 2.233-7.936 5.06Zm454.194 7.378a9.64 9.64 0 0 0 1.192-8.503c-2.82-1.286-5.58-.217-7.974 1.38.019.691.066 2.063.085 2.744 1.551-.199 3.103-.398 4.673-.587a54.107 54.107 0 0 0-2.932 7.766c2.166.473 4.464.624 6.516 1.56 1.75 1.306 2.015 3.85 1.277 5.79a14.076 14.076 0 0 1-8.115 6.478c-.076.416-.208 1.23-.274 1.636 6.479.72 14.074-5.514 12.23-12.38-.842-3.16-3.765-4.947-6.678-5.884Zm27.656-1.551a21.238 21.238 0 0 0 10.281-6.839c1.697-2.126 1.06-4.975 1.107-7.462a188.292 188.292 0 0 1-2.459-1.986 32.823 32.823 0 0 0 2.119-5.174 4.379 4.379 0 0 0-4.153-5.306c-3.386-.142-5.836 2.544-8.02 4.729.028 1.23.066 2.45.123 3.689.473.066 1.418.189 1.891.255l.151-2.667a48.586 48.586 0 0 1 5.837-2.431c.35 4.332-4.578 5.959-5.42 9.837 2.317-.038 4.653-.19 6.99-.218-.02 2.138.53 4.682-1.249 6.318a22.373 22.373 0 0 1-12.258 6.65c-1.135-.17-2.26-.35-3.377-.52a155.285 155.285 0 0 0-.425 3.026c3.055.066 6.204-.198 8.862-1.901Zm-512.155 47.16c-6.007.371-11.236-3.244-15.331-7.208a15.192 15.192 0 0 1-12.325-7.292c-2.317-4.275-3.726-9.298-2.762-14.16.52 3.16.993 6.328 1.59 9.468 1.409 2.308 2.685 4.777 4.71 6.63 2.08 1.864 4.871 2.536 7.453 3.415-.208-3.565-.974-7.529 1.192-10.678 1.324-2.592 4.738-4.9 7.529-3.017 3.15 1.712 3.215 5.845 2.79 8.957-.464 3.15-3.604 4.795-6.139 6.129a16.217 16.217 0 0 0 10.178 5.646c3.32.491 5.798-2.118 8.758-3.074-1.73 2.63-4.327 4.978-7.643 5.184Zm-13.137-9.828c3.093-.567 4.88-3.159 5.959-5.902a934.123 934.123 0 0 1-2.138-4.303l-1.863-.038Zm522.048 16.997c2.984-3.879.284-9.506-3.632-11.653 1.797-2.563 3.433-5.552 2.232-8.74-.672-.302-2.024-.907-2.696-1.21a27.188 27.188 0 0 0-5.173 3.717c.113 1.173.236 2.355.369 3.538 1.324-1.135 2.61-2.251 4-3.32-.312 4.095-4.88 5.656-5.561 9.534a30.94 30.94 0 0 1 5.845-.114c1.646 1.883 3.036 5.212.814 7.198-2.346 2.157-5.486 3.093-8.343 4.342.02.52.048 1.55.067 2.071 4.35-.7 9.257-1.696 12.078-5.363Zm-541.854 3.869c-3.793.302-6.839 3.66-10.773 2.761-4.682-.34-7.864-4.086-10.802-7.282-5.438-5.916-16.561-2.715-18.415 4.918.482-.057 1.447-.16 1.93-.218 2.912-3.376 7.68-5.873 12.134-4.142 3.718 2.515 6.166 6.8 10.632 8.295a14.239 14.239 0 0 0 15.294-4.332Zm555.88 13.582c2.45-4.18 7.54-7.406 12.486-6.054-.728 2.753-1.826 5.382-2.81 8.05 3.728.68 6.622-4.247 10.235-1.826 1.759 2.667 1.362 6.025 1.532 9.07.851.03 1.721.067 2.601.114.738-3.868 1.466-8.512-1.532-11.634-1.504-1.759-3.916-1.787-6.016-1.948-.378-1.485-.737-2.97-1.059-4.464-1.948-1.315-4.18-2.753-6.62-1.92a16.188 16.188 0 0 0-10.689 10.517c.473.029 1.41.076 1.873.095ZM943.9 510.629c.463-3.735 1.58-7.358 2.185-11.066-1.201-.019-2.384-.028-3.566-.037-1.22 4.142-2.913 8.37-2.355 12.778.482 3.433 2.932 6.082 4.956 8.73-1.513 4.814-6.422 7.614-7.765 12.476-2.724 2.78-3.169 8.455 1.154 9.94a31.675 31.675 0 0 1 .01-8.72 29.913 29.913 0 0 1 5.258-6.082c1.863-1.674 4.332-3.13 4.9-5.77 1.02-4.89-5.524-7.387-4.777-12.248Zm516.184 24.48c-2.45-2.309-4.588-4.957-7.435-6.792.994-3.036 2.904-5.84 3.112-9.09.125-1.942-1.929-2.705-3.074-3.811.55-2.772 2.128-5.827.624-8.56-.841-2.204-3.622-2.346-5.58-2.043-3.443.747-5.732 3.68-7.803 6.3 3.689 0 6.772-2.64 10.527-2.318-.473 2.033-.435 4.36-1.778 6.082-1.419 1.75-3.017 3.395-3.878 5.523.615.029 1.825.095 2.43.123a80.198 80.198 0 0 1 5.07-2.393c.331 4.124-2.932 7.463-2.42 11.615 3.168 2.762 5.949 5.93 8.91 8.91 5.362.17 10.309-2.128 14.792-4.852-4.606-.52-8.957 2.885-13.497 1.305Zm45.173-26.863a15.554 15.554 0 0 1-7.775 2.838c-2.884.236-5.372-1.873-8.21-1.769-5.116 1.343-9.089 5.722-14.584 5.883.018-.652.066-1.967.085-2.62-.918.133-1.826.265-2.715.407a75.44 75.44 0 0 0-.16 3.3c.7.786 1.418 1.58 2.147 2.375 5.712 1.286 10.498-2.336 15.322-4.7 2.904.132 5.647 1.966 8.617 1.229 3.395-.398 6.261-2.403 8.862-4.493.01-.89.038-1.769.076-2.639l-1.665.19Zm-606.36 4.796c-3.336.622-5.41 3.47-8.05 5.296a9.33 9.33 0 0 1 5.6-7.547 15.613 15.613 0 0 1 18.16 5.145c3.282-1.372 6.13-4.095 10.017-3.282a52.915 52.915 0 0 0-8.863 6.422c.417 4.843 1.73 10.253-1.088 14.642-2.184 3.537-8.786 4.209-10.12-.398-.473-6.147 3.755-11.274 7.879-15.322-2.819-4.398-8.595-5.878-13.535-4.956Zm13.024 10.045c-2.052 3.32-5.05 6.743-4.067 10.952 1.57-.435 3.641-.17 4.71-1.683 1.76-2.828 1.04-6.319 1.135-9.468-.444.047-1.333.151-1.778.199Zm544.843 52.106a19.58 19.58 0 0 1-8.75-7.879c1.391-2.582 3.027-5.022 4.494-7.567 1.153-1.863.473-4.142.454-6.185-1.514-.048-3.018-.095-4.503-.123.52 1.2 1.07 2.402 1.637 3.603-2.27 3.869-6.262 7.803-4.71 12.703 1.484 3.3 4.634 5.495 7.585 7.415 5.05 3.131 11.36 2.327 16.798.757.095-.435.284-1.286.379-1.712-4.455-.01-9.156.766-13.384-1.012Zm-527.648 12.381c-2.534-1.107-3.934-3.642-5.968-5.382-1.598-1.154-3.65-1.277-5.504-1.74-.597-3.424.264-6.924-.492-10.32-.445-1.456-1.079-3.537-2.914-3.565-4.161-.568-7.216 4.322-11.492 2.998-4.161-3.3-1.806-9.137-1.768-13.582-.993.16-1.977.322-2.96.492-1.297 5.088-2.423 11.714 2.184 15.493 4.243 3.48 9.42.047 13.554-1.854.388 3.395.17 6.857.908 10.205.804 2.705 3.991 3.008 6.233 3.926 1.75 2.298 3.49 4.87 6.271 6.015 2.034.643 4.219.237 6.318.199.151-.899.303-1.788.454-2.677-1.608-.076-3.263.255-4.824-.208Zm-48.587-24.545c.227 2.393.804 4.881.056 7.246-.747 2.563-2.932 4.265-4.71 6.11-.738-.029-2.194-.076-2.932-.104.076.52.208 1.56.284 2.071 4.237.085 8.04-2.743 9.912-6.432 1.268-2.865.681-6.11-.256-8.976-.586.02-1.768.067-2.354.085Zm560.26 44.01c.614-4.766 4.833-8.096 5.892-12.778-1.248-.076-2.468-.123-3.689-.17-2.478 4.076-6.479 7.746-6.62 12.826.274 4.596 4.01 7.992 7.604 10.375 2.998 1.968 6.697 1.268 9.979.587-.066-.851-.123-1.693-.17-2.535-5.44.312-11.36-2.96-12.996-8.304Zm-3.699 16.44c-.936.047-1.854.084-2.761.141-1.05 2.28-2.668 4.654-2.1 7.293.36 2.6 2.534 4.426 4.7 5.656 4.597 2.289 9.904 2.639 14.945 2.09.113-.917.246-1.835.388-2.752a43.662 43.662 0 0 1-16.562-5.136 20.3 20.3 0 0 1 1.39-7.293Z" style="fill:#38312d"></path>
    <path d="M864.26 657.188c2.27-4.963 6.365-9.903 12.116-10.603 2.497-.378 4.408 1.315 5.798 3.16-2.648 2.146-6.725 1.22-8.938 4.076-4.786 5.4-6.441 12.769-7.69 19.683a81.96 81.96 0 0 0 7.889 43.5c7.425 14.187 17.895 26.605 29.5 37.549a11.67 11.67 0 0 1 2.8 4.597c-2.402-.274-4.029-2.072-5.76-3.519a149.17 149.17 0 0 1-28.564-32.007c-6.63-9.96-10.102-21.679-11.587-33.455a58.776 58.776 0 0 1 4.436-32.981Z" style="fill:#cc492f"></path>
    <path d="M1298.666 650.936c3.292-1.693 7.908-.34 9.241 3.254 1.447 4.152.407 8.645-.738 12.74-1.362 4.436-3.092 9.137-6.857 12.098-3.348 2.705-9.43 1.75-10.981-2.516-1.892-4.862-.596-10.272 1.201-14.964 1.74-4.095 4.004-8.488 8.134-10.612Z" style="fill:#160e0b"></path>
    <path d="M1224.295 702.655c-2.486-9.857-4.862-20.478-1.873-30.494 3.15.794 2.81 4.237 3.254 6.744 1.598 14.717 4.795 29.188 8.002 43.631a51.243 51.243 0 0 1 1.03 7.974c-.53-.02-1.588-.048-2.118-.067-3.282-9.098-5.932-18.416-8.295-27.788Z" style="fill:#fdb391"></path>
    <path d="M1135.026 679.207a2.44 2.44 0 0 1 3.16-.104c-.502 2.46-2.838 3.802-4.805 5.023-12.92 7.037-26.579 14.528-41.74 14.216q.014-1.377.056-2.724a254.811 254.811 0 0 0 43.33-16.41Z" style="fill:#fdb48f"></path>
    <path d="m983.862 603.143-.076 2.345c8.522 8.154 20.052 11.795 31.024 15.37a15.538 15.538 0 0 0 10.101.265c-1.57-.265-3.13-.501-4.691-.7a211.516 211.516 0 0 1-36.358-17.28ZM1005.106 625.171c-7.475-.542-15.01-2.08-22.492-.842.047.52.16 1.552.217 2.062a113.571 113.571 0 0 0 35.384.861c0-.227-.01-.68-.01-.898-4.35-.596-8.726-.865-13.1-1.183ZM984.685 638.8c-.02.493-.067 1.495-.095 1.997a92.746 92.746 0 0 0 31.676-4.976c-.037-.52-.123-1.55-.17-2.071-10.328 2.506-20.998 3.027-31.411 5.05ZM1350.924 657.879q1.164.525 2.355 1.078c6.943 1.825 14.3.456 21.026-1.58 7.601-2.3 15.181-4.7 22.53-7.737.114-.444.35-1.333.473-1.778-15.512 3.008-30.588 8.39-46.384 10.017ZM1082.56 654.17c-.075-.605-.227-1.815-.293-2.43a49.647 49.647 0 0 0-9.193 2.8c-5.562.075-11.105 1.541-16.656.397-6.858-.643-12.911-4.039-18.776-7.359 0 1.022 0 2.043.02 3.084a35.088 35.088 0 0 0 20.572 7.87c7.027-.048 13.96-1.609 20.713-3.463a27.309 27.309 0 0 0 3.614-.898ZM1062.67 677.325c.746 1.324 1.305 3.027 2.96 3.5 7.774 3.414 16.505 1.967 24.384-.34 9.25-2.782 18.614-5.458 27.259-9.866 0-1.003.019-1.986.038-2.97-11.946 4.039-24.11 7.642-36.595 9.562-5.987 1.022-12.031.01-18.047.114ZM1379.375 667.744c-8.522-1.296-17.177-.965-25.736-1.656a94.122 94.122 0 0 0-.161 2.847c9.052 2.507 18.576 1.977 27.883 2.053a61.23 61.23 0 0 0 10.972-1.258l.492-2.015c-4.483.038-8.976-.047-13.45.029ZM1359.91 679.68c7.784 2.185 15.88 3.689 24.005 3.415.076-.89.161-1.77.265-2.64-10.584-.122-20.449-4.54-30.853-5.873.085 3.528 3.953 4.133 6.583 5.098ZM1317.28 687.228a85.695 85.695 0 0 1-25.584 1.239c-4.673-.369-8.967-2.563-13.649-2.762 1.23 1.618 2.497 3.367 4.445 4.21 7.189 3.565 15.57 3.555 23.325 2.25 5.93-1.05 12.125-1.958 17.271-5.315a25.916 25.916 0 0 0-5.808.378Z" style="fill:#b95d38"></path>
    <path d="M1413.804 690.472c4.473-.35 7.831 3.216 10.082 6.64 3.66 6.375 1.76 14.121-.747 20.544-6.167 15.398-16.259 28.763-26.01 42.033-6.697 8.607-13.12 17.668-21.698 24.545-.435-.038-1.305-.105-1.74-.142-.038-.435-.123-1.325-.161-1.76 5.457-4.994 9.685-11.094 14.093-16.977 11.445-15.843 22.974-32.008 29.907-50.423 1.561-4.768 3.708-10.083 1.665-15.03-1.163-3.537-4.928-5.618-5.391-9.43Z" style="fill:#cc492f"></path>
    <path d="M1306.81 703.78c11.274-1.287 22.577-3.736 32.764-8.881-.019 1.05-.038 2.1-.038 3.159-5.353 4.266-11.955 6.384-18.368 8.475-10.3 3.386-21.877 4.161-32.074.009.114-.634.341-1.901.445-2.535 5.76-.104 11.525.43 17.271-.227Z" style="fill:#fdb390"></path>
    <path d="M1200.12 749.332a14.889 14.889 0 0 1 15.445 1.182c.019 1.173.038 2.355.066 3.547-4.824 2.119-10.414 1.599-15.228-.283-.114-1.486-.208-2.97-.284-4.446Z" style="fill:#b85a34"></path>
    <path d="M1145.695 854.5c11.258-4.462 23.552-3.746 35.384-3.632 7.094.672 14.245.568 21.282 1.76 8.143 1.342 16.476 2.033 24.317 4.785 5.751 2.034 11.55 4.001 17.092 6.583 5.788 3.283 11.01 7.482 16.429 11.341-.113.946-.218 1.901-.322 2.866-7.49-3.206-14.49-7.51-22.208-10.215-7.936-2.79-15.843-5.968-24.26-6.905-9.204-.908-18.37-2.535-27.648-2.26-10.621-1.013-21.461-1.684-32.007.36-11.473 3.082-21.906 9.003-33.152 12.73a16.232 16.232 0 0 1-5.098.445c-.057-.52-.16-1.57-.217-2.09 9.004-7.123 19.802-11.564 30.408-15.768Z" style="fill:#38312d"></path>
    <path d="M970.743 730.008c.785-.236 1.57-.463 2.374-.68 4.824 9.808 8.777 20.07 14.452 29.443 7.492 11.946 16.373 22.947 23.779 34.959 2.317 4.01 5.43 7.793 6.678 12.296-.36.548-.72 1.097-1.07 1.655a243.179 243.179 0 0 0-17.11-24.232c-8.957-10.622-17.97-21.641-22.813-34.855-2.053-5.92-4.815-11.851-4.748-18.245l-1.542-.34ZM1330.636 808.608a226.27 226.27 0 0 0-30.456 47.784c.964-.029 1.948-.057 2.932-.085a248.593 248.593 0 0 1 23.854-33.341 144.875 144.875 0 0 0 17.489-25.235c1.106-1.646.737-3.651.633-5.496-5.665 4.654-9.847 10.739-14.452 16.373ZM947.891 843.888a37.713 37.713 0 0 0 1.07 5.58c3.877 12.42 9.268 24.47 16.958 35.015 9.128 13.185 22.7 22.18 33.738 33.559 5.155 5.788 10.773 11.123 16.25 16.609.227.444.7 1.343.936 1.797-2.128-6.006-7.32-10.177-10.915-15.257-2.118-4.057-5.41-7.264-8.474-10.584-7.34-7.424-14.226-15.275-20.932-23.267-10.783-13.09-20.648-27.316-26.256-43.452-.795-.01-1.59-.01-2.375 0ZM1165.17 889.27c.066 1.002.133 2.014.218 3.036 14.216-1.23 28.413.614 42.497 2.355 3.225-.331 6.431-.861 9.675-1.079-7.87-1.475-15.738-2.97-23.627-4.284-9.449-1.627-19.399-2.687-28.763-.029Z" style="fill:#803f26"></path>
    <path d="M953.179 900.298c1.598 10.215 9.487 17.876 16.92 24.43a280.6 280.6 0 0 1 24.063 22.275c8.56 8.532 15.994 18.095 24.11 27.014 2.42 3.547 5.438 6.64 8.03 10.063 2.913 3.86 6.63 7.246 8.437 11.833.009-.568.037-1.712.047-2.289a112.52 112.52 0 0 1-9.023-12.513h-.842c-1.665-3.897-4.91-6.763-7.312-10.168-13.09-17.28-27.003-34.098-43.47-48.295-5.6-4.795-11.275-9.742-15.096-16.145-1.722-2.261-2.743-5.571-5.864-6.205ZM985.668 962.203c-.643 3.708 1.59 6.839 3.519 9.761 11.757 17.29 28.3 30.39 43.878 44.03 13.563 11.605 27.164 23.2 41.513 33.822v-2.147c-14.52-12.03-28.697-24.478-42.838-36.944-16.467-15.048-33.17-30.182-46.072-48.522Z" style="fill:#b95d38"></path>
    <path d="M1062.092 971.435c.067.52.19 1.55.256 2.062 6.545 8.351 15.152 14.65 23.58 20.94 12.589 9.563 26.852 16.657 41.361 22.814 4.966 1.788 10.074 4.332 15.512 3.33-4.275-1.164-8.683-1.93-12.646-3.992a205.304 205.304 0 0 1-31.506-16.95 341.54 341.54 0 0 1-36.557-28.204Z" style="fill:#803f26"></path>
    <path d="M971.462 974.329a11.475 11.475 0 0 0 1.182 5.741c11.379 22.502 31.08 38.988 50.262 54.66 16.203 13.261 32.925 25.907 49.979 38.042.595-.038 1.787-.123 2.392-.16-.898-.36-1.797-.729-2.667-1.06-12.93-10.243-26.114-20.156-38.685-30.844-15.095-12.92-30.418-25.699-43.85-40.397-7.291-7.85-12.74-17.1-18.613-25.982ZM1177.182 1057.676a105.06 105.06 0 0 1-7.15 21.67c-4.644 9.922-13.204 17.063-19.91 25.5-9.496 11.88-18.321 24.582-23.75 38.893.955.056 1.93.113 2.913.198 8.058-15.568 18.841-29.586 30.92-42.241 6.185-6.583 12.314-13.592 15.53-22.17 2.582-7.028 4.777-14.49 3.982-22.058-.86.067-1.702.133-2.535.208ZM1042.116 1072.696c1.381 4.37 3.216 8.58 4.644 12.94 3.33 10.054 5.666 20.42 9.459 30.323 6.129 15.285 15.663 28.83 24.393 42.686.87.445 1.75.89 2.648 1.343a21.68 21.68 0 0 0-2.733-7c-5.675-9.93-11.558-19.805-16.013-30.36-7.226-16.354-10.187-34.458-19.702-49.808-.908-.048-1.807-.086-2.696-.124Z" style="fill:#b95d38"></path>
    <path d="M798.817 963.49c9.08 3.632 17.224 9.212 25.368 14.556 9.231 6.243 18.936 11.804 27.817 18.567 1.901 1.617 4.824 2.866 4.294 5.892-10.272-7.595-21.612-13.563-32.461-20.25-8.844-5.391-18.056-10.215-26.597-16.06-2.167-1.013-.152-3.897 1.58-2.706Zm74.608-10.102c.331.53 1.013 1.57 1.343 2.09.123-.86.256-1.702.388-2.544-3.821-6.772-9.732-11.955-15.587-16.93-8.711-7.492-17.848-15.153-29.01-18.615q-.127 1.362-.226 2.753a165.573 165.573 0 0 1 23.892 15.606c6.914 5.278 13.743 10.811 19.2 17.64Zm-15.691 16.684c1.144 1.296 2.345 2.564 3.49 3.879.36.482 1.078 1.437 1.437 1.91 0 .208-.009.615-.009.823.464.586 1.38 1.769 1.835 2.355-.019-1.371.492-2.856-.255-4.105-3.121-6.11-8.636-10.432-14.008-14.471a232.706 232.706 0 0 0-37.39-22.142 11.946 11.946 0 0 0-5.144-1.145c.084.482.254 1.428.34 1.901 16.637 10.187 34.91 18.038 49.704 30.995Zm-36.292 40.994c-7.378-4.957-15.332-9.79-24.166-11.436l.226 2.677c7.104 5.41 15.768 8.37 23.145 13.412 9.118 6.129 18.917 12.05 25.387 21.158l1.825.152c-.066-.549-.19-1.656-.246-2.204a1202.808 1202.808 0 0 1-3.5-4.994c-6.734-7.17-14.65-13.128-22.671-18.765Zm-36.056 31.326c11.483 5.145 23.337 9.853 33.322 17.659.901.704 1.778 1.39 2.705 2.09a23.626 23.626 0 0 1 4.881 5.022l.7-.17c-.085.53-.237 1.59-.322 2.119.757-.123 2.261-.379 3.018-.502-.54-.15-1.627-.444-2.176-.595.123-.426.369-1.277.492-1.693l-1.457-.095.417-1.598c-.35-.057-1.06-.18-1.41-.237l.501-.832-1.05-.322-.368-1.003-.87.398.416-1.258-1.192.255.123-1.107-.738-.019c-5.088-4.956-11.104-8.824-17.1-12.58-12.145-7.415-26.304-11.198-37.655-19.938-.7.161-2.09.483-2.78.644 4.984 6.895 13.241 10.007 20.543 13.762Zm-22.331 15.644c13.043 6.734 26.786 12.788 37.777 22.757 5.76 4.426 11.567 8.806 17.517 12.996 3.376 2.364 6.025 5.628 9.515 7.85l-.189.747c.823-.123 2.469-.378 3.291-.5-.605-.218-1.825-.653-2.43-.871l.473-.946-.804.16c-5.666-8-13.431-13.988-20.95-20.108-4.57-3.33-8.542-7.406-13.356-10.376a202.99 202.99 0 0 0-37.465-18.32c-2.837-1.117-5.6-2.857-8.787-2.384 3.869 4.748 10.187 6.224 15.408 8.995Zm510.783.851c1.145-.284 2.677.218 3.566-.785 5.637-5.514 12.22-9.903 18.595-14.51 9.903-6.98 20.241-13.336 30.75-19.36a25.687 25.687 0 0 0 6.734-5.174c-1.144-.057-2.317-.454-3.424-.104a358.657 358.657 0 0 0-44.123 25.85c-4.805 3.82-10.575 7.765-12.098 14.083Zm6.507-31.052a199.253 199.253 0 0 1 37.115-26.502c.067-.776.142-1.532.228-2.28-.786-.019-1.561-.028-2.318-.019a156.591 156.591 0 0 0-34.013 21.424c-5.904 4.86-11.359 10.792-14.036 18.084.568.057 1.702.16 2.27.218 3.717-3.51 7.019-7.435 10.754-10.925Zm-6.29 62.842c.095.454.275 1.362.36 1.816.407.038 1.21.104 1.617.132 16.26-12.683 32.802-25.206 50.915-35.176 5.921-3.424 12.249-6.081 18.189-9.496l-.076-2.062a54.47 54.47 0 0 0-3.14.88c-17.442 7.132-34.284 16.025-49.26 27.458-6.574 5.018-13.355 9.978-18.604 16.448Zm5.203 25.084c28.659-23.079 60.118-42.469 92.503-59.844a90.864 90.864 0 0 0 11.17-6.129c.038-.51.114-1.551.161-2.062-4.672.634-8.607 3.481-12.882 5.26-16.43 7.897-32.272 16.93-47.898 26.293a293.605 293.605 0 0 0-40.037 28.187c-7.16 6.129-14.66 12.163-19.882 20.118.53.047 1.599.151 2.128.198 4.843-4.095 9.79-8.049 14.737-12.021ZM901.422 904.526c.038-1.722.606-3.613-.435-5.146-2.308-4.407-5.893-7.94-9.288-11.492-2.648-2.77-5.212-6.072-9.175-6.932-.037.605-.132 1.825-.17 2.43 4.446 3.575 8.342 7.775 12.466 11.72 2.837 2.648 4.701 6.09 6.602 9.42Zm-11.804 22.728c.549-.123 1.655-.387 2.204-.52-.312-.132-.946-.397-1.258-.53-2.327-5.315-6.698-9.302-10.67-13.393-6.656-6.858-13.988-13.487-22.86-17.356-.048.605-.152 1.816-.199 2.421 11.842 8.645 23.608 17.839 32.783 29.378Zm-182.444 251.452a8.282 8.282 0 0 0 1.561 3.888c3.623 4.748 7.813 9.033 11.69 13.573a126.305 126.305 0 0 0 20.658 17.252 342.87 342.87 0 0 0 46.999 26.843c18.68 8.673 38.692 14.095 58.917 17.564 10.533 1.807 20.931 4.266 31.487 5.987 14.821 2.166 29.652 4.351 44.464 6.65a122.42 122.42 0 0 1 21.016 4.767c11.936 3.897 24.157 7.207 35.45 12.816 4.985 2.544 10.017 5.032 14.803 7.935 10.565 6.801 20.506 14.623 31.685 20.421 7 3.566 13.999 7.141 21.206 10.281l.038.142c3.14 1.23 6.252 2.573 9.478 3.623.009-.634.046-1.901.056-2.544-3.566-1.94-7.198-3.737-10.81-5.59-15.768-8.589-30.835-18.397-45.732-28.423-4.966-3.443-10.442-6.025-15.786-8.806-11.076-5.798-23.164-9.212-34.987-13.071-19.2-6.877-39.707-8.248-59.654-11.728-14.103-1.514-27.723-5.657-41.703-7.832-17.507-3.774-35.033-7.936-51.605-14.84-16.552-7-32.026-16.25-47.31-25.623a148.404 148.404 0 0 1-15.654-10.925c-8.765-6.72-16.004-15.077-24.29-22.331-.491 0-1.485-.019-1.977-.028Zm705.542-137.061c-.293 4.294-2.667 8.039-4.956 11.548-7.435 10.64-17.356 19.276-27.6 27.127-17.498 13.421-36.774 24.28-54.537 37.323-13.866 10.603-27.382 21.726-39.584 34.23-2.383 2.894-4.965 5.609-7.377 8.474l1.541 1.883a73.48 73.48 0 0 1 7.775-8.494 292.427 292.427 0 0 1 34.41-28.072c9.307-6.234 19.087-11.72 28.47-17.839 10.073-6.583 20.62-12.466 30.276-19.683 11.691-8.57 23.514-17.782 31.232-30.276 2.658-4.976 5.921-10.906 3.67-16.61a61.083 61.083 0 0 0-3.32.389Zm-104.459 394.69c-4.038 1.182-7.822 3.093-11.88 4.218-16.344 5.127-32.669 10.811-47.547 19.447-14.188 8.153-30.4 13.355-42.241 25.103l-.577.018.123 2.44c4.653-.794 8.569-3.565 12.655-5.731 8.787-5.032 18.17-8.853 27.212-13.384 10.272-5.07 19.976-11.217 30.428-15.937 6.677-3.178 13.648-5.704 20.44-8.607a35.356 35.356 0 0 0 11.444-5.212c-.01-.587-.038-1.76-.057-2.355Zm65.765 32.007c-4.521 4.38-10.32 7.018-15.503 10.48-11.293 7.047-23.249 12.91-35.252 18.643-8.124 3.755-16.495 7.292-25.367 8.853-.009.813-.009 1.645-.009 2.497 6.696.804 13.337-1.054 19.655-3.046 8.711-2.747 16.987-6.696 25.281-10.499 10.292-4.587 19.371-11.378 28.215-18.245 2.573-2.27 6.195-4.758 5.306-8.683a47.737 47.737 0 0 0-2.326 0Zm75.232-15.654c-3.358-10.905-8.796-21.224-10.546-32.584-.482-.066-1.438-.208-1.92-.284l.18 1.088-1.117-.047c-.898 9.137 2.5 17.951 4.89 26.625 3.701 13.434 6.895 26.995 9.383 40.7 3.708 18.529 5.826 37.332 7.68 56.117-.047 7.888 1.4 15.739.766 23.636-.435 6.214-.614 12.466-1.712 18.615a8.031 8.031 0 0 1-2.355 4.2 3.643 3.643 0 0 1 2.053 2.08c.047-.312.123-.918.17-1.23 3.216-1.513 3.68-5.495 4.483-8.57a204.534 204.534 0 0 0 3.585-28.412c.732-15.49-.851-30.939-2.847-46.252a406.229 406.229 0 0 0-12.693-55.682Zm60.401 44.777c-.936.066-1.854.151-2.761.246-.511 5.42.435 10.839.274 16.277-.88 17.839-2.875 35.753-7.898 52.949a13.867 13.867 0 0 1-3.916 6.555c.038.936.095 1.882.17 2.856a7.894 7.894 0 0 0 5.43-3.424c2.762-4.086 4.024-8.95 5.334-13.64 2.917-10.444 5.348-21.14 5.959-31.987.559-9.921 1.031-20.383-2.592-29.832Zm-30.881-42.686c-.322-1.93-.767-3.83-1.201-5.713q-1.59 0-3.122.057a22.043 22.043 0 0 0 .501 7.462c.946 6.602 2.562 13.094 3.86 19.645 1.859 9.389 2.657 18.927 3.603 28.433.17 8.181.038 16.381.076 24.572a308.78 308.78 0 0 1-4.635 35.952c-.747 3.868-1.447 7.822-3.235 11.378.01.653.038 1.949.048 2.601 3.442-.217 4.55-3.925 5.599-6.611a209.744 209.744 0 0 0 6.545-29.198 167.871 167.871 0 0 0-1.891-67.647c-1.864-7.027-3.85-14.036-6.148-20.931Zm-754.678 99.058a222.13 222.13 0 0 0-22.587-41.712c-11.917-16.713-25.717-31.95-39.13-47.443-.132 1.57-.69 3.339.445 4.71 2.875 4.833 6.574 9.099 9.94 13.592 5.865 7.774 11.748 15.53 17.508 23.39 12.117 16.581 21.585 34.978 29.16 54.036a262.858 262.858 0 0 1 16.156 57.735c.35 1.428.094 3.49 2.241 3.717l-.085-1.514 1.116.218c.426-9.42-1.267-18.784-2.61-28.073-2.194-13.412-7.037-26.143-12.154-38.656Zm43.366-33.776c-6.876-16.43-16.457-31.591-27.126-45.798q-16.742-21.58-33.814-42.884c-9.714-12.42-20.79-23.883-28.584-37.683a100.253 100.253 0 0 0-8.067-12.41c-.946 5.515 3.329 9.942 5.268 14.775 5.864 11.729 13.998 22.085 22.028 32.367 11.133 14.443 21.916 29.16 33.067 43.593 12.277 15.777 23.344 32.66 31.27 51.057 7.755 17.64 15.18 35.848 17.176 55.19.7 9.392 1.816 18.794 1.655 28.233-.293.729-.87 2.185-1.153 2.904 3.282.643 4.568-2.809 4.587-5.429.255-6.734-.214-13.464-.35-20.184-.45-22.213-7.358-43.528-15.957-63.731Zm-24.572 26.9a9.953 9.953 0 0 0-.785-4.21c-4.173-9.978-8.324-19.966-13.025-29.699-14.433-30.72-35.119-58.084-58.226-82.78-13.327-14.443-27.899-27.648-40.908-42.421-11.562-13.131-22.709-26.994-29.425-43.282-.605-1.4-1.229-2.77-1.835-4.133-.539.01-1.617.047-2.147.057a35.17 35.17 0 0 0 1.41 7.245 108.218 108.218 0 0 0 18.179 32.14 387.282 387.282 0 0 0 33.208 36.897c14.907 14.48 29.444 29.434 42.222 45.864 21.16 26.7 37.787 56.76 50.717 88.219.132.5.388 1.494.51 1.986a187.845 187.845 0 0 1 5.666 18.396c.52.038 1.56.104 2.081.142a111.437 111.437 0 0 0-7.34-25.755Zm285.88 9.78c-13.298-1.864-26.606-3.623-39.81-6.073-17.98-3.367-34.958-10.499-51.444-18.226a146.036 146.036 0 0 0-34.476-10.83 16.954 16.954 0 0 0-6.328.454 248.39 248.39 0 0 0-.047 2.724c4.87.104 9.401 2.005 14.027 3.32a143.09 143.09 0 0 1 24.336 9.685c15.824 7.945 32.339 15.332 50.054 17.65 12.173 1.608 24.375 3.13 36.604 4.143 10.064 1.56 20.298 1.872 30.371 3.509q0-1.533.028-3.036c-3.793-.568-7.557-1.467-11.407-1.4-3.849-1.211-7.954-1.249-11.908-1.92Zm197.776-333.883c13.705-12.835 27.647-25.51 42.941-36.443 12.854-9.449 24.96-19.863 37.871-29.236 3.964-3.008 9.46-4.402 11.89-9.127a25.947 25.947 0 0 1 5.75-6.773 144.202 144.202 0 0 1-13.033 6.215c-6.716 3.007-12.599 7.453-18.406 11.898-8.57 6.148-16.657 12.94-25.16 19.182a423.815 423.815 0 0 0-40.813 34.031c-11.7 11.029-23.73 21.802-34.145 34.089a293.108 293.108 0 0 0-28.763 39.016c-5.4 8.398-9.799 17.384-15.067 25.859-6.252 10.565-13.573 20.43-20.137 30.787-3.67 6.205-8.04 11.955-11.69 18.16-1.23-3.783-2.479-7.567-3.717-11.34a75.416 75.416 0 0 0-6.045-18.407c-.53-.889-1.059-1.75-1.589-2.61-.454-1.249-.908-2.478-1.314-3.717a122.56 122.56 0 0 0-.199 3.793l.984-.246-.152 2.979h.71c1.078 5.552 2.62 11 3.518 16.6-10.319 1.286-20.685 3.102-31.137 2.724-12.56.227-25.263-.842-37.398-4.228-9.62-2.545-19.759-3.386-28.735-7.993-8.02-4.265-16.344-7.983-24.185-12.589-6.148-3.537-11.558-8.153-17.432-12.088a188.755 188.755 0 0 0-54.66-24.667c-16.571-4.824-33.7-7.397-50.328-12.012-12.325-3.396-24.914-5.93-36.907-10.442-8.92-3.292-18.312-5.013-27.307-8.03-10.224-3.377-20.685-6.158-30.39-10.906-14.537-7.293-29.453-13.838-43.802-21.509-14.764-8.333-27.316-19.872-39.895-31.09-4.275-3.234-3.065-9.146-1.551-13.506 3.14-8.37 7.018-16.439 10.14-24.81A334.422 334.422 0 0 0 712.168 1102a34.64 34.64 0 0 0 1.173-9.128c-.473-.113-1.42-.33-1.892-.444a75.651 75.651 0 0 0-2.79 10.886c-4.692 16.798-9.63 33.578-15.74 49.931-3.234 8.948-7.405 17.508-10.867 26.361-1.787 5.08-3.556 11.388-.028 16.145 4.908 5.855 11.123 10.405 16.76 15.512a167.061 167.061 0 0 0 40.813 26.304c10.725 4.957 21.244 10.357 31.903 15.455 9.014 4.266 18.756 6.593 28.177 9.752 9.07 3.083 18.567 4.73 27.533 8.134 13.09 4.862 26.683 8.172 40.133 11.89 16.835 4.728 34.21 7.34 50.924 12.55 18.661 5.562 36.85 13.441 52.645 24.952 4.966 3.556 9.723 7.425 15.04 10.47 9.202 5.553 19.871 7.927 29.207 13.223 4.72 1.324 9.41 2.885 14.216 3.926 9.524 2.137 18.87 5.027 28.592 6.299 10.1 1.32 20.26 1.04 30.41 1.069 7.604-.757 15.2-1.75 22.795-2.724 1.437 4.748 2.07 9.78 4.152 14.32 1.267 1.787 3.811.804 4.634-.899 12.372-20.24 27.24-38.865 38.969-59.512a292.863 292.863 0 0 1 35.147-50.801c9.979-11.748 21.33-22.2 32.47-32.812Zm82.326 6.489c1.705-1.236 3.33-2.573 5.022-3.83a83.94 83.94 0 0 1 .161-2.753c-3.31.085-5.646 2.61-8.247 4.303-16.969 9.8-35.186 17.158-53.214 24.734-19.058 8.257-37.388 19.053-51.917 34.022-4.735 4.878-9.165 10.461-11.18 17.063 1.22 0 2.46.019 3.699.01a134.073 134.073 0 0 1 21.47-20.08c28.697-22.389 64.875-32.212 94.206-53.47Z" style="fill:#102438"></path>
  </g>
</svg>
