<svg xmlns="http://www.w3.org/2000/svg" viewBox="0 0 2121 1887.494" id="aged-man">
  <g id="art">
    <path d="M1020.282 234.338a161.48 161.48 0 0 1 23.829-3.203c4.71-.758 9.452-.115 14.137.46 5.303.766 10.078 3.78 15.513 3.895 9.403.289 18.888.437 28.193-1.235a128.204 128.204 0 0 1 23.705-2.676c13.231 1.005 26.636 2.19 39.316 6.357 7.97 2.552 15.052 7.122 21.985 11.692a126.713 126.713 0 0 1 11.494 8.217 203.987 203.987 0 0 0 18.551 14.418c5.525 3.944 12.161 5.698 18.435 8.044 9.758 3.557 18.263 9.642 27.41 14.426a85.791 85.791 0 0 1 21.697 16.163c8.028 8.201 15.999 16.492 22.874 25.698 3.343 4.685 8.456 8.563 9.403 14.557 1.202 6.192 4.24 11.8 5.912 17.851 2.322 8.053 4.66 16.13 5.978 24.422 1.605 10.012 1.646 20.181 2.24 30.284a401.448 401.448 0 0 1-2.833 64.224c-2.166 16.871-3.813 33.833-7.147 50.531-5.665 29.634-11.898 59.16-18.115 88.678-1.729 8.44-4.117 16.732-6.34 25.048-.008 4.48-2.05 8.522-2.964 12.82-.7 2.47 2.207 4.084 2.091 6.472-.411 5.533-2.832 10.869-2.38 16.476.47 3.277 5.5 3.483 6.497.428 3.977-11.865 8.308-23.714 14.78-34.475a40.663 40.663 0 0 1-5.31 25.97c-3.862 6.52-6.44 13.684-10.178 20.255-6.99 11.387-13.997 22.89-23.22 32.647-10.695 12.21-24.371 21.144-36.343 31.98-10.68 9.642-21.639 18.97-32.178 28.76-10.992 10.326-23.41 18.947-35.546 27.831-9.98 7.106-20.46 13.487-30.234 20.873-22.248-1.153-44.373-6.266-66.727-4.125a244.854 244.854 0 0 0-38.864 4.841c-10.16 2.1-19.96 5.55-29.84 8.63a199.472 199.472 0 0 1-54.615-31.42 126.437 126.437 0 0 1-22.338-23.789c-9.148-12.424-16.163-26.224-23.648-39.67-9.617-17.011-18.065-34.632-27.213-51.882-5.203-9.74-11.115-19.168-15.018-29.55a239.085 239.085 0 0 1-9.963-34.665c-1.12-4.62-.79-9.626-3.071-13.924-3.533-7.385-7.106-14.862-8.564-22.989-2.231-7.072-2.94-14.458-4.199-21.737-1.515-12.828-4.034-25.764-2.14-38.7a110.046 110.046 0 0 1 1.589-16.837c.98-9.88 4.783-19.424 4.306-29.444-.157-10.112-4.397-19.605-4.85-29.692-.947-11.659-1.251-23.985-7.172-34.442-2.94-5.072-4.734-10.827-8.563-15.373-6.192-7.945-13.85-15.528-15.99-25.755-2.009-9.14-1.943-19.11 1.49-27.913 3.022 5.262 5.08 11.017 8.35 16.147a82.802 82.802 0 0 0 13.346 16.32c6.86 6.603 11.989 14.754 16.435 23.104 5.83 10.465 14.261 20.09 25.665 24.52 8.613 3.22 17.456 5.772 26.29 8.324a52.785 52.785 0 0 0 9.396 1.82 27.203 27.203 0 0 0-.404-3.483 68.534 68.534 0 0 0-8.604-3.64 151.341 151.341 0 0 1-22.676-10.267 47.12 47.12 0 0 1-16.097-14.41c-3.928-5.5-5.92-12.037-9.23-17.875-3.13-5.953-6.678-11.782-11.643-16.393-7.163-6.769-13.602-14.492-17.645-23.55-5.212-10.25-13.01-20.156-12.63-32.26.254-1.234.625-2.436.954-3.647a85.07 85.07 0 0 1 13.421-1.03c6.307-.09 12.557-1.662 18.88-.987a56.418 56.418 0 0 1 32.697 15.084c7.122 6.563 11.38 15.439 17.522 22.816 6.307 8.415 14.763 15.504 24.874 18.757 7.081 2.454 14.665 2.231 22.05 2.165 8.25 0 16.46-1.045 24.71-1.3a47.4 47.4 0 0 1 31.56 10.58 87.151 87.151 0 0 1 14.13 13.85c5.45 6.874 7.871 15.504 12.655 22.79q6.707 10.178 13.257 20.453c1.16 1.639 2.24 3.574 4.166 4.414 2.231-.165 4.94-1.795 4.348-4.389-.758-6.661-3.343-12.927-4.71-19.465-2.874-13.347-6.052-27.196-14.294-38.394-7.501-10.251-17.143-19.136-28.49-24.957-9.715-4.364-20.246-7.419-30.975-7.221-11.412.173-22.907 1.507-34.278-.156a18.763 18.763 0 0 1-11.23-5.953c-5.254-5.731-8.901-12.664-12.829-19.309-11.066-18.016-30.531-30.062-51.264-33.363-4.545-.503-9.123-.7-13.619-1.581a69.92 69.92 0 0 1 20.544-7.172c1.688-.42 3.722-.552 4.858-2.067 4.29-5.121 7.015-11.56 12.268-15.866 8.77-1.194 17.67-.428 26.398.807 9.42 1.4 18.008 6.488 24.553 13.306 7.32 7.188 11.972 16.484 18.46 24.355 4.2 5.08 8.53 10.243 14.163 13.808 7.666 4.924 16.649 8.259 25.854 8.078 10.589-.173 20.7-3.936 31.256-4.397a48.04 48.04 0 0 1 26.702 5.525c11.618 6.282 21.606 16.097 26.867 28.332 8.143 17.695 10.77 37.21 16.937 55.562.84.107 1.696.198 2.553.297a292.805 292.805 0 0 1-6.143-34.78c-1.408-12.944-5.36-25.772-12.606-36.665-8.011-11.05-18.97-20.51-32.194-24.554-9.469-2.964-19.555-2.601-29.296-1.514-8.802 1.054-17.522 3.944-26.464 2.84a38.554 38.554 0 0 1-23.77-14.055c-9.107-10.045-14.748-22.783-24.645-32.17-5.73-5.755-13.124-9.551-20.75-12.161-6.561-2.314-13.626-1.877-20.41-3.022 9.781-4.94 21.062-5.821 31.848-5.393 6.307.65 12.573 1.787 18.822 2.824 4.76 1.713 8.3 5.525 12.755 7.822 5.245 2.767 10.53 5.468 15.89 8.012 11.364 5.294 24.068 7.032 36.518 6.653a73.745 73.745 0 0 0 21.31-3.796c14.754-4.216 28.587-11.684 43.951-13.602 8.572-1.161 17.679-1.861 25.838 1.63 6.768 2.495 12.368 7.312 16.88 12.845 9.353 11.362 22.775 20.345 37.793 21.227 11.75 1.062 23.491-2.882 35.175-.428 5.624.864 10.4 4.133 14.879 7.427 7.673 5.648 16.04 11.486 19.703 20.683 8.382 20.37 10.556 42.503 14.344 64.018a79.309 79.309 0 0 0 4.347 16.262c.585-.264 1.17-.527 1.779-.79-3.319-11.264-4.117-23.03-5.377-34.64-1.548-13.1-1.26-26.431-4.232-39.342-1.902-7.937-5.254-15.866-11.38-21.474a128.227 128.227 0 0 0-18.88-14.047c-9.32-5.82-20.823-5.87-31.42-5.162-7.905 1.004-16.08 1.77-23.854-.47-6.949-1.753-12.844-6.092-18.237-10.638-5.09-4.256-8.819-9.823-13.578-14.409a45.22 45.22 0 0 0-30.795-13.05 95.64 95.64 0 0 0-30.49 4.322c-12.145 3.878-23.985 9.074-36.69 10.918a92.766 92.766 0 0 1-40.914-4.965c-6.578-2.75-13.264-5.294-19.464-8.826 6.257-3.78 12.902-6.9 19.044-10.886a98.099 98.099 0 0 1 22.816-10.778c5.352-1.811 11.017-2.286 16.534-3.4Z" style="fill:#193857"></path>
    <path d="M1058.956 262.275a95.39 95.39 0 0 1 30.49-4.323 45.22 45.22 0 0 1 30.795 13.051c4.759 4.586 8.489 10.152 13.578 14.41 5.393 4.544 11.288 8.884 18.237 10.637 7.773 2.24 15.95 1.474 23.854.47 10.597-.708 22.1-.659 31.42 5.162a128.227 128.227 0 0 1 18.88 14.047c6.126 5.608 9.478 13.537 11.38 21.474 2.972 12.91 2.684 26.241 4.232 39.342 1.26 11.61 2.058 23.376 5.377 34.64-.61.263-1.194.526-1.78.79a79.309 79.309 0 0 1-4.346-16.262c-3.788-21.515-5.962-43.648-14.344-64.018-3.664-9.198-12.03-15.035-19.703-20.684-4.48-3.293-9.255-6.562-14.88-7.426-11.683-2.454-23.424 1.49-35.174.428-15.019-.882-28.44-9.865-37.793-21.227-4.513-5.533-10.112-10.35-16.88-12.845-8.16-3.491-17.266-2.791-25.838-1.63-15.364 1.918-29.197 9.386-43.952 13.602a73.745 73.745 0 0 1-21.31 3.796c-12.449.378-25.153-1.359-36.516-6.653-5.36-2.545-10.647-5.245-15.891-8.012-4.455-2.297-7.996-6.11-12.755-7.822 4.76.379 9.296-1.276 13.545-3.22.741-.189 1.498-.88 2.305-.6 6.2 3.532 12.887 6.076 19.465 8.826a92.766 92.766 0 0 0 40.914 4.965c12.705-1.844 24.542-7.05 36.69-10.918ZM892.344 266.861a7.737 7.737 0 0 1 3.022-1.07c6.785 1.145 13.85.708 20.412 3.022 7.624 2.61 15.019 6.406 20.75 12.161 9.896 9.387 15.536 22.125 24.643 32.17a38.554 38.554 0 0 0 23.771 14.055c8.942 1.103 17.662-1.787 26.464-2.84 9.74-1.087 19.827-1.45 29.296 1.514 13.223 4.043 24.183 13.504 32.194 24.554 7.246 10.893 11.198 23.721 12.606 36.665a292.805 292.805 0 0 0 6.143 34.78c-.857-.099-1.713-.19-2.553-.297-6.167-18.353-8.794-37.867-16.937-55.562-5.261-12.235-15.249-22.05-26.867-28.332a48.04 48.04 0 0 0-26.702-5.525c-10.556.461-20.667 4.224-31.256 4.397-9.205.18-18.189-3.154-25.854-8.078-5.632-3.565-9.963-8.728-14.163-13.808-6.488-7.871-11.14-17.167-18.46-24.356-6.546-6.817-15.134-11.906-24.553-13.305-8.728-1.235-17.629-2.001-26.398-.807 4.183-3.986 9.362-6.678 14.442-9.338Z" style="fill:#41709e"></path>
    <path d="M936.717 278.965a33.203 33.203 0 0 1 7.056.23c-2.347.198-4.817.758-7.056-.23ZM823.592 310.106c5.426-3.08 10.687-6.933 16.64-8.802 4.496.88 9.074 1.078 13.62 1.58 20.732 3.302 40.197 15.348 51.263 33.364 3.928 6.645 7.575 13.578 12.828 19.308a18.763 18.763 0 0 0 11.231 5.953c11.371 1.664 22.866.33 34.278.157 10.729-.198 21.26 2.857 30.976 7.221 11.346 5.821 20.988 14.706 28.489 24.957 8.242 11.198 11.42 25.047 14.294 38.394 1.367 6.538 3.952 12.804 4.71 19.465.592 2.594-2.117 4.224-4.348 4.388-1.927-.84-3.005-2.774-4.166-4.413q-6.57-10.263-13.257-20.453c-4.784-7.287-7.204-15.916-12.655-22.79a87.151 87.151 0 0 0-14.13-13.85 47.4 47.4 0 0 0-31.56-10.58c-8.25.255-16.46 1.3-24.71 1.3-7.385.066-14.969.288-22.05-2.165-10.111-3.253-18.567-10.342-24.874-18.757-6.143-7.377-10.4-16.254-17.522-22.816a56.418 56.418 0 0 0-32.697-15.084c-6.323-.676-12.573.897-18.88.988a85.07 85.07 0 0 0-13.42 1.029c1.662-4.718 3.31-9.708 7.072-13.215 2.388-2.578 5.805-3.648 8.868-5.18Z" style="fill:#41709e"></path>
    <path d="M824.761 340.62a39.104 39.104 0 0 1 0-10.144 64.19 64.19 0 0 1 0 10.144ZM807.684 353.967c-1.444-7.144-2.742-14.582-.988-21.82-.379 12.104 7.419 22.01 12.63 32.26 4.044 9.058 10.482 16.781 17.646 23.55 4.965 4.61 8.514 10.44 11.642 16.393 3.31 5.838 5.303 12.376 9.23 17.876a47.12 47.12 0 0 0 16.098 14.41 151.341 151.341 0 0 0 22.676 10.267 68.534 68.534 0 0 1 8.604 3.64 27.203 27.203 0 0 1 .404 3.482 52.785 52.785 0 0 1-9.395-1.82c-8.835-2.552-17.678-5.105-26.29-8.324-11.405-4.43-19.836-14.055-25.666-24.52-4.446-8.35-9.576-16.501-16.435-23.105a82.802 82.802 0 0 1-13.347-16.32c-3.268-5.129-5.327-10.884-8.349-16.146 1.021-3.153 2.222-6.449 1.54-9.823Z" style="fill:#41709e"></path>
    <path d="M1344.333 474.84a21.324 21.324 0 0 1 .008-8.514 36.34 36.34 0 0 1-.008 8.514ZM1764.867 1672.121q-.133-8.02-.423-16.033c-.03-.825-.068-1.651-.098-2.477a50.461 50.461 0 0 0-3.077-4.079 44.15 44.15 0 0 0 .25-3.732q.382-19.6.248-39.26-1.364-19.372-3.095-38.702c-4.552-51.385-12.134-102.2-24.744-152.5-5.208-20.775-10.88-41.428-18.199-61.572q-2.471-6.8-5.183-13.51a563.042 563.042 0 0 0-2.045-4.916q-1.332-3.081-2.723-6.138-5.688-12.5-12.4-24.498-6.677-11.9-14.364-23.195-3.895-5.728-8.026-11.29c-.78-1.05-3.247-4.296-3.512-4.64q-1.953-2.492-3.94-4.959-5.708-7.055-11.74-13.831c-21.413-13.748-43.42-26.849-65.043-39.766-18.509-11.057-37.022-22.113-55.265-33.606-12.692-7.996-24.98-16.584-37.63-24.634-23.465-14.93-47.619-28.752-71.111-43.644-25.86-16.393-51.596-33.724-74.244-54.428-15.48-14.15-30.584-30.937-36.788-51.18-7.406-7.405-14.468-15.22-19.387-24.526-3.837-7.344-7.715-14.656-11.988-21.754-4.53-8.555-10.004-16.74-12.516-26.192-3.425-12.639-9.065-24.495-13.536-36.756-1.87-4.94-5.245-9.081-7.617-13.758-1.621-3.129-2.882-6.43-4.355-9.626-3.261-7.212-8.44-13.388-14.236-18.69-7.987-7.263-18.214-12.475-29.107-13.067-10.317.115-20.37 2.676-30.498 4.339-5.286.848-10.383 2.56-15.661 3.392-3.78.601-7.534-.379-11.28-.667-22.248-1.152-44.327-5.727-66.727-4.125-13.032.932-26.077 2.15-38.864 4.841-10.16 2.1-19.96 5.55-29.84 8.63a255.082 255.082 0 0 0-31.066 16.014c-16.007 9.955-31.033 21.474-47.567 30.59a256.219 256.219 0 0 1-33.116 14.795c-1.375-2.437-2.487-5.294-4.99-6.809-3.524-2.091-8.02-1.73-11.66-.14-4.964 2.075-8.85 5.937-12.564 9.716-7.106 7.056-12.829 15.35-18.263 23.713a179.47 179.47 0 0 0-17.818 34.945c-3.44 9.224-6.478 18.578-10.037 27.764-3.79 9.784-5.928 20.214-10.835 29.56-3.138 5.69-5.295 11.906-9.041 17.258-5.591 8.242-12.771 15.233-19.976 22.05-4.784 4.471-10.835 7.188-15.99 11.165-6.39 4.817-12.104 10.482-18.65 15.101-6.932 4.883-13.915 9.683-20.798 14.64-5.74 4.142-11.898 7.723-17.324 12.293-4.216 3.45-7.962 7.419-12.21 10.836-18.354 15.002-38.708 27.418-56.535 43.096-10.448 8.736-20.7 17.686-30.53 27.105-6.538 6.382-14.122 11.66-20.067 18.642a113.89 113.89 0 0 1-12.73 12.795c-5.08 4.29-9.114 9.601-13.148 14.846-8.737 11.997-18.164 23.491-27.773 34.796a153.843 153.843 0 0 0-7.227 10.818c-5.09 5.513-9.597 11.787-13.643 16.905q-13.257 16.772-24.825 34.74a639.138 639.138 0 0 0-39.313 70.627c-12.773 26.93-22.948 55.608-32.205 83.91q-13.014 39.787-22.16 80.703c-6.5 29.09-11.374 58.503-15.045 88.075Z" style="fill:#dc9eb5"></path>
    <path d="M1126.778 938.735a4.05 4.05 0 0 0-1.498-4.191 6.329 6.329 0 0 0-3.886.297c-1.409 1.869-1.96 4.207-2.783 6.372-1.713 4.554-3.393 9.115-5.114 13.669-2.445.7-4.896 1.38-7.342 2.064a16.355 16.355 0 0 0-.592-1.161c.037-2.336.13-4.802-1.444-6.667a6.668 6.668 0 0 0-6.76-2.615c-19.044-16.16-47.401-13.496-70.92-11.039q-43.702 4.567-87.092 11.738-24.178 3.998-48.204 8.832a9.804 9.804 0 0 0-.974.263 7.426 7.426 0 0 0-7.45.083c-3.936 2.15-3.557 7.575-7.105 10.177-3.526 2.586-3.936 7.213-4.29 11.248-1.161 16.467.469 32.943.798 49.411.008 6.299 1.144 12.77-.971 18.88-2.61 13.364-.503 27.27 3.614 40.124 2.544 7.962 4.628 16.154 8.555 23.59a112.6 112.6 0 0 0 9.313 16.212c12.31 17.266 23.747 35.122 35.035 53.059 4.32 6.866 6.949 14.623 10.004 22.116 6.11 15.471 12.4 30.918 20.197 45.632 3.944 7.452 7.353 15.167 10.984 22.775 6.867 14.08 10.227 29.65 11.585 45.179a64.801 64.801 0 0 0 7.28 24.051c1.415 2.388 1.975 5.615 4.495 7.139 3.17 1.498 6.2-1.746 7.196-4.504 2.165-6.274 1.58-13.043 2.668-19.514.502-3.105 3.302-5.089 4.389-7.946 1.49-3.747 2.215-7.822 4.479-11.231 3.763-5.624 4.742-12.45 6.817-18.757 7.6-25.418 13.978-51.184 22.355-76.385 2.324-6.992 4.62-14.03 8.539-20.313 8.283-13.586 16.673-27.114 25.459-40.379 6.373-9.922 12.861-19.794 18.296-30.26 3.894-7.484 5.253-15.866 7.435-23.918 2.223-8.226 2.643-16.773 3.606-25.204 1.087-11.083 2.432-22.145 3.631-33.216a290.396 290.396 0 0 1 4.907-31.502c1.804-8.374 5.682-16.065 9.132-23.837 1.737-3.96 3.763-8.102 3.4-12.54-.271-3.55-3.482-6.563-2.404-10.227 1.359-5.879 3.41-11.591 4.66-17.505Z" style="fill:#fef2db"></path>
    <path d="M986.44 444.663c11.526-1.682 23.138-.025 34.69.008a47.741 47.741 0 0 1 10.564 1.408c7.542 1.565 14.41 5.344 21.984 6.818 12.557 2.767 25.204 6.735 38.214 5.714 7.13-.6 14.26-2.074 21.432-1.268 4.372.536 8.786.692 13.166 1.153 8.983.478 18.074-.642 26.99.972 7.123 1.111 13.867 3.754 20.52 6.422 3.458 1.556 7.328.98 10.967 1.672 6.826.963 12.746 4.783 19.226 6.867a24.175 24.175 0 0 1 5.006 2.305 33.082 33.082 0 0 1-9.106.14 132.943 132.943 0 0 0-22.594-1.21c-6.233.214-12.318 1.712-18.427 2.774-7.427 1.49-15.241 2.232-21.878 6.192a115.716 115.716 0 0 1-31.634 11.997c-17.909 3.335-36.435 4.809-54.475 1.647-12.936-2.363-26.464-.65-38.708 3.96-10.588 4.035-18.847 12.186-28.867 17.258a73.897 73.897 0 0 1-32.392 9.725c-7.46.32-15.035-.214-22.38 1.432-5.665 1.276-10.704 4.323-15.48 7.51-5.352 3.392-8.151 9.394-13.116 13.231-7.542 6.184-15.867 12.68-25.937 13.545-1.556.173-3.104.305-4.644.453.84-10.498 3.442-20.75 4.504-31.215 1.557-16.344 5.657-32.31 10.334-48.003 4.133-12.746 7.97-25.59 12.416-38.23 3.912.577 7.543 2.421 11.528 2.594 5.508.338 10.95 1.268 16.393 2.14 12.944 1.195 25.88-1.053 38.51-3.688a228.42 228.42 0 0 1 23.195-4.323Z" style="fill:#e56324"></path>
    <path d="M1159.072 478.438c6.095-1.14 12.194-2.56 18.427-2.774a132.943 132.943 0 0 1 22.594 1.21 33.082 33.082 0 0 0 9.106-.14c5.418 1.12 9.947 4.784 14.5 7.79 3.631 2.403 7.995 3.334 11.684 5.631 2.157 1.301 2.989 3.829 3.845 6.06 4.232 12.335 3.788 25.6 2.907 38.428-1.318 12.828-.478 25.755.823 38.55.89 8.81 2.85 17.473 4.216 26.217 1.968 9.074 2.173 18.394 2.528 27.641.568 10.16-3.072 19.852-5.624 29.527-2.38 8.72-6.653 17.208-6.143 26.455.042 9.057-.04 18.123.075 27.18.131 3.705-1.54 7.147-1.647 10.836.856.065 2.569.214 3.425.288-.98 9.921-2.972 19.728-3.351 29.707-.519 10.037-3.45 19.712-6.72 29.14.536.972 1.08 1.951 1.631 2.931-1.712.865-3.73 1.696-4.273 3.747-2.174 6.01-3.804 12.21-5.78 18.287a54.238 54.238 0 0 0 5.665-.099c-1.244.52-2.833.906-3.195 2.421-2.767 6.958-6.299 13.578-9.23 20.47-6.406 14.614-13.775 28.793-21.408 42.807a199.092 199.092 0 0 1-11.297 19.959c-3.903 5.846-7.106 12.112-10.786 18.09-13.191 20.642-27.683 40.403-41.227 60.798-9.65 13.817-20.988 26.316-30.992 39.852-5.715 7.584-11.734 14.928-17.48 22.487l-.511-.14c-4.85-1.82-9.996-.362-14.788.848-5.904 1.639-12.03 2.215-18.024 3.409-5.278 1.087-10.704.716-16.031 1.358-8.77 1.417-17.679 1.713-26.546 2.05-11.256-.675-22.52 1.796-33.743.149a81.628 81.628 0 0 0-16.517-1.128c-20.716-.502-39.506-10.227-58.287-17.884.082 1.177.173 2.355.263 3.557-2.807-6.159-7.633-11.042-10.786-16.986a113.694 113.694 0 0 1-8.613-21.021c-2.602-8.959-5.36-17.967-6.019-27.32-1.663-13.949-2.412-27.98-3.836-41.944-1.293-11.848-3.533-23.557-4.875-35.397-1.63-12.779-4.9-25.237-7.575-37.81-1.062-5.739-2.091-11.478-3.376-17.167-1.976-10.17-3.475-20.428-5.706-30.54-.247-1.688-1.951-2.404-3.071-3.425 1.078.23 2.165.428 3.269.65-1.038-6.867-2.108-13.725-2.726-20.642-.37-12.276.766-24.536.37-36.813.009-4.949-.222-9.89-.37-14.821-.173-5.023 1.342-9.856 1.91-14.805.807-6.554.717-13.19 1.655-19.736a197.573 197.573 0 0 1 4.043-21.45c2.034-8.307 2.75-16.862 4.62-25.195 3.787-6.192 4.248-13.627 5.738-20.552 2.75-6.364 3.607-13.28 4.471-20.098.395-3.631.041-7.312.708-10.91 1.417-7.526 1.285-15.233 2.57-22.783 1.54-.148 3.087-.28 4.643-.453 10.07-.865 18.395-7.361 25.937-13.545 4.965-3.837 7.764-9.84 13.116-13.231 4.776-3.187 9.815-6.234 15.48-7.51 7.345-1.646 14.92-1.111 22.38-1.432a73.897 73.897 0 0 0 32.392-9.725c10.02-5.072 18.279-13.223 28.867-17.258 12.244-4.61 25.772-6.323 38.708-3.96 18.04 3.162 36.566 1.688 54.475-1.647a115.716 115.716 0 0 0 31.634-11.997c6.637-3.96 14.432-4.798 21.878-6.192Z" style="fill:#f2844f"></path>
    <path d="M814.42 607.315c14.557-3.006 30.852 3.688 38.336 16.698.807 3.532.198 7.229.906 10.786.568 1.754 1.762 3.211 2.412 4.932-1.869 8.333-2.585 16.888-4.619 25.196a197.573 197.573 0 0 0-4.043 21.449c-.938 6.546-.848 13.182-1.655 19.736-.568 4.949-2.083 9.782-1.91 14.805.148 4.932.379 9.872.37 14.82.396 12.278-.74 24.538-.37 36.814.618 6.917 1.688 13.775 2.726 20.643-1.104-.223-2.19-.42-3.27-.65a17.14 17.14 0 0 1-6.084-3.047c-4.735-3.73-9.848-7.123-13.537-11.98-7.204-9.544-14.45-19.3-18.954-30.474-3.936-8.325-7.954-16.64-10.869-25.385-3.598-10.383-7.838-20.642-9.576-31.544a120.283 120.283 0 0 1-2.396-27.65 94.593 94.593 0 0 1 3.278-24.38c1.68-6.134 4.001-12.342 8.382-17.093 2.24-2.487 5.253-4.051 7.764-6.233a36.189 36.189 0 0 1 13.108-7.443Z" style="fill:#f95939"></path>
    <path d="M1169.315 611.415c4.413-.238 8.768-1.128 13.182-1.507a340.428 340.428 0 0 0-.774 3.129 159.863 159.863 0 0 0-17.538-.716 14.686 14.686 0 0 1 5.13-.906Z" style="fill:#f99d73"></path>
    <path d="M1144.102 614.388c6.663-.902 13.331-2.05 20.083-2.067a159.863 159.863 0 0 1 17.538.716c3.615.601 8.209-.848 10.869 2.413-3.566 1.07-7.304.65-10.952.691-17.356-.066-34.483 2.997-51.667 5.006-2.429.066-4.858.042-7.287.083l.297-1.655c7.147-1.285 13.9-4.21 21.12-5.188Z" style="fill:#fdb38f"></path>
    <path d="M877.277 624.4c-.453-2.232.312-5.558 3.054-5.731 3.286-.552 5.171 3.17 8.177 3.574 2.593-.832 4.454-3.64 7.426-3.277 5.476.288 10.795 1.901 15.974 3.63 9.947 3.656 19.761 7.658 29.617 11.57 5.212 1.835 10.754 2.37 16.114 3.663 5.22 1.07 10.284 3.13 15.694 3.12a60.368 60.368 0 0 1 18.09 3.434c3.77 1.466 7.69-.42 11.543-.156a4.418 4.418 0 0 1 3.475 5.978c-1.161 3.285-3.87 5.607-5.912 8.316.058 2.058 1.219 3.936 1.202 6.002-.552 2.66-2.182 4.908-3.392 7.287-5.706 10.811-11.305 21.754-15.208 33.372-1.301 3.689-2.43 7.435-3.706 11.132-1.185 3.549-3.919 6.348-4.874 9.996-4.669 15.562-9.7 31.009-14.319 46.587-1.169 4.134-3.507 7.83-4.38 12.07-.618 2.908-3.145 5.024-3.45 8.037-.535 3.368-.7 6.801-1.424 10.152-.7 3.327-1.688 6.736-.972 10.17a43.566 43.566 0 0 1 .98 12.943c-1.433.37-3.318 1.153-4.405-.338-4.76-7.114-6.596-15.842-6.39-24.322-.387-11.816 1.285-23.557 3.812-35.068a331.55 331.55 0 0 1 13.208-47.773c.485-1.441.872-2.898 1.268-4.356-5.575 1.054-10.844 3.178-16.114 5.212a23.082 23.082 0 0 1-7.707 1.235c-5.245.206-10.457 1.285-15.71.84-4.364-.272-8.34-2.338-12.639-2.972-8.72-1.326-17.464-5.32-22.742-12.615-2.75-3.935-7.073-7.311-7.36-12.45 3.556.182 6.578 2.2 9.83 3.402 7.781 2.972 15.933 4.767 24.06 6.48a128.876 128.876 0 0 0 26.15 3.96c9.156.23 18.057-2.223 27.065-3.417 2.388-7.09 3.73-14.483 6.167-21.564 1.367-4.587 3.467-8.918 4.669-13.562-4.694 1.754-8.901 4.562-13.636 6.2-11.181 3.977-22.972 7.452-34.969 6.3a38.23 38.23 0 0 1-15.833-4.785c-3.986-2.28-5.92-6.694-9.37-9.567-5.468-4.603-9.502-10.638-12.64-17.011-2.61-5.41-6.29-10.466-7.253-16.526-.445-3.269-2.306-6.052-3.17-9.172Z" style="fill:#e56324"></path>
    <path d="M1113.044 622.86c2.536-2.75 6.522-2.643 9.939-3.285l-.297 1.655c2.43-.042 4.858-.017 7.287-.083-2.643 1.21-5.59 1.31-8.423 1.721-2.816.37-5.747 1.03-8.506-.008Z" style="fill:#f5a072"></path>
    <path d="M1294.938 653.029c6.944-2.6 14.459-2.84 21.738-3.895 5.904-.782 12.285.675 16.632 4.924 4.216 4.076 8.464 8.432 10.795 13.907 2.009 4.75 1.852 10.037 1.548 15.093-.783 7.468-1.392 15.125-4.38 22.108a159.504 159.504 0 0 1-10.334 20.131c-9.008 14.195-21.153 26.093-34.113 36.682-10.037 7.855-19.835 16.072-30.597 22.948-7.65 4.726-14.772 10.383-23.08 13.956-5.319 2.223-10.407 5.352-16.187 6.167a54.238 54.238 0 0 1-5.665.1c1.976-6.078 3.606-12.278 5.78-18.288.543-2.05 2.56-2.882 4.273-3.747-.552-.98-1.095-1.96-1.63-2.93 3.269-9.429 6.2-19.104 6.719-29.14.379-9.98 2.371-19.787 3.351-29.708 6.299-17.958 16.122-34.385 25.714-50.737 1.754-3.442 5.122-5.492 8.407-7.254a145.623 145.623 0 0 1 21.03-10.317Z" style="fill:#f95939"></path>
    <path d="M1106.013 664.144c3.763-1.02 7.542.173 11.23.964 4.521 1.12 9.132-.51 13.685.23 12.45 1.721 25.08 1.565 37.58 2.915 9.888.947 19.76 2.092 29.65 3.047 2.552.057 4.454 2.33 7.031 2.24 3.697-.1 7.007 2.14 9.947 4.116.963 3.631-2.495 6.39-5.146 8.201a67.934 67.934 0 0 1-31.865 10.918c-2.273 0-3.738 1.902-5.624 2.833-7.526-.667-13.841-5.624-21.26-6.777a76.88 76.88 0 0 1-24.24-8.629c-6.365-3.565-12.672-7.46-17.802-12.705-2.017-1.935-2.8-4.676-3.186-7.352Z" style="fill:#e56324"></path>
    <path d="M1001.657 708.303a6.992 6.992 0 0 1 4.57-6.406c-.066 3.161-1.54 5.978-3.22 8.571-.47-.724-.922-1.44-1.35-2.165Z" style="fill:#f89f72"></path>
    <path d="M1001.657 708.303c.428.724.88 1.44 1.35 2.165-10.35 21.902-16.904 45.32-23.515 68.555-1.73 6.315-3.582 12.614-5.056 18.995-1.375 2.397-2.693 4.817-3.887 7.304-.634-.05-1.26-.115-1.877-.181 1.548-4.669 1.738-9.634 2.964-14.376 3.063-12.64 6.192-25.278 9.947-37.736 3.615-12.45 8.678-24.422 14.113-36.18a30.073 30.073 0 0 1 5.961-8.546Z" style="fill:#fdb391"></path>
    <path d="M1109.537 711.366c4.257-.873 8.538.288 12.82.32 4.726.083 9.18 1.771 13.668 3.064 5.59 1.688 11.28 3.022 16.954 4.413 2.231.601 4.767.634 6.628 2.19-16.88-1.12-33.537-4.166-50.268-6.521.041-1.161.107-2.314.198-3.466Z" style="fill:#fcb390"></path>
    <path d="M1086.63 720.571c1.943-.584 3.977.272 5.912.576 10.943 2.61 22.026 4.57 32.936 7.296 20.502 4.43 41.605 5.763 62.536 5.13.164 1.679.905 4.075-.988 5.071-3.319 2.306-6.513 5.155-10.647 5.813-12.77 3.41-26.06 3.41-39.16 4.24-3.59.1-7.188.355-10.77.157-2.816-.016-4.685-2.651-7.41-2.947-10.77-.906-20.774-6.406-28.638-13.62-3.285-2.79-6.035-7.45-3.77-11.716ZM993.423 820.802c2.092-.338 5.056-.783 6.01 1.712.948 3.022-1.736 5.402-3.63 7.337-7.864 7.237-15.867 14.326-23.92 21.358a22.36 22.36 0 0 1-9.444 4.57 4.364 4.364 0 0 1-5.484-3.994c-.04-4.405 1.277-8.678 1.697-13.042.6-2.964.214-6.62 2.65-8.81 2.891-3.038 7.387-2.33 10.993-3.812a78.738 78.738 0 0 1 21.128-5.32Z" style="fill:#e56324"></path>
    <path d="M945.897 882.827c5.344-.774 10.787-.206 16.172-.338-2.265.354-4.52.717-6.777 1.063.51.691 1.021 1.408 1.532 2.132-3.837-.428-7.822-.362-11.454-1.811.132-.264.396-.79.527-1.046Z" style="fill:#f79e72"></path>
    <path d="M962.069 882.49c5.263-.882 10.605-.182 15.875.304a110.398 110.398 0 0 1 20.963 4.529c3.178 1.334 6.546 2.1 9.765 3.326-.47 2.034-3.137 1.161-4.644 1.178-15.636-2.75-31.445-4.315-47.204-6.143-.51-.724-1.021-1.44-1.532-2.132 2.256-.346 4.516-.684 6.777-1.063Z" style="fill:#fcb390"></path>
    <path d="M932.36 905.091c5.79-.642 11.265-2.947 17.086-3.268 19.416-.626 38.353 4.454 57.629 5.854 6.159.683 12.639-.264 18.493 2.207 8.028 3.194 16.04 6.578 23.368 11.198-.585 4.322-3.327 7.838-5.838 11.247-.988 1.21-2.199 2.651-3.936 2.511-7.205-.395-13.224-5.739-20.519-5.59-9.963-.066-19.893-2.512-29.856-1.12-9.748 1.383-19.497 2.824-29.279 3.96-4.414.527-9.584.996-13.117-2.272-1.984-2.561-2.486-6.011-4.767-8.39-4.166-4.67-8.547-9.873-9.263-16.337Z" style="fill:#e56324"></path>
    <path d="M961.311 997.105c4.658-1.58 9.683-1.17 14.508-.93 5.723.485 11.61 1.053 16.896 3.458 1.177.403.963 1.869 1.317 2.832-4.19.09-8.291-.972-12.466-.93-6.496.008-13.083-.173-19.448 1.366-2.273.552-4.636 1.137-6.925.338.214-3.318 3.292-5.176 6.118-6.134Z" style="fill:#e66729"></path>
    <path d="M896.898 1020.596c18.781 7.657 37.57 17.382 58.287 17.884a81.628 81.628 0 0 1 16.517 1.128c11.223 1.647 22.487-.824 33.743-.148 8.867-.338 17.776-.634 26.545-2.05 5.328-.643 10.754-.272 16.032-1.36 5.994-1.193 12.12-1.77 18.024-3.408 4.792-1.21 9.938-2.668 14.788-.848-3.566 5.615-8.399 10.284-12.409 15.578-9.749 12.153-19.794 24.06-30.523 35.356-6.62 6.843-12.523 14.36-19.58 20.766-2.602 2.33-4.742 5.509-8.209 6.604-3.285 1.235-6.892-.264-9.493-2.306-2.808-2.174-4.117-5.714-6.917-7.871-13.075-7.995-24.067-18.864-36.542-27.69-5.286-3.41-9.814-7.79-14.722-11.668-3.022-2.42-6.126-4.735-9.115-7.188a29.579 29.579 0 0 1 1.919-1.095c-2.8.634-4.924-1.565-7.04-2.99-5.961-4.767-12.4-8.925-18.057-14.063-4.191-3.861-8.802-7.213-12.985-11.074-.09-1.202-.18-2.38-.263-3.557Z" style="fill:#e56324"></path>
    <path d="M872.756 602.152a25.236 25.236 0 0 1 18.197-11.313 93.205 93.205 0 0 1 35.916 3.73c16.74 5.195 31.857 14.277 46.974 22.93 5.41 3.253 11 6.316 15.883 10.359 4.232 5.039 9.971 8.431 15.307 12.186q0 1 .025 2.025c-4.274 1.845-8.218 4.735-12.936 5.336-4.158.881-8.407.247-12.532-.428-8.324-1.581-16.369-4.273-24.446-6.777-6.892-2.132-13.438-5.195-20.123-7.855a130.63 130.63 0 0 0-44.019-11.461c-5.632-.544-10.984 1.787-16.55 1.787-2.857.197-5.022-2.759-4.586-5.451.288-5.122 2.223-9.988 2.89-15.068Z" style="fill:#193857"></path>
    <path d="M805.658 630.262a25.28 25.28 0 0 1 3.788-.362c2.684 1.103 4.603 3.417 6.381 5.624 4.027 5.072 6.785 10.967 9.494 16.813a203.642 203.642 0 0 1 9.93 26.3c1.276 4.445 3.178 8.859 2.775 13.593-2.001.502-4.529.362-5.13-2.034a261.987 261.987 0 0 0-18.88-40.469c-2.462-4.389-5.212-8.613-7.518-13.083-1.12-1.944-.823-4.25-.84-6.382Z" style="fill:#cc492f"></path>
    <path d="M1168.491 637.582c5.492-.19 10.935-1.243 16.451-.897 8.514.683 17.39 1.432 24.965 5.755 6.801 3.82 13.841 8.975 15.99 16.896 1.153 4.553 2.882 9.337 1.713 14.072-3.368.057-6.307 2.536-9.724 1.82-7.312-1.252-14.286-3.961-21.605-5.213-9.824-2.305-19.902-3.005-29.922-3.886-10.844-.173-21.68-.527-32.5-1.161-12.523-1.787-25.837-1.795-37.175-8.094-2.553-1.408-5.138-5.443-2.577-7.888 3.318-1.894 7.04-3.598 10.967-3.195 5.517.445 10.729-1.77 16.147-2.404q23.553-3.508 47.27-5.805Z" style="fill:#193857"></path>
    <path d="M924.35 662.926c3.367-.906 6.06 1.86 8.2 4.034 2.759 3.286 1.532 7.847.799 11.635-.947 3.952-1.844 8.448-5.262 11.05a6.127 6.127 0 0 1-7.92-.395c-6.587-7.732-4.282-20.956 4.183-26.324ZM1168.755 689.003c3.527-1.755 8.349.131 9.468 3.976 1.829 5.682.495 12.046-2.527 17.07a8.535 8.535 0 0 1-10.457 3.326c-4.191-2.24-5.105-7.699-3.755-11.906 1.334-4.562 2.632-10.16 7.27-12.466Z" style="fill:#15100d"></path>
    <path d="M1090.303 731.942c.666-.28 1.35-.552 2.041-.815 2.487 2.734 6.555 3.063 8.95 5.92 5.814 5.92 13.94 8.917 21.993 10.202 10.408 1.77 20.988.395 31.338-1.087 4.257-.51 8.382-1.985 12.705-1.919a74.58 74.58 0 0 0-.288 2.421c-9.395 4.66-20.008 5.73-30.185 7.666a48.983 48.983 0 0 1-31.717-4.595c-6.019-2.404-9.914-7.896-13.29-13.15a9.743 9.743 0 0 1-1.547-4.643Z" style="fill:#d15f29"></path>
    <path d="M1321.245 673.218a12.642 12.642 0 0 0-7.163-.19c-7.657 2.24-14.245 6.942-20.733 11.421-12.038 8.407-21.663 19.761-29.938 31.783-3.656 5.36-7.674 10.514-10.778 16.22-3.286 3.55-5.286 8.004-7.888 12.03a11.7 11.7 0 0 0-2.034 6.003c1.35-.321 2.931-.453 3.763-1.746a71.997 71.997 0 0 0 7.583-11.445c4.866-5.846 9.074-12.244 14.014-18.049 10.82-13.066 23.063-25.302 37.9-33.767 4.883-2.972 10.326-4.824 15.291-7.632 0-1.548-.016-3.088-.016-4.628Z" style="fill:#cc492f"></path>
    <path d="M967.248 866.483c13.437-1.672 27.097.815 39.843 5.154 8.457 3.138 16.6 7.04 24.957 10.424 5.245 2.059 10.21 4.792 15.537 6.612 6.67 1.746 13.454 3.31 19.778 6.093-7.485 2.026-15.48.247-22.528-2.585-9.18-2.973-18.394-5.87-27.682-8.49-15.422-4.01-30.712-10.819-47.007-9.205-9.905 1.136-19.77 2.775-29.749 3.014-8.407.181-17.126.988-25.22-1.746.066-.93.148-1.852.23-2.766a340.35 340.35 0 0 0 35.958-4.249q7.917-1.26 15.883-2.256Z" style="fill:#d05e27"></path>
    <path d="M1153.744 542.218c-2.931-1.754-6.293-2.611-9.469-3.796-7.566-2.823-15.027-6.2-23.071-7.386a105.556 105.556 0 0 0-23.557-1.45c-6.216.586-12.433 1.253-18.575 2.389a52.369 52.369 0 0 1-14.253.667c-5.895-.667-11.083-3.739-16.353-6.2a36.421 36.421 0 0 0-13.215-3.376 96.646 96.646 0 0 0-21.729.082c-8.8.84-17.629.56-26.439.782a23.592 23.592 0 0 0 8.67 3.12c12.203 2.2 24.57-.56 36.839.355 4.553 1.07 9.328 1.548 13.536 3.738 6.595 3.26 13.446 6.933 21.02 6.793 9.215.626 18.033-2.947 27.23-2.651 13.652-.321 27.007 3.088 40.182 6.25 6.71 1.506 13.338 4.034 20.312 3.77-.197-1.086-.066-2.412-1.128-3.087ZM1118.314 551.324c-14.401-4.207-29.271-8.357-44.43-6.999-7.987.873-16.22 1.968-24.067-.362-6.85-1.317-13.249-4.668-20.28-5.014-4.644-1.194-9.494-.634-14.228-.683-9.856-.206-19.078 3.762-28.3 6.694a44.35 44.35 0 0 0 16.616-1.236c7.287-2.017 14.92-1.152 22.355-.658 10.185 2.84 19.744 8.2 30.473 8.909 8.053.485 15.855-2.08 23.903-2.042 11.538.054 22.726 2.997 33.61 6.455 10.96 2.561 22.24 5.92 33.586 3.92.017-.964.033-1.92.033-2.874-10.168.815-19.769-3.12-29.27-6.11ZM1033.456 572.33c-1.746 2.313-2.363 5.21-3.154 7.945a87.804 87.804 0 0 0-3.227 20.395c-.148 4.578-.84 9.18-.181 13.759a53.138 53.138 0 0 0 1.762 18.18l2.964.074c.23-5.805.346-11.618.181-17.423.815-11.93 1.927-23.886 4.389-35.611a27.373 27.373 0 0 0 .905-6.16c-.74-1.456-2.264-1.382-3.639-1.16ZM1051.661 583.428c-4.627 15.669-3.819 32.21-3.952 48.374-.021 2.553-.404 5.22.412 7.707.733.378 1.498.733 2.28 1.062a61.704 61.704 0 0 0 .025-7.995c.89-4.529.51-9.173.939-13.734.88-9 1.515-18.032 2.742-26.999.658-6.167 2.808-12.21 1.762-18.477a37.506 37.506 0 0 0-4.208 10.062ZM952.962 716.47c-3.145.33-6.463 2.001-9.535.684-.049-.675-.14-2.017-.189-2.684-4.216 2.034-8.588 3.697-12.853 5.599-10.293 1.91-21.408 0-30.087-5.97-2.824-1.844-4.737-4.825-7.805-6.34-1.48-.73-3.491-.79-4.488.725a25.14 25.14 0 0 0 10.795 13.635c7.517 4.677 16.87 7.303 25.632 4.998 7.79-2.01 15.982-2.857 23.318-6.356a13.19 13.19 0 0 0 5.212-4.29ZM963.6 772.93a84.174 84.174 0 0 0 2.503-8.21c3.278-12.309 7.476-24.347 11.256-36.5 3.64-10.638 8.365-20.864 12.178-31.437q5.792-15.735 12.91-30.917c2.57-5.707 6.357-11.47 5.698-17.984-1.103.017-2.198.05-3.277.083-3.22 6.546-5.887 13.339-8.679 20.066-4.01 7.74-6.554 16.147-10.687 23.837-5.821 13.66-11.562 27.394-16.04 41.589-3.653 11.582-6.957 23.285-11.14 34.698-4.743 15.455-10.21 31.099-10.136 47.46-.082 4.577 1.664 9.583 5.887 11.88 7.008 3.986 15.415 2.372 22.874.783 9.576-1.136 18.625-4.792 27.188-9.09.058-.445.181-1.343.24-1.795-3.78.634-7.584 1.202-11.29 2.182-7.262 1.869-14.774 2.283-22.215 2.742a26.017 26.017 0 0 1-12.17-1.861c-1.84-.82-2.164-3.055-2.272-4.809-.271-7.221.898-14.4 1.985-21.523 1.103-7.213 3.837-14.039 5.187-21.194ZM873.086 791.506c-1.82-3.706-2.833-7.732-4.562-11.47-1.087 7.978 2.684 15.389 4.652 22.915 2.923 10.82 8.275 20.856 10.16 31.972 1.664-.042 3.327-.066 4.999-.09-1.326-7.304-4.718-13.998-7.148-20.964-2.865-7.403-4.685-15.192-8.101-22.363ZM917.762 835.746c-8.76 14.064-15.043 29.551-19.588 45.443a82.796 82.796 0 0 0-3.31 27.163c-.675 7.378.264 14.804 1.688 22.042 1.054.066 2.108.148 3.178.247-.238-7.69.033-15.38-.032-23.071.337-1.82.576-3.656.765-5.484 1.227-12.046 4.636-23.755 9.008-35.002 4.603-11.766 11.198-22.593 17.802-33.314 4.29-7.172 8.925-14.459 10.588-22.767a73.707 73.707 0 0 0-3.013-.057c-6.167 7.92-11.668 16.352-17.086 24.8ZM1163.057 811.012c-6.003 6.076-12.085 12.152-17.2 19.003-5.99 8.022-10.647 16.946-15.455 25.706-2.586 5.624-5.92 11.042-7.164 17.176a3.275 3.275 0 0 0 3.31-1.96c3.392-6.405 6.883-12.77 10.893-18.822 7.83-12.433 18.387-22.775 27.674-34.072 2.964-3.474 5.467-7.682 5.328-12.392-3.294.379-5.196 3.236-7.386 5.36ZM1072.814 833.844c-1.581-3.78-2.306-7.888-4.15-11.552-.494-1.037-1.738-1.284-2.635-1.803-1.688 4.899-.371 10.08.832 14.928q3.031 12.217 6.406 24.356c2.667 10.35 3.894 20.996 5.624 31.535.996 5.92.93 11.947 1.67 17.9-.139 7.493-.295 14.995-.847 22.479-.437 7.863-1.828 15.628-2.371 23.483.864 0 1.729.008 2.601.024 2.61-11.321 4.858-22.84 5.286-34.475 3.83-19.934 1.91-40.568-2.857-60.173a234.193 234.193 0 0 0-9.56-26.702ZM1022.95 928.237c-10.606-3.994-21.63-7.987-33.15-7.476-11.272.823-22.198 3.927-33.141 6.578a30.963 30.963 0 0 0-7.032 2.825 11.446 11.446 0 0 0 4.71 1.729 67.98 67.98 0 0 0 14.237-.758c9.771-1.56 19.464-4.62 29.485-3.763 10.992.89 21.457 4.537 31.964 7.575a46.208 46.208 0 0 0 9.42 4.2c.065-.988.172-1.968.147-2.94-1.844-1.96-4.496-2.832-6.974-3.664-2.948-1.976-6.414-2.972-9.667-4.306Z" style="fill:#b95d38"></path>
    <path d="M1184.457 979.04c7.402-2.278 15.817-3.36 23.046.074 4.751 2.347 9.535 5.179 12.73 9.526 1.07 1.367.46 3.22.56 4.825-3.228-1.07-5.657-3.598-8.745-4.923-8.662-3.846-18.962-4.562-27.748-.717-6.513 2.594-11.09 8.127-15.924 12.952-4.611 4.397-6.768 10.531-9.42 16.171-6.48 15.587-12.45 31.429-20.214 46.456-8.827 17.867-19.91 34.491-29.716 51.815-10.49 19.654-22.84 38.238-35.932 56.246a94.986 94.986 0 0 0-13.981 25.557c-4.282 12.516-7.065 25.492-11.462 37.975-5.541 15.669-10.12 31.643-14.747 47.6-7.6 27.171-17.118 53.759-26.998 80.173-1.82 4.932-3.73 9.872-4.669 15.068-2.272 11.75-5.377 23.483-5.294 35.529-.042 2.313.016 4.635-.116 6.966a32.574 32.574 0 0 1-1.218-11.882 45.975 45.975 0 0 0-1.326-12.59c-.905-4.083-.255-8.25.198-12.334a56.999 56.999 0 0 1 .971 9.477c1.35-5.656 1.45-11.502 2.742-17.167 4.249-22.907 15.373-43.648 22.923-65.5 3.829-11.058 6.909-22.347 9.75-33.693 4.47-15.957 8.785-31.972 14.301-47.608 5.468-15.883 8.407-32.787 16.756-47.55a90.892 90.892 0 0 1 9.634-14.245 275.993 275.993 0 0 0 27.797-43.08q7.695-14.376 16.015-28.398c4.702-7.839 8.53-16.155 12.837-24.216a399.742 399.742 0 0 0 18.254-38.543c4.133-9.641 8.061-19.431 13.652-28.349 3.104-4.85 5.541-10.152 9.238-14.615a33.36 33.36 0 0 1 16.106-11Z" style="fill:#775b76"></path>
    <path d="M813.876 1030.921c5.27-.272 11.799-1.177 15.471 3.574 3.03 4.339 7.09 7.888 9.692 12.54a213.757 213.757 0 0 1 11.922 23.483c3.903 9.172 9.436 17.513 14.047 26.332 7.213 12.58 12.77 26.142 21.367 37.908 4.627 6.57 9.774 12.762 14.516 19.25 3.722 5.098 7.798 9.997 10.655 15.662 4.001 7.204 6.94 14.92 10.704 22.247 8.291 16.361 13.223 34.13 20.84 50.787 7.097 15.29 13.75 30.901 17.727 47.336 2.824 10.111 4.825 20.552 9.379 30.087 2.552 5.516 5.096 11.05 7.146 16.78 5.649 15.43 13.002 30.408 16.139 46.62-.453 4.084-1.103 8.25-.198 12.335a45.975 45.975 0 0 1 1.326 12.59 32.574 32.574 0 0 0 1.218 11.88c1.623 9.963.494 20.108.083 30.136a300.449 300.449 0 0 1-4.545 36.386c-1.433 8.184-3.623 16.212-5.113 24.397-3.821 21.202-4.11 42.881-2.833 64.339.05 17.818 2.091 35.669.107 53.454-1.375 10.795-.477 21.672.297 32.474.123 2.479 1.152 5.22-.338 7.51a2.742 2.742 0 0 1-4.62-.989c-2.725-6.9-1.555-14.458-2.527-21.654-1.136-12.656 2.058-25.22.947-37.868-.181-12.894-1.103-25.755-1.21-38.65a269.106 269.106 0 0 1 2.453-59.127c1.021-8.291 3.063-16.402 4.331-24.644 3.969-21.704 5.369-43.754 7.073-65.706a62.799 62.799 0 0 1 .963-8.06c1.063-6.637-.988-13.175-2.05-19.663-1.021-6.488-4.15-12.334-5.838-18.633-3.26-10.803-8.044-21.038-11.947-31.602-1.951-5.352-4.043-10.654-6.497-15.792-7.492-15.002-9.724-31.824-14.845-47.658-5.204-17.2-13.907-33.026-20.206-49.806-2.783-7.608-5.6-15.2-8.637-22.701-2.866-6.62-6.134-13.05-9.222-19.564a147.706 147.706 0 0 0-11.28-21.696c-4.233-6.455-8.144-13.125-12.895-19.21-5.36-7.27-11.502-14.005-15.866-21.96-2.874-5.368-5.855-10.695-8.44-16.212-4.076-7.912-8.571-15.603-12.968-23.343-4.809-8.2-7.773-17.299-12.252-25.673-3.327-6.183-5.797-12.984-10.358-18.394-4.29-2.297-9.955-1.762-13.57-5.385a36.336 36.336 0 0 1-.148-4.117Z" style="fill:#775b76"></path>
    <path d="M1055.638 1163.922c-8.028-11.14-15.768-22.51-24.537-33.083-5.039-6.233-11.361-11.235-17.629-16.147-2.615-2.05-5.483-4.775-9.114-4.018-3.994.099-6.293 3.712-8.786 6.282a363.72 363.72 0 0 0-43.623 54.286c-4.224 4.43-7.27 9.807-10.91 14.698-3.013 4.742-6.933 9.008-8.868 14.351 3.895-1.432 5.657-5.467 8.177-8.44 4.545-6.405 9.897-12.227 14.055-18.896 16.5-19.3 32.804-38.823 50.284-57.258 3.738 3.796 7.567 7.5 11.453 11.157 6.126 5.714 11.025 12.565 16.699 18.699 8.9 9.823 17.184 20.18 25.96 30.103.906 1.358 2.71.815 4.101 1.02-1.186-4.85-4.701-8.604-7.262-12.754Z" style="fill:#ba9f80"></path>
  </g>
</svg>
