<svg xmlns="http://www.w3.org/2000/svg" viewBox="0 0 2121 1887.494" id="boy">
  <g id="art">
    <path d="M1715.623 1592.713c-7.53-30.608-19.664-60.271-34.263-88.15-14.748-28.166-34.024-53.847-53.812-78.628a699.846 699.846 0 0 0-56.748-62.287c-5.297-7.834-10.142-15.963-15.167-23.975-17.783-28.356-42.304-51.661-63.285-77.638-16.465-20.826-35.625-40.141-46.733-64.607-7.76-16.67-11.968-34.956-21.737-50.717-8.378-15.658-19.212-29.754-28.311-44.983-5.975-9.872-14.388-17.907-21.084-27.23-4.344-6.284-11.406-9.702-17.992-13.014-12.59-6.33-26.115-12.499-40.588-11.469-17.616 1.734-32.93-9.22-49.79-12.052-19.452-1.1-39.334 3.33-58.495-1.528-18.56-4.138-37.691-2.698-56.554-3.211-24.579-.669-49.155-1.7-73.604-4.361-22.354-2.627-44.944-1.698-67.285.206-19.988 1.704-40.113 4.165-59.596 9.088-17.961-8.536-40.214-6.476-56.812 4.499-15.453 10.217-25.328 25.191-36.453 39.652l-4.368 5.677c-9.822 9.721-19.798 19.36-29.508 29.23-37.785 27.172-77.302 52.004-114.064 80.557a602.255 602.255 0 0 1-57.928 39.797 714.724 714.724 0 0 0-69.98 48.434c-5.746 4.736-11.45 9.56-17.013 14.54a32.005 32.005 0 0 0-13.622 7.66c-64.142 60.132-113.034 134.866-144.461 216.822q-3.994 10.416-7.532 20.99a313.856 313.856 0 0 0-21.137 46.698Z" style="fill:#dfaf33"></path>
    <path d="M1087.418 261.495c34.713-5.282 69.432-13.391 104.8-11.417 13.511-.017 26.783 2.953 40.295 3.28 18.852 1.733 37.377 6.043 55.507 11.382 14.663 3.537 29.36 9.632 44.726 7.555 16.138-1.614 32.398-2.026 48.553-3.606 17.032-3.725 33.6-10.147 51.233-10.73 9.855-.069 20.654-1.34 29.444 4.172a20.752 20.752 0 0 1 10.422 22.577c-3.314 17.135-13.718 31.556-21.255 46.974 4.824.378 10.473.876 13.512 5.237 4.43 5.82 2.884 13.77 1.58 20.397-3.538 13.58-10.508 25.925-17.805 37.789 7.812 5.871 8.052 16.688 6.336 25.444-2.078 9.597-8.362 17.392-13.684 25.359-5.03 7.691-10.096 15.349-14.731 23.28 6.867 6.147 5.511 16.243 3.28 24.209-5.066 15.006-13.359 29.273-14.165 45.395-2.473 18.765-1.683 38.39-9.443 56.074-8.293 25.719-21.719 51.146-44.073 67.285-23.333 17.1-51.816 24.912-79.458 31.9-64.779 16.465-132.098 13.615-198.302 16.259-26.423 1.7-52.863 2.901-79.2 5.7-13.718 1.099-27.23 4.55-41.051 4.275-11.813.343-23.299-2.936-34.493-6.301-11.572-3.623-23.23-8.825-31.299-18.182-10.61-12.001-16.036-27.917-17.358-43.712a25.913 25.913 0 0 1 2.49-13.753c-3.297-10.627-6.06-21.46-6.954-32.586-1.665-18.25-4.515-36.639-2.472-54.993a360.886 360.886 0 0 1 11.64-91.51c9.426-29.617 17.908-60.52 36.69-85.845 11.366-15.504 21.136-32.243 34.339-46.34 34.029-36.758 81.985-58.124 130.896-65.567Z" style="fill:#38312d"></path>
    <path d="M1311.319 455.436c2.764-.6 5.666-2.455 8.533-.892.67 15.589 6.575 30.217 11.967 44.656 6.318 14.697 11.09 29.977 15.967 45.189a8.48 8.48 0 0 1-6.388 6.198 211.141 211.141 0 0 1-53.017 7.537c-21.461.772-42.562-3.846-63.594-7.331-19.899-3.245-39.351-8.808-58.409-15.264-15.864-5.253-30.578-13.271-46.202-19.057-27.47-10.216-53.48-23.865-79.578-37.12-8.447-5.322-17.804-9.305-27.916-9.734 5.957-7.125 15.503-3.726 23.4-3.657 20.088-1.013 40.022 2.266 59.955 4.138 27.384 3.742 55.044 3.76 82.634 4.069 37.394.515 75.252-1.666 111.29-12.414 7.107-2.111 14.198-4.309 21.358-6.318Z" style="fill:#e56324"></path>
    <path d="M980.61 522.893c10.293-17.986 17.667-37.978 32.071-53.275 10.113.429 19.47 4.412 27.917 9.735 26.097 13.254 52.108 26.903 79.578 37.119 15.624 5.786 30.338 13.804 46.202 19.057 19.058 6.456 38.51 12.019 58.41 15.264 21.031 3.485 42.132 8.103 63.593 7.33a211.141 211.141 0 0 0 53.017-7.536 8.48 8.48 0 0 0 6.387-6.198c5.014 16.911 10.491 33.72 14.148 50.992 1.837 9.357 6.078 17.958 10.112 26.526a3.883 3.883 0 0 0 2.97 2.918c-2.317 1.58-4.309 3.692-4.515 6.645-3.296 18.199-5.924 36.535-8.087 54.906-2.145 17.719-.24 35.66-2.352 53.379a356.258 356.258 0 0 0-2.025 51.352c.274 2.919-.052 6.816 3.365 8.018-.327.567-.98 1.717-1.305 2.283.446 10.456-2.232 20.655-3.726 30.922-3.039 20.122-9.082 39.677-16.465 58.615-2.678 7.004-7.674 12.773-10.696 19.59l-.31.171c-5.339 2.37-8.687 7.263-12.79 11.143-11.538 10.885-23.213 21.736-36.278 30.8a499.141 499.141 0 0 1-74.428 47.559c-8.962 4.807-18.61 8.052-28.26 11.108-18.937 6.593-39.832 5.529-58.924.24-21.856-4.91-41.79-15.434-62.41-23.796-17.649-8.223-35.762-15.915-51.42-27.71-13.975-9.684-26.251-21.496-38.407-33.308-5.168-5.305-9.443-11.383-14.903-16.396a6.862 6.862 0 0 0-1.116-3.76c-10.438-11.95-15.778-27.54-18.079-43.026-3.485-18.937-1.614-38.39-4.515-57.344 4.721-25.325 5.305-51.25 3.64-76.9-1.185-15.35-.292-31.059-4.584-45.979-1.305-9.7-.395-19.624-.636-29.41-.67-21.358 6.06-42.459 17.22-60.555 12.362-23.573 24.375-47.37 37.6-70.479Z" style="fill:#f2844f"></path>
    <path d="M1393.077 609.288c3.437-4.66 6.937-9.272 11.47-12.929 20.242 2.146 36.913 18.028 44.106 36.467 7.057 18.903 6.525 39.85 1.7 59.216-6.232 30.63-24.723 57.173-46.082 79.32-11.932 12.294-26.302 22.853-42.87 27.763-3.417-1.202-3.091-5.1-3.365-8.018a356.258 356.258 0 0 1 2.025-51.352c2.112-17.719.207-35.66 2.353-53.379 2.163-18.37 4.79-36.707 8.086-54.906.206-2.953 2.198-5.065 4.516-6.645 6.386-4.721 13.271-9.043 18.061-15.538ZM855.757 636.81c8.596-4.93 19.71-3.915 27.985 1.184 13.049 9.22 20.844 23.693 32.57 34.304 3.588 3.468 5.992 8.07 10.113 11.04 4.292 14.92 3.399 30.629 4.584 45.978 1.665 25.65 1.081 51.575-3.64 76.9-6.078-2.713-12.963-1.168-19.058-3.76-36.364-13.1-63.731-46.357-72.78-83.545a94.048 94.048 0 0 1-1.132-53.086c3.742-11.572 10.56-22.824 21.358-29.016Z" style="fill:#f95939"></path>
    <path d="M951.08 910.346c5.459 5.013 9.734 11.09 14.902 16.396 12.156 11.812 24.432 23.624 38.407 33.308 15.658 11.795 33.771 19.487 51.42 27.71 20.62 8.362 40.554 18.886 62.41 23.797 19.092 5.288 39.987 6.352 58.924-.24 9.65-3.057 19.298-6.302 28.26-11.11a499.141 499.141 0 0 0 74.428-47.557c13.065-9.065 24.74-19.916 36.278-30.801 4.103-3.88 7.451-8.774 12.79-11.143-3.794 19.28-3.261 39.077-3.364 58.65-34.527 10.335-66.307 28.208-96.49 47.557-12.55 8.86-27.058 14.645-38.888 24.552-10.284 8.653-21.306 16.345-32.174 24.243-18.097 12.653-39.352 22.542-61.895 21.821-21.787-.532-44.021-3.399-64.16-12.121-26.251-9.906-52.537-20.397-76.23-35.626-3.983-3.038-8.241-5.768-13.1-7.16 7.073-20.79 8.55-42.818 9.889-64.572.206-19.229 1.974-38.613-1.408-57.704Z" style="fill:#e56324"></path>
    <path d="M1229.045 1016.913c29.744-20.017 61.963-37.222 96.49-47.558.171 39.678.91 79.373 2.678 118.999-4.825 16.344-15.727 29.822-25.41 43.523-21.067 25.616-50.855 42.201-81.158 54.546-17.203 7.76-34.698 14.937-51.232 24.105-14.01 7.743-29.187 13.478-42.15 23.024a8.712 8.712 0 0 1-8.224 1.236c-11.057-7.177-19.023-18.045-29.634-25.77-21.976-16.02-44.639-31.008-67.32-45.997-15.915-11.503-33.736-20.62-47.557-34.818a107.478 107.478 0 0 1-20.277-22.766c-8.567-7.486-13.134-18.766-16.516-29.497-1.34-4.996-4.516-9.769-3.245-15.125-1.374-10.027 4.464-18.87 7.108-28.192 4.859 1.39 9.116 4.12 13.1 7.16 23.693 15.228 49.979 25.719 76.23 35.625 20.139 8.722 42.373 11.59 64.16 12.121 22.543.721 43.798-9.168 61.894-21.821 10.868-7.898 21.891-15.59 32.175-24.243 11.83-9.906 26.143-15.974 38.888-24.552Z" style="fill:#f2844f"></path>
    <path d="M1282.149 745.506c9.447-1.109 18.765 2.06 27.35 5.752 11.28 5.236 20.225 16.825 19.881 29.6.12 16.567-5.202 34.148-18.027 45.29-9.082 8.895-22.595 11.968-34.922 10.01-14.233-1.167-29.101-8.31-35.11-21.941-6.92-12.362-5.477-28.467 3.004-39.695 3.692-4.86 6.147-10.8 11.297-14.44 7.967-6.111 16.175-13.36 26.527-14.576ZM1000.715 747.532c10.115-2.69 21.015-1.51 30.835 1.803 14.336 6.026 23.007 21.616 23.762 36.741.31 13.255-1.51 27.728-10.456 38.167-6.558 7.829-16.362 12.224-26.114 14.49-18.388 3.847-38.922-5.15-47.953-21.77-10.524-16.688-10.01-41.343 5.048-55.18 7.64-5.752 15.453-11.744 24.878-14.25Z" style="fill:#f95939"></path>
    <path d="M1180.663 808.808c3.11-1.724 6.232-4.034 10.026-3.708-.532 4.052-4.807 5.631-7.622 7.915-15.333 9.46-29.857 21.049-47.456 26.045-4.738.996-10.507 2.85-14.73-.395-6.662-4.927-10.731-12.344-15.418-18.972-2.507-4.189-6.044-7.949-7.229-12.79 6.576-3.451 12.036 3.107 18.44 3.605 9.237 1.494 16.208 9.151 25.702 9.735 4.859.275 9.94 3.64 14.628.875 7.743-4.378 15.867-7.991 23.659-12.31Z" style="fill:#e56324"></path>
    <path d="M1115.232 887.648c9.254-3.468 19.52-2.386 29.256-2.592a10.79 10.79 0 0 1 1.27 4.944c-10.044-.377-19.967 2.61-29.96 1.683-.137-1.013-.429-3.022-.566-4.035Z" style="fill:#fcb390"></path>
    <path d="M1094.406 915.187c23.35 1.923 46.957 3.657 70.358.927 2.37-.463 5.494-.291 6.49 2.438-2.283 6.216-6.25 11.64-9.632 17.307-3.485 5.871-10.833.36-15.744-.413-10.163-1.081-20.482.584-30.663 1.1-3.142.309-5.185-2.507-7.469-4.104-5.803-4.498-10.954-10.233-13.34-17.255Z" style="fill:#e56324"></path>
    <path d="M1026.897 521.193c12.555-6.453 25.857-12.928 40.279-12.98-9.391 3.847-19.333 6.233-28.398 10.869-8.859 4.103-16.448 10.353-24.878 15.177a29.137 29.137 0 0 1 12.997-13.066Z" style="fill:#fdb697"></path>
    <path d="M1291.85 326.926c36.208-5.94 71.302-17.306 104.953-31.762 11.864-5.254 24.191-9.975 34.681-17.736a63.068 63.068 0 0 0-7.005 2.61 584.56 584.56 0 0 1-99.992 35.677c-34.39 8.481-69.551 14.989-105.057 15.315 24.157 4.017 48.52-.395 72.42-4.104ZM1223.654 295.404a47.435 47.435 0 0 0 8.052-.275c-8.79-3.159-18.203-3.104-27.384-3.742-17.768-1.236-35.626-.464-53.379.532-44.467 2.678-89.313 7.022-131.96 20.585-12.912 4.276-26.51 8.31-36.776 17.668 43.678-18.852 90.875-28.158 138.09-32.347 34.32-3.073 68.887-4.793 103.357-2.42ZM1224.049 369.591c27.384 2.37 54.803-1.82 81.553-7.417 31.882-7.314 62.855-18.233 93.038-30.766 11.091-4.945 22.663-9.512 32.123-17.324-34.407 17.152-71.13 28.981-108.027 39.455-32.14 9.185-65.38 13.906-98.687 16.052ZM1156.162 333.726c11.967-.79 24.33 1.218 35.935-2.627-12.481-.962-25.017-.585-37.514-.344-51.685.998-103.598 4.31-154.418 14.32-13.014 2.815-26.972 4.84-37.583 13.58 7.932-2.095 15.59-5.202 23.676-6.8 55.817-11.983 112.955-16 169.904-18.13ZM1429.733 357.264a327.543 327.543 0 0 1-65.62 33.531c20.62-3.914 39.008-14.937 57.396-24.586 8.928-5.597 19.384-9.855 25.822-18.56-6.678 1.546-12.035 5.924-17.598 9.615ZM1048.067 384.03c32.62-.669 65.225-2.403 97.811-4.103 18.114-1.528 36.708-1.15 54.272-6.507-8.31.378-16.483 2.146-24.758 2.661-56.314 2.49-112.68 5.323-169.063 3.657-16.843-.292-33.48-3.949-50.34-3.348 30.132 7.04 61.26 8.035 92.078 7.64ZM1309.757 399.07a350.332 350.332 0 0 1-50.203 11.899c-22.285 3.347-44.519 7.777-67.13 7.64 6.73 1.253 13.546 2.506 20.448 2.009 35.505-2.765 70.753-9.564 104.387-21.479 15.452-5.769 31.917-10.181 45.446-19.985-16.945 8.362-34.853 14.525-52.948 19.917ZM1410.23 401.32c9.957-5.769 20.86-10.525 29.152-18.715-8.035 1.786-14.697 6.816-21.77 10.714-25.256 14.765-52.28 26.165-79.39 37 8.74-.945 16.878-4.448 25.016-7.555 15.984-6.422 31.642-13.633 46.991-21.444ZM1128.726 424.257c-52.104-1.623-104.97-3.348-155.276-18.267-7.571-2.164-14.92-5.77-22.955-5.632 11.538 7.125 24.81 10.662 37.79 14.182 43.591 11.297 88.93 12.122 133.66 12.001 17.533-.047 35.608.498 52.52-4.962-15.212 1.511-30.413 3.156-45.738 2.678ZM1332.59 457.445c9.255.67 18.63.515 27.712-1.631 20.328-3.657 39.918-10.387 59.147-17.787 7.709-3.193 15.967-6.026 21.942-12.138-21.496 9.563-43.97 16.722-66.719 22.611-13.94 3.416-27.83 7.16-42.081 8.945ZM1078.868 452.518c-30.39-2.559-60.452-8.036-90.395-13.701-8.824-1.46-16.98-5.975-26.045-6.044 13.941 10.25 31.728 11.915 48.279 14.628 22.097 3.125 44.245 6.01 66.496 7.623 9.013.636 18.284.755 26.955-2.283-8.447 0-16.895 1.236-25.29-.223ZM1163.065 452.552c-11.504.223-22.87-2.438-34.356-1.665 16.465 5.837 34.218 6.043 51.49 5.597 25.72-1.1 51.198-5.151 76.522-9.684 18.062-3.502 36.398-6.816 53.379-14.181-9.786.978-18.903 5.1-28.57 6.661-39.042 7.52-78.65 13.272-118.465 13.272ZM932.245 447.401a5.693 5.693 0 0 0-6.284 1.803c-4.945 5.065-8.207 11.434-11.435 17.65-9.082 18.199-16.808 37.29-20.396 57.396-1.013 6.095-2.644 12.43-.824 18.56a119.047 119.047 0 0 0 3.279-13.118c4.223-22.766 13.117-44.485 24.483-64.59 3.33-6.146 8.43-11.21 11.177-17.7ZM955.766 462.338c-8.206 4.808-13.082 13.289-17.77 21.238-12.962 23.488-23.71 48.383-30.028 74.496-1.476 6.576-3.691 13.203-2.97 20.02 3.588-8.55 5.047-17.77 7.829-26.578 7.33-24.174 18.158-47.17 30.75-69.07 3.91-6.803 10.077-12.345 12.19-20.106ZM1383.497 480.932c8.996-3.348 19.143-5.254 26.183-12.293-21.547 8-43.816 13.77-66.238 18.645 13.7 2.971 27.127-2.489 40.055-6.352ZM966.926 490.152c-9.308 13.566-16.722 28.346-23.848 43.163-8.618 18.68-16.705 37.857-21.203 57.997 2.747-3.383 4.31-7.504 5.683-11.59 8.207-24.654 19.47-48.21 32.277-70.804 6.816-12.568 15.435-23.968 24.483-34.99-8.086 2.385-12.898 9.676-17.392 16.224ZM1353.743 512.077c5.94 12.842 6.713 27.487 13.58 39.935a212.015 212.015 0 0 0-9.63-39.712c-.997-.052-2.954-.171-3.95-.223ZM1385.008 526.499c-.79-5.443-.292-12.362-6.06-15.264.514 8.67 2.334 17.204 3.09 25.857.755 7.297.841 14.697 2.524 21.873 2.386-10.679 1.047-21.684.446-32.466ZM1399.241 554.295c-.276 8.117-1.39 16.14-2.078 24.226 4.842-8.997 4.769-19.432 5.666-29.342.709-7.816 1.992-16.019-.755-23.624-2.867 9.305-2.506 19.134-2.833 28.74ZM1371.89 576.478c1.477 7.554 2.113 15.263 4.053 22.731 1.58-12.447-.533-25.083-3.709-37.102-2.66 4.499-1.133 9.598-.343 14.37ZM888.619 584.495c-1.477 3.468-2.743 7.125-2.713 10.954.094 12.105 1.528 24.329 5.545 35.798-.085-8.001-2.043-15.796-2.352-23.762-.498-7.675.447-15.366-.48-22.99ZM1384.338 589.63c.498 6.386 1.202 12.807 3.709 18.782.223-6.284.069-12.55-.052-18.8-.91 0-2.73.017-3.657.017ZM906.457 593.75c-4.515 4.6-4.706 11.306-5.048 17.323-.586 10.326-.807 21.05 3.056 30.853.258-8.035-.308-16.045.017-24.071.328-8.082 2.13-16.002 1.975-24.105ZM920.14 635.007c.045-6.748 1.168-13.598-.549-20.243-2.919 6.902-2.627 14.525-2.318 21.857.447 8.155.601 16.464 3.09 24.328.653-8.653-.279-17.286-.222-25.942Z" style="fill:#150f0c"></path>
    <path d="M1252.24 638.664c23.45-3.58 48.348-1.391 70.032 8.91a58.919 58.919 0 0 1 23.402 19.006c-12.053 2.953-24.432.258-36.639.824-26.904.636-54.666 2.301-79.681 13.17-8.808 3.484-15.864 10.661-25.376 12.43-2.386-10.542-3.073-22.973 4.12-31.866 10.56-13.598 27.688-19.962 44.142-22.474Z" style="fill:#38312d"></path>
    <path d="M1401.782 637.324c6.095 2.267 8.653 8.688 8.67 14.783.035 14.645-6.215 28.243-12.052 41.343-4.413 9.15-8.156 19.04-15.813 26.045 8.207-12.07 13.186-25.908 17.925-39.609 4.498-13.666 7.657-28.93 1.27-42.562Z" style="fill:#cc492f"></path>
    <path d="M975.854 655.524c25.7-7.992 53.258-10.834 79.904-6.181 11.572 1.425 23.59 4.515 32.519 12.464 8.447 7.692 10.524 19.9 10.06 30.819-24.517-1.374-48.313-8.259-72.642-11.263-23.298-3.88-47.352-4.756-69.826-12.516a41.969 41.969 0 0 1 19.985-13.323Z" style="fill:#38312d"></path>
    <path d="M1303.404 672.881c7.966-4.515 17.495-3.845 26.337-3.416 6.043.532 12.568.395 17.77 4.052-14.697.188-29.48.755-44.107-.636Z" style="fill:#503f38"></path>
    <path d="M950.89 675.955c10.508-1.546 21.479 1.013 31.385 4.48-10.61.722-21.53-.257-31.385-4.48Z" style="fill:#57463d"></path>
    <path d="M873.939 684.745c-.48-3.554 1.476-6.661 3.142-9.615.91 7.023.635 14.285 3.073 21.032 5.735 16.86 16.877 31.214 29.634 43.387-11.006-6.095-18.68-16.431-25.307-26.818-5.22-8.516-10.113-17.788-10.542-27.986Z" style="fill:#cc492f"></path>
    <path d="M1318.427 681.329c8.498-5.048 19.229-2.284 28.07.446a112.125 112.125 0 0 1-28.07-.446ZM950.152 684.179c8.344-1.752 16.86.291 24.895 2.558a61.683 61.683 0 0 1-24.895-2.558Z" style="fill:#57463d"></path>
    <path d="M1258.198 685.45c3.33-1.168 8 .325 8.258 4.411.927 7.229-.412 17.547-8.945 19.47-5.752-1.116-5.734-8.12-4.928-12.653.91-3.984 1.718-9.066 5.615-11.229ZM1023.893 705.451c-.206-6.627.36-14.817 6.988-18.37 7.45 3.227 5.202 12.052 5.408 18.49-.069 3.812-.653 9.666-5.528 10.027-5.083-.155-6.319-6.13-6.868-10.147Z" style="fill:#160e0b"></path>
    <path d="M1250.678 716.765c11.76.36 23.212-3.107 34.921-3.365-7.382 5.426-16.756 6.25-25.461 7.984-9.374 1.734-19.212 1.562-28.157-1.958 5.288-4.343 12.447-2.043 18.697-2.66Z" style="fill:#b75a35"></path>
    <path d="M1005.127 715.666c6.92 2.215 13.53 5.443 20.723 6.8 10.061 2.317 20.414 2.54 30.681 3.176-9.512 2.678-19.538 1.648-29.204.635-8.207-1.099-17.444-3.108-22.2-10.61Z" style="fill:#bb6142"></path>
    <path d="M1236.445 731.256c14.113-2.575 28.432-3.915 42.579-6.353-8.43 5.426-18.68 6.456-28.329 8.121-4.842.927-9.683-.309-14.25-1.768Z" style="fill:#ba5f3d"></path>
    <path d="M1007.36 728.577c13.992 1.803 27.933 4.293 42.011 5.632-7.777 3.297-16.396 1.528-24.5.996-6.386-.447-12.808-2.112-17.512-6.628Z" style="fill:#b85d37"></path>
    <path d="M1002.603 744.184a366.801 366.801 0 0 1 38.201 13.29c-13.237-1.855-28.105-3.658-38.2-13.29Z" style="fill:#fdb697"></path>
    <path d="M1146.84 748.854a18.41 18.41 0 0 1 1.751 9.718c-.91 9.958-1.7 20.002-4.344 29.685a94.244 94.244 0 0 1 2.593-39.403Z" style="fill:#feb38e"></path>
    <path d="M976.936 756.615c4.584 4.395 8.378 9.511 12.825 14.044 9.511 9.94 20.26 18.594 30.63 27.607a28.654 28.654 0 0 1 6.764 8.585c-8.155-4.722-15.195-11.022-22.663-16.705-9.065-7.4-18.732-14.577-25.359-24.398-1.957-2.644-2.146-5.992-2.197-9.133Z" style="fill:#cc492f"></path>
    <path d="M1254.627 780.239c10.13-9.82 23.693-14.989 36.398-20.637-5.511 6.868-13.838 10.164-21.135 14.645a49.57 49.57 0 0 1-15.263 5.992Z" style="fill:#fbb48f"></path>
    <path d="M1256.721 811.28c20.225-20.104 49.396-25.736 73.81-39.007-4.31 6.781-12.31 9.27-19.075 12.79-12.688 5.872-25.05 12.414-37.102 19.47-5.563 2.936-11.005 7.16-17.633 6.747Z" style="fill:#cc492f"></path>
    <path d="M1094.63 789.854c1.527-3.108 4.703-4.756 7.467-6.627-2.884 5.94-6.49 12.172-3.296 18.8a56.898 56.898 0 0 1 24.105 5.545c9.89 4.704 20.174 11.005 31.557 9.752 12.293-4.138 22.869-13.478 36.38-13.872.74-3.434 2.267-6.885 1.855-10.456-1.15-3.245-2.833-6.233-4.223-9.34 2.918 1.081 6.558 1.802 7.966 5.013 3.296 6.043-.532 13.031-4.67 17.564-6.112 3.262-13.031 4.756-19.075 8.207-7.76 3.949-15.726 10.095-24.963 8.155-12.345-1.236-22.303-9.289-33.84-12.997-5.597-2.146-11.624-2.541-17.41-3.794-2.867-4.636-4.841-10.885-1.854-15.95Z" style="fill:#b65b33"></path>
    <path d="M1061.253 864.556c17.519-10.884 38.664-13.547 58.923-13.358a260.553 260.553 0 0 1 68.419 11.177c10.267 3.245 20.723 9.409 24.431 20.14-20.809-5.271-42.287-7.074-63.61-8.842-17.153-1.7-34.408.463-51.525-1.614-14.937-1.854-29.805 1.27-44.141 5.168 2.163-4.344 3.088-9.928 7.503-12.671Z" style="fill:#f95939"></path>
    <path d="M1053.75 877.227c14.344-3.87 29.204-7.022 44.141-5.168 17.117 2.077 34.372-.086 51.524 1.614 21.324 1.768 42.802 3.57 63.611 8.842.721.67 2.147 2.008 2.85 2.678l-2.215-.051c-13.048-.086-25.856-2.937-38.801-4.138-10.216-.927-20.431-2.01-30.647-2.61-9.735-.584-19.452.652-29.17.635-11.125.035-22.2-2.352-33.308-1.013-9.323 1.116-18.56 3.022-27.951 3.056a35.595 35.595 0 0 1-5.683-2.077 76.34 76.34 0 0 1 5.649-1.768Z" style="fill:#a3343e"></path>
    <path d="M1081.735 878.016c11.11-1.334 22.183 1.048 33.308 1.013 9.718.017 19.435-1.219 29.17-.635 10.216.6 20.431 1.683 30.647 2.61 12.945 1.201 25.753 4.052 38.801 4.137-2.489 4.55-5.768 9.066-10.954 10.662-14.867 5.563-30.955 6.164-46.596 7.435-25.89 1.407-52.297 1.596-77.535-5.151-9.632-3.04-20.397-7.09-24.792-17.015 9.391-.034 18.629-1.936 27.951-3.056Z" style="fill:#f95939"></path>
    <path d="M1116.382 886.43c10.422-4.413 22.062-3.022 33.085-2.748-10.662 3.434-22.028 4.876-33.085 2.747Z" style="fill:#fca784"></path>
    <path d="M950.976 907.1c6.92 5.752 11.967 13.29 18.32 19.607a329.983 329.983 0 0 0 41.325 35.867c19.144 12.619 39.266 24.088 60.95 31.762 13.083 4.739 26.269 9.22 39.3 14.113 11.211 4.275 22.938 7.434 34.956 8.19 33.6-2.284 63.542-19.23 92.146-35.557 17.22-10.473 33.016-23.007 49.567-34.458 15.623-11.057 28.706-25.136 42.115-38.682-8.464 11.4-16.825 23.178-28.037 32.071-9.443 8.5-20.07 15.47-30.131 23.144-12.345 9.083-25.067 17.702-38.682 24.724-18.714 10.473-37.549 21.34-58.357 27.058-17.942 4.859-37.377 6.507-55.216.395-31.162-10.456-62.959-20.328-91.15-37.652a208.449 208.449 0 0 1-42.613-31.024c-12.877-11.795-26.235-23.933-34.493-39.557Z" style="fill:#b65b36"></path>
    <path d="M1111.094 937.627c6.318-5.408 14.903-6.112 22.852-5.288 9.992.824 20.088 2.867 28.964 7.777-8.602-1.064-16.946-3.845-25.65-4.034-8.791-.824-17.427 1.288-26.166 1.545Z" style="fill:#ba5f3d"></path>
    <path d="M1116.004 961.44c7.005-6.592 17.084-5.236 25.84-4.584a21.723 21.723 0 0 1 12.155 4.585c-12.653-1.237-25.324-.601-37.995 0Z" style="fill:#fcb391"></path>
    <path d="M1156.678 1102.243c4.857-18.507 5.15-37.754 6.146-56.76 2.163 1.098 5.1 2.111 4.962 5.133 1.253 13.873-1.425 27.78-3.897 41.395-1.837 8.618-3.692 17.855-10.25 24.294-.326-4.928 1.82-9.417 3.039-14.062Z" style="fill:#b85a34"></path>
    <path d="M1089.513 1050.977c.944.154 2.85.446 3.794.6a215.733 215.733 0 0 0 8.67 63.303c-6.37-4.602-7.382-12.877-9.323-19.916-2.987-14.37-6.575-29.36-3.141-43.987Z" style="fill:#b75a37"></path>
    <path d="M888.07 1129.662c-2.936-10.137-1.941-20.998 1.132-30.973.945 11.074-1.03 22.68 3.588 33.188a123.227 123.227 0 0 0 36.416 47.747c11.469 9.357 24.088 17.169 36.347 25.444 18.456 12.328 38.904 21.376 57.293 33.858 16.79 11.88 33.65 23.83 49.223 37.29-12.602-5.803-22.938-15.383-34.51-22.886-24.242-17.873-52.296-29.513-77.106-46.476-18.954-12.705-38.973-24.792-53.36-42.871-8.087-10.302-15.357-21.655-19.024-34.32Z" style="fill:#794274"></path>
    <path d="M1359.255 1174.714c8.385-9.031 15.537-19.092 23.916-28.089-1.442 9.134-8.19 15.933-13.358 23.16-19.555 25.325-45.24 45.19-72.745 61.191-12.773 7.486-26.68 12.654-40.501 17.787-19.71 7.572-39.935 13.667-59.714 21.032-10.507 4.31-21.255 8.636-30.2 15.761a80.301 80.301 0 0 1-11.314 7.795c8.773-14.765 25.152-22.01 40.33-28.329 29.976-11.28 60.76-20.568 89.879-33.977a277.556 277.556 0 0 0 73.707-56.332Z" style="fill:#783f76"></path>
    <path d="M891.365 1186.44c-6.615-9.472-14.25-18.989-16.207-30.698 4.584 11.349 12.43 20.877 20.036 30.337 14.01 17.1 32.106 30.098 49.842 43.026 23.968 15.4 49.343 28.449 73.775 43.111 12.258 7.554 26.577 12.791 35.986 24.174-16.963-12.79-36.896-20.568-55.233-31.041-23.865-13.564-49.154-25.084-70.53-42.597-13.907-10.576-27.59-21.881-37.669-36.312Z" style="fill:#794274"></path>
    <path d="M1386.124 1173.838a103.826 103.826 0 0 1 10.198-12.894c-.085 5.254-3.022 9.683-5.94 13.804-21.599 31.866-54.151 54.494-88.18 71.44-19.71 10.284-39.9 19.847-61.173 26.44-13.46 4.018-26.68 8.722-39.97 13.22 13.306-8.79 29.154-12.207 43.799-18.079 26.835-9.34 52.142-22.44 76.865-36.295 24.638-15.109 47.586-33.881 64.401-57.636Z" style="fill:#784276"></path>
    <path d="M1049.496 1592.713h3.479c-1.097-13.025-.12-26.14-1.457-39.166-2.747-30.887-1.734-61.911-.567-92.85 1.545-41.944 3.09-83.99 8.756-125.625 2.936-22.663 14.577-43.06 28.312-60.916 7.382-9.631 16.998-17.186 25.221-26.045-21.203 12.19-35.808 32.976-46.854 54.288-8.12 15.667-10.834 33.325-12.757 50.666-6.215 50.562-5.768 101.571-7.09 152.392-.292 20.654.858 41.257 1.888 61.877.58 8.426.129 16.969 1.07 25.379Z" style="fill:#7b437a"></path>
    <path d="M1112.09 1332.582a57.265 57.265 0 0 1 16.087 2.01c9.872 5.87 6.01 23.177-4.636 25.958-7.588 2.438-17.65-.377-20.894-8.138-1.957-7.657 2.592-16.259 9.443-19.83Z" style="fill:#794274"></path>
    <path d="M1105.548 1351.022c-1.648-7.692 4.156-13.907 9.958-17.908l.344 2.627c4.533.618 10.473.447 12.91 5.202 2.696 6.044-.703 14.697-7.553 16.07-5.683 1.563-12.929-.463-15.659-5.991Z" style="fill:#fff"></path>
    <path d="M674.23 1358.68c10.61 10.42 18.473 23.212 26.08 35.9 18.438 30.457 30.182 64.435 39.007 98.773 5.803 23.59 8.86 47.73 11.881 71.8a230.619 230.619 0 0 1 .944 26.904 498.5 498.5 0 0 0-26.56-131.377 344.336 344.336 0 0 0-33.6-72.694c-5.545-10.009-13.014-18.868-17.753-29.307Z" style="fill:#784279"></path>
    <path d="M754.975 1482.57c7.486 31.23 11.692 63.097 16.328 94.825.67 5.09 1.124 10.215 1.742 15.318h2.045a231.54 231.54 0 0 0-5.453-47.373c-5.837-39.677-13.374-79.252-25.015-117.693-6.507-20.894-12.533-42.201-22.525-61.774 2.592 13.735 8.155 26.663 11.795 40.124 7.571 25.375 15.16 50.751 21.083 76.573Z" style="fill:#7b457a"></path>
    <path d="M1521.913 1580.914c-.983 3.978-2.293 7.875-3.49 11.799h3.05c1.113-3.65 1.983-7.4 3.084-11.009 4.687-13.426 6.439-27.608 8.602-41.6a239.147 239.147 0 0 0 2.524-48.28c-1.133-19.572-2.078-39.282-6.61-58.425-2.747 9.511-.62 19.403-.31 29.084.736 22.877 3.984 45.79 1.443 68.658-1.803 16.723-3.056 33.703-8.293 49.773Z" style="fill:#774075"></path>
    <path d="M1555.668 1521.699c1.556-9.793 1.854-19.796 4.567-29.36 2.678 12.689.635 25.668-.928 38.356a313.249 313.249 0 0 1-12.31 51.473c-.824 3.176-3.348 5.356-5.734 7.382 5.734-22.405 10.775-45.014 14.405-67.851Z" style="fill:#773f73"></path>
    <path d="M1113.72 1519.415c11.848-3.451 20.312 11.847 14.475 21.358-4.705 9.7-19.35 11.847-26.475 3.743-8.516-8.945-.326-25.925 12-25.1Z" style="fill:#784276"></path>
    <path d="M1102.578 1527.673c5.322-2.18 10.92-6.266 16.929-4.103 7.09 2.764 8.516 13.392 2.695 18.216-5.133 5.632-15.452 4.687-19.28-1.94-2.318-3.708-.653-8.19-.344-12.173Z" style="fill:#fff"></path>
  </g>
</svg>
