<svg xmlns="http://www.w3.org/2000/svg" viewBox="0 0 2121 1887.494" id="female">
  <g id="art">
    <path d="M1239.33 230.428c13.688-1.444 27.538-2.198 41.279-.908 11.973 1.138 23.939 3.137 35.284 7.252 11.607 4.148 22.251 10.597 32.067 17.985 6.154 4.745 12.26 9.561 18.55 14.155 6.13 4.442 11.782 9.505 17.761 14.155a194 194 0 0 1 34.6 34.52c7.013 8.78 11.917 18.947 17.753 28.492 5.453 9.044 8.924 19.083 13.645 28.501a283.892 283.892 0 0 1 15.182 37.29 173.236 173.236 0 0 1 9.02 58.976 243.13 243.13 0 0 1-1.568 29.48c-2.094 19.728-4.419 39.958-13.065 58.077-5.652 10.565-13.86 19.45-21.861 28.27a152.677 152.677 0 0 1-48.515 36.008c-9.211 4.053-19.13 6.226-29.082 7.492-19.752 2.428-39.91 3.216-59.621.024.294 5.597 1.815 11.05 1.886 16.67.852 9.61 1.322 19.426-.947 28.892-5.883 22.912-15.214 44.75-25.428 66.021-3.097 6.688-5.414 13.694-8.224 20.5-2.603 7.914-6.114 15.525-8.056 23.653a40.41 40.41 0 0 0 .875 19.178c2.866 10.175 7.914 19.585 10.947 29.704a134.739 134.739 0 0 1 .462 74.436c4.601.9 9.29 1.784 14.003 1.481 11.512-1.305 22.682-6.783 30.03-15.874 1.982-2.38 3.726-4.952 5.525-7.476-1.29 7.412-3.24 15.437-9.267 20.5-5.246 4.14-10 9.171-16.352 11.623a41.139 41.139 0 0 1-27.992 1.457c-5.421 13.08-13.064 25.11-21.598 36.359-3.36 4.068-7.237 7.706-10.23 12.085a58.977 58.977 0 0 0-10.812 33.317c-3.646-7.07-5.206-15.436-2.762-23.15 4.633-14.044 12.57-26.63 20.269-39.138a94.14 94.14 0 0 0 10.66-24.918 45.028 45.028 0 0 1-11.544-7.237c-3.582-3.638-7.786-6.64-10.962-10.668-.868 17.332-7.659 33.564-14.068 49.447a96.168 96.168 0 0 0-5.994 15.668c-4.196 16.36-7.173 33.23-6.313 50.179-2.652-5.629-2.524-11.958-4.156-17.865-1.728-7.683-1.234-15.588-1.401-23.406-.2-8.988 3.152-17.49 6.48-25.675 5.724-13.454 10.78-27.362 12.698-41.931.39-4.785.916-9.57.868-14.37.008-5.103 1.91-10.27.374-15.293a60.254 60.254 0 0 1-1.783-14.052 146.036 146.036 0 0 0-15.565 44.607c-1.456 9.521-4.283 18.812-5.103 28.429-1.146 8.057-.119 16.472-3 24.242-.9 2.07-3.886 2.388-5.486 1.003-1.831-1.513-2.858-3.718-3.901-5.772-3.901-8.28-7.078-16.91-11.767-24.791-6.95-12.778-15.19-24.8-22.108-37.585-6.735-12.316-13.773-24.464-20.794-36.621-8.264-14.163-16.552-28.326-25.643-41.98q-15.25-22.665-32.458-43.937c-12.555-15.5-25.412-30.794-39.193-45.227-15.309-16.265-31.581-31.574-48.053-46.637-11.671-10.668-23.43-21.256-35.833-31.072q-18.331-14.485-37.633-27.697c-13.056-8.988-26.518-17.363-39.487-26.47-6.01-4.626-12.3-8.893-18.08-13.805-5.891-5.135-12.857-8.821-18.916-13.733-3.391-2.747-10.222-2.484-9.027-8.861.007 4.307.031 8.63.421 12.929-.135.517-.398 1.544-.533 2.062-.494-.072-1.497-.223-1.99-.295-1.871-7.11-2.11-14.505-2.428-21.797a78.29 78.29 0 0 1 3.773-23.223c3.822-13.71 8.4-27.315 15.254-39.838a204.85 204.85 0 0 1 26.367-39.623c8.312-10.07 18.908-17.865 29.225-25.738a210.771 210.771 0 0 1 35.842-22.339c13.645-6.321 27.442-12.411 41.764-17.045 30.077-10.795 61.81-17.483 93.814-18.072 10.923-.851 21.893-.708 32.84-.573-2.261-7.444-2.022-15.277-1.87-22.952.612-7.746 1.392-15.612 4.187-22.928 3.94-10.166 9.219-19.943 16.623-28.023 18.565-20.97 43.714-34.814 69.516-44.917 16.201-6.281 33.394-9.79 50.625-11.607Zm11.098 595.844q-1.946 3.822-3.797 7.683c-3.535 6.536-3.647 14.155-4.904 21.312a59.608 59.608 0 0 0 4.012 33.58c2.938 5.382 6.48 10.644 11.408 14.418 2.038-9.466 2.261-19.179 2.444-28.82a71.435 71.435 0 0 0-2.842-23.565c-2.038-8.224-5.31-16.153-6.32-24.608Z" style="fill:#4e3e37"></path>
    <path d="M1650.563 1673.446a683.45 683.45 0 0 0-12.554-89.717c-5.11-26.806-12.85-53.006-21.081-78.991-4.665-14.96-10.405-29.56-16.527-43.978q-9.924-21.865-21.703-42.815c-13.916-25.515-33.373-47.464-54.215-67.502q-12.336-11.237-25.5-21.52c-11.512-8.844-23.915-16.431-35.992-24.456-14.736-9.33-30.133-17.538-45.092-26.479-22.745-13.31-45.546-26.67-66.65-42.512a232.878 232.878 0 0 1-22.332-17.435c-8.287-7.396-15.317-16.018-23.031-23.98a435.359 435.359 0 0 1-33.644-40.346q-10.712-15.035-21.981-29.672c-4.554-5.803-9.577-11.75-16.575-14.624a13.151 13.151 0 0 0-13.765 1.99c-2.151 1.834-4.8 3.686-5.262 6.703l-.383-.024c-.326-.9-.645-1.79-.963-2.666a20.423 20.423 0 0 0-4.824.54c-11.194 2.93-22.626 4.802-33.859 7.532-6.417 1.84-12.85 3.622-19.314 5.294-24.05 7.269-48.26 14.012-72.677 19.935-17.539 4.33-34.894 9.386-52.488 13.478-17.817 4.379-35.204 10.278-52.75 15.596-13.049 4.26-26.567 7.133-39.21 12.547-3.59.494-7.364.947-10.38 3.137-4.873 3.487-9.029 7.85-13.431 11.878-5.47 4.936-10.119 10.676-15.27 15.93a196.282 196.282 0 0 1-32.338 27.37c-8.264 5.446-16.145 11.44-24.21 17.165-9.76 6.671-19.13 13.9-29.09 20.285-13.661 8.837-27.474 17.466-40.769 26.853-14.06 9.561-28.445 18.645-42.258 28.572-23.907 16.894-47.146 34.862-68.386 55.052-8.184 8.049-16.52 15.946-24.536 24.162a196.09 196.09 0 0 0-23.661 30.404 241.322 241.322 0 0 0-20.699 38.19 400.023 400.023 0 0 0-17.666 47.615c-4.792 15.874-8.104 32.13-11.018 48.443-3.583 18.67-6.122 37.53-7.945 56.453-1.181 10.507-2.425 21.026-2.804 31.593Z" style="fill:#d0434e"></path>
    <path d="M1016.434 457.99c9.084-.343 18.191-.885 27.267-.088a91.585 91.585 0 0 1 26.86 4.41c9.053 3.2 18.025 6.839 26.28 11.79 8.32 5.63 16.671 11.281 24.25 17.905 7.269 5.23 12.308 12.746 17.523 19.88a219.934 219.934 0 0 1 12.618 20.897c5.501 11.79 11.64 23.374 15.15 35.969 3.209 12.06 6.791 24.042 8.909 36.358a328.753 328.753 0 0 1 6.217 38.532c.51 14.084 2.835 28.032 2.675 42.147.136 3.55-.907 7.26.231 10.708-.127 11.042-.86 22.084-.645 33.134.486 11.942.773 23.891 1.736 35.817 1.003 11.377 1.743 22.777 2.659 34.162a76.002 76.002 0 0 0 4.418 21.853c.367 0 1.107-.008 1.473-.016-.86 7.834-.605 15.739-1.027 23.597-.08 6.106-.597 12.212-.485 18.334.175 6.098-.558 12.165-.621 18.271-.287 11.68-.072 23.374-.128 35.061 1.529 26.001.661 52.162 4.355 77.988 2.69 21.383 5.485 42.902 11.544 63.673 2.683 11.472 4.697 23.135 8.582 34.289 2.46 8.24 4.307 16.662 6.934 24.854a247.806 247.806 0 0 0 10.755 27.641c-10.842 10.78-22.426 20.779-34.05 30.699-6.36 5.477-13.629 9.728-20.579 14.393-10.787 7.309-21.376 14.904-32.585 21.575-15.126 9.832-31.757 17.116-46.7 27.251-11.225 7.58-22.65 14.888-33.445 23.08-10.851 8.192-21.973 16.097-31.94 25.38-13.088 11.838-25.985 23.923-38.15 36.717-10.158 10.277-20.158 20.723-29.647 31.63-7.46 8.725-15.692 16.742-23.23 25.403-1.426 1.712-4.913 2.882-6.21.454-2.357-8.375-2.827-17.108-4.626-25.595-2.564-13.423-2.38-27.132-4.1-40.642-.502-12.785-1.648-25.523-3.2-38.221-1.282-8.439-1.386-16.99-2.301-25.46-.43-11.647-2.15-23.19-2.468-34.838a3.02 3.02 0 0 1-.94-3.75c5.032-7.428 7.675-16.169 10.31-24.624a3.21 3.21 0 0 0 2.444-.708c11.018-7.834 22.355-15.23 32.951-23.637 12.292-9.625 23.908-20.086 35.18-30.881 16.035-15.341 29.632-33.055 41.343-51.867a220.516 220.516 0 0 0 11.982-21.44c9.25-16.822 18.063-33.906 25.666-51.548 5.653-13.837 11.25-27.713 16.297-41.796 2.794-8.057 5.62-16.106 8.614-24.09 1.186-3.798 2.945-7.58 2.794-11.632a2.013 2.013 0 0 0-3.678-1.186c-4.482 5.613-10.095 10.135-15.66 14.617-12.73 9.88-25.5 19.72-38.635 29.066a203.452 203.452 0 0 1-19.433 12.475c-11.201 5.82-22.475 11.671-34.512 15.596-9.14 3.535-18.748 5.605-28.302 7.659-6.297 1.385-12.761 1.448-19.17 1.448-2.803.096-5.724-.246-8.367.876-8.845-1.266-17.284-4.323-25.587-7.547-6.744-2.611-12.555-6.982-18.677-10.732-7.213-4.577-13.303-10.66-18.988-16.98-10.469-10.685-18.151-23.693-25.356-36.702-5.334-10.389-10.923-20.667-15.668-31.35-3.956-8.67-6.68-17.826-9.728-26.83-4.8-15.397-9.442-30.89-12.276-46.78-2.588-16.503-6.568-32.768-8.773-49.327-1.513-9.418-2.11-18.94-3.376-28.381-1.385-11.998-3.025-24.011-2.77-36.112.119-8.742-.032-17.499.597-26.216a117.42 117.42 0 0 1 .756-15.15c-.016-5.16.852-10.254 1.425-15.366 1.473-24.576 5.716-48.929 10.93-72.987 4.252-16.79 10.16-33.318 19.155-48.19 7.285-12.697 18.04-22.848 28.286-33.118 7.563-7.841 17.212-13.088 26.001-19.369.247-.35.749-1.051.996-1.401 4.442-3.113 9.362-5.446 13.971-8.296 2.285-1.552 5.167-1.44 7.564-2.762a137.43 137.43 0 0 1 31.43-9.912c19.274-4.554 38.962-7.157 58.642-9.155 6.09-.175 12.149-1.163 18.263-.908Z" style="fill:#f2844f"></path>
    <path d="M1241.782 646.048a58.113 58.113 0 0 1 32.697 3.12 56.577 56.577 0 0 1 19.966 11.05c9.936 9.235 17.205 21.623 19.179 35.149a66.938 66.938 0 0 1-.008 20.675c-.971 15.66-6.648 30.802-15.182 43.906-8.12 13.24-18.725 24.791-30.165 35.236-13.287 11.408-29.743 19.433-47.162 21.814-8.877.684-17.77 1.48-26.686 1.321a50.709 50.709 0 0 0-.366 3.129c-.366.008-1.106.016-1.473.016a76.002 76.002 0 0 1-4.418-21.853c-.916-11.385-1.656-22.785-2.66-34.162-.962-11.926-1.249-23.875-1.735-35.817-.215-11.05.518-22.092.645-33.134-.103-1.856.98-3.368 1.776-4.928 3.487-6.425 6.551-13.256 11.814-18.494 12.228-12.149 26.52-23.443 43.778-27.028ZM898.163 806.377c2.452-.342 4.57 1.41 6.886 1.975 5.422 2.11 11.345 2.555 16.663 4.912 2.126.668 2.142 3.423 1.05 5.007-3.295 5.764-7.658 10.836-12.052 15.78-3.272 3.399-6.664 6.91-10.97 8.98a4.527 4.527 0 0 1-5.828-1.99c-1.418-2.429-.518-5.31-.24-7.906.32-3.527 1.872-6.83 1.824-10.39-.024-4.267.517-8.502.581-12.761-.056-1.457.565-3.169 2.086-3.607ZM891.579 915.357c4.793-.461 9.338-2.3 14.17-2.483 10.844-.375 21.87-.876 32.506 1.703 1.242.86 1.13 2.882 2.317 3.95 1.05 1.743 4.777.381 4.936 2.642a71.978 71.978 0 0 0-2.994.263c-.875.557-1.074 1.704-1.695 2.508a34.014 34.014 0 0 1-9.554 1.409c-9.434.31-18.931.796-28.158 2.93a2.809 2.809 0 0 1-3.185-.956c-2.316-2.754-5.636-4.8-6.695-8.415-.9-.7-2.285-.931-2.54-2.205.223-.334.67-1.011.892-1.346ZM1103.696 929.823a2.013 2.013 0 0 1 3.678 1.186c.151 4.052-1.608 7.834-2.794 11.632-2.994 7.984-5.82 16.033-8.614 24.09-5.047 14.083-10.644 27.96-16.297 41.796-7.603 17.642-16.416 34.727-25.667 51.549a220.516 220.516 0 0 1-11.981 21.439c-11.71 18.812-25.308 36.526-41.342 51.867-11.273 10.795-22.889 21.256-35.18 30.881-10.597 8.407-21.934 15.803-32.952 23.637a3.21 3.21 0 0 1-2.444.708 439.991 439.991 0 0 0 6.56-55.353 89.046 89.046 0 0 1 .732-13.272c.008-15.014 3.145-29.782 3.28-44.79.685-7.714.892-15.436 1.043-23.166-.135-6.942 1.386-13.773 1.394-20.7a169.104 169.104 0 0 1 2.308-17.68c-.024-.463-.063-1.378-.08-1.832-1.91-.16-3.82-.143-5.723-.255 2.643-1.122 5.564-.78 8.367-.875 6.409 0 12.873-.064 19.17-1.45 9.554-2.053 19.163-4.123 28.302-7.658 12.037-3.925 23.31-9.776 34.512-15.596a203.452 203.452 0 0 0 19.433-12.475c13.136-9.346 25.905-19.187 38.635-29.066 5.565-4.482 11.178-9.004 15.66-14.617Z" style="fill:#ef5e2e"></path>
    <path d="M1312.103 316.145c-4.442-6.05-10.548-10.557-15.723-15.922-.31.04-.932.111-1.242.143-.923-.9-1.84-1.8-2.77-2.667a268.22 268.22 0 0 0-22.546-16.177c-1.266-.74-2.548-1.465-3.806-2.205a122.02 122.02 0 0 0-17.363-8.025c-.868-.319-1.728-.629-2.58-.923-6.369-1.831-13.088-3.01-19.711-2.046 2.818 1.568 6.09 1.743 9.147 2.571 2.977.796 5.891 1.823 8.813 2.826.884.31 1.76.637 2.651.963a105.634 105.634 0 0 1 13.78 6.17c1.29.637 2.588 1.282 3.878 1.959 8.351 4.355 16.01 9.905 23.684 15.357 1.304.926 2.691 1.743 4.06 2.595l-.676.104a153.417 153.417 0 0 1 13.064 10.652c2.978 2.611 5.326 5.835 8.264 8.494a5.017 5.017 0 0 0-.924-3.869ZM1096.085 427.108c-7.773-3.766-16.081-6.162-24.345-8.503a41.815 41.815 0 0 1-3.957-1.449c-.246.136-.724.414-.963.55-6.6-2.532-13.598-3.726-20.452-5.334-6.552-1.52-13.287-1.935-19.84-3.455-.708.23-1.408.477-2.101.724-1.982-.087-3.949-.31-5.923-.438-1.752.231-3.097 1.616-4.483 2.604 1.951-.016 3.902.11 5.868.159.286-.096.876-.295 1.17-.39 5.692 1.17 11.528 1.345 17.236 2.452 8.559 1.568 17.172 3.049 25.484 5.676l.485-.334q1.84.549 3.703 1.138c8.486 2.46 17.291 4.013 25.388 7.667a32.449 32.449 0 0 0 6.066 2.006 10.056 10.056 0 0 0-3.336-3.073Z" style="fill:#fbbb9e"></path>
    <path d="M872.56 525.253c2.636-1.926 5.485-3.71 8.773-4.227a6.044 6.044 0 0 1-2.476 3.28 105.22 105.22 0 0 0-25.778 24.409c-2.611 3.271-4.172 7.42-7.635 9.959.597-5.517 3.718-10.294 6.966-14.625a100.943 100.943 0 0 1 20.15-18.796Z" style="fill:#fcbd9f"></path>
    <path d="M1031.663 593.512c10.456-3.63 21.6-4.267 32.554-4.936 10.883.27 21.813 1.728 32.115 5.398 6.743 2.476 14.091 4.283 19.712 8.98 2.428 3.113 6.822 3.638 9.091 6.91-12.722.27-25.53-1.417-38.173.677-30.714 4.49-59.789 15.819-89.452 24.464a124.104 124.104 0 0 1-20.898 4.188c-1.616-.095-3.702-.239-4.395-1.958a6.332 6.332 0 0 1 1.744-2.683q8.168-8.92 17.029-17.18c12.133-10.087 25.718-18.667 40.673-23.86Z" style="fill:#4e3e37"></path>
    <path d="M1248.653 271.292c7.014-13.407 15.516-26.216 26.399-36.82-.143-.414-.414-1.242-.55-1.664-4.25 2.563-7.565 6.32-10.73 10.055a128.515 128.515 0 0 0-17.699 27.506c.852.294 1.712.604 2.58.923ZM1301.515 268.753a209.441 209.441 0 0 1 15.755-19.314c1.457-1.593 2.994-3.28 3.272-5.525a12.837 12.837 0 0 0-3.145 1.64 72.263 72.263 0 0 0-14.632 17.228c-1.768 2.89-4.172 5.692-4.275 9.242a21.45 21.45 0 0 0 3.025-3.271Z" style="fill:#150f0c"></path>
    <path d="M1266.016 279.317c1.258.74 2.54 1.465 3.805 2.205a203.165 203.165 0 0 1 25.054-5.246c13.534-1.967 27.237-1.729 40.873-1.49a116.679 116.679 0 0 1 37.393 7.317 3.058 3.058 0 0 0 3.137-.286c-5.023-3.185-10.875-4.61-16.567-6.059a94.135 94.135 0 0 0-12.865-2.317c2.842-2.953 6.496-5.134 8.757-8.63-4.641.845-6.624 5.932-10.238 8.352-6.114-.414-12.252-.263-18.367-.462-.955-.31-1.902-.613-2.842-.916 4.825-6.639 10.804-12.3 16.4-18.262-3.813.565-6.657 3.371-9.274 5.947a61.351 61.351 0 0 0-9.84 12.793 166.278 166.278 0 0 0-26.543.964 215.219 215.219 0 0 0-23.374 4.53c.335-3.081 2.126-5.7 3.519-8.384 5.764-10.325 12.077-20.547 20.556-28.89a20.644 20.644 0 0 0 2.913-3.67c-4.896 1.934-8.279 6.201-11.774 9.935a99.888 99.888 0 0 0-17.706 31.67c-1.019.286-2.022.58-3.017.899ZM1238.916 288.409c.972-.645 2.182-1.17 2.635-2.357 1.887-3.742 3.543-7.61 5.422-11.369-.892-.326-1.767-.652-2.651-.963-1.927 4.848-4.506 9.498-5.406 14.689ZM1158.628 315.938c-1.385 9.108-3.025 18.343-1.934 27.57.199 5.318.35 10.78 2.603 15.715.254-.502.772-1.505 1.035-2.006-.51-9.068-1.378-18.175-.709-27.251a185.641 185.641 0 0 1 7.46-37.378c3.893-12.165 8.988-24.034 16.145-34.663 2.022-3.049 4.347-5.93 5.923-9.25-1.377.326-2.842.652-3.662 1.918a99.494 99.494 0 0 0-13.255 20.994c-2.532 5.604-5.326 11.24-6.664 17.26-3.343 8.717-5.342 17.904-6.942 27.091ZM1331.672 295.956c-13.112-.176-26.32-.422-39.304 1.743.93.868 1.846 1.767 2.77 2.667.31-.032.931-.103 1.242-.143 5.652-.709 11.336-1.115 17.037-1.417 25.451-.685 50.899 2.694 75.655 8.71 7.528 1.829 14.744 4.625 22.092 7.013a50.851 50.851 0 0 1-.446-2.133c-10.795-5.7-22.77-8.35-34.583-10.923a250.927 250.927 0 0 0-44.463-5.517ZM1027.277 386.108c10.07-3.041 20.548-4.244 30.77-6.592 9.275-1.942 18.653-3.288 28.015-4.769a217.285 217.285 0 0 1 23.589-2.746c4.729-.112 9.394-1.051 14.14-1.059-.128-.836-.248-1.664-.36-2.492-5.946-.016-11.83 1.099-17.784 1.075-11.878.868-23.613 3.057-35.38 4.784-9.259 1.234-18.303 3.623-27.538 5.016-15.174 2.508-29.877 7.36-44.009 13.311-7.269 3.06-14.585 6.241-21.073 10.811-6.464 4.514-12.873 9.514-17.093 16.305-6.56 10.063-9.203 21.956-11.846 33.508-.867 3.447-.358 7.006-.286 10.509 1.926-6.48 4.195-12.857 5.772-19.441 2.722-10.963 6.67-22.252 14.982-30.284a81.637 81.637 0 0 1 20.978-14.052 255.7 255.7 0 0 1 37.123-13.884ZM981.444 384.977c-4.88 1.943-9.055 5.218-13.454 8.017-10.84 6.9-21.646 14.155-30.706 23.374-4.968 5.032-8.773 11.042-12.252 17.156a77.77 77.77 0 0 0-9.116 26.662c-.821 5.013-1.465 10.19-.334 15.222.501 0 1.512.008 2.022.016.756-4.307.39-8.71 1.178-13.009a99.242 99.242 0 0 1 4.586-17.737c2.126-5.931 5.509-11.289 8.916-16.543a73.318 73.318 0 0 1 14.044-15.477c10.118-9.219 21.373-17.075 32.752-24.632a6.798 6.798 0 0 0 2.364-3.049ZM896.953 436.335a84.732 84.732 0 0 0-8.83 40.928c.399 2.978.638 7.3 4.356 7.953a41.472 41.472 0 0 0-.446-3.734c-1.386-6.902-.685-14.003.199-20.93a87.984 87.984 0 0 1 6.424-22.267c4.61-9.306 8.487-19.13 14.975-27.346a78.967 78.967 0 0 0-1.91-.247c-6.17 7.746-10.466 16.771-14.768 25.643Z" style="fill:#150f0c"></path>
    <path d="M995.385 428.278c-6.186 9.1-11.512 19.393-12.269 30.547.972.048 2.333-.008 2.54-1.226 1.497-4.394 2.34-9.004 4.291-13.247 3.4-7.516 7.741-14.735 13.725-20.516 4.854-4.69 10.676-8.113 16.217-11.87-1.966-.048-3.917-.175-5.868-.16a62.942 62.942 0 0 0-18.636 16.472ZM1063.779 419.704c-2.142 1.489-4.275 2.993-6.361 4.562-10.127 7.555-17.594 18.135-23.135 29.376a7.664 7.664 0 0 0-.573 5.613c2.97-3.264 4.53-7.46 6.95-11.098a77.768 77.768 0 0 1 13.295-17.005c4.29-4.028 9.29-7.165 14.012-10.644q-1.863-.585-3.703-1.138ZM862.943 462.487c-3.957 7.309-4.928 15.731-6.01 23.844-.909 7.388-.582 15.636 4.553 21.543.422-.008 1.266-.032 1.688-.048-1.218-4.29-2.731-8.558-2.986-13.048a88.728 88.728 0 0 1 1.736-22.284c.39-2.34 1.393-4.577 1.417-6.966a26.049 26.049 0 0 0 4.251-8.606c-2.611.454-4.355 3.097-4.65 5.565ZM1205.408 467.144c13.486-4.418 27.625-6.257 41.676-7.714a63.753 63.753 0 0 0 13.773-.39l-.828-1.712c-1.52-.008-3.033-.015-4.53-.04-5.636-.66-11.238.142-16.853.478a159.676 159.676 0 0 0-19.234 2.795c-13.527 2.531-26.495 7.308-39.21 12.459-12.546 5.047-24.018 12.316-35.33 19.64-3.583 2.293-7.094 4.856-9.586 8.367.366.175 1.09.51 1.449.685 12.188-8.439 24.767-16.44 38.102-22.952a290.806 290.806 0 0 1 30.57-11.616ZM842.594 492.031c-2.922 2.357-3.861 6.186-4.61 9.689a34.514 34.514 0 0 0 2.81 19.831c1.275 2.412 2.915 5.652 6.107 5.51-5.358-5.67-6.886-13.638-7.308-21.162-.24-4.824 1.449-9.394 3.001-13.868ZM1219.977 512.794c-13.136 4.633-25.412 11.344-37.434 18.294-4.187 2.763-8.964 5.088-11.846 9.355 1.298.095 2.691.19 3.782-.677a238.93 238.93 0 0 1 37.672-20.548 260.552 260.552 0 0 1 60.704-17.41 43.949 43.949 0 0 0 8.192-1.68c-9.856-1.465-19.553 1.257-29.138 3.192a253.793 253.793 0 0 0-31.932 9.474Z" style="fill:#150f0c"></path>
    <path d="M1460.762 512.993c-6.353 5.286-13.423 9.633-20.5 13.876-6.496 3.94-13.677 6.512-20.516 9.744a153.292 153.292 0 0 1-25.842 9.045c-16.208 4.32-32.975 7.897-49.877 6.71a94.246 94.246 0 0 1-32.983-8.669 111.688 111.688 0 0 1-12.116-6.727c-.542-3.893-1.617-7.69-2.405-11.536 1.354.024 2.707.175 4.068.31 6.584 4.069 14.601 5.088 22.172 6.083 14.163 1.958 28.58.366 42.45-2.826a176.634 176.634 0 0 0 49.82-18.422c8.67-4.65 16.719-10.366 24.72-16.074 8.072-5.629 14.332-13.33 20.555-20.826 3.98-4.794 8.495-9.275 11.44-14.824-2.897 1.497-4.857 4.162-7.093 6.425-6.733 6.811-13.136 13.948-19.855 20.77-3.447 3.535-7.571 6.29-11.568 9.148a207.936 207.936 0 0 1-21.168 13.502 181.825 181.825 0 0 1-61.747 19.648c-16.034 1.926-32.57.86-47.99-4.052a19.466 19.466 0 0 0-6.592-2.508c-1.727-6.4-3.113-12.921-5.549-19.107 2.102.486 4.164 1.163 6.226 1.84a116.839 116.839 0 0 0 28.166 5.7c8.487.559 16.966-.829 25.333-2.182a197.582 197.582 0 0 0 30.841-7.292 227.674 227.674 0 0 0 57.567-30.802c11.138-8.138 21.01-18.677 26.503-31.526 1.712-3.878 3.901-7.563 5.071-11.671-3.272 2.484-4.633 6.512-6.854 9.808-8.726 15.405-21.885 27.904-36.693 37.41-11.233 7.172-22.809 13.9-35.14 19.019-17.006 7.714-35.523 11.328-53.938 13.733-13.112 1.623-26.256-.884-38.874-4.292a92.866 92.866 0 0 0-9.259-2.77c-2.117-5.366-4.45-10.644-6.918-15.859 2.38-.684 4.769.263 7.117.677 5.788 1.433 11.775 1.616 17.714 1.831 16.647-.541 32.99-4.243 49.009-8.63 8.908-2.491 17.291-6.456 25.762-10.118 7.723-3.336 14.752-8.01 22.037-12.181a132.817 132.817 0 0 0 29.488-23.008c6.419-6.76 10.708-15.11 14.887-23.334 2.173-4.984 4.872-9.88 5.987-15.238 1.337-2.69 3.686-6.862.7-9.243-.708 2.779-1.584 5.526-2.133 8.344-3.041 6.194-5.692 12.634-9.299 18.557-3.79 6.186-7.237 12.698-12.284 17.984-10.182 10.907-23.02 18.768-35.722 26.408a215.81 215.81 0 0 1-34.957 16.846c-8.566 2.985-17.403 5.119-26.208 7.268a104.247 104.247 0 0 1-40.196 2.141c-4.53-.652-8.956-2.181-13.566-2.077q-2.197-4.73-4.61-9.339a115.91 115.91 0 0 0-.262-1.624c9.713 2.261 19.791 2.62 29.735 2.269 9.92-1.09 19.887-2.388 29.48-5.254 8.455-2.31 16.607-5.557 24.767-8.726 6.815-2.65 13.136-6.36 19.521-9.895 5.23-2.954 10.628-5.66 15.54-9.156 5.979-4.307 12.292-8.247 17.594-13.422a77.983 77.983 0 0 0 15.516-21.91c5.956-12.236 10.287-25.65 10.215-39.375-.39.04-1.17.12-1.56.151a136.883 136.883 0 0 1-9.02 31.646c-2.867 6.687-5.717 13.502-10.175 19.33a65.494 65.494 0 0 1-15.35 14.919c-5.97 4.147-11.734 8.645-18.206 12.02-8.192 4.34-16.058 9.355-24.68 12.81-14.322 5.677-28.955 11.122-44.36 12.905-13.398 2.365-27.131 1.481-40.53-.35-1.321-2.587-2.85-5.071-4.203-7.643 5.923-1.162 11.979-.3 17.968-.326 12.127-.054 24.433-.708 35.945-4.785 5.891-2.054 12.1-3.439 17.538-6.576a118.318 118.318 0 0 0 26.185-14.218c10.906-7.452 19.87-17.316 28.293-27.395 4.307-4.991 7.277-10.962 11.608-15.914 2.476-7.308 7.252-13.637 9.378-21.105 3.94-9.187 6.99-19.13 6.154-29.25a31.32 31.32 0 0 0-.151-10.126c-.454-.111-1.37-.342-1.823-.454-.661 3.193.94 7.221-1.45 9.793a224.679 224.679 0 0 0-28.524-7.858c-25.022-4.697-50.72-6.449-76.077-3.59a222.209 222.209 0 0 0-33.755 6.058c-13.798 3.54-27.673 7.237-40.419 13.701a88.745 88.745 0 0 0-16.289 9.22c-11.137 8.398-22.824 16.47-31.478 27.585-4.848-2.325-9.57-4.905-14.49-7.062-.564-.231-1.122-.462-1.671-.677 5.103-7.443 9.731-15.24 15.564-22.148a187.532 187.532 0 0 1 26.256-25.038c5.915-4.776 12.794-8.128 19.52-11.599a167.898 167.898 0 0 1 17.515-7.913 181.367 181.367 0 0 1 35.937-8.837l.677-.104c-1.37-.852-2.74-1.696-4.06-2.595-13.574 2.062-27.093 5.277-39.671 10.811-9.341 4.11-18.667 8.51-27.116 14.266-11.921 8.123-21.71 18.948-31.072 29.855-5.98 6.934-10.421 14.99-15.564 22.522-5.716-2.165-11.464-4.291-17.332-6.003 2.635-5.11 5.74-9.967 8.582-14.967 6.982-11.965 17.012-21.716 27.172-30.945 12.042-10.938 25.89-19.8 40.156-27.585 9.824-5.66 20.556-9.418 31.16-13.311a178.375 178.375 0 0 0-3.877-1.959c-6.536 2.612-13.216 4.88-19.632 7.778a193.301 193.301 0 0 0-33.453 19.975c.446-4.012 2.206-7.71 3.662-11.424 4.458-11.376 8.884-22.849 15.206-33.365 5.987-9.657 12.666-19.012 20.946-26.853a15.906 15.906 0 0 0 3.216-4.132 13.028 13.028 0 0 0-3.75 1.982c-8.892 7.42-15.85 16.814-21.996 26.559-6.935 11.073-11.68 23.318-16.225 35.506-1.61 4.315-3.59 8.694-3.408 13.407-9.163 6.799-17.379 14.728-25.555 22.641.135-2.03.318-4.06.645-6.066 3.105-17.952 7.953-35.674 15.444-52.321a117.539 117.539 0 0 1 19.481-29.91c1.943-2.293 4.228-4.323 5.82-6.902-2.699.12-4.583 2.198-6.369 3.957a104.496 104.496 0 0 0-18.732 25.873 190.306 190.306 0 0 0-15.469 46.565c-1.338 6.48-2.898 12.977-3.065 19.624.072 2.245-1.765 3.771-3.113 5.295a111.57 111.57 0 0 0-12.22 17.212c-2.5 3.104-3.352 7.085-5.374 10.468a3.503 3.503 0 0 1-2.42 1.927 54.637 54.637 0 0 0-10-2.77c-4.091-6.974-4.92-15.278-5.509-23.183.868-14.872 1.739-29.902 5.995-44.312 1.316-4.455 3.344-8.654 4.538-13.128l.621-.056a129.02 129.02 0 0 1 9.888-18.764c1.99-3.328 4.72-6.178 6.416-9.681-4.283 1.998-6.87 6.138-9.362 9.951a134.22 134.22 0 0 0-10.103 18.757 108.89 108.89 0 0 0-6.934 20.62c-2.603 10.938-2.985 22.203-3.79 33.365-.286 5.668.805 11.304 2.158 16.79.733 3.097 2.285 5.955 2.874 9.1-4.458-.741-8.948-1.219-13.438-1.64-3.997-24.911-1.959-50.506 4.076-74.907l.04.652c1.87-4.418 4.323-8.558 6.265-12.944-3.837 2.229-5.931 6.297-7.818 10.134a89.809 89.809 0 0 0-4.195 15.118c-3.893 20.293-5.334 41.406-1.091 61.763-3.845-.255-7.778-1.011-11.591-.191-3.464-11.854-3.694-24.313-4.69-36.542-.071-6.528.359-13.374 3.702-19.178a54.227 54.227 0 0 1-1.019-.398 27.367 27.367 0 0 0-3.805 9.394c-1.974 11.28-.621 22.785.494 34.082a41.863 41.863 0 0 0 3.152 12.61q-2.961.454-5.899.955c-1.64 0-3.272.032-4.888.144.788 2.133 3.24 2.078 5.087 2.635l-.04-.581a70.09 70.09 0 0 0 7.492.302c4.4-.16 8.797.319 13.191.597.136.566.414 1.696.55 2.261a24.714 24.714 0 0 1 5.294-1.695 107.898 107.898 0 0 1 27.705 7.077c-8.63-1.067-17.165.892-25.54 2.707-17.61 3.44-34.981 7.953-52.448 12.014q-20.91 4.68-41.35 11.137c-7.42 2.436-15.254 4.092-21.917 8.36 1.974.127 3.94.35 5.923.437a83.067 83.067 0 0 1 2.102-.724c16.55-5.613 33.34-10.557 50.354-14.545 17.41-3.981 34.687-8.535 52.17-12.205 8.032-1.552 15.97-3.606 24.106-4.554 4.593.056 9.187-.159 13.78-.071q4.455 1.648 8.87 3.43c4.028 1.601 7.777 3.806 11.702 5.661-1.536.446-3.08 1.147-4.705.916-4.753-.605-9.508-1.343-14.29-1.473-16.482-.447-32.458 4.713-48.006 9.737-7.73 2.595-15.628 4.736-23.183 7.841-10.023 4.1-20.094 8.176-29.544 13.502a41.815 41.815 0 0 0 3.957 1.45 260.677 260.677 0 0 1 46.445-18.837c19.075-6.265 38.795-12.204 59.104-11.36 4.26.454 8.423-1.083 12.674-.605 7.372 3.916 14.784 7.85 21.209 13.247-.82.175-1.632.334-2.444.47a49.345 49.345 0 0 0-20.341-1.513 133.44 133.44 0 0 0-25.157 4.291c-14.298 3.861-28.358 8.86-41.43 15.867-9.028 4.737-18.144 9.585-25.858 16.336-6.138 5.246-12.114 10.703-17.753 16.48-2.636 2.7-5.406 5.46-6.839 9.028a5.198 5.198 0 0 0 3.734-1.76 247.064 247.064 0 0 1 25.22-23.398c7.589-6.03 16.345-10.413 24.951-14.8 13.263-6.902 27.545-11.615 41.98-15.373a140.962 140.962 0 0 1 32.966-4.37 47.166 47.166 0 0 0 14.163 1.4 141.876 141.876 0 0 1 21.917 19.76c-8.606-.222-17.251-.461-25.762 1.083a194.456 194.456 0 0 0-40.26 11.496c-8.964 3.519-18.111 6.783-26.399 11.775-11.05 6.767-22.275 13.454-31.876 22.251-2.532 2.285-5.27 4.435-7.07 7.38 2.66.478 4.554-1.807 6.488-3.216a186.186 186.186 0 0 1 16.098-12.595c5.756-3.853 11.671-7.475 17.602-11.058 7.587-4.585 15.946-7.65 24.202-10.795 17.188-6.902 35.236-11.886 53.698-13.749 5.04-.454 10.103.191 15.142-.326a162.279 162.279 0 0 1 17.38 21.861c5.344 8.288 10.174 16.902 15.197 25.388 6.234 12.332 12.967 24.562 16.854 37.863q3.491 11.948 6.273 24.09c-2.61.128-5.246-.278-7.825.208a231.508 231.508 0 0 0-48.062 17.952c-6.313 3.384-12.626 6.767-18.86 10.286l-.629-.151c-.788.525-1.584 1.035-2.356 1.568a172.11 172.11 0 0 1-19.083-8.04 138.892 138.892 0 0 0-19.983-11.6c-6.711-3.232-13.605-7.277-21.336-6.703a22.717 22.717 0 0 0 5.589 2.492c5.597 1.647 10.517 4.872 15.763 7.316 6.059 2.85 11.607 6.605 17.228 10.222 5.843 3.76 12.5 6.003 18.916 8.606 10.023 3.32 20.234 7.085 30.929 6.743 10.398-.333 20.914-1.282 30.89-4.458 4.967-1.513 8.772-5.19 13.031-7.97.454.71.908 1.418 1.386 2.142 2.516-1.48 4.283-4.18 7.22-4.896.685 8.956 1.465 17.897 1.76 26.877.096 3.288-.27 6.616.255 9.88-.319 4.65.382 9.314-.008 13.972-.08 3.71-.908 7.34-1.378 11.01a78.632 78.632 0 0 0-1.273 11.177c.493-.031 1.48-.103 1.974-.135.438-1.847.852-3.686 1.162-5.549 1.56-3.94 2.142-8.2 2.755-12.372 3.63 6.465 8.232 12.961 15.31 15.93 1.25.701 2.69.272 4.028.128a28.665 28.665 0 0 0-2.85-2.07c-6.977-4.226-12.667-11.026-14.458-19.043-.39.263-1.162.772-1.545 1.027a129.39 129.39 0 0 0-.167-17.125c2.484 4.419 4.913 8.941 8.336 12.723 5.748 6.424 13.263 10.866 20.683 15.078 4.713 2.325 9.458 5.294 14.832 5.628-2.596-2.635-6.298-3.502-9.435-5.254a116.125 116.125 0 0 1-17.84-11.695 57.32 57.32 0 0 1-16.305-21.781c.111-6.25-.764-12.508-.438-18.773a41.19 41.19 0 0 0 2.755 5.374c3.04 6.488 8.16 11.782 13.398 16.567 9.554 8.654 21.886 13.383 34.122 16.814 5.358 1.139 10.676 3.033 16.217 2.898l-.096.772c5.462.191 12.061 1.8 16.504-2.348-4.833.183-9.641.756-14.482.406a191.023 191.023 0 0 1-31.836-10.262c-13.869-5.446-25.54-15.883-33.39-28.446.263-1.568-1.186-2.658-1.926-3.837l.199-.318c-.462.064-1.393.207-1.855.278-.302-4.211-.669-8.422-.94-12.626 3.026 3.861 6.29 7.61 10.414 10.35a127.658 127.658 0 0 0 19.823 11.177c25.046 10.278 53.08 14.316 79.691 9.18 6.379-1.232 12.937-2.405 18.805-5.327a69.346 69.346 0 0 0 11.288-4.61c2.804-1.308 5.924-2.555 7.564-5.373-6.21 2.77-12.587 5.159-18.836 7.834l.676.08c-5.748 1.09-11.345 2.937-17.148 3.797a139.293 139.293 0 0 1-37.648 1.767c-15.258-1.402-30.478-4.862-44.464-11.201a135.387 135.387 0 0 1-18.82-10.62c-4.339-2.85-7.794-6.743-11.535-10.27-.168-2.277-.566-4.514-.876-6.76.072-.692.23-2.085.303-2.778a83.759 83.759 0 0 0 8.295 4.952 92.659 92.659 0 0 0 42.584 10.174c8.608-.008 17.109-1.345 25.571-2.714 15.82-3.081 31.781-6.513 46.406-13.51 7.133-3.32 14.505-6.314 20.994-10.828 6.472-4.386 13-8.78 18.645-14.234a31.911 31.911 0 0 0 7.013-8.678c.462-.764-.032-1.608-.15-2.38a105.608 105.608 0 0 1-8.567 9.426Zm-264.995-127.506c8.248-10.803 19.497-18.63 30.244-26.702a101.662 101.662 0 0 1 13.232-7.65c17.562-9.084 36.932-13.654 56.19-17.523a287.19 287.19 0 0 1 35.196-3.877c20.627-.963 41.278 1.202 61.54 4.928 9.696 1.751 18.979 5.19 28.612 7.197a51.166 51.166 0 0 1-1.186 10.564c-.963.056-1.919.128-2.858.215-2.245-2.524-5.51-3.558-8.622-4.514a171.033 171.033 0 0 0-68.14-6.806c-9.744.788-19.345 2.722-28.89 4.752a234.36 234.36 0 0 0-59.439 21.718c-7.606 4.002-14.975 8.535-21.216 14.474-5.55 4.29-9.896 9.855-13.829 15.604a87.693 87.693 0 0 0-20.834-12.38Zm22.323 13.534c1.831-2.587 3.94-4.944 5.852-7.468 6.432-6.018 13.111-11.902 20.659-16.495a225.332 225.332 0 0 1 43.324-19.577c22.45-6.83 45.73-11.591 69.27-11.902a192.818 192.818 0 0 1 32.57 3.225c8.072 1.473 15.866 4.108 23.787 6.233a92.31 92.31 0 0 1 5.573 1.609c-1.043 4.028-2.468 7.945-3.893 11.854-7.276-.39-14.472-1.603-21.726-2.007a237.775 237.775 0 0 0-54.176 3.177c-20.062 3.71-39.965 8.837-58.73 16.933a252.888 252.888 0 0 0-28.309 13.248c-6.87 3.813-12.738 9.21-19.72 12.84a164.538 164.538 0 0 0-14.481-11.67Zm16.225 13.28c4.084-2.453 8.065-5.08 11.99-7.787 9.927-6.815 21.126-11.39 32.075-16.264a160.05 160.05 0 0 1 31.12-10.462c13.606-3.28 27.299-6.32 41.191-8.072a276.377 276.377 0 0 1 63.14-.454c-2.388 6.783-5.907 13.08-9.195 19.441-11.918.167-23.884.27-35.69 2.07-20.206 1.91-39.933 7.046-59.398 12.595q-17.865 5.445-35.149 12.602c-8.707 3.595-17.483 7.11-25.563 11.998a168.967 168.967 0 0 0-14.521-15.668Zm16.52 18.127c10.476-6.377 22.306-10.031 33.508-14.888 18.557-6.83 37.337-13.255 56.715-17.355q17.244-3.762 34.806-5.804a173.934 173.934 0 0 1 27.084-1.33c-4.92 9.172-11.737 17.193-18.94 24.633-1.143 1.18-2.332 2.818-4.203 2.444a161.546 161.546 0 0 0-27.96.62 323.479 323.479 0 0 0-36.287 6.433c-18.9 4.522-37.775 9.546-55.736 17.053-2.778-4.092-5.851-7.985-8.988-11.806Zm10.42 14.02c17.07-7.373 35.141-11.942 53.189-16.234 20.97-5.302 42.656-8.439 64.326-7.125-11.512 11.233-25.699 19.314-40.292 25.85-10.954 4.172-22.06 8.519-33.819 9.633a103.175 103.175 0 0 1-11.941.35c-8.049-.127-16.098.168-24.139-.087-2.404-4.156-4.8-8.312-7.324-12.388Zm14.267 120.746c-9.777 3.543-20.262 4.729-30.587 5.382-8.63.51-16.99-2.038-25.134-4.546a24.655 24.655 0 0 1 2.15-2.022c4.418-1.751 8.646-3.965 12.89-6.106a252.622 252.622 0 0 1 31.724-13.662c9.068-3.049 18.152-6.201 27.57-8.017a109.347 109.347 0 0 1 1.552 15.461c-6.313 5.047-12.865 9.983-20.165 13.51Z" style="fill:#150f0c"></path>
    <path d="M1275.498 616.894c-5.071 1.146-10.198 2.42-15.429 2.165-6.424-.414-12.873-.203-19.282-.668-7.463-.542-14.585-3.105-21.662-5.39-8.646-2.715-16.289-7.826-23.422-13.28a119.22 119.22 0 0 1-17.761-20.643c-3.534-5.292-6.568-11.28-11.75-15.182 2.579 6.099 6.57 11.464 10.197 16.966a104.056 104.056 0 0 0 13.558 16.639c4.65 5.31 10.525 9.322 16.535 12.928a55.99 55.99 0 0 0 11.512 5.175c6.8 2.19 13.63 4.514 20.755 5.414 8.168.461 16.36.883 24.552.923 6.592.056 12.71-2.666 19.131-3.757 4.994-.849 10.533-3.002 12.778-7.946-2.89.35-4.809 2.739-7.356 3.877-3.838 1.975-8.256 1.784-12.356 2.779ZM1216.753 641.573c-9.108-2.993-17.292-8.327-24.752-14.25-4.012-3.017-6.862-7.205-10.445-10.652.056 1.258-.207 2.667.581 3.781 4.037 7.181 10.835 12.253 17.706 16.528 7.714 4.235 16.209 7.794 25.11 8.073 3.455 1.393 7.475 2.579 11.113 1.114a30.248 30.248 0 0 0-8.948-2.404c-3.376-1.011-7.022-.964-10.365-2.19Z" style="fill:#150f0c"></path>
    <path d="M909.524 646.111a148.355 148.355 0 0 0-38.278-13.924c-12.667-2.59-25.897-3.335-38.675-.812-6.839 1.362-13.733 3.208-19.736 6.887-3.734 2.189-7.54 4.64-9.872 8.399-1.186 1.83-1.321 4.076-1.783 6.162-.677 4.243-1.25 8.67.088 12.849 3.948.048 7.523-1.84 11.161-3.129 19.768-7.69 41.151-10.843 62.304-10.636 8.98-.581 17.97-.658 26.957-.518a33.925 33.925 0 0 0 6.998-.143c1.241-.98 1.424-2.715 2.014-4.092-.295-.255-.884-.78-1.178-1.043Z" style="fill:#4e3e37"></path>
    <path d="M1050.181 680.511c4.41-2.199 9.498 1.29 10.27 5.828 1.027 5.477.78 11.655-2.285 16.487-2.595 4.077-8.789 5.669-12.65 2.468-3.686-3.184-3.63-8.645-2.739-13.032 1.035-4.538 2.969-9.539 7.404-11.75Z" style="fill:#16100d"></path>
    <path d="M1026.568 683.959c.957-1.056 2.85-2.874 4.068-1.139-.565 2.85-2.595 5.08-4.092 7.476-2.858 4.076-5.079 8.63-8.486 12.3-.932 1.114-2.476 1.13-3.774 1.449-.032-2.182.04-4.467 1.306-6.337 3.065-5.016 7.043-9.407 10.978-13.75Z" style="fill:#fcb897"></path>
    <path d="M1263.691 694.149c-3.924-4.602-10.468-6.369-16.296-5.23-9.856 1.034-18.359 7.188-24.234 14.903-2.953 4.068-6.425 8.072-7.54 13.112 5.661-4.936 9.578-11.568 15.414-16.344 3.9-3.75 8.996-5.669 13.876-7.763 4.1.048 8.614-1.05 12.284 1.417 4.005 2.126 5.804 6.95 5.071 11.305-1.162 7.556-4.426 14.633-8.176 21.24-5.979 10.581-13.884 19.951-22.57 28.406-5.604 5.39-11.296 10.907-18.31 14.45-1.194.405-1.226 1.767-1.672 2.746 3.758-.016 7.03-2.094 10.079-4.06a122.742 122.742 0 0 0 14.8-12.22c10.835-10.159 20.587-21.854 26.494-35.595a53.132 53.132 0 0 0 4.076-14.075c.502-4.315-.414-8.948-3.296-12.292Z" style="fill:#cc492f"></path>
    <path d="M829.745 700.605a7.237 7.237 0 0 1 9.8 4.483c1.01 3.662.334 7.547-.35 11.209-.518 2.906-2.094 5.796-4.84 7.117a6.372 6.372 0 0 1-7.285-1.839c-2.667-3.503-2.476-8.216-1.983-12.356.542-3.216 1.495-7.027 4.658-8.614Z" style="fill:#16100d"></path>
    <path d="M1110.344 716.719c.326-1.664 2.07-.876 3.224-.836-.947 6.886-5.382 12.435-9.426 17.817-3.79 4.912-7.675 9.848-12.42 13.892-.82.868-2.022.82-3.104.828 8.216-9.832 16.336-19.982 21.726-31.701Z" style="fill:#fcc0a4"></path>
    <path d="M923.615 730.69a26.693 26.693 0 0 1 3.503-5.206c.055 6.106-2.484 11.774-5.088 17.156-5.222 10.54-10.859 20.866-16.734 31.057-1.783 2.914-3.336 6.329-6.648 7.794.964-3.55 2.954-6.656 4.69-9.848 7.165-13.455 13.498-27.313 20.277-40.952Z" style="fill:#fcbd9f"></path>
    <path d="M833.853 731.734c4.251-.446 8.295-1.88 12.483-2.652.064.884.143 1.768.239 2.667-4.849 3.169-10.485 4.825-16.09 6.02a18.077 18.077 0 0 1-12.81-2.055c.048-1.106.104-2.205.16-3.304 5.342-.08 10.716.168 16.018-.676Z" style="fill:#b9603c"></path>
    <path d="M851.017 743.349c4.28-1.604 8.216-4.1 12.746-4.984a9.724 9.724 0 0 1-3.073 3.408c-6.696 4.171-14.116 7.037-21.583 9.497a24.607 24.607 0 0 1-9.498 1.155 70.735 70.735 0 0 0-.119-2.62 173.96 173.96 0 0 0 21.527-6.456Z" style="fill:#fcbd9f"></path>
    <path d="M1034.33 747.64c9.857-.946 20.628.095 28.732 6.234 5.31 3.916 7.85 10.182 11.751 15.293 6.79 9.052 8.343 21.057 6.799 32.028-1.338 11.28-6.274 22.8-15.7 29.607-6.114 4.49-12.889 8.455-20.444 9.808a41.599 41.599 0 0 1-15.31.279c-7.053-1.107-14.305-2.66-20.284-6.751-9.76-6.489-15.89-17.427-18.12-28.756-1.385-8.964.868-18.056 4.013-26.415a42.157 42.157 0 0 1 8.884-14.195c2.413-2.38 4.252-5.286 6.783-7.555a41.372 41.372 0 0 1 22.896-9.577ZM817.795 773.975c7.746-.907 16.081-.294 22.793 4.085a33.219 33.219 0 0 1 13.98 22.68 40.988 40.988 0 0 1-3.408 25.485c-4.522 10.07-11.639 19.273-21.264 24.91-2.627 1.41-5.923 2.993-8.829 1.401-2.89-1.417-3.606-4.824-4.22-7.674-1.082-5.573-2.491-11.09-3.12-16.735-.597-5.7-2.333-11.193-3.177-16.853-1.839-9.522-2.786-19.227-5.612-28.533a4.942 4.942 0 0 1 1.544-5.963c3.32-2.197 7.471-2.353 11.313-2.803Z" style="fill:#f95939"></path>
    <path d="M911.267 797.843c1.8-6.568 9.911-9.872 16.121-7.834 2.245.955 4.466 2.667 5.12 5.135.365 2.197-.956 5.247-3.567 4.968a51.232 51.232 0 0 1-17.674-2.27Z" style="fill:#b75c37"></path>
    <path d="M1049.743 718.287c-6.082 1.059-12.18-.279-18.27-.215 2.308 3.83 7.204 4.3 11.24 4.53a37.636 37.636 0 0 0 16.655-4.29c1.56-.67 2.19-2.254 2.643-3.775-4.004 1.505-7.96 3.312-12.268 3.75ZM921.426 814.338c-5-2.65-10.891-2.587-16.138-4.601-6.544-2.285-14.664-2.882-18.852-9.147a26.05 26.05 0 0 1 2.428-13.813c3.766-8.614 7.97-17.02 11.942-25.54a319.294 319.294 0 0 0 16.679-44.542c1.074-4.068 2.269-8.168 2.531-12.388a20.345 20.345 0 0 0-.645-13.454c-1.226 4.092-1.353 8.391-1.464 12.634-1.012 3.535-1.688 7.165-2.89 10.652-5.08 15.174-10.428 30.295-17.236 44.83-4.684 10-9.729 19.863-13.478 30.276a27.583 27.583 0 0 0-1.306 12.18 14.41 14.41 0 0 0 6.321 6.752c5.947 3.025 12.61 4.171 18.797 6.607 4.712 1.362 9.266 3.662 14.25 3.766.477-1.529.86-3.4-.94-4.212Z" style="fill:#b95d38"></path>
    <path d="M899.954 851.151c10.092-4.6 21.447-5.708 32.402-4.697 8.2 1.05 16.663 1.075 24.489 4.1a50.004 50.004 0 0 1 27.633 24.082c-7.938-2.786-15.692-6.066-23.557-9.028a128.674 128.674 0 0 0-24.624-5.7c-7.102-1.003-14.195.454-21.169 1.648-5.477 1.027-10.97 2.022-16.328 3.567-8.264 2.404-15.405 7.57-21.503 13.518a123.458 123.458 0 0 0-10.51 11.09c.47-5.016 2.811-9.586 5.367-13.837a52.01 52.01 0 0 1 11.854-13.613c5.087-4.02 9.994-8.417 15.946-11.13Z" style="fill:#f95939"></path>
    <path d="M915.128 861.556c6.964-1.249 14.068-2.65 21.169-1.648a128.674 128.674 0 0 1 24.624 5.7c7.865 2.962 15.62 6.242 23.557 9.028.987.366 1.966.757 2.97 1.139.023.501.079 1.497.103 1.998-.94.191-1.863.414-2.803.557a41.434 41.434 0 0 1-11.822-3.224c-11.504-5.103-23.86-7.874-36.175-10.166-7.532-1.529-15.047.716-22.403 2.093-6.616 1.473-13.526 2.134-19.72 5.056-6.894 3.296-12.793 8.311-18.095 13.749a60.15 60.15 0 0 1-8.94 7.762 48.398 48.398 0 0 0-2.238-.7 31.595 31.595 0 0 1 1.433-3.17 123.458 123.458 0 0 1 10.509-11.09c6.098-5.946 13.24-11.113 21.503-13.517a162.149 162.149 0 0 1 16.328-3.567Z" style="fill:#a33d29"></path>
    <path d="M914.348 867.033c7.332-1.502 14.871-3.622 22.403-2.093 12.315 2.292 24.671 5.063 36.175 10.166a41.434 41.434 0 0 0 11.822 3.224c-2.754 2.38-5.278 5.08-8.375 7.03-10.612 6.154-21.973 11.225-34.002 13.828-6.91 1.378-13.892 2.436-20.858 3.503-13.447.948-26.98-.684-40.077-3.725-4.943-.749-10.039-1.887-13.844-5.366a60.15 60.15 0 0 0 8.94-7.762c5.303-5.438 11.202-10.453 18.096-13.75 6.194-2.921 13.08-3.694 19.72-5.055Z" style="fill:#f95939"></path>
    <path d="M921.465 871.834c.51-1.48 2.118-1.76 3.4-2.23-.136 4.403-2.38 8.264-3.59 12.404a40.989 40.989 0 0 1-2.74 6.783c-.318-.239-.97-.716-1.297-.963 1.21-5.366 1.847-10.978 4.227-15.994Z" style="fill:#fb9f7d"></path>
    <path d="M906.084 876.34c.565-1.576 2.436-1.513 3.774-1.91a16.144 16.144 0 0 1-1.338 6.774c-1.568 3.806-2.03 7.914-2.945 11.902-.82-.78-2.118-1.377-1.919-2.707a32.03 32.03 0 0 1 2.428-14.059Z" style="fill:#fcaa87"></path>
    <path d="M908.44 941.677c9.005-5.167 19.888-4.904 29.95-4.888-.095.414-.286 1.258-.374 1.68-10.142.82-20.03 3.16-29.79 5.947.063-.924.135-1.84.215-2.739Z" style="fill:#fcc0a4"></path>
    <path d="M1114.34 916.671c-6.337 6.576-12.045 13.75-18.733 19.99l.112.415c-6.433 4.935-12.427 10.413-18.86 15.34-5.796 4.539-11.034 9.753-17.021 14.052-5.692 4.1-10.93 8.805-16.838 12.603-5.58 3.558-11.512 6.512-17.244 9.8-15.022 8.43-31.295 14.864-48.332 17.745-9.028.828-17.944 2.596-26.988 3.312a12.219 12.219 0 0 0-5.398 1.632c.279.86.565 1.736.852 2.628 5.724.979 11.512.039 17.236-.422a148.15 148.15 0 0 0 18.295-3.17c10.485-2.435 20.93-5.333 30.69-9.95 10.294-4.889 20.651-9.753 30.348-15.764 12.841-8.35 24.56-18.277 35.81-28.66 5.997-5.535 12.044-11.01 18.206-16.352a103.473 103.473 0 0 0 16.679-18.016c4.06-5.756 9.044-10.899 12.236-17.22-4.315 3.391-7.213 8.16-11.05 12.037Z" style="fill:#b95d38"></path>
    <path d="M1230.278 1139.982c.717 1.242 1.107 3.327 2.89 3.36 1.425.318 2.548-.765 3.567-1.577 1.76-1.465 3.535-3.176 3.957-5.525.533-2.938 1.536-5.732 2.3-8.59-.414-4.076-2.977-7.707-5.827-10.517a9.958 9.958 0 0 0-9.442-2.667 5.136 5.136 0 0 0-3.933 5.907c1.02 6.855 3.917 13.224 6.488 19.609ZM1234.641 1262.297a6.245 6.245 0 0 0-1.552 3.065 11.846 11.846 0 0 0 3.972-2.253c9.968-9.252 18.614-19.783 26.607-30.73 7.324-10.445 14.821-20.992 19.64-32.856 2.109-5.192 4.323-10.978 2.778-16.63a65.415 65.415 0 0 0-2.778-.04c-1.027 3.248-1.672 6.6-2.763 9.831-4.45 13.527-11.87 25.818-19.735 37.593-7.818 11.353-15.865 22.8-26.169 32.02Z" style="fill:#9e313a"></path>
    <path d="M849.573 1673.446a426.47 426.47 0 0 1 18.736-39.498c5.89-11.425 11.615-23 19.035-33.54 9.808-13.965 19.688-27.913 30.602-41.033 9.06-10.294 18.685-20.062 28.39-29.743 9.235-9.362 19.465-17.673 28.732-27.004 10.89-10.994 23.525-19.998 35.403-29.854 12.061-9.888 24.88-18.77 37.815-27.49 14.324-9.656 28.86-18.964 43.476-28.15 11.225-6.815 22.57-13.431 33.564-20.62 14.251-9.497 29.393-17.578 43.516-27.29 13.701-8.941 26.901-18.646 39.79-28.717a216.796 216.796 0 0 0 26.343-23.772c11.942-12.801 23.733-25.794 34.162-39.877 7.045-9.752 13.74-19.863 18.565-30.913 6.576-14.896 12.189-30.71 11.783-47.274-.102-4.138-.709-8.916-4.522-11.312.255 5.127.685 10.237.462 15.38a103.086 103.086 0 0 1-5.287 22.626c-4.546 12.125-9.688 24.106-16.734 35.03a315.481 315.481 0 0 1-26.59 34.75c-10.812 11.973-21.44 24.225-33.899 34.551a558.502 558.502 0 0 1-71.46 49.558c-12.546 7.205-24.472 15.437-36.939 22.785-15.54 8.956-30.89 18.28-45.856 28.175-10.362 6.85-20.715 13.717-30.913 20.818-14.18 10.103-27.379 21.471-41.08 32.195-10.764 8.534-20.03 18.709-30.268 27.832-12.22 11.114-23.629 23.087-34.854 35.196-9.8 10.247-18.152 21.743-26.495 33.175-8.733 12.14-17.698 24.225-24.425 37.64-8.71 17.3-17.873 34.44-24.855 52.552q-.691 1.917-1.412 3.824ZM867.624 1411.871c3.575 8.287 6.703 16.75 9.72 25.253 2.142 5.764 3.893 12.125 8.686 16.336 2.508-2.54.796-6.154-.032-9.036-3.924-10.644-7.523-21.407-11.894-31.868-2.961-7.102-5.166-14.482-7.746-21.719-3.734-10.476-6.608-21.232-9.474-31.971a288.227 288.227 0 0 1-9.378-53.682c-.23-8.431-.255-16.878.255-25.293a49.8 49.8 0 0 0 1.313-10.676c-3.136.112-3.717 3.32-4.036 5.844-2.022 8.566-1.847 17.435-2.356 26.168.318 21.312 4.052 42.457 9.712 62.973a468.008 468.008 0 0 0 15.23 47.671ZM819.45 1673.446c.603-6.444.8-12.93 1.641-19.357 1.592-13.112 2.555-26.311 4.904-39.32 2.842-15.628 5.979-31.207 10.095-46.549 3.98-17.156 10.692-33.532 18.095-49.47 7.07-15.74 15.612-30.762 24.593-45.466 7.507-11.703 15.882-22.817 24.21-33.939 4.418-6.003 8.512-12.258 13.255-18q4.993-6.045 10.11-11.974c5.971-7.03 10.867-14.95 17.427-21.487a68.362 68.362 0 0 0-1.305-1.305c-6.935 5.238-11.64 12.682-17.475 19.003-4.132 4.657-8.582 9.044-12.244 14.107-4.84 5.565-8.949 11.71-13.439 17.554-8.176 10.716-16.368 21.432-23.883 32.625-8.383 13.343-16.591 26.837-23.326 41.104-7.285 15.349-14.132 30.992-18.75 47.384-7.037 27.49-13.374 55.29-15.93 83.6-.788 8.479-1.99 16.918-2.34 25.428-.106 2.021-.312 4.041-.482 6.062Z" style="fill:#9e313a"></path>
    <path d="M1005.384 1520.764a65.55 65.55 0 0 1-6.05 5.358c-11.767 9.425-23.765 18.613-34.91 28.787-19.004 17.666-37.494 36.314-51.382 58.443-1.452 2.314-3.256 4.617-3.065 7.515a48.984 48.984 0 0 1 2.643.024c4.419-6.178 8.55-12.554 13.383-18.422 9.601-11.822 20.404-22.61 31.51-33.015 11.83-11.313 24.616-21.55 36.964-32.29 4.984-4.443 9.943-9.02 13.733-14.561a12.773 12.773 0 0 0 2.69-6.6c-2.443.756-4.107 2.73-5.516 4.76ZM634.38 1673.446c.263-5.482.58-10.96 1.04-16.427 1.654-19.632 5.383-39.057 9.833-58.252 3.98-18.963 10.27-37.624 10.859-57.145.151-8.136.692-16.32-.2-24.425-.939.048-1.87.12-2.802.215-3.311 10.58-3.128 21.798-4.848 32.673-2.571 16.806-7.276 33.182-10.405 49.884-4.74 24.202-8.664 48.769-8.753 73.477ZM1362.816 1638.796a160.706 160.706 0 0 0-9.115 34.65h3.838c.798-2.474 1.318-5.073 2.212-7.495 6.392-21.71 18.319-41.135 28.986-60.91 3.91-7.261 6.09-15.286 7.73-23.319-.597.024-1.79.064-2.38.088-3.725 5.74-6.058 12.236-9.784 17.976-8.089 12.46-15.74 25.277-21.487 39.01Z" style="fill:#9e313a"></path>
    <path d="M1353.552 1673.446c.201-8.704 1.79-17.291 3.03-25.877a380.602 380.602 0 0 1 8.328-43.308c4.593-17.467 12.284-33.923 17.116-51.31 1.87-7.722 3.83-15.62 3.423-23.613a82.9 82.9 0 0 0-2.388-.104c-2.261 5.78-3.384 11.934-5.366 17.818-3.702 11.83-8.71 23.198-12.929 34.846-5.525 14.242-8.701 29.233-11.384 44.232-2.675 15.585-5.014 31.447-3.689 47.316ZM1616.546 1585.504c-5.764-11.775-12.946-22.76-18.74-34.52-1.78-3.612-3.496-7.754-7.428-9.49-.454 1.274-1.314 2.588-.67 3.99a85.733 85.733 0 0 0 11.361 25.355c7.333 11.345 14.267 23.048 19.346 35.595 2.269 5.47 3.44 11.28 5.159 16.933q1.42-.072 2.89-.071c-.828-13.328-6.027-25.962-11.918-37.792ZM624.829 1673.446a179.844 179.844 0 0 1 .02-23.52c.198-11.68-.112-23.367.692-35.021.525-9.753 1.505-19.482 1.823-29.234a30.491 30.491 0 0 0-.199-8.765c-.581.008-1.751.016-2.34.016a51.806 51.806 0 0 0-1.848 9.298 284.287 284.287 0 0 0-4.896 47.736c-.259 13.16-.23 26.332.49 39.49Z" style="fill:#9e313a"></path>
  </g>
</svg>
