<svg xmlns="http://www.w3.org/2000/svg" viewBox="0 0 2121 1887.494" id="girl">
  <g id="art">
    <path d="M1137.003 236.949c12.153-1.12 24.3 1.126 35.901 4.603 6.23 1.552 12.012 4.372 17.936 6.745 3.924 1.619 7.49 3.932 11.266 5.85a37.717 37.717 0 0 1 10.423 7.721c8.378-.836 16.786-1.813 25.225-1.268 13.034.022 26.15 1.716 38.49 5.998 5.26 2.164 10.677 4.014 15.638 6.842a143.895 143.895 0 0 1 18.503 12.064 106.475 106.475 0 0 1 20.77 24.046c3.448 5.275 6.634 10.714 9.976 16.056 4.476 7.849 7.603 16.362 11.325 24.569 8.088 19.957 13.221 40.96 17.496 62.021 1.582 8.879 4.178 17.548 5.38 26.501 2.275 12.572 3.35 25.307 4.356 38.028.053 10.445.015 20.898.03 31.343.388 34.76-4.633 69.468-13.78 102.982a328.396 328.396 0 0 1-12.072 36.297c-5.304 12.16-12.414 23.449-20.129 34.215a392.208 392.208 0 0 1-26.702 33.119c-10.43 11.437-21.286 22.48-32.126 33.529a454.445 454.445 0 0 1-65.216 54.83 856.534 856.534 0 0 1-76.122 46.376c-11.833 6.49-23.681 12.944-35.238 19.913-2.88 1.753-6.573 3.163-7.446 6.811-4.827 14.788-9.654 29.65-16.496 43.661-5.737 11.751-10.02 24.48-18.473 34.67a103.94 103.94 0 0 1-12.787 12.647 105.534 105.534 0 0 1-18.638 11.288c-6.207 3.126-12.967 4.864-19.517 7.095-8.177 2.186-16.377 4.357-24.628 6.245a163.462 163.462 0 0 1-39.588.739c-5.76-.515-11.608-1.172-17.1-3.067-6.453-2.581-13.049-4.999-18.876-8.856-8.266-4.909-15.436-11.393-22.464-17.89a97.77 97.77 0 0 1-26.143-40.222c-5.58-14.079-6.76-29.381-7.304-44.37a97.391 97.391 0 0 1 7.841-42.937c4.924-11.087 10.915-21.853 19.048-30.932 8.7-10.028 18.928-18.518 28.806-27.315 2.082-1.857 4.544-3.297 6.439-5.349a41.872 41.872 0 0 0 4.066-12.907c1.522-15.108-.888-30.269-4.424-44.93-3.477-13.891-5.335-28.112-8.17-42.138-7.341-32.544-14.295-65.335-16.772-98.67-.5-5.692-.239-11.4-.366-17.1a329.88 329.88 0 0 1 .068-36.543c.947-16.705 2.35-33.462 5.879-49.846 4.999-25.322 13.593-49.793 23.986-73.37a365.7 365.7 0 0 1 18.093-37.11c7.588-13.138 16.705-25.329 26.344-37.028a207.768 207.768 0 0 1 59.463-51.002 254.041 254.041 0 0 1 31.432-15.705c16.026-6.558 32.619-11.93 49.749-14.698 12.139-1.835 24.337-3.752 36.648-3.551Z" style="fill:#193857"></path>
    <path d="M1701.677 1590.434c-.176-.39-.343-.78-.536-1.167l-18.51-36.983a33.236 33.236 0 0 0-.851-4.243 913.415 913.415 0 0 0-32.73-98.102c-1.06-6.387-3.185-12.55-4.928-18.773-7.744-27.112-17.69-53.703-31.164-78.517-3.439-6.41-7.393-12.512-11.086-18.772-5.394-9.192-12.863-16.89-20.16-24.546q-13.649-14.321-27.925-28.015c-5.213-5.022-10.393-10.08-16.07-14.579-11.446-9.244-23.003-18.39-34.932-27.008-10.819-8.087-22.57-14.772-34.111-21.733-10.117-6.424-20.212-12.93-30.895-18.399-5.895-2.828-10.912-7.046-16.519-10.348-18.334-10.799-36.856-21.248-55.06-32.253-12.333-7.886-25.159-14.974-37.32-23.129-5.394-3.514-10.14-7.953-15.794-11.079a109.635 109.635 0 0 1-14.415-10.102c-4.625-3.805-9.475-7.46-13.168-12.236-4.946-5.678-8.789-12.176-12.877-18.465-3.626-5.44-6.864-11.444-12.393-15.258-4.978-3.434-11.05-4.394-16.839-5.506-6.49-1.238-13.011.47-19.368 1.649-10.968 2.268-22.137 3.305-33.275 4.32-7.499.701-15.012-.023-22.465-.836-6.916-.865-13.9-.246-20.838-.709-9.7-.35-19.383.567-29.075.762-4.857.111-9.345-2.095-14.168-2.35-9.935-.528-19.89-.247-29.828-.381-28.366-.164-56.718.395-85.076.298-9.93.075-19.898-.388-29.777.858-2.738-3.036-6.998-1.82-10.564-1.85a31.63 31.63 0 0 0-17.123 5.401c-9.766 6.216-16.75 15.594-24.53 23.942a203.816 203.816 0 0 1-34.201 24.74c-14.131 6.797-28.575 12.945-43.064 18.943-18.832 8.346-37.733 16.571-57.018 23.825-4.629 2.715-21.596 12.678-25.472 14.924-17.115 9.917-35.272 19.244-54.426 24.747-5.745 3.609-11.453 7.277-16.933 11.267a349.53 349.53 0 0 0-121.14 84.9 30.757 30.757 0 0 0-6 4.147q-5.189 6.647-10.408 13.237-4.426 6.414-8.858 12.824-3.267 5.812-6.601 11.586a24.764 24.764 0 0 0-.808 4.13c-.203.365-.4.736-.602 1.102q-1.076.39-2.117.868-2.935 5.055-5.883 10.102c-3.147 9.86-6.589 19.63-10.196 29.333-15.027 40.426-32.803 79.998-43.35 121.944-5.606 22.294-10.346 44.91-14.74 67.472q-1.757 9.028-3.303 18.018ZM610.764 1319.367a13.324 13.324 0 0 0 1.106-1.477l.03-.037c-.937 1.704-1.722 2.412-1.136 1.514Z" style="fill:#dc9eb5"></path>
    <path d="M1118.895 325.725c7.278-1.842 14.616-3.491 21.95-5.14.425.716.865 1.44 1.306 2.163a97.52 97.52 0 0 0-36.745 11.99c-7.028 4.2-14.064 8.52-20.137 14.056-2.648 2.09-4.79 4.865-5.125 8.327 1.775-1.493 3.566-2.955 5.461-4.298a5.27 5.27 0 0 1-1.56 3.134c-6.408 6.155-12.28 12.84-18.077 19.562-1.306.09-2.917-.224-3.686 1.134-4.678 5.909-8.52 12.422-12.69 18.69-2.254 3.043-2.754 6.945-4.79 10.109-1.448 2.85-3.649 5.49-3.947 8.789a32.59 32.59 0 0 1 2.917 2.089c-.53-.023-1.59-.075-2.111-.097-2.12 3.737-4.611 7.311-6.066 11.378-.806 2.096-.187 4.334.127 6.468-4.559 6.252-6.76 13.75-9.125 21.01-.806 3.029-3.767 4.812-4.722 7.759-3.858 12.922-7.126 26.023-11.415 38.811-1.075 3.611-.784 7.536-2.358 11.005-2.7 6.118-5.17 12.325-7.67 18.525-.612 1.776-1.477 3.656-1.067 5.58a3.477 3.477 0 0 0 5.394 1.71 29.379 29.379 0 0 0 4.081-4.313c-2.551 8.117-5.573 16.078-8.042 24.225-1.187 4.104-3.276 7.916-3.91 12.184.978-.396 1.97-.776 2.955-1.15a75.487 75.487 0 0 0-2.679 10.386 178.202 178.202 0 0 1-4.006 19.54c-.701-9.52.59-19.04 1.171-28.538 1.62-16.883 3.096-33.805 5.715-50.569 1.985-11.61 3.775-23.248 6.029-34.805a411.462 411.462 0 0 1 14.354-51.293 391.758 391.758 0 0 1 19.443-47.884c.903-2.036 2.522-4.274 1.365-6.557 6.88-8.043 13.997-16.02 22.338-22.614 10.81-8.58 21.89-17.04 34.387-23.054 6.76-3.26 13.62-6.46 20.935-8.312Z" style="fill:#f2844f"></path>
    <path d="M1146.612 342.93a57.175 57.175 0 0 1 11.445-1c-4.312 2.194-8.4 4.85-12.997 6.461 2.612-1.872 5.327-3.58 8.065-5.26-2.17-.111-4.342-.223-6.513-.201Z" style="fill:#ec814d"></path>
    <path d="M1158.057 341.93c6.14-.164 12.348-.365 18.45.62 5.268.783 10.446 2.088 15.713 2.917 3.619.544 6.88 2.372 10.483 3.006a90.005 90.005 0 0 1 9.55 2.962c-8.901 1.313-17.944 2-26.613 4.559a198.823 198.823 0 0 0-29.762 11.325c-22.002 10.542-40.855 26.36-59.037 42.378-11.654 10.594-21.308 23.136-30.85 35.603-6.156 8.065-12.042 16.332-17.772 24.695-4.007 5.715-6.864 12.102-10.259 18.167-3.626 6.469-6.633 13.258-9.968 19.876-3.253 6.715-6.893 13.258-9.46 20.286-2.357 6.424-4.715 12.848-6.849 19.346-2.178 6.536-3.216 13.362-4.7 20.062-3 13.847-5.64 27.784-9.267 41.49-.619 2.88-2.902 4.864-4.454 7.23-1.082 3.543-.53 7.34-.567 10.997.299 21.897.44 43.825 2.164 65.67.835 10.975 1.56 21.972 3.365 32.842a323.101 323.101 0 0 0 8.042 42.64c2 6.229 3.156 12.697 5.283 18.897 2.268 6.894 4.32 13.9 7.453 20.48 1.552 3.641 3.47 7.125 4.805 10.856.91 3.454 1.074 7.065 2.186 10.482-1.992-3.253-3.081-7.05-5.7-9.893-3.126-3.432-5.238-7.595-7.804-11.422-5.685-8.707-10.356-18.026-15.31-27.15-11.758-23.51-20.025-48.63-25.963-74.19a221.686 221.686 0 0 1-5.536-41.908 396.852 396.852 0 0 1 3.163-57.404 412.1 412.1 0 0 1 4.566-58.925c1.73-13.005 3.454-26.016 6.23-38.849 1.06-5.864 3.014-11.55 3.656-17.495 3.223-11.557 7.557-22.786 11.922-33.962a278.734 278.734 0 0 1 13.75-30.306c6.059-10.908 12.975-21.308 19.652-31.836 4.03-5.55 8.058-11.131 12.616-16.271 1.157 2.283-.462 4.52-1.365 6.557a391.758 391.758 0 0 0-19.443 47.884 411.462 411.462 0 0 0-14.354 51.293c-2.254 11.557-4.044 23.196-6.029 34.805-2.619 16.765-4.096 33.686-5.715 50.57-.582 9.497-1.872 19.017-1.171 28.537a178.202 178.202 0 0 0 4.006-19.54 75.487 75.487 0 0 1 2.679-10.385c-.985.373-1.977.753-2.955 1.149.634-4.268 2.724-8.08 3.91-12.184 2.47-8.147 5.491-16.108 8.043-24.225a29.379 29.379 0 0 1-4.082 4.312 3.477 3.477 0 0 1-5.394-1.708c-.41-1.925.455-3.805 1.067-5.581 2.5-6.2 4.97-12.407 7.67-18.525 1.574-3.47 1.283-7.394 2.358-11.005 4.29-12.788 7.557-25.889 11.415-38.811.955-2.947 3.916-4.73 4.722-7.76 2.365-7.259 4.566-14.757 9.125-21.009-.314-2.134-.933-4.372-.127-6.468 1.455-4.067 3.947-7.64 6.066-11.378.522.022 1.581.074 2.111.097 1.507-.18 3.432.977 4.544-.65 2.626-3.372 4.67-7.162 7.311-10.534 8.29-11.05 16.064-22.629 26.136-32.179 7.513-7.968 16.854-14.004 26.687-18.704a105.558 105.558 0 0 1 20.95-7.476c5.73-1.305 11.333-3.312 17.212-3.857 2.171-.022 4.342.09 6.513.202-2.738 1.678-5.453 3.387-8.065 5.26 4.596-1.612 8.685-4.268 12.997-6.462Z" style="fill:#e56324"></path>
    <path d="M1080.144 357.12c.335-3.461 2.477-6.237 5.125-8.326-.268.858-.53 1.716-.79 2.582.283.358.842 1.082 1.126 1.447-1.895 1.343-3.686 2.805-5.461 4.298Z" style="fill:#f9cbb5"></path>
    <path d="M1212.253 351.435c11.392 3.432 22.994-4.29 34.439-.82 4.916.671 9.326 2.954 13.877 4.767 5.573 1.783 9.87 5.961 14.078 9.848 6.633 6.32 13.214 12.818 18.66 20.22l-.022.447a15.866 15.866 0 0 0 .76 6.11c2.313 7.424 4.693 14.855 5.977 22.547 3.23 19.376 9.378 38.17 11.87 57.68 2.238 12.071 3.096 24.33 4.066 36.558.269 7.983 1.03 15.973.425 23.964a411.03 411.03 0 0 1-7.349 63.29 98.302 98.302 0 0 0 .038 32.253c2.29 15.608 5.715 31.067 6.826 46.84a199.323 199.323 0 0 1-.425 41.064c-1.38 16.287-4.946 32.26-7.998 48.286q-1.802 9.58-3.79 19.13c-1.574 7.453-4.67 14.466-7.714 21.42-3.112 7.192-6.536 14.257-10.349 21.107-2.618 5.162-6.603 9.706-7.893 15.466-1.142 5.118-5.17 8.915-6.439 13.996 4.67-2.32 7.535-6.819 10.691-10.758 9.088-12.14 17.548-24.897 23.8-38.752 2.037-5.864 4.462-11.579 6.7-17.369 3.865-10.93 8.849-21.472 11.84-32.7a210.247 210.247 0 0 0 5.455-28.59c.895-6.715.917-13.52 2.066-20.204a163.963 163.963 0 0 0 1.418-36.529c-.433-4.812-.008-9.676-.716-14.466-.821-5.297.693-10.565 1.014-15.84 1.552-18.002 3.35-35.976 4.872-53.979.298-7.706 1.104-15.399 1.067-23.113.261-3.5-2.596-6.245-2.432-9.714-.112-7.46.224-14.922.149-22.383-.067-5.565.194-11.28-1.5-16.652-.694-2.462-1.805-5.178-.335-7.58.88-1.761 1.91-3.574 1.745-5.618a256.687 256.687 0 0 0-4.954-35.76c2.007-.552 4.119-2.134 3.313-4.521a189.565 189.565 0 0 0-9.266-29.851 6.903 6.903 0 0 0-.068-5.536 223.515 223.515 0 0 0-11.004-23.539c-1.768-2.507.686-5.55-.478-8.26-1.358-3.782-3.521-7.229-4.834-11.034.59-2.044.85-4.275-.38-6.147a89.522 89.522 0 0 0-9.924-13.109 13.074 13.074 0 0 0 5.857.865c-.388-1.149-.112-2.596-1.208-3.387a53.201 53.201 0 0 0-11.52-7.953c.627.022 1.887.067 2.514.082 2.224-1.992 3.865 1.104 5.566 2.313 12.646 10.542 23.099 23.494 32.096 37.23a142.816 142.816 0 0 1 14.586 34.752c3.977 12.99 6.835 26.284 9.655 39.557 2.335 10.818 3.775 21.8 5.192 32.76a253.176 253.176 0 0 1 2.209 40.267c-1.62 16.623-.582 33.38-2.06 50.017-.94 13.22-2.514 26.397-3.864 39.58-.828 7.453-1.544 14.936-3.216 22.256q-5.472 28.168-12.176 56.083-4.566 20.703-10.631 41.042c-4.052 15.22-9.573 30-15.138 44.72-5.566 13.437-11.251 26.889-18.66 39.445-6.85 11.46-13.676 22.942-21.13 34.014a122.062 122.062 0 0 1-8.728 11.482c-5.462 6.208-10.125 13.161-16.466 18.555-2.35 1.88-4.253 4.432-7.08 5.633-7.282 2.641-13.259 7.827-20.346 10.863a119.886 119.886 0 0 1-24.531 6.797 80.236 80.236 0 0 1-20.906 1.582c-13.914-.015-27.62-2.873-41.154-5.842-14.81-3.663-29.53-8.11-43.198-14.989-12.086-5.648-22.763-13.772-33.178-22.002-6.894-5.76-13.198-12.183-19.644-18.436-7.126-7.34-13.691-15.197-20.398-22.919-8.7-9.662-14.855-21.211-21.376-32.373-4.931-8.475-9.027-17.39-13.362-26.172-3.298-6.566-7.528-12.632-10.43-19.398-2.53-6.029-6.021-11.58-8.513-17.615-.686-2.007-2.432-3.246-4.163-4.29-1.448-9.26-2.298-18.6-3.94-27.83-2.902-16.368-4.774-32.894-7.46-49.3-1.246-8.506-2.723-16.989-3.492-25.554 2.5-14.474 6.207-28.694 9.386-43.026 3.618-15.78 6.819-31.657 10.146-47.496 3.224-15.31 7.745-30.299 11.938-45.354a47.188 47.188 0 0 1 2.589-7.484c-.642 5.947-2.597 11.632-3.656 17.496-2.776 12.833-4.5 25.844-6.23 38.849a412.1 412.1 0 0 0-4.566 58.925 396.852 396.852 0 0 0-3.163 57.404 221.686 221.686 0 0 0 5.536 41.907c5.938 25.561 14.205 50.682 25.963 74.19 4.954 9.125 9.625 18.444 15.31 27.15 2.566 3.828 4.678 7.991 7.804 11.423 2.619 2.843 3.708 6.64 5.7 9.893-1.112-3.417-1.276-7.028-2.186-10.482-1.335-3.73-3.253-7.215-4.805-10.856-3.133-6.58-5.185-13.586-7.453-20.48-2.126-6.2-3.283-12.668-5.282-18.898a323.101 323.101 0 0 1-8.043-42.639c-1.806-10.87-2.53-21.867-3.365-32.842-1.723-21.846-1.865-43.773-2.164-65.67.038-3.656-.514-7.454.567-10.998 1.552-2.365 3.835-4.35 4.454-7.23 3.626-13.705 6.268-27.642 9.267-41.489 1.485-6.7 2.522-13.526 4.7-20.062 2.134-6.498 4.492-12.922 6.85-19.346 2.566-7.028 6.207-13.571 9.46-20.286 3.335-6.618 6.341-13.407 9.967-19.876 3.395-6.065 6.252-12.452 10.259-18.167 5.73-8.363 11.616-16.63 17.771-24.695 9.543-12.467 19.197-25.009 30.851-35.603 18.182-16.018 37.036-31.836 59.037-42.378a198.823 198.823 0 0 1 29.762-11.325c8.67-2.56 17.712-3.246 26.613-4.559Z" style="fill:#f2844f"></path>
    <path d="M1161.318 372.415c2.32-.268-1.112 3.589-1.91 2.149a2.98 2.98 0 0 1 1.91-2.149Z" style="fill:#f5a37c"></path>
    <path d="M1294.046 392.007a16.056 16.056 0 0 1-.761-6.11 89.319 89.319 0 0 1 8.012 13.773 372.84 372.84 0 0 1 16.772 42.235c3.007 10.005 6.021 20.055 7.678 30.388.925 5.73 2.29 11.393 2.962 17.168.88 5.953 1.022 12.258 4.178 17.585.626-.015 1.865-.052 2.492-.067-1.47 2.402-.359 5.118.335 7.58 1.694 5.372 1.433 11.087 1.5 16.652.075 7.461-.261 14.922-.15 22.383-.163 3.47 2.694 6.215 2.433 9.714.037 7.715-.768 15.407-1.067 23.114-1.522 18.003-3.32 35.976-4.872 53.979-.32 5.275-1.835 10.542-1.015 15.84.71 4.789.284 9.653.717 14.466a163.963 163.963 0 0 1-1.418 36.528c-1.149 6.685-1.171 13.489-2.067 20.204a210.247 210.247 0 0 1-5.453 28.59c-2.992 11.228-7.976 21.77-11.84 32.7-2.239 5.79-4.664 11.505-6.7 17.37-6.253 13.854-14.713 26.612-23.8 38.75-3.157 3.94-6.021 8.439-10.692 10.76 1.268-5.082 5.297-8.88 6.439-13.997 1.29-5.76 5.275-10.304 7.893-15.466 3.813-6.85 7.237-13.915 10.348-21.107 3.044-6.954 6.14-13.967 7.715-21.42q2.003-9.546 3.79-19.13c3.052-16.026 6.618-32 7.998-48.286a199.323 199.323 0 0 0 .425-41.065c-1.111-15.772-4.536-31.23-6.826-46.839a98.302 98.302 0 0 1-.037-32.253 411.03 411.03 0 0 0 7.348-63.29c.605-7.99-.156-15.981-.425-23.964-.97-12.229-1.828-24.487-4.066-36.558-2.492-19.51-8.64-38.304-11.87-57.68-1.284-7.692-3.628-15.134-5.976-22.547Z" style="fill:#e56324"></path>
    <path d="M1330.066 510.202c-1.268-2.149-.887-4.618-.216-6.886a25.044 25.044 0 0 1 .216 6.886Z" style="fill:#ed7a43"></path>
    <path d="M895.943 553.4c.157-1.306 1.38-3.634 2.641-1.716 1.552 2.738 1.978 5.939 3.238 8.804 3.626 8.244 6.663 16.78 11.095 24.658a320.442 320.442 0 0 0 31.358 44.81c1.537 1.925 3.693 3.342 4.961 5.483.769 8.565 2.246 17.048 3.492 25.554 2.686 16.406 4.558 32.932 7.46 49.3 1.642 9.23 2.492 18.57 3.94 27.83a99.568 99.568 0 0 1 1.358 25.09c-.217 3.156-1.806 5.94-3.074 8.76-.127-1.873-.142-3.746-.15-5.611-4.401.962-8.863-.075-13.302 0a152.931 152.931 0 0 1-32.097-3.88c-12.6-3.835-24.188-10.445-34.939-17.958a110.391 110.391 0 0 1-23.098-25.367c-8.618-14.28-15.541-29.769-18.772-46.19a149.88 149.88 0 0 1-2.895-29.134c0-11.654-.03-23.427 2.418-34.88 2.454-11.378 6.192-22.733 13.153-32.2 6.648-9.61 17.063-15.892 27.851-19.869a47.335 47.335 0 0 1 15.362-3.484Z" style="fill:#f95939"></path>
    <path d="M997.112 596.665c1.164-3.924 1.268-8.289 3.641-11.743-.403 5.812-2.089 11.437-3.17 17.152-.889 3.455-1.157 7.185-3.231 10.214-.21-5.357 1.842-10.415 2.76-15.623Z" style="fill:#ee7c45"></path>
    <path d="M1330.014 671.11c1.008 6.804-.052 13.675-.298 20.502a318.125 318.125 0 0 1-5.931 36.028 6.754 6.754 0 0 1-1.85 3.387c-1.724 1.761-1.888 4.35-2.575 6.588-2.372 8.647-4.73 17.31-7.602 25.807.224-5.357 1.895-10.497 2.663-15.78.85-6.14 3.186-11.93 4.387-17.995 4.954-19.256 7.841-38.96 11.206-58.538Z" style="fill:#f2844f"></path>
    <path d="M1228.234 719.575c2.192-.14 4.67 1 5.148 3.342.544 3.276-2.157 5.76-4.365 7.73-5.454 4.506-11.303 8.49-16.712 13.049-6.685 4.797-13.004 10.214-20.368 13.967-2.164 1.036-5.178 2.208-7.192.298-2.097-2.425-1.515-5.91-1.694-8.863.179-3.53-.552-7.297.806-10.632 6.423-7.02 15.6-10.4 24.262-13.728 6.55-2.201 13.172-4.72 20.115-5.163ZM964.128 738.123c1.73 1.044 3.476 2.283 4.163 4.29 2.492 6.035 5.983 11.586 8.513 17.615 2.902 6.766 7.132 12.832 10.43 19.398 4.335 8.781 8.43 17.697 13.362 26.172 6.521 11.162 12.676 22.711 21.376 32.373 6.707 7.722 13.272 15.578 20.397 22.92 6.447 6.252 12.751 12.676 19.645 18.435 10.415 8.23 21.092 16.354 33.178 22.002 13.668 6.879 28.389 11.326 43.198 14.989 13.534 2.97 27.24 5.827 41.154 5.842a80.236 80.236 0 0 0 20.905-1.582 119.886 119.886 0 0 0 24.532-6.797c7.087-3.036 13.064-8.222 20.345-10.863a150.517 150.517 0 0 0-.037 4.865c-4.805 2.73-9.498 5.655-14.258 8.46-6.841 3.932-14.72 5.335-22.046 7.968-6.327 4.753-10.96 11.304-16.228 17.123-15.018 16.489-31.067 32.984-51.502 42.654a73.84 73.84 0 0 1-29.627 7.64c-14.951-.269-29.992-2.32-44.108-7.387-4.111-1.634-7.618-4.394-11.49-6.49a174.849 174.849 0 0 1-22.487-16.28c-15.153-11.4-27.538-25.956-38.632-41.236-3.156-4.47-6.916-8.73-11.878-11.221-5.73-2.843-12.138-3.723-18.36-4.827.164-8.685.917-17.34.641-26.031-.29-10.96.731-21.92-.075-32.865-.507-12.93-.641-25.89-2.014-38.774-1.179-11.475-1.082-23.039-.813-34.544 1.268-2.82 2.857-5.603 3.074-8.759a99.568 99.568 0 0 0-1.358-25.09ZM1194.369 826.056c3.589-.284 7.14-1.53 10.766-1.171 1.373.611 1.171 2.148.664 3.297-2.126 4.402-4.581 8.871-8.804 11.602a113.499 113.499 0 0 0-18.973-.418 89.149 89.149 0 0 1-14.929.53c-.97.052-1.365-1.045-1.917-1.627-2.433-3.573-4.723-7.67-3.992-12.16 4.424-1.083 8.93-.083 13.4.074 7.916.365 15.899 1.014 23.785-.127Z" style="fill:#e56324"></path>
    <path d="M964.672 904.186c6.223 1.104 12.632 1.984 18.362 4.827 4.961 2.492 8.721 6.752 11.877 11.221 11.094 15.28 23.48 29.836 38.632 41.236a174.849 174.849 0 0 0 22.487 16.28c3.872 2.096 7.379 4.857 11.49 6.49 14.116 5.066 29.157 7.118 44.108 7.387a73.84 73.84 0 0 0 29.627-7.64c20.435-9.67 36.484-26.165 51.502-42.654 5.268-5.82 9.9-12.37 16.228-17.122 7.326-2.634 15.205-4.037 22.046-7.969 4.76-2.805 9.453-5.73 14.258-8.46.194 10.512-.328 21.017-.231 31.53.224 16.913-1.268 33.849.164 50.748.127 10.706 1.418 21.36 1.776 32.052 1.358 16.205 2.544 32.454 5.215 48.51.925 5.193 1.328 10.452 2.074 15.675.373 3.193-.478 6.372-1.239 9.46-2.089 6.872-1.895 14.139-2.835 21.211-1.492 11.416-2.566 22.905-4.916 34.193q-4.7 20.783-11.468 41.013c-5.088 15.667-9.885 31.455-15.84 46.824-2.879 7.587-5.595 15.235-8.34 22.875-2.709 7.916-5.924 15.653-8.297 23.68-4.88 16.407-11.437 32.231-17.682 48.145a383.315 383.315 0 0 0-15.056 39.311c-2.387 7.05-4.253 14.25-6.371 21.383-4.059 12.78-7.924 25.628-12.303 38.304-3.119 8.416-7.633 16.212-11.684 24.195-2.507 5.021-4.402 10.348-7.088 15.28a3.26 3.26 0 0 1-5.387.657c-2.387-2.716-4.096-5.94-5.96-9.013-8.872-14.519-16.332-29.836-24.823-44.578-6.797-12.908-14.638-25.21-21.785-37.916-7.215-12.37-13.482-25.255-20.212-37.894-6.58-12.243-12.534-24.815-18.585-37.327-7.088-15.31-14.675-30.38-21.666-45.734-5.58-11.923-10.31-24.218-15.899-36.133-7.006-15.384-14.541-30.537-21.002-46.16-5.44-13.452-11.221-26.77-16.325-40.356-4.82-11.952-8.654-24.263-12.765-36.469a118.434 118.434 0 0 1-4.775-21.561c-.97-1.574-3.275-1.813-4.85-2.649 1.515-7.893 5.059-15.22 7.096-22.987 4.267-15.906 8.356-31.902 11.042-48.167 3.044-16.294 4.08-32.872 5.633-49.353 1.402-17.436 2.775-34.88 3.767-52.345Z" style="fill:#f2844f"></path>
    <path d="M1136.078 320.577a68.99 68.99 0 0 1 16.175-2.2 29.054 29.054 0 0 1-10.595 4.297c-6.685.917-13.437 2.372-19.39 5.685-21.637 9.647-39.767 25.65-55.255 43.325-15.168 17.764-26.733 38.393-35.5 59.985-11.623 28.172-18.42 58-25.105 87.642-1.656 6.633-2.357 13.639-5.49 19.809a26.51 26.51 0 0 1 .7-5.32c2.56-9.922 4.179-20.062 6.566-30.022 6.02-25.949 12.004-52.092 22.397-76.705 8.707-21.181 20.271-41.355 35.387-58.627 8.826-9.84 18.302-19.197 29.03-26.964 5.939-4.267 11.691-8.826 18.003-12.541 7.23-3.902 15.156-6.288 23.077-8.364Z" style="fill:#ab7d86"></path>
    <path d="M1257.958 325.755c.947-.5 1.887-1.03 2.842-1.552 6.215 1.91 12.4 4.775 16.973 9.52q4.97 5.092 10.035 10.08c1.41-.045 2.798-.44 4.223-.425 1.858.373 3.537 1.358 5.417 1.663 1.283-.149 3.044-1.611 4.043-.171 2.164 3.044 3.35 6.655 4.984 9.99a13.563 13.563 0 0 1 7.484 2.373c7.17 10.474 11.69 22.501 15.66 34.483 1.596 4.455 2.081 9.483 5.275 13.199-1.299-7.237-3.574-14.25-5.768-21.249a24.15 24.15 0 0 1-.85-6.453c4.335 6.423 6.879 13.87 9.565 21.084 1.149 4.506 3.85 8.43 4.864 12.982 1.895 7.781 3.208 15.69 5.14 23.471 2.784 12.512 2.903 25.397 4.171 38.11 1.925 20.562 3.544 41.17 3.775 61.828.836 6.305-.29 12.594-.037 18.914.104 9.96-.664 19.897-1.112 29.835-.955 16.9-2.014 33.82-4.573 50.562-1.619 11.162-2.88 22.39-5.327 33.41-2.35 11.422-5.006 22.77-7.7 34.118-4.812 16.787-9.997 33.477-15.742 49.973q-4.264 12.322-8.946 24.501c-2.394 7.05-7.363 12.84-9.997 19.786-2.044 3.209-2.7 7.476-5.924 9.811-1.746 1.425-2.484 3.656-3.85 5.402-.365-2.044.702-3.85 1.291-5.723a188.187 188.187 0 0 1 8.684-21.912c3.664-8.028 5.387-16.735 7.491-25.255 1.843-7.93 3.148-15.981 5.312-23.83 1.82-6.707 3.03-13.556 4.417-20.36 1.709-10.878 4.11-21.637 5.29-32.597 2.134-18.01 5.49-35.879 6.52-54.001.56-10.908 1.813-21.763 2.261-32.671-.067-7.819.306-15.623.575-23.427-9.17-2.507-18.466-5.327-28.076-4.842-5.125-.38-9.93 1.649-14.772 2.977-8.125 2.178-15.392 6.558-23.203 9.55a97.748 97.748 0 0 1-26.919 6.834c-3.059.306-6.722.007-8.721-2.649-1.12-1.149-.903-2.865-.71-4.305.381-2.126.508-4.364 1.582-6.282 1.396-2.76 2.052-5.812 3.238-8.662a26.996 26.996 0 0 1 10.707-12.362c10.042-5.529 21.42-8.148 32.76-9.282 13.101-1.268 26.441-1.35 39.4 1.194a48.675 48.675 0 0 1 14.326 5.626q-1.679-21.947-3.417-43.878c.015-4.252-1.008-8.497-.344-12.735.687-4.47-.455-8.93-.723-13.392-1.507-10.587-3.611-21.077-5.753-31.552-2.208-8.446-3.297-17.153-5.79-25.524-2.17-7.207-4.282-14.422-5.96-21.756-1.284-5.774-3.805-11.139-5.917-16.622 2.79 2.328 3.857 5.916 5.32 9.11 5.073 11.317 9.87 22.762 14.116 34.409a47.154 47.154 0 0 0 4.26 8.983c-4.82-13.37-9.923-26.65-15.593-39.685-5.447-12.28-10.617-25.359-20.726-34.648-3.798-3.536-5.581-8.542-8.827-12.504-2.41-3.507-5.677-6.267-8.52-9.4-4.902-6.074-11.796-9.864-18.204-14.072Z" style="fill:#193857"></path>
    <path d="M1014.257 306.267a166.175 166.175 0 0 1 34.88-24.158c28.403-14.593 60.26-23.367 92.35-22.337 9.788.485 19.935-.299 29.231 3.372-.925-2.768-3.581-4.305-6.26-4.999-7.266-1.85-14.824-1.179-22.24-1.537-5.745-.127-11.487.035-17.22.276-14.164.596-28.067 4.052-41.616 8.118a180.385 180.385 0 0 0-76.929 45.384c-10.05 9.937-18.712 21.189-27.105 32.552a244.703 244.703 0 0 0-16.959 26.38c3-3.52 5.335-7.542 7.99-11.325 5.604-8.251 11.632-16.212 17.922-23.949 8.065-9.773 16.339-19.48 25.956-27.777Z" style="fill:#102438"></path>
    <path d="M1102.004 283.557c17.115-6.14 35.598-7.572 53.68-6.439a159.747 159.747 0 0 1 27.912 4.447c6.998 1.648 13.429 5.073 19.3 9.14 3.216 2.245 5.171 5.714 7.753 8.572-.247-7.237-6.975-11.542-12.535-14.944-8.515-5.21-18.45-6.931-28.09-8.677-11.46-2.007-23.14-1.965-34.722-1.597a115.492 115.492 0 0 0-40.498 9.08 166.16 166.16 0 0 0-29.194 16.287 228.765 228.765 0 0 0-29.791 26.158 207.531 207.531 0 0 0-30.694 39.43c-4.655 7.879-9.4 15.742-13.556 23.897 2.723-1.843 4.148-4.902 5.879-7.588 4.991-8.124 10.11-16.182 15.69-23.919a230.462 230.462 0 0 1 55.076-56.135 159.986 159.986 0 0 1 33.79-17.712Z" style="fill:#102438"></path>
    <path d="M1206.082 316.019c-2.298-1.985-4.7-3.85-7.073-5.737-4.454-3.522-8.646-7.529-13.876-9.901-11.595-5.521-24.848-6.737-37.543-5.491-13.094 1.284-26.248 3.842-38.11 9.706a163.439 163.439 0 0 0-39.05 25.777 18.01 18.01 0 0 1-4.29 2.783c.447.164 1.343.5 1.79.664-.328 1.194-.641 2.388-1.007 3.567 6.775-6.006 13.586-12.027 21.159-17.033 12.124-7.976 24.979-15.303 39.095-19.048a136.797 136.797 0 0 1 29.209-3.828c9.759.403 19.667 2.313 28.344 6.962 3.812 1.999 7.028 4.909 10.69 7.147 2.694 1.671 5.485 3.186 8.081 5.021a51.241 51.241 0 0 0 5.64 4.5 2.15 2.15 0 0 0 2.5.014c-1.65-1.798-3.164-4.387-5.559-5.103ZM1328.276 377.213c-1.522-4.955-5.14-8.931-7.379-13.557a103.784 103.784 0 0 0-11.408-17.108c-4.842-6.2-10.02-12.25-16.39-16.935-5.865-4.26-11.925-8.336-18.653-11.147a91.073 91.073 0 0 0-26.307-6.155c-8.46-.284-17.354 1.522-24.143 6.841.045.426.097.859.157 1.291 6.065-2.395 12.22-5.148 18.86-5.237 6.88-.53 13.661.962 20.346 2.38 12.631 2.991 23.852 10.176 33.305 18.898 4.693 4.275 8.23 9.617 12.617 14.168 1.432 2.283 3.2 4.327 4.677 6.58 7.17 10.475 11.691 22.502 15.66 34.484 1.597 4.455 2.082 9.483 5.276 13.199-1.299-7.237-3.574-14.25-5.768-21.249a24.146 24.146 0 0 1-.85-6.453Z" style="fill:#102438"></path>
    <path d="M1293.508 361.731c1.798 4.865 5.29 8.827 7.73 13.363 1.746 2.745 2.611 6.073 4.894 8.468 2.79 2.327 3.857 5.916 5.32 9.11 5.073 11.317 9.87 22.762 14.116 34.409a47.142 47.142 0 0 0 4.26 8.982c-4.82-13.37-9.923-26.65-15.594-39.684-5.446-12.28-10.616-25.359-20.726-34.648ZM1363.745 405.885c-3.441-9.233-6.543-18.593-10.2-27.747-1.596-3.768-2.573-7.857-4.953-11.244-.65-3.275-2.414-6.265-3.686-9.356-5.48-13.312-14.772-24.636-24.382-35.23-5.998-6.513-13.213-11.706-20.189-17.1-11.878-8.916-26.292-14.079-40.967-15.884-6.984-.836-13.982.06-20.928.724-5.804.708-11.855 1.589-16.81 4.931.18.537.374 1.075.568 1.612 9.64-3.97 20.181-4.395 30.462-4.574 8.125-.186 16.071 1.88 23.793 4.2a76.697 76.697 0 0 1 14.966 6.716c5.611 3.148 10.505 7.356 15.6 11.235a108.45 108.45 0 0 1 14.617 13.75c7.707 8.663 15.115 17.765 20.39 28.15 2.343 4.41 4.104 9.095 6.275 13.587a7.64 7.64 0 0 0 .79 3.088c4.007 9.61 7.603 19.376 11.23 29.135 1.051 2.581 1.812 5.536 4.237 7.222a22.476 22.476 0 0 0-.813-3.216Z" style="fill:#102438"></path>
    <path d="M1232.971 371.983c2.604-.127 5.432-.396 7.722 1.156 9.543 5.73 15.653 15.787 19.152 26.12-.813.12-1.626.246-2.425.38-3.17-6.035-6.506-12.146-11.49-16.898a41.147 41.147 0 0 0-13.086-8.588c.038-.723.075-1.447.127-2.17ZM1212.327 504.062c4.499.007 8.938-.903 13.452-.791 7.215.03 14.43-.052 21.651.022a14.091 14.091 0 0 1 7.595 2.134 81.957 81.957 0 0 0-21.83-.15 224.138 224.138 0 0 0-28.165 2.694c-7.259 1.239-14.474 2.872-21.837 3.32-3.03-.06-6.021-.709-9.043-.858a68.58 68.58 0 0 0-.366-1.156c5.134-1.21 10.46-.299 15.608-1.403 7.618-1.41 15.19-3.216 22.935-3.813Z" style="fill:#fbbb9e"></path>
    <path d="M981.713 411.667c-6.64 12.422-11.065 25.866-15.183 39.288-5.267 18.048-9.64 36.41-11.93 55.084-.85 8.08-2.238 16.138-2.357 24.262-1.896 6.61-1.373 13.683-2.149 20.488-.06 6.274-1.067 12.519-.754 18.793 2.15-3.887 1.62-8.483 2.15-12.728.26-6.252 1.163-12.46 1.23-18.704a407.075 407.075 0 0 1 24.62-111.33 189.529 189.529 0 0 1 11.677-24.86c-3.335 2.447-5.334 6.163-7.304 9.707ZM909.753 547.207a202.729 202.729 0 0 1-4.887-29.395c-3.118-30.806 3.485-61.903 14.69-90.523-3.603 4.492-5.528 10.013-7.55 15.325-6.588 19.13-11.346 39.195-11.012 59.493a189.602 189.602 0 0 0 4.559 37.513 91.064 91.064 0 0 0 4.73 15.884c.007 2.425 1.701 4.454 3.037 6.342.179-.388.53-1.172.7-1.56-.29-3.006-1.85-5.79-3.304-8.393a21.89 21.89 0 0 0-.963-4.686Z" style="fill:#102438"></path>
    <path d="M937.313 507.285a323.828 323.828 0 0 1 10.371-62.627c1.656-4.842 2.88-9.818 4.551-14.645a211.737 211.737 0 0 1 15.854-36.327c-4.252 4.208-6.845 9.737-9.587 14.967a165.1 165.1 0 0 0-13.228 34.685 250.585 250.585 0 0 0-9.84 45.37c-1.41 11.138-2.148 22.342-2.47 33.558a171.683 171.683 0 0 0 .537 23.882c.217 1.97-.224 4.089.604 5.939a98.91 98.91 0 0 0 2.298 18.428c-.007 4.35.978 8.602 1.56 12.892 1.171 7.036 1.924 14.139 3.282 21.145l1.433.567c-1.56-11.416-2.701-22.89-4.23-34.305a12.986 12.986 0 0 0-.843-2.537 75.527 75.527 0 0 0-.538-9.453c-.76-11.482-1.089-22.994-.873-34.506.799-5.648.366-11.378 1.12-17.033Z" style="fill:#102438"></path>
    <path d="M924.98 556.989c-1.865-18.473-4.297-37.014-3.618-55.628.702-14.75 1.739-29.508 4.26-44.071 2.888-16.862 6.685-33.76 14.124-49.264-4.656 5.752-7.29 12.78-9.864 19.63a184.347 184.347 0 0 0-8.527 37.251c-1.79 9.834-2.403 19.838-3.156 29.791a225.915 225.915 0 0 0 5.506 65.469c.91 8.214 3.17 16.22 5.006 24.27 1.313 4.305 1.918 9.087 4.865 12.669-4.074-13.326-5.88-27.18-8.55-40.811Z" style="fill:#102438"></path>
    <path d="M1297.746 600.261a6.669 6.669 0 0 1 7.603 2.85c2.559 4.395 2.387 9.856 1.03 14.616-.993 3.664-3.194 7.409-6.91 8.804a8.189 8.189 0 0 1-9.49-2.828c-3.976-5.148-3.387-12.66-.156-18.025 1.641-2.932 4.815-4.506 7.923-5.417ZM1066.416 601.65a7.313 7.313 0 0 1 7.513 2.32c2.835 3.715 4.924 8.266 4.633 13.041.09 4.894-2.417 10.05-7.036 12.086-2.529 1.485-6.192 1.187-7.916-1.357-2.797-4.052-6.02-8.52-5.267-13.743.59-4.932 2.795-10.904 8.073-12.348Z" style="fill:#150f0c"></path>
    <path d="M898.942 611.751c4.83-4.1 12.4-4.94 17.683-1.23.022.827.06 1.663.112 2.498-4.768.142-10.2-.194-13.975 3.29-6.475 6.007-8.58 15.295-8.505 23.83.507 21.905 13.728 42.714 32.805 53.256 4.79 2.686 10.23 3.693 15.579 4.633q.022 1.343.09 2.708c-8.596.866-17.176-2.297-24.316-6.916-11.295-7.55-20.808-18.204-25.747-30.97-4.17-10.706-5.834-22.606-3.41-33.917 1.425-6.498 4.554-12.827 9.684-17.182Z" style="fill:#f95939"></path>
    <path d="M1200.33 632.552c.642-.164 1.298-.32 1.955-.47.112 10.393-.298 20.808.172 31.201 1.342 12.974 1.745 26.396 6.632 38.67-.582.2-1.164.417-1.73.634-4.507-8.49-5.82-18.145-7.223-27.523-1.141-8.11-1.776-16.287-2.253-24.457.425-6.065.754-12.183 2.447-18.055Z" style="fill:#fbbb9e"></path>
    <path d="M1074.197 635.991c-.403-.79-.484-1.97-1.551-2.118-7.125-2.179-14.348-4.014-21.45-6.268a19.102 19.102 0 0 0-5.573-.858c-.015.508-.038 1.522-.053 2.03 4.626 2.245 9.752 3.044 14.705 4.237 4.641.985 9.244 2.15 13.922 2.977ZM1313.175 631.425a59.614 59.614 0 0 1-31.507 5.298c-.313.53-.947 1.589-1.268 2.11a15.996 15.996 0 0 0 4.461 1.724c6.79.776 13.624-.597 20.062-2.686 2.761-.992 5.611-2.081 7.827-4.066.79-.574.41-1.574.425-2.38ZM1063.864 641.132c-4.252-.127-7.879-2.723-12.057-3.208.388 1.052.359 2.454 1.5 3.051 4.47 3.246 10.236 4.066 15.616 3.313 8.259-1 16.563-3.09 23.695-7.513.037-.47.105-1.403.142-1.873a60.02 60.02 0 0 1-28.896 6.23Z" style="fill:#b95d38"></path>
    <path d="M1055.247 670.535a20.307 20.307 0 0 1 7.162-.686c5.454.708 11.065.611 16.34 2.38 11.004 3.626 20.808 11.937 24.74 23.031 4.536 13.139 4.446 27.993-1.075 40.833a63.447 63.447 0 0 1-17.898 23.159c-5.678 4.55-12.505 7.281-19.25 9.826-13.563 4.954-29.111 1.425-40.519-6.991a45.205 45.205 0 0 1-16.16-26.479 52.117 52.117 0 0 1 5.006-33.827c4.297-8.378 9.983-16.526 18.413-21.166 4.745-2.328 8.282-6.91 13.669-7.909 3.223-.567 6.392-1.384 9.572-2.171ZM1278.534 673.527a42.62 42.62 0 0 1 15.84-3.164c4.999-.007 10.147-.514 14.981 1.052 4.044 1.276 8.297 2.753 11.251 5.962a27.432 27.432 0 0 0 4.462 3.946c-1.18 10.96-3.581 21.719-5.29 32.597-1.388 6.804-2.596 13.653-4.417 20.36-2.164 7.849-3.47 15.9-5.312 23.83-3.977 1.5-8.072 2.626-12.004 4.238-5.342 2.17-11.206.918-16.623-.239-9.363-2.544-18.697-7.028-24.77-14.84a33.592 33.592 0 0 1-7.327-14.287c-1.604-7.76-2.521-15.861-.664-23.658 1.724-7.26 3.835-14.69 8.394-20.719a34.466 34.466 0 0 1 11.31-9.572c3.395-1.82 6.58-4.063 10.17-5.506ZM1337.042 701.527c1.246 3.007 1.127 6.305 1.522 9.483.664 7.901.06 16.22-3.618 23.382-3.328 6.513-7.416 13.02-13.646 17.108 5.745-16.496 10.93-33.186 15.742-49.973Z" style="fill:#f95939"></path>
    <path d="M965.202 736.287a12.388 12.388 0 0 1 3.223 4.425c5.089 11.653 9.923 23.479 16.347 34.49 6.52 12.013 13.37 23.838 20.353 35.581 4.752 8.215 10.602 15.706 16.183 23.36 4.737 6.186 9.333 12.482 14.526 18.302a128.375 128.375 0 0 0 17.234 17.869 239.14 239.14 0 0 0 21.749 16.287c4.573 2.947 9.564 5.192 13.981 8.393a204.331 204.331 0 0 0 34.298 16.451 276.434 276.434 0 0 0 32.357 7.901c5.26.903 10.438 2.59 15.832 2.462 5.118-.09 10.251.052 15.37-.224a258.383 258.383 0 0 0 28.843-5.916c10.594-2.813 20.07-8.483 29.634-13.646-.171 1.507-.53 3.074-1.895 3.97-5.409 4.244-11.064 8.4-17.57 10.818-7.103 3.103-14.616 5.095-22.106 6.983-7.402 1.447-15.041 2.656-22.547 1.305-4.462-.895-8.968.09-13.452-.067-4.842.157-9.497-1.365-14.235-2.081-7.901-1.261-15.675-3.097-23.457-4.917-9.982-2.365-19.338-6.677-28.665-10.825-5.453-2.627-10.974-5.208-15.988-8.618-4.648-3.186-9.848-5.439-14.496-8.625-6.469-4.11-12.274-9.124-18.332-13.78-7.334-5.827-13.504-12.885-19.614-19.92-7.2-7.827-13.482-16.436-19.652-25.083a150.977 150.977 0 0 1-12.213-19.145c-6.58-12.236-13.796-24.113-20.346-36.364-6.409-11.035-10.759-23.076-14.914-35.088a8.44 8.44 0 0 1-.448-4.298ZM1230.3 710.197c-1.238-4.566-2.723-9.088-3.387-13.788-1.783-12.728-4.118-25.427-4.476-38.311-.478-10.721.604-21.413.94-32.12.06-6.691 1.902-13.19 2.312-19.83l.053.686c1.246-3.618 1.716-7.423 2.566-11.131.605-2.843 1.425-5.685 1.336-8.61-2.485 3.044-3.365 6.939-4.514 10.61a42.788 42.788 0 0 0-1.679 7.535c-2.335 7.677-3.285 15.734-4.133 23.703a253.996 253.996 0 0 0 .977 63.626 88.208 88.208 0 0 0 8.14 28.418 7.702 7.702 0 0 1-1.238 8.58 73.65 73.65 0 0 1-16.735 12.34c-.052.56-.15 1.679-.202 2.239 1.336.022 2.813.35 4-.493 4.7-2.641 8.768-6.198 12.922-9.595 2.995-2.45 5.573-5.677 6.14-9.587.731-4.998-1.753-9.594-3.022-14.272ZM1173.576 717.941c.508-2.558 1.559-5.006 1.738-7.632-1.679 1.03-3.47 2.148-4.253 4.05-3.059 6.865-2.581 14.87-.141 21.839a7.444 7.444 0 0 0 7.162 5.178c-1.268-1.94-2.925-3.612-4.014-5.656-2.246-5.7-1.652-11.936-.492-17.779ZM1185.17 744.427a31.451 31.451 0 0 0 .835 19.935c.261.799 1.373.552 2.03.836-1.15-7.028-1.15-14.16-1.373-21.256-.373.12-1.12.358-1.492.485ZM1199.808 744.703c-.492.105-1.47.32-1.962.433-1.79 6.647-2.26 14.884 2.79 20.263.664-2.947-.186-5.901-.336-8.848-.268-3.955.463-7.96-.492-11.848Z" style="fill:#b95d38"></path>
    <path d="M1030.738 747.583c.74-.967 2.358.239 1.604 1.209-.731.962-2.342-.244-1.604-1.21Z" style="fill:#ab7d86"></path>
    <path d="M1122.999 793.452c15.996-13.4 35.453-23.65 56.515-25.434 12.826-1.574 26.173-.395 38.05 4.932 6.365 3.021 13.05 5.96 17.966 11.176.888 1.515 1.627 3.111 2.388 4.7-10.43.38-20.868.068-31.29.291-14.378 1.328-28.815.038-43.214.65-10.796 1.328-21.51 3.76-32.44 3.633-2.663-.03-5.372.977-7.975.052Z" style="fill:#f95939"></path>
    <path d="M1178.724 308.125c-7.21 2.045-14.87 1.888-22.077 3.97-3.283.865-6.431 2.133-9.654 3.17-2.007.873-3.492-1.798-5.477-1.462-4.066.56-7.84 2.253-11.631 3.716-5.715 2.41-11.475 4.722-16.958 7.624-2.724 1.425-5.215 3.253-7.976 4.619-.85-2.724-2.843-5.506-5.976-5.581-4.984-.276-7.827 4.544-11.05 7.543a11.881 11.881 0 0 0-4.648-1.067c-3.902-.045-6.207 3.633-9.035 5.752-4.678 5.126-9.244 10.363-14.138 15.303-.522-.202-1.575-.605-2.097-.806a136.885 136.885 0 0 1 8.916-13.52c.366-1.178.68-2.372 1.007-3.566-.447-.164-1.343-.5-1.79-.664a26.237 26.237 0 0 0-5.17 4.872c-4.709 5.715-10.356 10.557-15.169 16.183-7.17 7.923-15.399 15.817-18.406 26.396 3.082-3.23 5.268-7.17 8.066-10.631a147.472 147.472 0 0 1 12.817-14.131c-6.244 10.132-11.713 20.703-17.346 31.179-9.304 17.809-18.287 35.841-25.136 54.755-6.379 19.45-13.616 38.759-16.89 59.052-2.582 17.018-6.663 33.798-8.342 50.957-2.126 17.459-4.327 34.947-4.91 52.547-.32 18.652-.49 37.327 1.06 55.956.867 10.41 2.679 20.696 4.089 31.03 2.507 16.294 5.312 32.716 11.445 48.1 4.916 16.466 12.325 32.037 19.935 47.391 1 1.418 1.465 4.3 3.76 3.827 1.82-.374 1.65-2.521 1.179-3.85a85.155 85.155 0 0 0-4.543-9.355c-3.373-9.222-6.72-18.53-8.26-28.292-2.596-16.465-4.342-33.029-5.73-49.622-.238-8.363-1.007-16.699-.768-25.068.476-16.684-.448-33.417 1.112-50.055.992-10.646 1-21.338 1.686-31.992a87.316 87.316 0 0 1 .917-13.094c13.482-3.088 26.74-7.274 40.505-9.005 6.006-.671 12.087-2.26 18.123-1.06 3.32.568 6.617 1.276 9.87 2.172 15.922 4.394 31.576 9.8 47.727 13.317 6.274 1.366 12.772 2.76 19.197 1.769 2.898-.448 6.431-1.97 6.923-5.245-.119-2.276-.425-4.537-.343-6.82.127-2.775-1.246-5.29-1.775-7.953-.769-4.357-4.275-7.46-7.394-10.273a72.59 72.59 0 0 0-20.42-10.17c-7.947-2.562-15.698-5.93-23.987-7.281-17.78-3.022-36.424-3.44-53.778 2.052-11.236 3.67-22.046 8.982-31.141 16.607 1.552-8.788 3.962-17.39 5.961-26.083 3.537-14.048 6.998-28.112 10.885-42.064 7.275-23.196 14.93-46.31 24.673-68.602 5.954-13.72 11.975-27.56 20.585-39.878 4.282-6.969 10.289-12.564 15.81-18.525 4.298-4.642 8.169-9.73 13.13-13.713a150.844 150.844 0 0 1 13.228-9.185c10.132-6.744 21.271-11.743 32.343-16.697-6.685.918-13.437 2.373-19.39 5.685-21.637 9.647-39.767 25.65-55.255 43.325-15.168 17.764-26.733 38.393-35.5 59.985-11.623 28.172-18.42 58-25.105 87.643-1.656 6.632-2.357 13.638-5.49 19.808a26.524 26.524 0 0 1 .7-5.32c2.56-9.922 4.178-20.062 6.566-30.022 6.02-25.949 12.004-52.092 22.397-76.705 8.707-21.181 20.271-41.355 35.387-58.627 8.826-9.84 18.301-19.197 29.03-26.963 5.939-4.268 11.623-8.944 18.003-12.542 7.156-4.035 15.146-6.327 23.076-8.364a67.61 67.61 0 0 1 16.176-2.2c6.035-.74 11.571-3.627 17.495-4.925 4.402-1.447 9.893-1.537 12.9-5.565a11.26 11.26 0 0 0-3.924.238Z" style="fill:#193857"></path>
    <path d="M1235.53 784.126c1.306 1.157 2.455 2.477 3.857 3.521 3.582.5 7.491-.887 10.834.91-.38 2.112-2.76 2.35-4.372 3.09a17.417 17.417 0 0 0-5.298 3.424c.008-1.074 0-2.141-.014-3.2a23.145 23.145 0 0 0 7.2-2.873c-3.276-.194-6.551-.209-9.82-.172-.76-1.589-1.499-3.185-2.387-4.7Z" style="fill:#a3343e"></path>
    <path d="M1083.523 787.267a5.43 5.43 0 0 1 6.872 1.664c2.417 3.253 1.067 8.707-2.746 10.244-3.864 1.507-8.893-1.754-8.535-6.021-.03-2.671 2.052-4.917 4.41-5.887Z" style="fill:#38312d"></path>
    <path d="M1163.414 789.766c14.4-.611 28.836.68 43.213-.649 10.423-.223 20.86.09 31.29-.29 3.269-.038 6.544-.023 9.82.171a23.145 23.145 0 0 1-7.2 2.872 232.543 232.543 0 0 1-46.079.888c-6.222-.149-12.452-.09-18.674-.067-14.094-.62-27.747 3.925-41.766 4.387-4.573-.224-9.14-.813-13.713-.313l-.932-1.022c1.037-.806 2.074-1.62 3.11-2.425l.516.134c2.603.925 5.312-.082 7.975-.052 10.93.127 21.644-2.305 32.44-3.634Z" style="fill:#a3343e"></path>
    <path d="M1194.458 792.758c15.353.725 30.806 1.082 46.079-.888.014 1.06.022 2.127.014 3.201.082 1.022-.91 1.664-1.432 2.425-4.775 5.2-9.87 10.244-16.1 13.69a64.826 64.826 0 0 1-31.56 7.782c-11.214.38-22.338-1.47-33.253-3.835a108.889 108.889 0 0 1-22.487-6.588c-5.677-3.14-10.452-7.654-15.414-11.78 4.574-.5 9.14.09 13.713.313 14.02-.462 27.672-5.006 41.766-4.387 6.222-.022 12.457-.226 18.674.067Z" style="fill:#f95939"></path>
    <path d="M1119.537 793.55a14.378 14.378 0 0 1 2.947-.232c-1.037.806-2.074 1.619-3.111 2.425l.932 1.022c-1.23-.045-2.462-.142-3.678-.224.843-1.09 1.336-2.813 2.91-2.992Z" style="fill:#a3343e"></path>
    <path d="M1195.19 797.153c4.55.305 9.064-.635 13.608-.396a7.615 7.615 0 0 1-3.82 2.239c-4.685.94-9.497.164-14.205.775-4.73.627-9.505.396-14.25.515-4.343.112-8.715 1.239-13.027.455a.933.933 0 1 1 .037-1.857c10.334-2.627 21.107-1.56 31.657-1.731ZM1173.046 860.025c4.655-.544 9.311-1.335 14.011-1.425-3.842 4.283-10.214 3.126-15.197 4.976-3.335.933-6.484 2.47-9.9 3.082.178-1.187-.083-2.701 1.088-3.447 2.873-2.119 6.573-2.56 9.998-3.186Z" style="fill:#fbbb9e"></path>
    <path d="M962.278 855.765c1.312-1.41 1.641-3.32 1.894-5.14-.865.208-1.73.417-2.589.641.045.261.127.79.172 1.06-4.118 6.192-6.468 13.37-8.43 20.487-3.917 14.6-1.858 30.12 2.827 44.287.836 2.32 1.53 5.238 4.268 5.977a16.693 16.693 0 0 0-2.679-7.745c-2.529-12.176-4.132-24.761-2.134-37.185 1.245-7.738 3.917-15.108 6.67-22.382ZM891.19 931.91c-10.355-17.473-16.518-37.804-15.585-58.224 1.298-23.591 8.99-47.31 24.009-65.79 6.506-7.886 13.735-15.302 22.181-21.121 2.768-2.03 6.125-3.06 8.841-5.156-2.074-.238-4.305-.611-6.23.418-6.364 2.88-11.639 7.588-16.72 12.28a113.85 113.85 0 0 0-21.748 28.202 120.302 120.302 0 0 0-12.802 41.125 96.497 96.497 0 0 0 3.685 42.728c2.895 9.423 7.55 18.144 12.363 26.71a111.473 111.473 0 0 0 18.764 24.881c1.44 1.269 2.835 3.268 5.036 2.671-2.253-2.782-4.977-5.133-7.267-7.878-5.603-6.394-9.983-13.698-14.526-20.846Z" style="fill:#102438"></path>
    <path d="M951.75 946.936a126.622 126.622 0 0 1-16.31-34.275 89.296 89.296 0 0 1-2.506-32.947 141.792 141.792 0 0 1 7.386-31.932l.329.194c3.857-10.192 9.908-19.406 16.675-27.881 1.447-1.85 3.387-3.574 3.514-6.08-2.47.26-3.996 2.333-5.506 4.05a98.61 98.61 0 0 0-17.422 28.3c-8.99 22.882-12.623 49.032-4.409 72.69 3.693 10.289 8.11 20.86 16.168 28.53 1.82 3.06 4.767 5.163 7.513 7.334.395-.164 1.194-.485 1.589-.649a46.014 46.014 0 0 0-7.02-7.334Z" style="fill:#102438"></path>
    <path d="M934.232 960.21a92.209 92.209 0 0 1-23.471-37.924 126.996 126.996 0 0 1-5.357-27.195c-.06-4.17-.955-8.334-.329-12.49.68-16.301 4.208-32.618 11.43-47.309 7.52-15.153 17.787-29.373 31.716-39.236 2.865-2.268 6.14-4.14 8.356-7.11-1.275.044-2.678-.247-3.82.492-7.997 4.581-15.593 10.11-21.524 17.235a122.73 122.73 0 0 0-17.175 26.18c-12.922 26.3-16.235 57.284-8.274 85.568 4.394 17.891 14.676 34.574 29.746 45.377 2.29 2.081 5.074 3.491 7.61 5.245 3.328 2.238 6.462 4.984 10.453 5.983a58.699 58.699 0 0 0-5.566-4.133c-4.774-3.335-8.9-7.52-13.795-10.684Z" style="fill:#102438"></path>
    <path d="M1284.899 1106.128c.373-.44 1.126-1.32 1.5-1.76 3.073 2.208 3.924 6.065 5.177 9.422 5.103 14.832 6.827 30.507 9.23 45.93 2.028 13.227 2.17 26.627 2.401 39.974a155.242 155.242 0 0 1-.992 23.33c-1.887 14.392-4.76 28.642-8.013 42.788-3.678 16.13-7.274 32.313-12.43 48.048a387.921 387.921 0 0 1-16.518 43.168 630.039 630.039 0 0 1-36.311 66.663c-7.394 11.623-15.81 22.554-23.472 33.999-7.886 11.609-16.4 22.785-25.322 33.618-5.506 6.678-11.206 13.206-16.34 20.19-2.215 2.767-4.006 5.93-6.677 8.31-1.171 1.18-4.096.59-3.492-1.432 1.09-4.835 5.074-8.274 7.767-12.25 8.214-10.64 17.242-20.615 25.39-31.306 9.877-12.669 18.517-26.225 27.94-39.222a398.1 398.1 0 0 0 21.48-33.715q9.624-16.418 17.92-33.56a357.4 357.4 0 0 0 14.952-33.498 363.947 363.947 0 0 0 13.639-41.58q6.2-24.184 10.967-48.719c1.783-9.893 3.589-19.823 4.297-29.858.172-18.548.374-37.2-2.492-55.576-2.372-15.168-4.222-30.485-8.512-45.265-.746-2.559-1.463-5.125-2.09-7.699ZM895.593 1202.38a315.527 315.527 0 0 0 11.609 39.781c4.85 12.818 9.684 25.658 15.787 37.939 6.013 13.765 13.407 26.851 20.36 40.146 2.985 5.596 6.693 10.759 9.722 16.332 3.708 6.834 7.9 13.4 12.258 19.838 5.85 8.931 13.153 16.765 19.301 25.486 7.894 11.326 17.04 21.69 26.165 32.03 3.746 4.275 6.7 9.17 10.363 13.519 5.223 6.23 9.819 12.974 15.377 18.935q12.747 14.862 25.345 29.859c8.281 9.84 17.465 18.868 25.963 28.515 4.895 5.305 10.311 10.11 14.81 15.772 3.887 5.044 9.02 8.96 12.713 14.168 2.664 3.76 6.573 6.335 9.595 9.781 3.499 3.955 6.864 8.036 10.699 11.684 4.737 4.521 8.542 9.878 12.675 14.93 4.873 5.936 7.806 13.143 12.295 19.34h8.414c.408-10.601-3.02-20.944-4.145-31.442-2.082-14.362-7.32-28.06-13.213-41.244-2.35-5.655-4.567-11.37-6.82-17.063-2.648-6.938-6.498-13.31-10.064-19.793-3.91-6.044-6.528-12.773-10.087-19.003-.47-.03-1.41-.09-1.88-.127 3.469 12.893 11.862 23.621 16.98 35.82 3.947 9.385 6.872 19.167 10.938 28.5 4.499 11.296 8.453 22.897 10.572 34.902.433 5.677 2.156 11.131 2.798 16.78a268.67 268.67 0 0 1 1.097 10.713c-4.686-6.603-7.834-14.213-13.14-20.376-4.207-4.976-8.325-10.064-13.197-14.406-4.626-4.081-8.632-8.79-13.094-13.035-4.529-4.282-7.267-10.042-11.631-14.474-3.09-3.14-6.23-6.237-8.99-9.661-4.134-5.051-9.028-9.379-13.497-14.101-8.849-9.55-18.056-18.772-26.546-28.65-9.751-11.4-19.398-22.882-29.269-34.178-4.014-4.723-7.558-9.81-11.579-14.519-3.932-4.573-7.125-9.721-11.154-14.213-9.057-10.4-18.003-20.942-25.934-32.238-8.244-10.99-16.682-21.86-23.852-33.596-3.992-6.095-7.103-12.698-11.08-18.794-3.976-6.14-7.199-12.713-10.66-19.144-2.94-5.745-6.23-11.303-8.94-17.16-12.794-27.434-25.68-55.173-32.327-84.852-3.059-13.609-6.871-27.098-8.289-41.012-2.387-17.81-2.686-36.26 2.306-53.674-.433.045-1.298.135-1.731.187-2.977 5.096-3.865 11.042-4.76 16.794-2.186 15.31-.575 30.814 1.634 46.026 1.425 9.774 4.051 19.316 6.103 28.978ZM1481.238 1428.309a134.72 134.72 0 0 1 2.544-.134c0 7.4-1.977 14.623-3.059 21.912-2.343 14.571-8.632 28.038-14.675 41.363-5.618 12.437-11.64 24.68-17.4 37.058a257.895 257.895 0 0 0-15.95 44.429 44.636 44.636 0 0 0-1.291 12.273l-1.768-.12c-2.76-5.677-.88-12.041.164-17.89 3.193-13.728 6.953-27.404 12.683-40.311 5.208-11.87 10.81-23.554 16.13-35.38 5.91-13.056 12.542-25.94 15.967-39.945 2.014-7.804 3.312-15.861 6.655-23.255ZM683.511 1486.832c6.797 14.444 11.363 29.828 14.981 45.34 3.156 14.495 6.335 29.06 7.67 43.861.435 4.758.456 9.66 1.231 14.401h3.5a223.236 223.236 0 0 0-5.857-50.519 281.172 281.172 0 0 0-13.266-44.235c-4.402-10.997-10.221-21.345-16.212-31.537-3.835-6.916-8.088-13.795-9.856-21.599l-1.56-.179c-.253 5.118 1.754 9.923 3.813 14.489 4.723 10.229 10.796 19.764 15.556 29.977ZM1491.81 1474.626c.709-1.067 2.074-.59 3.148-.68-7.267 14.893-14.235 29.934-21.95 44.602-6.543 12.743-13.795 25.098-20.397 37.811-2.485 5.088-5.603 9.923-7.275 15.377-.82.022-1.641.067-2.447.134-1.082-3.051.38-6.043 1.492-8.834a302.04 302.04 0 0 1 17.153-35.812c7.558-13.377 14.951-26.836 22.472-40.22 2.529-4.171 4.693-8.61 7.804-12.378ZM721.554 1553.151c1.894 12.395 4.125 24.794 5.33 37.283h4.615c-.498-32.463-8.22-64.467-19.517-94.784-2.03-5.849-5.26-11.22-6.872-17.22a53.06 53.06 0 0 0-2.111-.298 22.363 22.363 0 0 0 1.29 8.625c7.32 21.674 13.743 43.743 17.265 66.394ZM1482.85 1528.403c2.208-2.992 4.483-6.908 8.646-7.125-1.23 3.7-3.976 6.58-5.737 10.013-5.596 10.28-10.945 20.703-17.063 30.694-1.79 2.745-3.14 5.923-5.715 8.065l-2.783.238c.142-3.26 2-5.998 3.447-8.788 5.939-11.289 12.25-22.398 19.204-33.097Z" style="fill:#ab7d86"></path>
  </g>
</svg>
