<svg xmlns="http://www.w3.org/2000/svg" viewBox="0 0 2121 1887.494" id="man">
  <g id="art">
    <path d="M926.908 179.227c16.925-4.634 34.62-3.046 51.895-2.079 7.774.854 15.332 2.933 22.857 4.963 13.616 3.593 27.893 4.995 40.896 10.683 13.35 4.891 26.064 11.288 38.77 17.62 10.522 5.423 20.021 12.545 29.391 19.724 7.864 6.308 15.72 12.762 22.245 20.496 11.876 13.423 24.84 26.153 34.065 41.663 10.183 16.782 21.109 33.363 27.812 51.942 5.736 16.847 12.029 33.694 14.43 51.427 1.885 11.231 1.385 22.664 2.53 33.968 1.168 8.54 2.481 17.08 2.876 25.693.032 5.648.894 11.264.628 16.92-.733 11.126-1.128 22.526-5.027 33.113a114.91 114.91 0 0 0-4.858 13.672c-1.032 3.457-1.467 7.203-3.416 10.305-1.427.677-3.699.919-4.464-.805-2.03-3.916-1.29-8.54-1.652-12.787-.402-4.004-.314-8.032-.564-12.037-.096-2.554-3.569-3.762-3.077-6.445.999-5.527.902-11.15.765-16.734-1.394-.476-2.764-.951-4.117-1.459.12-7.807-1.571-15.485-2.723-23.171-1.765-10.264-3.553-20.537-5.608-30.753-1.434.58-2.852 1.184-4.278 1.764-2.45-1.514-1.998-4.616-2.554-7.05a22.757 22.757 0 0 0-2.965-8.04c-12.287-23.953-23.848-48.381-38.6-70.957-1.974-3.102-5.664-4.592-7.517-7.807-4.85-7.726-9.685-15.46-14.994-22.881-2.304-3.368-4.93-6.55-6.59-10.305-1.153-2.522-.283-5.35-.685-7.992-4.02-2.852-7.083-6.8-11.103-9.62-2.457 3.126-5.14 6.389-8.991 7.79-11.804 2.91-23.494-3.818-35.362-1.788-6.574 1.249-13.318 1.128-19.94 1.644-2.667 1.925-4.947 4.455-8.065 5.672-6.067 2.45-12.698 2.683-19.12 3.384-23.541 2.497-47.124 4.6-70.747 6.058-14.228.306-28.472.403-42.693-.08-4.197-.492-8.54-.613-12.488-2.272a26.193 26.193 0 0 1-7.05-4.746c-4.528 2.522-8.363 6.454-13.64 7.453-6.687 1.885-13.399-1.83-17.475-6.986-3.561.275-6.978 1.37-10.498 1.821-2.869-.08-3.843 3.038-5.221 4.98-18.62 30.277-36.07 61.49-48.519 94.869a376.047 376.047 0 0 0-12.955 41.082c-4.794 19.11-7.847 38.608-10.506 58.114-.66 4.045-1.015 8.323-3.207 11.9-1.506 2.538-4.149 4.02-6.59 5.519.677 4.31 2.973 8.314 2.787 12.754a7.892 7.892 0 0 1-8.532 7.597c-3.343-.346-5.873-2.98-7.396-5.792a84.156 84.156 0 0 1-8.363-22.133c-4.649-21.6-7.606-43.797-5.728-65.897.475-13.882 1.78-27.723 3.633-41.492 1.37-8.315 2.925-16.614 4.456-24.904a221.948 221.948 0 0 1 19.264-54.303c5.672-10.772 11.134-21.714 18.063-31.752 11.513-18.064 26.797-33.46 43.483-46.779a174.279 174.279 0 0 1 20.94-15.34c5.768-3.666 11.932-6.687 17.564-10.578a252.624 252.624 0 0 1 44.248-23.486c14.26-6.43 29.212-11.215 44.28-15.34Z" style="fill:#533f37"></path>
    <path d="M372.968 1562.508c2.723 8.016 3.552 16.5 5.107 24.79.548 5.504 3.546 10.426 7.316 14.35 6.05 6.276 13.721 10.562 20.956 15.3 17.54 11.706 36.425 21.576 56.56 28.006.898.286 1.8.56 2.701.834h579.89q6.414-1.232 12.81-2.567c72.656-15.211 145.103-31.873 216.076-53.77 53.74-16.816 106.35-37.022 158.463-58.309 25.765-10.763 51.45-21.858 76.048-35.127q29.38-15.747 57.792-33.243c22.358-14.01 44.74-28.28 64.439-45.956 9.708-8.516 19.191-17.322 28.037-26.741 5.02-5.479 9.515-11.408 14.535-16.88 2.377-2.827 6.647-1.337 9.483-3.399 4.753-3.134 6.848-9.008 6.776-14.519.056-12.1-1.555-24.34-5.713-35.748-3.375-9.58-6.993-19.086-11.11-28.368-4.987-11.07-10.99-21.633-16.935-32.203-12.553-22.1-26.064-44.08-44.482-61.836-7.163-7.075-14.108-14.406-21.931-20.771a615.438 615.438 0 0 0-66.928-47.471c-10.08-6.47-20.384-12.61-31.027-18.104-14.672-7.59-29.021-15.808-43.886-23.018-8.5-4.045-16.605-8.863-25.21-12.682-7.823-3.698-15.461-7.807-23.421-11.199-11.73-4.979-23.05-10.828-34.637-16.106a225.227 225.227 0 0 0-21.036-9.539c-9.346-3.633-18.33-8.105-27.57-11.956-6.849-2.731-13.512-5.857-20.312-8.67-11.417-4.495-22.108-10.618-33.702-14.655a239.66 239.66 0 0 1-26.845-11.82c-11.465-5.526-21.98-12.753-32.445-19.932-5.213-3.368-8.121-9.193-13.334-12.528-2.143-1.386-4.101-3.271-6.631-3.867-4.48-.339-7.726 3.617-12.02 4.149-3.57.467-7.026-.814-10.402-1.732-7.654-2.28-15.477-3.973-23.075-6.43-1.893 7.896-5.116 15.365-8.186 22.85-1.708 4.19-5.108 7.895-9.652 8.902-4.963 1.12-9.708-1.2-14.39-2.457-5.462-1.676-11.182-4.713-13.575-10.192-2.208-5.02.62-10.45-.757-15.59a18.513 18.513 0 0 1 2.73-14.47c-12.342-2.175-24.653-4.568-37.117-5.954-22.189-2.715-44.498-4.738-66.872-4.576-21.907-.379-43.74 2.01-65.373 5.204-18.424 2.72-36.707 6.341-54.851 10.53-15.34 3.707-30.721 7.59-45.409 13.431-2.796 1.016-5.39 2.7-8.347 3.183-2.908-.983-5.6-3.126-8.838-2.587-5.39.46-8.58 5.334-11.634 9.202-5.962 7.412-12.102 14.711-18.684 21.584-9.547 10.578-19.135 21.213-30.165 30.294-10.909 9.555-22.438 18.37-33.605 27.61-11.957 9.225-23.357 19.152-35.507 28.143-24.146 18.233-49.412 34.902-74.075 52.426-13.752 9.233-26.925 19.272-40.405 28.876-23.953 17.773-47.664 35.933-70.287 55.39-25.847 22.689-52.136 45.852-70.691 75.171-1.531 2.675-4.923 3.916-5.938 6.889-1.322 4.705-4.214 8.717-6.373 13.052q-8.194 15.578-15.042 31.808c-1.998 4.665-3.634 9.475-5.817 14.067-5.286 14.003-7.437 28.933-10.563 43.524a446.877 446.877 0 0 0-8.234 58.847c-1.587 17.153-2.481 34.37-2.417 51.604.008 10.506-.161 21.036.838 31.51a133.07 133.07 0 0 0 4.899 23.446Z" style="fill:#aed4db"></path>
    <path d="M415.677 1294.65c-1.322 4.705-4.214 8.717-6.373 13.052q-8.194 15.578-15.042 31.808c-1.998 4.665-3.634 9.475-5.817 14.067 2.207-6.824 4.898-13.487 7.065-20.319 2.579-7.944 5.64-15.8 10.04-22.93 3.158-5.358 5.953-11.005 10.127-15.678Z" style="fill:#533f37"></path>
    <path d="M1782.112 1645.788a38.105 38.105 0 0 0-.624-20.422q-12.39-37.98-24.846-75.938a47.635 47.635 0 0 0-5.69-11.564 820.04 820.04 0 0 0-25.566-113.563q-4.704-15.389-10.03-30.578c-1.847-5.268-3.801-10.496-5.675-15.754a61.578 61.578 0 0 0-9.767-18.202c3.354 4.367 1.149 1.003-.399-1.795q-7.997-14.46-16.601-28.573c-6.286-10.31-11.864-19.83-16.967-28.578-12.593-21.595-45.003-6.994-39.56 16.678a350.714 350.714 0 0 0 11.835 40.13l.258 1.084c-13.904 2.168-28.033 11.753-30.824 26.29q-1.277 6.652-2.339 13.292c-.109.004-.216.002-.326.007-16.701.748-30.663 11.036-35.673 27.16a210.653 210.653 0 0 0-7.682 35.112c-.466.084-.934.16-1.4.25-12.662 2.418-25.181 6.385-37.678 9.551q-20.636 5.23-41.312 10.304c-54.686 13.422-220.094 50.211-247.92 55.938a30.258 30.258 0 0 0-10.667 2.198c-8.25 3.373-15.149 7.05-20.366 13.963-1.357.146-31.402 3.214-45.083 4.444q-39.676 3.568-79.44 6.041c-53.478 3.363-107.035 5.383-160.605 6.493-107.263 2.223-214.568.857-321.84.074-29.623-.216-59.353.285-88.958-.767-3.084-.11-6.152-.338-9.229-.552-1.044-.177-2.178-.369-2.639-.468-2.507-.537-4.932-1.281-7.372-2.018.202.161.405.324.62.51a5.349 5.349 0 0 0-.824-.57c-.559-.17-1.118-.339-1.68-.503a8.395 8.395 0 0 1-.754-.26c-.178-.192-1.011-1.071-1.011-1.071.025-.002.054 0 .084 0l-.304-.23q-.642-.676-1.304-1.36c.014-.216.023-.431.038-.647.937-13.328-8.148-25.97-19.496-32.159l.013-.208c.671-11.333-6.185-23.351-15.834-30.237l.038-1.867a34.152 34.152 0 0 0-5.883-19.726q1.878-13.273 3.974-26.515c5.892-37.112 12.834-74.042 21.115-110.696 3.878-17.165-3.83-34.403-20.294-41.351-17.314-7.306-33.047.208-43.771 14.342-16.54 21.799-27.193 48.138-35.603 73.993-8.493 26.112-15.202 52.885-21.773 79.534q-20.62 83.62-33.513 168.878a67.808 67.808 0 0 0-.846 9.906Zm-1298.8-81.618c.446.399.837.762 1.086.993-1.027-.426-1.346-.858-1.086-.993Zm-23.657 39.008c.26-.503.51-1.02.756-1.54 1.136-2.022 2.165-2.886-.918 1.95.05-.136.105-.273.162-.41Z" style="fill:#aed4db"></path>
    <path d="m486.923 1565.964.204.061c-1.751-1.397-3-1.882-3.565-1.894.248.187.465.347.613.436.805.488 1.868.888 2.748 1.397Z" style="fill:#aed4db"></path>
    <path d="M1059.54 277.528c18.667-2.276 37.36-4.745 55.746-8.822 5.89 15.526 14.623 29.73 21.987 44.563 10.45 16.83 17.838 35.329 28.352 52.12 5.035 8.056 8.935 16.741 13.608 25 3.891 7.476 7.517 15.155 9.845 23.284 2.014 7.227 5.149 14.1 6.833 21.423 3.963 16.356 9.41 32.437 11.15 49.244.588 3.843.58 7.815 1.885 11.521a82.42 82.42 0 0 0-3.255 2.216l-.056-.202c0-1.12.024-2.24.048-3.351-1.055-.073-2.102-.146-3.134-.21a141.974 141.974 0 0 0 .258 18.418c.564 11.223 1.861 22.463 1.08 33.718-.145 4.786.282 9.572.29 14.373.016 5.85.983 11.69.258 17.54-.887 8.122-.057 16.315-.887 24.437-.749 10.288-1.603 20.625-3.907 30.696-.242 1.209.33 2.377.58 3.553-.443-.491-.878-.967-1.297-1.434-2.2 10.595-3.4 21.383-6.05 31.89-1.628 6.09-2.627 12.366-4.932 18.264-2.514 6.51-3.891 13.366-6.018 20.005-2.595 8.637-6.438 16.831-9.169 25.42-2.288 7.13-5.124 14.204-9.676 20.23a42.454 42.454 0 0 0-5.487 9.942c-1.16 3.15-4.56 4.343-7.187 5.979-2.384-5.189-5.68-9.878-8.66-14.72-4.634-7.356-9.613-14.502-14.68-21.56-5.221-6.655-9.765-13.826-15.365-20.175-4.882-5.55-9.217-11.593-14.542-16.742-6.14-6.461-13.592-11.416-20.086-17.467-6.864-6.381-14.486-12.222-23.22-15.783-16.766-6.583-34.999-7.364-52.684-9.507a32.738 32.738 0 0 0-2.44-15.309 3.645 3.645 0 0 0-3.586-2.409c-2.506.975-4.448 3.336-7.268 3.4-4.624.298-9.023-1.546-13.608-1.74a29.265 29.265 0 0 0-10.11 1.313c-2.313-2.183-4.368-4.608-6.527-6.928-2.53-2.772-6.461-3.828-10.087-3.884a29.838 29.838 0 0 0-3.295 2.45c2.385 4.382 4.399 9.031 7.662 12.866 3.505 4.133 7.847 7.42 12.11 10.74-14.64.217-28.973 3.473-43.057 7.195-10.893 1.643-21.004 6.268-30.753 11.19a63.814 63.814 0 0 0-12.133 7.993c-4.391 3.739-9.733 6.228-13.826 10.33-8.492 8.402-14.712 18.675-21.536 28.391-9.612 14.785-18.063 30.794-21.431 48.253-1.434 4.93-3.674 9.588-5.31 14.454-4.608-4.721-8.145-10.329-12.238-15.47-7.388-10.119-15.654-19.714-21.367-30.938-5.237-9.934-10.828-19.723-15.13-30.108-2.442-7.429-5.817-14.535-7.76-22.116-1.208-4.746-3.464-9.137-4.769-13.842-4.487-15.453-8.17-31.123-11.892-46.778-3.513-15.179-5.6-30.64-7.662-46.069-.217-1.748-.41-3.489-.596-5.229-.185-8.13-1.217-16.226-1.007-24.372-.073-4.568.443-9.128.346-13.696.097-1.91-1.37-3.296-2.554-4.585l.806.137a314.98 314.98 0 0 1 4.174-41.452c1.24-14.269 3.077-28.481 4.81-42.694 1.224-8.339 1.957-16.782 4.116-24.952 3.65-14.64 9.564-28.57 14.455-42.806 7.138-19.135 13.189-38.648 19.143-58.178 1.974-6.422 3.424-13.012 5.72-19.329 10.079-3.956 21.052-3.714 31.68-4.359q15.674-1.667 31.43-2.457c12.624-1.362 25.29.186 37.939-.056 17.12 1.37 34.314.572 51.475.781 9.87-.66 19.764-1.192 29.633-1.982 30.963-3.625 61.861-7.842 92.815-11.618Z" style="fill:#f2844f"></path>
    <path d="M1085.806 477.95c1.917-.459 4.39-1.232 5.873.589-.419 3.142-3.883 4.334-6.284 5.712-5.1 2.192-9.475 5.632-14.156 8.54a202.92 202.92 0 0 0-20.811 13.761 94.44 94.44 0 0 0-23.373 29.03c-6.752 14.147-10.812 29.383-14.253 44.626-1.297 5.028-.507 10.651-3.27 15.244-1.354-.492-3.546-.17-4.045-1.877-1.169-4.923-2.208-9.918-2.055-15.002-.515-4.52-.749-9.064-1.104-13.6a36.501 36.501 0 0 1 1.233-19.151c-2.07-1.676-4.004-3.852-3.85-6.704.055-5.954 2.005-11.666 3.004-17.491a25.512 25.512 0 0 1 3.32-8.742c1.756-2.884-.016-6.937 2.554-9.418 2.908-3.344 7.484-4.214 10.925-6.824 5.825-4.56 13.27-6.051 20.263-7.888 5.14-1.152 10.111-2.997 15.276-4.004 2.73-.629 4.93 1.458 7.01 2.876 7.846-3.376 15.573-7.098 23.743-9.676Z" style="fill:#e56324"></path>
    <path d="M1208.947 495.861c8.494-5.22 18.828-6.671 28.69-6.252 10.297-.387 21.1.491 30.294 5.575 5.317 2.828 8.895 7.864 12.254 12.698 3.142 5.31 6.486 10.603 8.339 16.533a82.52 82.52 0 0 1 4.278 26.82 135.489 135.489 0 0 1-9.636 53.522c-6.453 16.01-12.11 32.711-22.736 46.561-7.235 9.072-14.785 18.04-23.953 25.242-9.604 7.783-20.255 14.978-32.582 17.419-2.03.185-4.053.25-6.067.314 4.294-16.565 6.228-33.621 8.734-50.524 1.78-10.933 2.465-22.004 3.714-33.01 1.136-10.014 1.047-20.101 1.353-30.156.645-8.718.854-17.451.806-26.185.113-6.478-1.273-12.866-1.16-19.344.048-7.55-2.925-14.664-3.295-22.157-.29-5.003-.186-10.183-2.289-14.84 1.064-.758 2.138-1.53 3.255-2.216Z" style="fill:#f95939"></path>
    <path d="M1202.55 494.314c1.03.065 2.078.137 3.133.21a155.345 155.345 0 0 0-.048 3.351c-.83 4.971-2.61 9.781-2.828 14.857a141.974 141.974 0 0 1-.258-18.418Z" style="fill:#b16a54"></path>
    <path d="M692.478 528.934c8.194-2.79 16.637-6.566 25.5-5.14 4.463.669 9.45.048 13.366 2.7 1.185 1.288 2.651 2.674 2.554 4.584.097 4.568-.419 9.128-.346 13.696-.21 8.146.822 16.243 1.007 24.372-.572-3.762-1.265-7.5-1.788-11.271-.814-.017-1.62-.025-2.418-.033-.403 6.148.532 12.23 1.128 18.322.653 6.002-1.853 11.738-1.66 17.717.226 7.968 1.717 15.823 3.215 23.63 1.233 5.898.54 12.07 2.434 17.854.886 3.948 2.135 7.8 3.198 11.707 1.337 4.73.226 9.733 1.378 14.502 5.124 24.832 15.243 48.342 19.876 73.294-2.457 1.78-4.987 3.77-8.105 4.14a55.058 55.058 0 0 1-16.388-.483c-6.824-1.224-13.72-2.715-19.924-5.913-11.16-5.398-19.643-14.744-27.676-23.913-9.499-10.845-14.88-24.412-20.537-37.473-3.625-8.451-7.219-16.935-9.732-25.798-2.45-7.976-3.505-16.274-5.358-24.388a99.087 99.087 0 0 1-.467-40.115c3.73-16.21 11.722-32.42 25.773-42.024 4.754-3.634 9.17-7.991 14.97-9.967Z" style="fill:#f95939"></path>
    <path d="M730.353 557.842c.798.009 1.604.017 2.418.033.523 3.77 1.216 7.509 1.788 11.271.185 1.74.379 3.48.596 5.23-.87-.468-1.724-.92-2.578-1.37.322 5.76-.75 11.44-1.2 17.152.386 10.353 2.57 20.545 3.907 30.802.46 4.785.065 9.604.185 14.405-1.893-5.784-1.2-11.956-2.433-17.854-1.498-7.807-2.989-15.662-3.214-23.63-.194-5.979 2.312-11.715 1.66-17.717-.597-6.091-1.532-12.174-1.129-18.322Z" style="fill:#b15d4e"></path>
    <path d="M944.247 628.284a29.838 29.838 0 0 1 3.295-2.45c3.626.057 7.557 1.112 10.087 3.884 2.16 2.32 4.214 4.745 6.526 6.929a29.265 29.265 0 0 1 10.112-1.314c4.584.194 8.983 2.039 13.608 1.74 2.82-.064 4.761-2.425 7.267-3.4a3.645 3.645 0 0 1 3.585 2.41 32.738 32.738 0 0 1 2.441 15.308c-8.137-.806-16.436-1.717-24.517-.009-4.173.838-8.427.46-12.633.508-4.262-3.32-8.605-6.606-12.11-10.74-3.262-3.835-5.277-8.484-7.661-12.866Z" style="fill:#e56324"></path>
    <path d="M1211.275 535.074c.048-7.55-2.925-14.664-3.295-22.157-.29-5.003-.186-10.183-2.289-14.84l-.056-.202c-.83 4.971-2.61 9.781-2.828 14.857.564 11.223 1.642 22.45 1.08 33.718-.238 4.782.282 9.572.29 14.373.016 5.85.983 11.69.258 17.54-.887 8.122-.057 16.315-.887 24.437-.749 10.288-1.603 20.625-3.907 30.696-.242 1.21.33 2.377.58 3.554-.443-.492-.878-.968-1.297-1.435-2.2 10.595-3.4 21.383-6.05 31.89-1.628 6.09-2.628 12.366-4.932 18.264-2.514 6.51-3.891 13.367-6.018 20.005-2.594 8.637-6.438 16.831-9.169 25.42-2.288 7.13-5.124 14.204-9.676 20.23a39.46 39.46 0 0 0-5.487 9.943c-1.225 3.125-4.56 4.342-7.187 5.978-2.384-5.189-5.68-9.878-8.66-14.72-4.633-7.356-9.464-14.612-14.68-21.56-5.079-6.765-9.765-13.826-15.365-20.175-4.882-5.55-9.327-11.481-14.542-16.742-6.275-6.33-13.592-11.416-20.086-17.467-6.864-6.38-14.486-12.222-23.22-15.783-16.766-6.583-34.999-7.365-52.684-9.507-8.137-.806-16.436-1.716-24.517-.009-4.173.839-8.427.46-12.633.508-14.64.218-28.972 3.472-43.056 7.195-10.892 1.643-21.004 6.268-30.753 11.19a63.803 63.803 0 0 0-12.133 7.993c-4.391 3.738-9.733 6.228-13.826 10.33-8.492 8.402-14.887 18.554-21.536 28.391-9.875 14.61-18.063 30.793-21.431 48.253-1.434 4.93-3.674 9.588-5.31 14.454-4.608-4.722-8.253-10.245-12.238-15.47-7.598-9.962-15.654-19.714-21.367-30.938-5.237-9.934-10.828-19.723-15.13-30.108-2.442-7.429-5.817-14.534-7.76-22.116-1.208-4.746-3.464-9.137-4.769-13.842-4.487-15.453-8.17-31.123-11.892-46.778-3.513-15.18-5.6-30.64-7.662-46.069-.87-.467-1.724-.919-2.578-1.37.322 5.761-.75 11.441-1.2 17.153.386 10.354 2.744 20.524 3.907 30.802.54 4.777.065 9.604.185 14.405.887 3.948 2.136 7.8 3.199 11.707 1.337 4.73.225 9.733 1.378 14.502 5.124 24.832 15.243 48.342 19.876 73.294.725 4.705 2.65 9.104 4.077 13.623 1.442 3.836 2.522 7.832 4.407 11.482 3.021 4.528 4.939 9.636 7.517 14.397 2.514 4.98 5.229 9.854 7.815 14.8a131.18 131.18 0 0 0 9.902 15.897c3.875 5.374 6.607 11.48 10.522 16.839 9.62 13.487 20.312 26.394 33.122 36.989 5.873 4.858 10.337 11.15 16.194 16.041 7.686 6.671 15.058 14.091 24.42 18.41 5.963 3.166 12.062 6.067 18.08 9.12 14.51 6.905 28.986 13.883 44.039 19.57 7 2.645 14.373 3.868 21.745 4.826 6.405-.153 12.819-.298 19.224-.08 8.137-2.047 16.59-2.586 24.638-5.044 16.218-4.77 32.904-7.992 48.816-13.81 5.978-2.215 10.729-6.586 15.929-10.119 12.036-8.177 23.187-17.58 34.99-26.088 5.624-4.528 11.884-8.484 16.235-14.365 5.31-6.365 9.314-13.697 14.72-19.973a160.32 160.32 0 0 0 9.378-12.367c4.697-6.816 7.727-14.6 12.311-21.488a152.546 152.546 0 0 0 10.41-17.902c3.432-6.824 4.35-14.527 7.436-21.48a197.191 197.191 0 0 0 8.323-23.92c4.858-15.22 9.128-30.617 13.656-45.933 4.294-16.565 6.228-33.62 8.734-50.524 1.78-10.934 2.465-22.003 3.714-33.01 1.136-10.014.83-20.11 1.353-30.156.456-8.73.855-17.451.806-26.185.113-6.477-1.273-12.867-1.16-19.344Z" style="fill:#996057"></path>
    <path d="M1001.128 674.369c10.562-.74 21.48-1.257 31.736 1.933 4.899 1.435 10.313 3.11 13.278 7.614 3.803 5.084 4.133 11.812 3.27 17.878-1.272 5.173-4.47 9.588-7.524 13.858a53.023 53.023 0 0 1-21.544 16.92 88.886 88.886 0 0 1-29.432 7.863c-13.108 1.337-26.233-.387-39.293-1.362a129.806 129.806 0 0 1-31.873-6.937 83.273 83.273 0 0 1-26.072-15.098c-4.44-3.98-8.847-9.66-7.55-16.001 1.402-5.197 5.664-9.257 10.426-11.513 10.828-4.69 22.616-6.35 34.242-7.703 11.658-1.958 23.55-1.377 35.248-2.997 11.683-1.587 23.32-3.632 35.088-4.455ZM1197.828 694.293c2.014-.064 4.037-.129 6.067-.314-1.555.427-4.02.08-4.141 2.28-2.167 8.589-3.948 17.274-6.397 25.79-4.238 17.524-10.684 34.395-16.928 51.274-.725-.137-1.434-.266-2.143-.395.048 2.055.105 4.11.137 6.164l-.153.129a21.596 21.596 0 0 0-5.857 6.405c3.432-6.824 4.35-14.527 7.436-21.48a197.161 197.161 0 0 0 8.323-23.92c4.858-15.22 9.128-30.617 13.656-45.933Z" style="fill:#f2844f"></path>
    <path d="M1167.695 888.576c1.153-.266 1.298 1.708.476 2.184-1.168.241-1.322-1.74-.476-2.184Z" style="fill:#ec814b"></path>
    <path d="M1169.258 901.395c1.144.112 1.346.636.597 1.563-1.169-.13-1.362-.653-.597-1.563Z" style="fill:#ed8650"></path>
    <path d="M961.762 926.862c6.406-.153 12.819-.298 19.224-.08a38.16 38.16 0 0 1-7.638 1.57c-3.932.226-7.759-.837-11.586-1.49Z" style="fill:#be715c"></path>
    <path d="M1006.3 949.72c15.687-.991 31.044-5.31 46.819-5.1 12.915-.025 25.838-.25 38.745.346 6.945.242 13.632 2.2 20.304 3.948 13.97 3.368 27.57 8.04 41.372 12.02 9.95 3.038 19.562 7.075 29.214 10.95a9.201 9.201 0 0 0 5.769.548 238.36 238.36 0 0 1-30.625 37.215 168.639 168.639 0 0 1-32.275 24.041c-14.543 8.09-29.529 15.55-45.336 20.835a321.336 321.336 0 0 1-52.072 11.296 177.772 177.772 0 0 1-19.393 1.483c-9.418.144-18.917.58-28.255-.92-17.097-3.19-34.467-5.558-50.936-11.383-10.417-3.618-21.012-6.921-30.914-11.844a124.662 124.662 0 0 0-9.942-4.455 151.048 151.048 0 0 1-22.293-11.57c-9.257-5.89-19.216-10.748-27.61-17.91a15.944 15.944 0 0 1 8.982.902c3.787 1.49 7.824-.113 11.087-2.095 12.866-7.968 23.993-18.692 37.85-25.057a406.971 406.971 0 0 1 82.132-30.696c8.92-2.506 18.281-1.25 27.378-2.554Z" style="fill:#f2844f"></path>
    <path d="M1193.896 954.393c-1.184-2.917-.846-6.116-1.313-9.169a239.426 239.426 0 0 1-7.968-41.928c-1.692-13.173-3.207-26.362-5.27-39.47-1.216-7.598-.99-15.284-1.168-22.946-.958-12.23-2.924-24.372-3.335-36.643a164.142 164.142 0 0 1-.572-25.016 21.586 21.586 0 0 0-5.857 6.405 152.546 152.546 0 0 1-10.41 17.902c-4.584 6.889-7.614 14.672-12.31 21.488a160.32 160.32 0 0 1-9.379 12.367c-5.406 6.276-9.41 13.608-14.72 19.973-4.35 5.881-10.61 9.837-16.235 14.365-11.803 8.508-22.954 17.91-34.99 26.088-5.2 3.533-9.95 7.904-15.929 10.12-15.912 5.817-32.598 9.04-48.816 13.81-8.049 2.457-16.5 2.996-24.638 5.043a38.163 38.163 0 0 1-7.638 1.57c-3.932.226-7.747-.913-11.586-1.49-7.352-1.104-14.746-2.181-21.745-4.826-15.053-5.687-29.528-12.665-44.039-19.57-6.018-3.053-12.117-5.954-18.08-9.12-9.362-4.319-16.734-11.739-24.42-18.41-5.857-4.89-10.32-11.183-16.194-16.041-12.81-10.595-23.502-23.502-33.122-36.99-3.915-5.357-6.647-11.464-10.522-16.838a131.18 131.18 0 0 1-9.902-15.896c-2.586-4.947-5.301-9.822-7.815-14.8-2.578-4.762-4.496-9.87-7.517-14.398 3.335 10.876 8.951 20.875 13.793 31.124 5.552 11.078 6.478 23.686 9.225 35.61 2.313 9.371 2.079 19.087 3.682 28.562a550.279 550.279 0 0 0 4.012 30.39c1.386 9.588.976 19.3 1.201 28.957.298 12.764-2.643 25.234-3.867 37.851a40.37 40.37 0 0 1-1.974 10.353c-.556 1.87-1.612 3.883-.782 5.857.613 2.393 3.271 3.118 4.947 4.593 2.095 1.942 3.665 4.37 5.576 6.494 4.087 4.54 9.184 7.984 13.366 12.44 4.35 4.584 9.447 8.34 14.494 12.1 2.227 1.66 4.222 3.788 6.792 4.916a15.944 15.944 0 0 1 8.983.902c3.787 1.49 7.823-.113 11.087-2.095 12.867-7.968 24.112-18.439 37.85-25.057 26.383-12.708 53.772-23.421 82.132-30.696 8.92-2.506 18.281-1.25 27.378-2.554 15.686-.991 31.043-5.31 46.818-5.1 12.915-.025 25.838-.25 38.745.346 6.946.242 13.632 2.2 20.304 3.948 13.97 3.368 27.57 8.041 41.371 12.02 9.95 3.038 19.563 7.075 29.215 10.95a9.202 9.202 0 0 0 5.768.548c1.354-3.03 3.304-5.72 4.931-8.597a10.773 10.773 0 0 0 .443-9.442Z" style="fill:#e56324"></path>
    <path d="M1076.017 454.11c13.622-.958 27.457-.926 40.84 2.079 14.945 3.166 30.076 8.5 41.517 18.982 1.845 1.458.072 4.737-2.144 4.488-20.665-.879-41.613-1.821-62.021 2.312-13.922 1.918-27.289 6.397-41.05 9.113-11.707 2.497-23.72 3.617-35.184 7.194-2.047.508-4.157 1.523-6.292.983-2.393-2.006-2.893-5.567-2.313-8.468a32.76 32.76 0 0 1 8.315-14.518c5.43-5.124 12.02-8.798 18.82-11.795a53.527 53.527 0 0 1 20.667-6.623c6.445-.435 12.402-3.293 18.845-3.747ZM841.602 466.204c10.369-2.756 21.158-3.537 31.865-3.416 11.07-.186 22.366 1.361 32.518 5.954 5.188 2.312 8.693 6.96 11.875 11.465 2.514 3.94 5.012 8.29 4.56 13.156-11.239.065-22.454.919-33.693.854-35.055.38-69.917 4.73-104.61 9.354-1.265.153-2.264-.813-3.32-1.297a81.502 81.502 0 0 1 25.444-22.325c10.917-6.55 23.127-10.494 35.361-13.745Z" style="fill:#4f3e37"></path>
    <path d="M1003.038 507.487a8.808 8.808 0 0 1 4.793-4.15c.307 5.471-3.287 9.983-4.374 15.164-1.91 6.55-1.394 13.398-1.443 20.126a34.187 34.187 0 0 1-1.514-10.015c.169-4.15 1.007-8.234 1.289-12.367-2.07 5.148-2.99 10.643-4.512 15.953a50.278 50.278 0 0 1 5.76-24.711Z" style="fill:#b95d38"></path>
    <path d="M997.277 532.197c1.523-5.31 2.441-10.804 4.512-15.952-.282 4.133-1.12 8.218-1.29 12.367a34.187 34.187 0 0 0 1.515 10.015 88.699 88.699 0 0 1 1.45 9.346c.854 8.903 2.57 17.693 3.433 26.587.668 10.031 2.223 19.965 3.263 29.956a70.452 70.452 0 0 1 .765 15.187c-.395 4.64-3.56 8.395-6.953 11.312 2.627-4.174 5.173-8.71 5.414-13.753.29-5.326-.523-10.62-1.063-15.905-.83-.265-1.644-.531-2.45-.79a90.61 90.61 0 0 0-1.7 2.24c-2.94-23.445-8.322-46.858-6.896-70.61Z" style="fill:#b95d38"></path>
    <path d="M1084.21 517.22c3.126-.798 6.784-.58 9.322 1.627 3.207 2.442 4.375 6.68 4.157 10.563-.177 5.18 1.072 11.118-2.521 15.469-3.868 5.374-13.085 4.955-16.452-.733-3.086-5.31-2.836-11.884-1.781-17.733a11.751 11.751 0 0 1 7.275-9.193ZM851.327 525.986c2.933-.629 6.397-.661 8.798 1.426 2.627 1.965 3.77 5.26 4.037 8.427.564 5.825 2.545 11.771.821 17.588a10.913 10.913 0 0 1-10.047 8.532 11.346 11.346 0 0 1-10.248-8.346 38.144 38.144 0 0 1 0-19.965 11.138 11.138 0 0 1 6.639-7.663Z" style="fill:#15100d"></path>
    <path d="M1229.733 549.963c2.192-3.078 6.462-3.054 9.749-2.151 5.189 2.038 7.646 7.799 8.113 13.027.774 8.71-1.515 17.29-3.706 25.637-5.35 19.208-11.698 38.464-22.543 55.36-.967-.09-1.918-.17-2.86-.25 1.611-4.988 4.399-9.467 6.308-14.334a225.86 225.86 0 0 0 13.213-44.272c1.241-8.283 2.555-17.121-.523-25.162-1.08-2.965-4.721-2.288-7.098-3.335-1.724-.717-1.716-3.263-.653-4.52ZM711.597 595.63c2.385-1.894 5.543-1.492 8.363-1.314.29 1.41 1.104 2.836.733 4.302-1.676 2.457-4.318 4.166-5.575 6.921-2.264 4.907-2.7 10.41-2.61 15.751-.339 12.786 3.31 25.218 7.13 37.287 2.521 7.453 5.357 14.881 9.644 21.528 1.224 1.62 1.289 3.65 1.28 5.608-1.828-.516-3.77-1.12-4.882-2.788-7.992-9.942-12.721-21.995-16.919-33.911-3.585-11.272-7.726-22.946-6.18-34.959.975-6.8 3.102-14.277 9.016-18.426Z" style="fill:#cc492f"></path>
    <path d="M1005.874 600.568c.805.258 1.619.524 2.449.79.54 5.285 1.353 10.578 1.063 15.904-.241 5.043-2.787 9.58-5.414 13.753-2.554 3.061-6.268 4.81-9.83 6.405-4.785 2.216-10.11.653-15.13.677-6.663.088-13.181-1.483-19.667-2.772-6.204-1.08-10.933-5.487-16.516-8.033.306-1.16.628-2.312.983-3.448 2.884.435 5.672 1.402 8.604 1.628 3.352.153 6.446 1.603 9.725 2.215 10.675 1.998 21.915 3.48 32.542.427 3.335-1.232 7.774-2.425 8.564-6.47a66.857 66.857 0 0 0 .926-18.836 90.61 90.61 0 0 1 1.7-2.24Z" style="fill:#b75c38"></path>
    <path d="M799.207 1011.12c4.778 4.448 10 8.402 14.647 13.005a135.28 135.28 0 0 0 17.879 14.341 328.496 328.496 0 0 0 41.71 24.396c5.044 2.433 9.757 5.543 15.026 7.501 4.206 1.627 8.162 3.867 12.448 5.285 3.271 2.039 7.243 4.593 11.231 3.264-1.772-2.667-3.666-5.463-6.542-7.034a76.435 76.435 0 0 0-9.716-4.158c-16.888-9.273-33.976-18.248-50.227-28.626-10.57-7.05-21.347-13.874-30.979-22.236a7.207 7.207 0 0 0-3.255-1.958c-3.037-3.618-7.178-5.995-10.74-9.024a81.888 81.888 0 0 0-8.25-6.284c-.016 1.136-.032 2.288.017 3.448-.137 3.988 4.213 5.76 6.751 8.08ZM791.755 1028.507c10.369 10.523 22.607 18.99 34.813 27.233 13.407 8.75 26.896 17.433 40.953 25.105 4.325 2.36 8.307 5.527 13.093 6.92a24.577 24.577 0 0 0 4.81 2.337c.66-1.24 1.168-2.546 1.7-3.835 2.473.838 4.963 1.628 7.509 2.256a13.247 13.247 0 0 0-9.201-5.462c-9.934-5.181-20.13-10.018-29.215-16.63-3.938-2.866-8.794-3.836-12.794-6.574-14.051-9.618-28.64-18.45-42.363-28.562-3.185-2.347-5.744-5.51-9.16-7.509-3.288-.636-1.604 3.553-.145 4.721ZM1084.605 1133.94c4.327-.403 9.024-.25 12.915-2.474.29-1.273.411-2.57.669-3.819a156.38 156.38 0 0 0-26.7.959c-8.983 1.13-17.863 2.908-26.725 4.737-10.82 1.636-21.802 1.636-32.727 1.837-7.678.089-15.22-1.62-22.881-1.91-10.33-.7-20.884-2.005-31.1.323-3.174.234-6.534 1.193-7.759 4.464a92.16 92.16 0 0 0 9.556.37c17.378 2.852 34.878 5.132 52.24 8.154a63.62 63.62 0 0 0 18.459.741c8.975-1.08 17.556-4.053 26.12-6.816a183.367 183.367 0 0 1 27.933-6.566ZM1398.274 1176.915c5.566 4.636 9.886 10.514 14.978 15.638a85.747 85.747 0 0 1 12.424 16.613 125.962 125.962 0 0 0 16.098 21.738c7.58 8.379 16.774 15.566 27.401 19.626.016-1.208.056-2.392.105-3.569a88.871 88.871 0 0 1-23.341-21.028c-7.421-9.697-11.143-21.625-18.942-31.035-5.164-6.381-11.655-11.501-18.055-16.565-4.122-3.262-8.694-7.308-14.39-6.39a15.873 15.873 0 0 0 3.723 4.972ZM939.22 1222.573c10.69 2.2 21.978 4.206 32.686.983.346-.588 1.047-1.78 1.394-2.377-1.217-.886-2.208-2.57-3.916-2.2-7.3.96-14.583-.66-21.649-2.368a262.443 262.443 0 0 1-48.14-17.991 37.36 37.36 0 0 0-22.663-3.545 45.367 45.367 0 0 0-14.374 1.845c.75.846 1.128 2.232 2.337 2.578 3.11.91 6.397.87 9.612.967 3.98.7 8.097.451 12.013 1.563 6.211 1.756 11.416 5.734 17.048 8.734 11.144 5.936 23.486 8.886 35.651 11.811ZM1133.156 1201.657a360.357 360.357 0 0 1-52.74 14.132c-6.664 1.251-13.447 2.063-19.95 3.996a43.308 43.308 0 0 0-5.937 1.668c1.845 2.41 4.689 3.28 7.63 3.312 13.97 1.748 28.005-1.612 41.114-6.285 14.671-5.148 29.665-10.055 42.951-18.305-.04-1.216-.073-2.417-.08-3.601-4.545 1.127-8.605 3.528-12.988 5.083ZM1234.092 1234.836c-2.256 5.8-4.327 11.674-6.872 17.362-2.377 5.108-6.309 9.241-9.693 13.68-3.73 4.827-8.564 8.622-12.673 13.11-4.883 5.325-10.249 10.32-14.027 16.54-4.11 6.55-6.381 14.01-8.412 21.415-3.819 14.825-10.337 28.787-17.201 42.427-2.119 4.44-5.39 8.315-6.687 13.133 1.925.25 3.94-.008 5.027-1.82 6.663-8.525 11.57-18.242 16.573-27.78 6.22-11.917 10.716-24.607 16.485-36.716 3.23-7.074 8.75-12.641 13.85-18.37 9.514-10.32 17.765-22.027 22.752-35.216 2.095-5.745 4.205-11.699 3.883-17.902-1.015.032-2.014.08-3.005.137ZM1469.19 1500.913c-.805-11.739-1.07-23.502-.99-35.257.097-17.177-.266-34.354.403-51.523.145-5.285 1.192-10.563.387-15.832-3.457 1.7-6.575 4.633-7.147 8.621-2.441 12.15-2.933 24.614-3.263 36.98-.532 15.672 1 31.318 3.328 46.803.757 6.027 2.812 11.771 3.964 17.725-.29.476-.879 1.426-1.177 1.902-2.296-3.924-5.1-7.534-7.146-11.602-6.784-13.044-10.313-27.442-15.244-41.187-1.442-6.14-3.488-12.133-4.472-18.377a88.102 88.102 0 0 0-2.763-.274 279.455 279.455 0 0 1-8.75-39.43c-.507-2.394-.62-5.15-2.513-6.913-2.61.475-2.917 3.214-2.675 5.406.314 3.464-.95 6.889-.5 10.345 1.774 13.631 5.543 26.91 9.072 40.18-11.28-8.75-25.073-14.173-34.846-24.84a12.653 12.653 0 0 0-5.325-3.352c-.008 1.483.024 2.99.072 4.504a26.828 26.828 0 0 0-9.7-2.506c-.339.766-.66 1.54-.975 2.337 2.764 1.756 5.72 3.182 8.524 4.882 2.458 1.467 3.77 4.278 6.381 5.551a275.928 275.928 0 0 1 31.148 18.91c3.86 2.73 8.33 5.422 9.99 10.152a256.914 256.914 0 0 0 15.647 32.678c1.966 3.352 3.706 6.897 6.14 9.966 2.432 2.611 5.317 4.81 7.347 7.808 2.45 1.982 4.222-1.016 5.81-2.595.24-3.714-.533-7.38-.726-11.062ZM846.058 1418.902c-3.086-2.626-6.687-4.56-9.934-6.96-3.723-2.853-8.355-4.27-11.763-7.558-3.626-3.57-8.653-5.124-12.351-8.58a176.374 176.374 0 0 1-24.969-27.418c-4.946-6.486-9.136-13.955-16.275-18.338a35.386 35.386 0 0 0-14.832-5.019c-3.658-2.755-7.84-5.084-12.545-5.084-.048.605-.137 1.813-.185 2.417a42.439 42.439 0 0 1 12.496 7.332c2.997 2.175 6.39 3.764 9.282 6.115 4.86 3.95 7.726 9.596 11.054 14.752a149.145 149.145 0 0 0 16.484 22.173c4.206 4.48 9.41 7.823 14.438 11.296a140.626 140.626 0 0 0 16.267 9.571c2.32 1.12 4.632 2.747 7.347 2.506 5.584-.564 9.284 4.545 13.882 6.824a92.944 92.944 0 0 1 14.954 9.032c-.12-1.49.185-3.24-1.031-4.351a44.847 44.847 0 0 0-12.32-8.71ZM572.633 1571.201c.189 9.673-.702 19.304-1.604 28.924-.266 10.797-1.442 21.544-2.224 32.316-.392 4.43.037 8.91-.152 13.347h8.18c.865-6.033 1.389-12.117 1.97-18.173 1.508-20.408 2.692-40.913 6.35-61.079 1.514-5.922 4.044-11.513 6.115-17.242a493.867 493.867 0 0 1 24.79-55.004c2.603-5.26 6.527-10.022 7.51-15.952-.959-.097-1.91-.177-2.86-.25-6.768 6.236-11.054 14.438-15.308 22.454a211.658 211.658 0 0 0-13.624 32.292c-3.4 8.984-5.56 18.54-10.893 26.677-.202-15.462-.637-30.939-2.313-46.327a554.91 554.91 0 0 0-8.476-55.931c-1.812-7.871-3.448-15.977-7.492-23.067-.67-1.627-2.482-1.917-3.908-2.521.024 4.697 1.466 9.217 2.167 13.841a836.042 836.042 0 0 1 11.772 125.695ZM1207.601 1525.865c-9.942 5.56-21.132 9.977-28.304 19.216-2.481 3.196-5.688 6.872-4.946 11.24.805 1.465 2.998.935 4.012-.057 2.452-2.4 4.505-5.166 7.05-7.469 5.464-4.945 11.932-8.484 17.918-12.69 7.904-5.478 16.247-10.426 23.357-16.943 3.008-2.757 6.703-5.632 6.896-10.071a10.402 10.402 0 0 0-5.277 2.812c-5.903 5.966-13.447 9.886-20.706 13.962ZM596.506 1645.788c3.435-14.3 7.283-28.505 11.69-42.537 5.293-16.847 10.215-33.814 15.404-50.685 2.506-8.323 6.349-16.162 8.991-24.42-1.66-.13-3.56-.186-4.374 1.595-4.988 7.992-8.637 16.726-12.658 25.226-2.53 6.413-5.897 12.504-7.759 19.167-.136-.701-.265-1.386-.394-2.047-.33 2.289-.774 4.577-1.144 6.881-.178-.362-.347-.709-.516-1.031-.33 1.957-.75 3.915-1.096 5.897-.129-.362-.258-.709-.378-1.03-1.966 8.443-4.27 16.79-6.768 25.096-3.215 11.57-5.817 23.292-8.436 35.015-.19.958-.399 1.915-.613 2.873ZM980.027 1532.754c-8.637 5.6-18.66 8.58-28.61 10.836-7.195 1.507-14.695 2.03-21.447 5.165a93.128 93.128 0 0 0-17.902 10.288c-7.525 5.955-12.06 14.749-19.103 21.166-1.803 1.642-3.255 3.625-3.336 6.147a24.408 24.408 0 0 0 4.02-.773c11.885-5.092 19.53-16.662 31.575-21.472 9.016-4.222 18.427-7.469 27.764-10.893 11.208-4.125 22.632-8.637 31.688-16.653 1.756-1.176 1.313-3.44 1.112-5.213a7.295 7.295 0 0 0-5.76 1.402Z" style="fill:#58a3b1"></path>
    <path d="M1031.309 389.382c2.063-.17 4.141-.218 6.22-.258-.073.83-.129 1.667-.185 2.505-8.468 3.135-17.339 5.02-26.12 7.018a225.084 225.084 0 0 1-41.864 5.89c-10.885.846-21.899 2.118-32.751.298-5.447-.943-10.974-.588-16.469-.66-4.036.031-8.072-1.782-12.077-.59-4.334 1.04-8.645 2.313-13.1 2.7 2.602-2.224 5.865-3.368 8.798-5.052 3.762-2.127 8.25-2.296 12.07-4.302a68.838 68.838 0 0 1 13.978-5.374c7.09-1.926 14.494-2.046 21.793-2.07 12.626-.025 25.267.233 37.86 1.248a118.035 118.035 0 0 0 41.847-1.353Z" style="fill:#fcb390"></path>
    <path d="M975.805 443.999c17.493-2.034 34.42-7.219 51.774-10.087.056.387.185 1.168.241 1.555a219.573 219.573 0 0 1-22.132 7.203c-7.88 2.69-16.13 3.98-24.3 5.454-9.506 1.652-19.207 2.852-28.859 1.845-8.604-.99-17.282-.443-25.919-.733a15.76 15.76 0 0 1-5.696-1.539c3.577-1.224 7.493-.217 11.03-1.627a15.693 15.693 0 0 1 5.986-.854c12.633.064 25.315.244 37.875-1.217Z" style="fill:#fbb28f"></path>
    <path d="M856.564 444.893c7.767-.838 15.582-.564 23.373-.467 2.24.04 5.06.532 5.648 3.11-23.752.854-46.81 7.106-69.845 12.432l.193-1.717c5.688-2.553 10.684-6.42 16.638-8.403 7.283-4.125 15.831-4.552 23.993-4.955Z" style="fill:#fbb18d"></path>
    <path d="M979.6 536.13c.242.112.71.354.943.475.757 3.577 2.731 6.856 2.868 10.57.298 7.034 1.716 13.947 2.586 20.924 1.306 8.161 1.91 16.452 3.924 24.493-.75.821-1.49 1.643-2.224 2.481a18.441 18.441 0 0 1-3.19-5.954c-4.125-17.29-7.074-35.2-4.907-52.99Z" style="fill:#fcb28f"></path>
    <path d="M1122.311 552.05a5.118 5.118 0 0 1 3.44.21c-4.93 4.575-12.665 4.8-16.822 10.336-2.337 1.748-5.535 1.515-8.29 1.917-8.42.363-16.412 4.263-24.929 3.256-4.382.024-7.71-3.215-11.843-4.085a24.657 24.657 0 0 1-8.693-3.811c6.364-1.958 13.213-1.322 19.715-.339 12.842 1.54 25.782-1.353 37.802-5.736 3.183-.677 6.494-.701 9.62-1.748ZM879.953 567.358c3.322-.294 6.92-2.047 10.095-.25-3.537 3.448-8.564 4.069-13.044 5.535a121.193 121.193 0 0 1-27.683 5.27c-10.732.918-21.174-2.281-31.785-3.216 0-.894.009-1.78.017-2.666 12.077-2.53 24.42-.363 36.626-.854 8.774.225 17.103-3.054 25.774-3.82Z" style="fill:#e56324"></path>
    <path d="M1110.629 566.858c9.507-1.724 19.328.838 27.586 5.56 10.063 5.446 19.023 14.276 21.923 25.636a55.42 55.42 0 0 1-1.297 29.005c-3.964 11.892-13.278 21.294-23.784 27.724-7.968 4.407-17.354 5.422-26.314 4.769-22.72-.66-43.345-20.223-44.594-43.04-.065-14.744 8.202-29.053 20.56-36.964 7.711-5.834 16.267-10.94 25.92-12.69ZM842.408 580.748c6.494-.677 13.43-.806 19.441 2.16 6.18 2.948 12.77 5.663 17.524 10.787 7.976 8.436 12.98 19.95 12.826 31.632-.644 8.935-1.877 18.168-6.348 26.096-6.18 11.183-17.613 18.933-29.996 21.616-10.127 2.369-20.746 1.628-30.745-.958-7.324-1.902-13.48-6.615-18.716-11.909a42.62 42.62 0 0 1-12.126-34.048c.726-8.25 4.351-15.912 8.895-22.72a38.325 38.325 0 0 1 13.39-12.416c3.618-1.941 7.904-2.352 11.328-4.721a36.718 36.718 0 0 1 14.527-5.519Z" style="fill:#f95939"></path>
    <path d="M1005.334 689.097c4.117-.452 8.266-.355 12.391-.822a31.446 31.446 0 0 1 15.316 1.603 8.421 8.421 0 0 1 4.899 9.523 21.296 21.296 0 0 1-3.964 7.413c-2.619 3.408-6.833 4.955-9.74 8.065-7.993 8.153-19.297 11.738-30.238 13.841-14.51 2.385-29.392 3.803-44.015 1.54-6.96-.839-13.616-3.127-20.464-4.52-10.635-2.257-21.27-6.777-28.699-14.954-2.578-2.53-2.288-6.381-1.877-9.653a3.785 3.785 0 0 1 2.57-2.53c4.69-1.828 9.717-2.457 14.688-3.077 9.322-1.482 18.78-1.74 28.158-2.731 9.129-.895 18.273-1.789 27.45-1.894 11.159-.862 22.35-1.208 33.525-1.804Z" style="fill:#fff"></path>
  </g>
</svg>
