<svg xmlns="http://www.w3.org/2000/svg" viewBox="0 0 2121 1887.494" id="man">
  <g id="art">
    <path d="M1086.032 256.81c.971.216 2.078.351 2.5 1.434-2.397 6.313-3.057 13.128-3.48 19.823a106.425 106.425 0 0 1 28.669-2.428 119.158 119.158 0 0 1 26.176 2.802c9.705 2.102 19.513 3.853 28.995 6.895 13.908 4.362 27.888 8.852 40.832 15.651a232.787 232.787 0 0 1 39.329 23.446c7.722 5.772 15.436 11.623 22.386 18.342 13.725 13.367 27.164 27.204 38.062 43.038a232.012 232.012 0 0 1 14.315 23.143c6.13 11.05 9.983 23.152 14.417 34.934 1.95 6.472 5.008 12.587 6.298 19.258 1.473 7.571 2.468 15.23 3.272 22.904 4.012 21.535 4.171 43.524 4.092 65.353-.621 9.267.071 18.582-.94 27.825-.652 9.25-2.412 18.374-3.765 27.537-1.696 11.313-5.024 22.483-4.705 34.01 1.305.653 2.682 1.537 4.227 1.194 1.974-.095 3.081-1.886 4.243-3.224 6.473-2.101 3.806-12.554 8.041-16.185-2.15 8.63-5.644 16.862-8.917 25.118-3.908 8.32-7.523 16.901-13.167 24.234-5.485 7.157-10.78 14.648-17.945 20.253-9.33 7.706-18.573 16.909-30.913 19.282-9.012.565-18.303.318-26.908-2.707-8.694-3.097-17.173-6.767-25.89-9.792-7.715-2.691-15.54-5.064-23.207-7.89-10.596-3.893-21.575-6.568-32.346-9.896-22.076-6.942-43.34-16.217-65.52-22.864-28.398-8.813-57.974-12.969-87.43-16.464-17.411-2.03-34.941-.852-52.352.502-15.78 1.274-31.566 3.184-46.963 6.958q-15.322 3.678-30.229 8.837c-3.248.82-6.783 2.444-10.103 1.138-2.667-1.075-2.905-4.29-3.558-6.687-3.877-18.2-6.44-36.646-8.79-55.1-2.539-19.226-2.244-38.667-1.663-58.012a298.913 298.913 0 0 1 1.632-34.186c.517-10.93 2.468-21.702 4.538-32.425 1.313-6.56 2.157-13.24 4.235-19.617a206.242 206.242 0 0 1 17.738-39.455c5.039-8.566 8.9-17.81 14.704-25.922 14.17-21.933 33.174-40.323 53.984-55.911a322.25 322.25 0 0 1 39.71-25.515c6.45-3.432 13.4-5.772 20.198-8.391 4.976-1.943 10.302-2.97 15.023-5.533a33.599 33.599 0 0 1 2.683-11.058c2.675-6.56 5.636-13.184 10.222-18.645.581.167 1.735.509 2.317.676l-.128 2.595c1.553 1.927.677 4.38.7 6.6 0 3.32.39 6.624.582 9.936a216.016 216.016 0 0 1 13.932-17.443 133.136 133.136 0 0 1 10.867-8.367Z" style="fill:#193857"></path>
    <path d="M841.378 1095.47c-.223-1.153.199-1.528 1.273-1.122.215 1.13-.207 1.505-1.273 1.123Z" style="fill:#fff"></path>
    <path d="M1731.464 1645.788a37.717 37.717 0 0 0 7.267-23.964 47.005 47.005 0 0 0-3.36-15.154c-1.777-24.692-5.268-49.47-9.364-73.858a479.417 479.417 0 0 0-14.3-61.794c-10.99-35.677-27.768-70.325-51.594-99.231-.382-.725-.759-1.452-1.156-2.17a107.995 107.995 0 0 0-18.583-24.603 85.064 85.064 0 0 0-4.793-4.345 98.702 98.702 0 0 0-28.703-24.366 277.776 277.776 0 0 0-55.975-40.701 49.433 49.433 0 0 0-6.97-6.41c-6.225-4.785-12.944-8.877-19.432-13.272-6.536-4.434-13.622-7.985-20.047-12.579-24.663-17.825-52.034-31.319-78.106-46.859-13.415-7.61-26.766-15.317-40.411-22.514-13.462-6.998-26.726-14.402-40.523-20.755a312.311 312.311 0 0 1-34.296-21.384c-6.361-4.498-12.961-8.717-18.765-13.94-3.638-3.264-7.412-6.384-10.875-9.824-5.97-5.963-12.618-11.225-18.207-17.57-6.48-5.78-14.306-10.628-23.095-11.655-6.576-.605-13.176.326-19.768.255-14.02 1.592-28.135.764-42.186.223-12.483-.12-24.962-.209-37.433-.74a237 237 0 0 0-23.876.397c-21.5 1.252-43.022 2.118-64.47 4.108-21.327 1.943-42.623 4.22-63.951 6.21a570.425 570.425 0 0 1-58.714 1.258c-22.021-.557-43.985-4.554-66.014-1.99-6.177 1.29-12.108-3.002-18.27-1.147-7.548 2.166-14.004 6.894-20.333 11.385-10.979 7.738-21.51 16.068-32.044 24.393-18.767 14.831-38.07 28.93-57.59 42.735-22.73 15.286-97.35 64.207-111.489 74.03-11.719 8.424-23.55 16.711-35.1 25.389-10.016 7.444-19.963 14.99-29.393 23.19-14.612 12.707-30.06 24.71-42.9 39.26a24.89 24.89 0 0 0-9.398 6.6c-30.19 35.206-52.506 75.006-68.72 118.368-15.408 41.206-23.713 84.431-28.836 128.014-2.538 21.586-3.975 43.287-4.597 65.01Z" style="fill:#dfaf33"></path>
    <path d="M1011.523 381.283c.709-.008 2.134-.016 2.843-.023 3.327 4.967 6.862 9.8 10.357 14.656 6.05 8.216 12.85 15.85 19.162 23.86 3.838 4.665 7.23 9.704 11.6 13.916 8.224 7.969 16.639 15.739 25.038 23.525 7.157 6.138 14.943 11.496 22.052 17.69 7.078 5.939 13.654 12.523 21.328 17.73 3.893 2.682 7.237 6.058 11.01 8.916 3.734 2.93 5.78 7.46 9.729 10.166 4.928 5.565 8.463 12.205 12.81 18.223a75.565 75.565 0 0 0 8.582-19.178c1.034-3.925 1.369-8.01 2.61-11.886 2.039-6.306 4.005-12.722 4.443-19.378 5.852 10.47 13.558 20.206 16.352 32.1a157.15 157.15 0 0 0 6.552-18.12c1.847-5.939 2.835-12.117 4.952-17.976a80.232 80.232 0 0 0 4.347-15.517c5.629 5.59 10.795 11.759 14.394 18.868 3.216 5.955 5.397 12.38 8.08 18.574a222.888 222.888 0 0 0 13.717-34.886 100.34 100.34 0 0 0 3.846-24.178 151.96 151.96 0 0 0 13.605 8.335c5.255 3.408 7.739 9.466 11.56 14.187 1.743-5.66 3.28-11.392 4.506-17.188a23.275 23.275 0 0 1 2.133-6.074c1.195 1.552 2.246 3.208 3.312 4.864-3.144 12.865-8.956 24.966-15.444 36.47-2.444 3.614-4.196 7.905-7.747 10.612a39.04 39.04 0 0 1-4.649-14.728c-5.382 10.007-10.413 20.293-17.204 29.448-2.094 2.651-4.124 5.446-6.815 7.516-1.64 1.36-4.052.835-5.525-.494-5.62-4.673-8.478-11.615-13.12-17.108-3.16 5.827-4.394 12.522-8.009 18.127-3.176 4.968-6.767 9.657-10.158 14.474-.844 1.034-2.094 3.112-3.575 1.814-3.32-3.303-4.203-8.2-6.902-11.95-1.751 5.534-2.157 11.584-5.262 16.632-2.922 4.856-5.637 9.864-9.052 14.401-4.825-2.523-7.563-7.467-11.64-10.898-2.865 6.082-7.403 11.121-10.691 16.94a68.44 68.44 0 0 1-10.986 14.458c-1.083 1.218-2.747 1.25-4.236 1.25-4.792-13.032-13.136-24.25-19.656-36.398a78.514 78.514 0 0 0-9.171-13.868c-2.118-2.644-4.705-4.96-6.266-8.01a57.572 57.572 0 0 0-4.1-7.14c-4.983-7.436-8.749-15.596-13.414-23.223-5.764-8.965-12.587-17.172-18.94-25.707-10.548-13.94-21.909-27.37-30.738-42.512-5.772-9.124-10.819-18.685-16.758-27.697.239-.796 1.043-3.304 1.138-3.615Z" style="fill:#e56324"></path>
    <path d="M1008.88 382.955c.566-.111 1.688-.326 2.245-.43-.254.789-.501 1.577-.74 2.373 5.939 9.012 10.986 18.573 16.758 27.697 8.83 15.142 20.19 28.572 30.738 42.512 6.353 8.535 13.176 16.742 18.94 25.707 4.665 7.627 8.43 15.787 13.414 23.222a57.572 57.572 0 0 1 4.1 7.142c1.56 3.049 4.148 5.365 6.266 8.009a78.514 78.514 0 0 1 9.171 13.868c6.52 12.149 14.863 23.366 19.656 36.398 1.489 0 3.153-.031 4.235-1.25a68.44 68.44 0 0 0 10.987-14.457c3.288-5.82 7.826-10.86 10.692-16.941 4.076 3.43 6.814 8.375 11.639 10.899 3.415-4.538 6.13-9.546 9.052-14.402 3.105-5.048 3.51-11.098 5.262-16.631 2.699 3.75 3.582 8.646 6.902 11.95 1.481 1.297 2.731-.78 3.575-1.815 3.391-4.817 6.982-9.506 10.158-14.474 3.615-5.605 4.849-12.3 8.01-18.127 4.64 5.493 7.499 12.435 13.12 17.108 1.472 1.33 3.884 1.855 5.524.494 2.691-2.07 4.721-4.865 6.815-7.516 6.791-9.155 11.822-19.441 17.204-29.448a39.04 39.04 0 0 0 4.65 14.728c3.55-2.707 5.302-6.998 7.746-10.612 6.488-11.504 12.3-23.605 15.444-36.47 2.946 4.259 6.783 7.81 9.729 12.077 5.557 8.033 11.233 16.018 15.779 24.688 5.254 9.218 8.67 19.313 12.117 29.304 2.69 9.8 5.206 19.72 6.21 29.855a228.159 228.159 0 0 1 2.348 23.262c1.218 10.851.478 21.79.685 32.68.525 20.78-2.85 41.367-5.812 61.859 0 0-1.083.008-1.377.008-4.435 9.967-5.653 20.906-7.03 31.606-2.412 14.425-5.135 28.811-8.757 42.99-2.826 10.31-6.01 20.516-9.14 30.746-1.735 6.409-4.705 12.38-6.68 18.709-.246.159-.755.493-1.002.66-2.27 5.669-5.47 10.907-8.455 16.225a229.465 229.465 0 0 1-16.83 24.537c-10.755 14.823-22.657 28.771-34.639 42.6-.151 2.38.335 4.864-.613 7.18.048-1.902-.032-3.797-.12-5.684-6.726 3.647-12.331 8.98-18.238 13.79-15.437 13.485-29.64 28.516-46.676 40.084-7.667 5.047-14.745 10.954-22.674 15.588-6.226 3.86-12.276 8.016-18.685 11.583a107.437 107.437 0 0 1-19.138 7.874c-8.734 2.643-17.579 5.238-26.734 5.827-9.147.916-18.207-1.09-27.068-3.12a118.01 118.01 0 0 1-23.963-10.23c-11.83-5.98-23.278-12.938-33.222-21.774-17.928-15.469-34.702-32.187-51.469-48.882-9.418-8.32-17.944-17.578-26.263-26.964-2.978-3.686-5.581-7.683-8.877-11.098-4.634-4.976-8.129-11.178-13.685-15.19l-.168-.096c-4.195-6.377-7.133-13.47-10.063-20.484-4.052-9.155-6.376-18.915-8.71-28.604-2.053-9.904-2.992-19.99-3.964-30.046-.246-2.69-.764-5.405-.453-8.104 1.584-5.398 1.552-11.074 2.444-16.591a161.356 161.356 0 0 0 1.098-19.107c1.338-20.532 3.87-40.96 6.863-61.309 2.364-15.413 4.163-30.913 7.006-46.254 1.448-8.447 2.738-16.925 3.606-25.46.422-4.65 2.11-9.33.796-13.988 1.202-7.34 3.463-14.529 5.517-21.686 5.35-16.766 11.536-33.246 17.706-49.717a103.853 103.853 0 0 1 11.91-24.839c1.87-3.129 4.362-5.852 6.002-9.116 2.795-5.676 7.07-10.42 11.21-15.134 9.84-11.941 21.94-21.742 34.113-31.191 10.405-7.595 21.639-14.243 33.803-18.598Z" style="fill:#f2844f"></path>
    <path d="M807.057 535.507c7.055-10.798 19.417-19.33 32.776-17.57 6.902.796 13.996 1.887 20.15 5.318a52.318 52.318 0 0 1 12.626 9.657c4.554 4.545 9.148 9.386 11.584 15.444.915 4.005.939 8.368 2.897 12.054.55-2.389.924-4.809 1.529-7.174 1.314 4.658-.374 9.339-.796 13.988-.868 8.535-2.158 17.013-3.606 25.46-2.843 15.341-4.642 30.842-7.006 46.254-2.994 20.35-5.525 40.777-6.863 61.31a161.356 161.356 0 0 1-1.098 19.106c-.892 5.517-.86 11.193-2.445 16.591a107.068 107.068 0 0 1-.796-16.13c-2.205-.11-3.526-2.165-5.453-2.96-8.113-3.798-15.07-9.666-21.424-15.891a307.37 307.37 0 0 1-24.79-30.125c-8.527-12.038-13.304-26.129-18.144-39.918a113.22 113.22 0 0 1-6.282-36.525c.359-10.613.383-21.36 3.249-31.67 2.683-9.927 8.32-18.69 13.892-27.219Z" style="fill:#f95939"></path>
    <path d="M953.463 602.73a171.599 171.599 0 0 1 55.083 1.816c3.487.693 7.061 1.154 10.39 2.508 3.868 1.576 8.191 1.003 12.18 2.102 2.03.931 3.797 2.547 6.146 2.69 6.4 1.426 13.574 1.529 18.86 5.892-.191.27-.581.804-.78 1.067-7.404-1.314-14.625-3.567-22.085-4.554-7.396-1.027-14.871-1.274-22.29-2.006-4.523-.486-9.005.453-13.503.644-17.172 1.33-34.56 2.81-51.676.008-5.071-.844-10.246-1.234-15.19-2.707-2.062-.342-2.555-2.61-3.089-4.283 2.357-.676 4.554-2.22 7.11-1.958a108.832 108.832 0 0 0 18.844-1.218Z" style="fill:#e56324"></path>
    <path d="M1343.79 616.703a60.672 60.672 0 0 1 27.864-5.796 49.024 49.024 0 0 1 19.92 3.36c7.546 3.168 14.743 8.16 18.763 15.484 4.745 8.598 6.02 18.653 5.756 28.342-.334 14.442-6.098 28.023-12.332 40.817-6.758 13.494-16.933 24.847-27.417 35.546-5.55 5.597-11.552 10.708-17.507 15.859-9.65 8.351-20.349 15.715-32.283 20.404-12.06 5.215-25.053 7.874-38.038 9.554 1.974-6.33 4.944-12.3 6.68-18.709 3.128-10.23 6.313-20.436 9.139-30.746 3.622-14.179 6.345-28.565 8.757-42.99 1.377-10.7 2.595-21.639 7.03-31.606h1.17c-.151 1.146-.263 2.309-.39 3.471 1.568-4.864 4.61-9.036 6.886-13.574 3.655-7.22 7.882-14.139 11.186-21.535 1.337-2.77 1.677-6.394 4.816-7.881Z" style="fill:#f95939"></path>
    <path d="M1152.93 628.891c3.367.255 6.679 1.187 10.094.932 14.856.756 29.735.326 44.599.51 6.663-.025 13.303.891 19.974.565a74.26 74.26 0 0 1 20.628 1.767c9.442 1.425 18.47 4.896 27.06 8.988a1.852 1.852 0 0 1-2.277.987c-3.288-.493-6.33-1.958-9.61-2.476a90.372 90.372 0 0 0-11.153-1.17c-6.393-.207-12.786-.947-19.186-.581-6.33 2.523-13.264 1.743-19.903 2.58a115.435 115.435 0 0 1-44.471-4.57c-4.801-1.537-9.785-2.612-14.378-4.713-.956-.486-2.906-1.816-1.378-2.819ZM1049.474 739.583c1.796-.25 3.145 1.226 4.467 2.198 5.548 4.824 11.01 9.84 17.3 13.709a86.144 86.144 0 0 0 16.4 6.568c9.13 2.635 18.795.652 27.704-1.92 4.14-1.066 7.778-3.51 11.926-4.513 2.3-.302 2.826 2.834 1.09 3.917-6.838 6.034-13.971 11.99-22.33 15.819-6.322 2.97-12.436 6.663-19.362 8.048-3.654.836-7.42.637-11.138.637-5.835.128-11.249-3.288-14.792-7.722a77.244 77.244 0 0 1-7.579-17.116c-1.727-5.12-4.235-9.976-5.62-15.206-.574-1.672-.131-4.131 1.934-4.419ZM890.163 823.279c5.557 4.012 9.052 10.214 13.686 15.19 3.296 3.415 5.899 7.412 8.876 11.098 8.32 9.386 16.846 18.645 26.264 26.964 16.766 16.695 33.54 33.413 51.47 48.882 9.943 8.836 21.39 15.794 33.221 21.773a118.01 118.01 0 0 0 23.963 10.23c8.86 2.03 17.92 4.037 27.068 3.121 9.155-.589 18-3.184 26.734-5.827a107.437 107.437 0 0 0 19.138-7.874c6.41-3.567 12.46-7.722 18.685-11.583 7.93-4.634 15.007-10.54 22.673-15.588 17.037-11.568 31.24-26.599 46.677-40.085 5.907-4.808 11.512-10.142 18.239-13.788.087 1.886.167 3.781.12 5.684-1.498 9.036-1.784 18.199-3.026 27.267-.876 11.042-1.361 22.108-1.592 33.19-.319 7.61.358 15.222.183 22.848-.088 2.651-.303 5.302-.533 7.954q-11.548 3.355-23.104 6.6c-13.996 3.598-28.007 7.38-41.366 12.936-16.098 7.133-31.948 14.943-48.754 20.325-8.773 2.595-17.586 5.08-26.527 6.998-1.321-5.438-2.746-11.09-6.01-15.715-.319.095-.956.278-1.274.374-.669 5.493 1.106 10.835 1.704 16.24-17.547 2.922-35.356 3.567-52.99 5.756.2-5.278.923-10.556.597-15.842.04-1.553-.916-2.795-1.728-3.997-.405.255-1.21.772-1.616 1.035-1.106 6.52-2.284 13.056-2.81 19.664a253.487 253.487 0 0 0-40.522 10.54c-7.42 2.596-14.402 6.234-21.647 9.26-16.575 6.822-32.887 14.258-49.207 21.67a100.104 100.104 0 0 1-27.355 7.539c-4.116.525-8.296 1.728-12.435.78a158.099 158.099 0 0 0 16.264-48.523c1.6-9.147 2.89-18.343 3.67-27.593q2.246-19.107 4.172-38.238c.573-4.72.366-9.49.724-14.218 1.06-13.009 1.481-26.041 2.691-39.034.43-11.193 1.234-22.355 2.245-33.5 1.314-9.848 1.696-19.776 2.556-29.664-4.156-3.351-6.186-8.518-9.124-12.85Z" style="fill:#e56324"></path>
    <path d="M1026.761 825.235c1.911-.677 3.885.637 5.772.987 4.912 1.13 9.713 2.707 14.617 3.909 8.837 1.648 17.634 3.543 26.566 4.61 8.12 1.154 16.305 2.539 24.536 1.886 6.107-.589 12.253-.828 18.383-1.138 1.536-.207 3.415 1.154 2.914 2.842-.263 2.03-3.121 1.489-3.957 3.12-3.646 6.457-8.296 12.42-10.875 19.434-.59 2.014-2.866 3.184-4.817 3.32-3.399-.542-6.52-2.094-9.792-3.081-13.566-4.466-28.015-3.113-42.043-3.01-3.909.04-7.746 1.17-11.655.868-2.54-.875-.883-3.813-1.544-5.676-1.489-3.821-1.29-8.105-3.209-11.783-2.11-4.147-4.044-8.383-6.042-12.578-.096-1.226 0-3.034 1.146-3.71Z" style="fill:#e56324"></path>
    <path d="M1222.008 962.735c.231-2.652.446-5.303.534-7.954.326 16.926.653 33.891 3.08 50.68 2.485 19.53 5.773 39.098 12.325 57.735 2.022 6.003 4.028 12.054 7.045 17.658 2.333 4.283 3.495 9.052 5.501 13.486.653 4.57-2.141 8.535-4.354 12.253-6.123 11.607-14.689 21.79-24.139 30.825-6.416 5.47-11.917 11.918-18.398 17.316-4.323 3.63-8.216 7.762-12.714 11.201-5.079 3.901-9.665 8.423-14.855 12.189a263.947 263.947 0 0 1-40.539 24.822c-7.658 3.989-15.739 7.062-23.588 10.62-22.371 9.817-46.565 14.434-70.648 17.666-8.741.574-17.498 1.577-26.256.701a229.042 229.042 0 0 1-33.476-4.434 114.58 114.58 0 0 1-17.762-5.502 332.76 332.76 0 0 1-42.68-18.637 135.043 135.043 0 0 1-22.625-14.855 208.795 208.795 0 0 1-26.415-22.116c-5.063-5.565-10.493-10.883-14.505-17.292-5.175-7.364-10.04-14.943-14.673-22.657-2.786-5.048-5.756-10.23-6.584-16.026l-2.245.374c-2.22-2.285.486-4.936 1.959-6.735 4.323-4.442 8.32-9.227 13.048-13.255 7.531-6.656 13.096-15.166 17.92-23.9 4.14.948 8.32-.255 12.436-.78a100.104 100.104 0 0 0 27.354-7.54c16.32-7.41 32.633-14.847 49.208-21.67 7.245-3.025 14.227-6.663 21.647-9.258a253.487 253.487 0 0 1 40.522-10.54c-.438 8.104-1.242 16.447 1.218 24.336 2.62 8.67 6.122 17.46 12.491 24.107.796.963 2.604 2.213 3.471.629-.087-1.258-1.178-2.166-1.791-3.177-4.028-5.087-6.218-11.313-7.977-17.475-2.643-9.529-2.11-19.512-1.855-29.28 17.634-2.19 35.443-2.835 52.99-5.757.923 8.567 1.87 17.149 2.189 25.763-.231 9.45-1.051 19.122-4.825 27.904.876.119 1.76.254 2.66.326 2.802-3.853 3.876-8.63 5.023-13.176 3.232-13.669 2.945-27.943.533-41.716 8.94-1.919 17.754-4.403 26.527-6.998 16.806-5.382 32.656-13.192 48.754-20.325 13.359-5.557 27.37-9.338 41.366-12.937q11.56-3.26 23.103-6.6Z" style="fill:#f2844f"></path>
    <path d="M1074.974 994.253c.318-.096.955-.279 1.274-.375 3.264 4.626 4.689 10.278 6.01 15.716 2.412 13.773 2.7 28.047-.533 41.716-1.146 4.546-2.221 9.323-5.024 13.176-.9-.072-1.783-.207-2.659-.326 3.774-8.782 4.594-18.454 4.825-27.904-.319-8.614-1.266-17.196-2.19-25.763-.597-5.405-2.372-10.747-1.703-16.24ZM1022.558 996.41c.812 1.202 1.767 2.444 1.727 3.997.326 5.286-.398 10.564-.597 15.842-.255 9.769-.788 19.752 1.855 29.282 1.76 6.161 3.949 12.387 7.977 17.474.613 1.011 1.704 1.919 1.791 3.177-.867 1.584-2.675.334-3.47-.63-6.37-6.647-9.872-15.436-12.492-24.106-2.46-7.89-1.656-16.232-1.218-24.337.526-6.608 1.704-13.144 2.81-19.664.406-.263 1.21-.78 1.616-1.035ZM1078.986 1157.544c1.425.342 1.21 2.715.327 3.606a47.17 47.17 0 0 1-13.94 12.268c-8.248 4.634-17.778 8.002-27.347 6.855-8.065-1.202-13.868-7.61-18.128-14.075.231-.406.685-1.226.916-1.64 3.622-.414 5.772 2.858 8.288 4.84a21.825 21.825 0 0 0 16.16 5.51 49.02 49.02 0 0 0 25.604-9.546c3.041-2.253 5.318-5.318 8.12-7.818Z" style="fill:#b65a35"></path>
    <path d="M1255.93 1163.244c7.564-10.644 16.122-20.946 20.517-33.413 1.958-5.206 6.066-10.15 4.864-16.034-.724.072-1.433.144-2.134.231a132.733 132.733 0 0 1-6.114 14.64c-3.717 10.725-11.098 19.53-17.49 28.725a324.37 324.37 0 0 1-28.915 34.838 183.315 183.315 0 0 1-26.989 23.143c-8.94 6.48-17.578 13.406-27.028 19.147-6.512 3.932-13.16 7.658-19.95 11.09-14.06 6.933-28.087 14.05-42.887 19.305a324.133 324.133 0 0 1-51.039 14.282 171.098 171.098 0 0 1-47.027 2.978c-12.714-1.704-25.475-3.145-38.094-5.454a246.037 246.037 0 0 1-47.767-13.756 127.971 127.971 0 0 1-21.566-10.119c-11.369-6.671-22.618-13.74-32.49-22.522-11.042-10.206-22.068-20.596-30.969-32.784-8.837-11.783-16.79-24.361-22.466-37.99q-3.678-10.808-7.325-21.631c-1.257-4.61-2.077-9.323-3.375-13.916-.486.016-1.457.031-1.943.04-.214 5.333 1.17 10.556 2.604 15.651 2.58 7.189 4.622 14.572 7.372 21.702 5.46 14.16 14.035 26.925 23.143 39.026 8.264 11.21 18.422 20.826 28.469 30.403 11.058 10.302 23.891 18.446 36.948 25.954 10.381 6.003 21.742 9.951 32.983 13.988a283.085 283.085 0 0 0 55.425 12.108c8.758 1.107 17.499 2.476 26.328 2.85 19.6.542 39.113-2.698 58.045-7.618a320 320 0 0 0 53.268-18.223c14.17-6.552 28.357-13.176 41.764-21.217 11.21-6.56 21.304-14.792 31.86-22.315a189.164 189.164 0 0 0 21.973-18.526 300.928 300.928 0 0 0 30.006-34.583ZM820.113 1301.49c.63-1.17.088-2.635.247-3.87a11.267 11.267 0 0 1-2.181 2.723c-4.934 3.775-9.363 8.168-14.322 11.926-8.288 6.33-16.76 12.415-24.744 19.123-3.974 3.339-8.184 6.472-11.623 10.381-4.426 2.691-7.507 7.117-11.767 10.095-.007.51-.015 1.529-.023 2.038 4.362-2.237 7.698-6.066 11.432-9.187l-.056-.733.677.072c5.254-4.673 10.883-8.925 16.535-13.112 12.332-9.283 26.614-16.663 35.825-29.456ZM1372.864 1358.173c-10.485-1.043-21.025-1.704-31.423-3.487-6.265-1.138-13.302-.708-18.589 3.16a19.366 19.366 0 0 1-3.168 1.028c2.508.334 4.936-.51 7.332-1.139 3.98-.414 8.041-.764 12.005-.016 4.212.788 8.376 1.847 12.65 2.31 9.076 1.193 18.248.644 27.38.78 5.429-.248 11.272.007 16.176-2.7a69.389 69.389 0 0 1-.024-2.563c-6.592 4.458-14.975 1.449-22.339 2.627ZM1506.524 1426.026q-1.098-.072-2.173-.096-2.4 9.267-4.809 18.534c-3.845 13.327-7.818 26.614-11.814 39.901-2.611 8.527-4.052 17.38-6.918 25.826-2.452-17.578-7.277-34.828-8.662-52.535-.13-1.67-.239-3.312-.438-4.936-.852.064-1.696.143-2.523.239a21.755 21.755 0 0 0-.566 4.729c-.963 10.85 1.186 21.662 2.667 32.378 1.099 8.223 3.502 16.189 5.979 24.098.766 2.445 1.743 5.055.915 7.643-1.815 7.77-3.614 15.532-5.047 23.382-7.412-6.958-11.177-16.552-16.01-25.261-3.343-6.082-6.297-12.531-11.121-17.61-.956-1.393-2.771-.772-4.156-.868a17.123 17.123 0 0 0 .788 2.762c3.328 7.723 6.783 15.39 10.572 22.905 3.44 7.006 7.34 14.075 13.534 19.043 1.8 1.648 4.267 2.746 5.438 4.976-.398 3.216-1.17 6.384-1.457 9.625-1.027 10.914-2.834 21.765-3.2 32.744-.24 8.622-.765 17.371.93 25.897 1.012.024 2.039.064 3.074.136a21.932 21.932 0 0 0 1.043-5.47c.446-6.607 1.178-13.2 1.385-19.815 1.68-15.38 4.642-30.594 7.125-45.864 3.296-18.24 8.4-36.096 11.648-54.343 2.69-16.623 7.873-32.704 11.13-49.2 1.695-6.09 3.447-12.451 2.666-18.82ZM1109.764 1433.494a19.169 19.169 0 0 0-14.569.589c-.127.366-.398 1.098-.533 1.465 1.839-.008 3.685 0 5.533.007 4.697.02 8.988 2.118 13.263 3.766 17.188 6.839 33.556 15.5 49.924 24.05 3.042 1.689 6.377 2.97 8.917 5.43.374.032 1.123.104 1.497.144.008-.438.031-1.314.04-1.76-6.6-5.589-14.49-9.354-21.735-14.02a182.386 182.386 0 0 0-42.337-19.671ZM581.167 1450.411c.733 4.562 2.54 8.893 3.845 13.327a362.172 362.172 0 0 1 10.246 44.583c1.42 9.043 3.4 18 5.183 26.988 1.783 8.948 5.024 17.514 7.213 26.351 4.084 17.825 8.562 35.614 10.954 53.754 1.128 8.548 4.34 16.766 4.228 25.468.254-.016.764-.032 1.011-.048.309 1.644.514 3.297.671 4.954h5.264a60.557 60.557 0 0 0-.171-2.916 281.45 281.45 0 0 0-4.013-32.513c-1.179-6.737-2.34-13.542-4.936-19.887l-.159-2.667c2.675-2.643 4.076-6.202 6.082-9.315a114.965 114.965 0 0 0 11.815-24.01c2.501-6.734 4.864-13.606 5.931-20.74.263-2.054.517-5.174-2.23-5.318a169.67 169.67 0 0 1-8.828 26.55c-3.035 7.433-5.684 15.063-9.769 22.014a26.975 26.975 0 0 0-3.136 9.051l-1.139-.063c-2.308-9.108-4.418-18.28-7.276-27.243.947.143 1.919.207 2.882.318-.279-2.978.486-5.883.772-8.813 2.3-11.034 5.7-21.861 6.815-33.11 1.05-9.92 1.998-20.039.637-29.934a31.265 31.265 0 0 0-.24-9.633l-1.297-1.17c-1.624 5.731-1.592 11.885-1.146 17.792-.175 3.408-.542 6.807-.733 10.23-.66 11.321-2.905 22.467-4.657 33.652-.422 3.177-1.322 6.361-.995 9.61l-.677-.518c-.828 3.67-.525 7.5-1.497 11.138-2.977-9.02-4.171-18.494-6.24-27.737-4.117-20.62-9.252-41.016-15.008-61.237-2.014-7.468-5.262-14.505-7.85-21.774-1.448-4.06-3.423-7.921-4.585-12.077-.398-.04-1.186-.127-1.585-.175.375 5.509 2.516 10.676 4.188 15.882ZM901.97 1577.63a290.999 290.999 0 0 0-34.759 14.625c-8.367 4.283-16.352 9.259-24.671 13.63-4.506 2.555-9.482 3.98-14.457 5.27-4.889.008-9.697 1.075-14.593 1.13 4.872 2.588 10.596 2.365 15.946 2.086 1.711-.183 3.59-.016 5.071-1.043 5.772-.62 10.979-3.487 16.13-5.947 13.947-7.189 27.51-15.09 41.716-21.813 5.78-2.736 12.077-4.594 17.172-8.582-.048-.757-.095-1.497-.135-2.214-2.803-.151-4.833 2.15-7.42 2.858ZM1274.592 1580.337c-13.908.98-27.753-1.282-41.494-3.065-2.993-.422-5.939.319-8.837.963 2.74 2.054 6.338 1.027 9.45 2.007a126.512 126.512 0 0 0 27.291 3.391c7.595.12 15.524-.111 22.483-3.519.095-.374.294-1.13.398-1.504-3.257-.335-6.09 1.671-9.291 1.727Z" style="fill:#997c30"></path>
    <path d="M1187.95 388.409c.375.477.765.955 1.155 1.44.207.32.62.956.828 1.274l.74-.175c-.016.27-.04.812-.055 1.083a13.067 13.067 0 0 1 2.54 2.874 164.659 164.659 0 0 1 15.213 28.421q.788 1.97 1.6 3.949 1.254 3.153 2.404 6.36c1.155 3.25 2.532 6.465 3.09 9.897l.644.008c-.032.605-.087 1.807-.12 2.404l.662.008c.398 1.863.891 3.71 1.13 5.612l.629-.119c.016.534.04 1.608.056 2.15.398 1.066.748 2.133 1.122 3.224.223 1.178.366 2.364.534 3.574l.66-.183a443.475 443.475 0 0 0-.063 3.344l.764-.175c.056 1.003.12 2.022.2 3.033.516 1.72.827 3.495 1.376 5.215a11.618 11.618 0 0 1-.493 4.562 45.185 45.185 0 0 1-.191-4.976l-.749.127c-.024-1.37-.047-2.739-.04-4.1l-.835.279c.015-1.163.047-2.325.087-3.48l-.645.271c-.326-1.854-.804-3.67-1.282-5.485a25.772 25.772 0 0 1-.716-3.535l-.709.295c.04-.645.12-1.927.168-2.564l-.836-.047c-.032-.518-.088-1.537-.12-2.046-1.313-3.113-2.229-6.361-3.407-9.506a44.905 44.905 0 0 1-.756-2.635l-.39-.111c-.383-1.219-.797-2.429-1.179-3.639a130.431 130.431 0 0 1-1.664-3.956c-.549-1.322-1.098-2.644-1.632-3.957a259.214 259.214 0 0 0-15.007-29.64c-1.377-2.15-2.698-4.338-3.908-6.575-.2-.048-.597-.136-.796-.184l.43-1.52-1.442.127c.255-.23.749-.692 1.004-.923ZM1212.59 390.025c.438.056 1.314.175 1.752.239.016.597.04 1.799.056 2.404l1.074-.16c-.111.407-.318 1.227-.422 1.633l.789.048c.629 1.759 1.337 3.494 2.046 5.238.875 2.086 1.663 4.22 2.444 6.353a103.22 103.22 0 0 1 3.184 9.466c.27.82.55 1.64.828 2.468a31.867 31.867 0 0 1 1.465 5.891l.525.024c.064.517.191 1.552.247 2.07a30.244 30.244 0 0 1 .804 3.527l.39-.048c.542 3.248 1.823 6.353 1.895 9.68l.677-.19-.072 4.25.987-.302c-.159 1.29-.326 2.572-.501 3.861-.136-.78-.406-2.34-.542-3.113l-.485.128c-.271-2.174-.812-4.291-1.147-6.44l-.684.023c.008-1.082.024-2.157.055-3.224l-.939.19.191-2.499-.653-.111c-.557-2.54-1.369-5.008-2.157-7.484-.271-.812-3.423-10.397-3.917-12.005-.31-.78-.605-1.568-.884-2.349-.263-.804-.51-1.6-.748-2.396-1.107-2.89-2.07-5.843-3.264-8.694a50.138 50.138 0 0 1-.63-2.786l-.421.103a44.212 44.212 0 0 0-1.943-5.795ZM1024.548 392.103c2.649-.56 5.405-.295 8.025-1.027.613.286 1.839.86 2.444 1.154-.645.16-1.95.486-2.604.645-2.905.55-5.835.94-8.709 1.616-8.128 2.197-15.85 5.573-23.573 8.853.024-.438.08-1.306.111-1.744 5.828-4.769 13.32-6.607 20.405-8.638 1.297-.294 2.59-.582 3.9-.86ZM1171.797 394.61a4.17 4.17 0 0 1 .112-3.733l.175 1.711.7-.047a147.12 147.12 0 0 0 2.03 3.82c1.633 2.469 3.01 5.088 4.411 7.691a116.942 116.942 0 0 1 5.223 12.102c.278.78.549 1.568.836 2.356a185.195 185.195 0 0 1 1.624 5.549c.286 1.05.541 2.11.843 3.168.24 1.083.438 2.174.661 3.264a30.47 30.47 0 0 1 1.433 8.352l.693-.12c-.008 1.648-.008 3.296-.016 4.952l.844-.295c-.032 1.688-.048 3.376-.08 5.072l.796-.175c.223 4.792-.334 9.64.327 14.393-.518-.605-1.25-1.17-1.274-2.046l-1.162 1.473c.47-.62.915-1.258 1.337-1.918a82.537 82.537 0 0 0-.127-10.024 10.731 10.731 0 0 1-.772-4.386l-.534.151c-.12-3.01-1.13-5.891-1.098-8.908l-.733.294c-.008-.541-.008-1.632-.008-2.173a70.416 70.416 0 0 1-1.162-3.209 67.62 67.62 0 0 1-.565-3.526l-.598-.032-.127-2.023c-.366-.796-.716-1.6-1.05-2.396-.256-.804-.494-1.608-.725-2.404q-2.52-6.89-5.486-13.606c-2.03-4.514-4.482-8.829-6.528-13.327ZM1070.89 393.161c1.711 1.107 3.479 2.126 5.262 3.13q2.818 1.492 5.58 3.144c5.319 3.168 10.478 6.584 15.653 9.975 8.319 5.51 15.285 12.738 22.458 19.609 12.873 13.51 20.006 31.16 26.423 48.387.836 2.11 1.632 4.244 2.34 6.417.319.756.645 1.52.988 2.293.183.94.358 1.879.533 2.826l.669-.064c-.024.621-.088 1.863-.112 2.484l.868-.031a218.651 218.651 0 0 0-.072 3.256l.972-.168c-.12 1.131-.9 6.305-.892 1.585l-.597.015c-.493-2.444-1.393-4.768-2.094-7.14l-.35-.08c-.414-1.218-.844-2.412-1.258-3.614q-.872-1.971-1.672-3.965c-6.727-15.087-12.977-30.627-22.872-43.986-3.758-5.182-8.519-9.497-13.144-13.884-4.347-3.949-8.518-8.136-13.367-11.48-6.448-4.514-12.977-8.924-19.632-13.128a17.018 17.018 0 0 1-3.527-2.858c-.438-.08-1.305-.247-1.735-.326-.144-.796-.287-1.6-.422-2.397Z" style="fill:#102438"></path>
    <path d="M1110.353 397.405c1.25-.056 2.595-.08 3.296 1.178 9.856 9.776 20.42 19.37 26.83 31.892a99.389 99.389 0 0 1 6.663 15.867 317.08 317.08 0 0 1 1.592 5.541c.279 1.05.533 2.11.844 3.168.239 1.203.382 2.42.55 3.647l.533.016c.063.955.135 1.902.215 2.866a55.372 55.372 0 0 1 1.68 7.905 34.998 34.998 0 0 1 1.408 9.25l.765-.23c-.032 1.672-.048 3.336-.088 5.016l.9-.406a260.196 260.196 0 0 0-.152 4.323l.813-.08c.015 1.887.031 3.781.007 5.684l.805-.111c-.016 1.76-.016 3.519-.136 5.286a50.585 50.585 0 0 0-1.194-5.676 62.492 62.492 0 0 1-.16-4.721l-.803.39c.016-1.425.008-2.85.048-4.267l-.805.119c-.032-1.64-.063-3.28-.047-4.912l-.693.326c-.103-3.877-1.72-7.507-1.87-11.376l-.59.135c-.072-.98-.135-1.95-.2-2.914-.723-2.085-1.24-4.227-1.798-6.352-.295-1.163-.51-2.333-.7-3.503l-.55-.048-.16-2.014a61.981 61.981 0 0 1-1.01-2.413c-.247-.804-.478-1.6-.701-2.396a118.945 118.945 0 0 1-1.138-3.049 99.494 99.494 0 0 0-11.496-22.427c-5.868-7.865-12.738-14.91-19.21-22.259-.176-.35-.526-1.051-.71-1.393l-.89.254c.127-.342.381-1.035.5-1.385a51.545 51.545 0 0 1-2.348-.931ZM1143.257 398.249l.159 1.616 1.043-.303-.112.669c11.711 9.521 20.906 21.845 28.103 35.053.2.454.597 1.37.796 1.831l.717.175c-.064.358-.175 1.075-.239 1.433l1.059.151c-.072.375-.223 1.115-.295 1.481l1.115.056c-.08.382-.255 1.13-.334 1.513l1.082.103-.286 1.457.692.151c.717 1.807 1.48 3.607 2.07 5.47l.43.008c.342 1.36.74 2.706 1.067 4.084l.716-.2c-.04.645-.103 1.943-.143 2.588l1.186-.223-.605 1.7h1.099c-.016.636-.064 1.914-.088 2.551l.956-.318c-.04.652-.128 1.958-.168 2.611l1.179-.111c-.16.406-.47 1.226-.63 1.632l1.14.04c-.04.62-.112 1.87-.152 2.491l.963-.19c-.04.668-.127 1.997-.167 2.666l.995-.35c-.056.677-.16 2.038-.207 2.715l1.003-.319c-.055.685-.159 2.054-.215 2.739l1.02-.35-.223 2.73.995-.31c-.056.66-.16 1.99-.207 2.659l.724-.136c.31 1.903.78 3.774 1.107 5.677l.645-.008-.096 3.964c.486-.278 1.44-.827 1.919-1.098a4.402 4.402 0 0 0-1.075 4.323c-.072 0-.207.008-.279.008-.366-1.163-.724-2.293-1.178-3.408.223-2.253-.541-4.402-.932-6.584l-.684.271c.04-.653.111-1.95.151-2.595l-.653.031c-.589-3.287-2.03-6.329-2.826-9.56l-.669.079.16-2.54-.988.279.191-2.73-.652.43a80.751 80.751 0 0 0-1.067-2.955l.223-1.226-1.115.072c.048-.645.144-1.934.2-2.58l-1.227.263c.144-.437.438-1.313.59-1.751l-.924.064c-.358-1.37-.772-2.715-1.107-4.084l-.891.167c.119-.422.35-1.25.47-1.664l-.749-.08a60.328 60.328 0 0 0-3.256-7.014c-.653-1.281-1.322-2.555-1.966-3.829a154.586 154.586 0 0 0-27.283-36.382 21.048 21.048 0 0 1-2.31-2.882l-.716.064c.24-.765.494-1.53.749-2.285ZM1041.664 406.321c3.495-1.966 7.707-1.337 11.488-.74 7.11 1.377 14.442 3.288 20.198 7.913.08.342.247 1.02.326 1.354l-2.038.095c-4.29-2.953-9.394-4.315-14.418-5.413-4.896-.964-9.951-1.792-14.935-.932-.159-.573-.47-1.704-.62-2.277ZM1084.432 429.711a10.096 10.096 0 0 1 5.015 1.194c13.025 6.975 23.788 17.523 32.808 29.106 5.47 7.062 11.178 13.972 16.01 21.503a92.275 92.275 0 0 1 2.372 4.164l.63.183c-.009.263-.025.796-.032 1.059.915 1.306 1.75 2.675 2.571 4.06l.732 1.95.757-.04c-.08.407-.231 1.207-.31 1.605h1.17c-.096.406-.295 1.214-.39 1.612l.772-.095c1.242 2.69 2.834 5.246 3.638 8.12l.541-.27c.31 1.154.653 2.3.948 3.47l.939-.23-.573 1.791 1.33-.143c-.136.43-.407 1.29-.542 1.711l1.282-.072c-.128.422-.374 1.274-.502 1.696l.836-.103c.613 1.799 1.393 3.55 1.895 5.39-2.062-3.257-3.59-6.791-5.453-10.151-.375-.844-.733-1.688-1.091-2.524l-.828.072c.095-.406.287-1.206.374-1.612h-1.186c.087-.398.262-1.206.358-1.604l-1.202.063c.111-.414.334-1.234.446-1.648l-.788.184c-.542-1.1-1.099-2.19-1.648-3.273-.701-1.21-5.087-8.59-5.995-10.102-.541-.82-1.075-1.624-1.592-2.436-5.517-8.137-11.982-15.564-18.112-23.24-9.418-12.243-21.662-21.988-34.846-29.885-.088-.382-.255-1.13-.334-1.505Z" style="fill:#102438"></path>
    <path d="m1005.107 437.067.35-1.138c.096.382.279 1.146.366 1.52.39-.103 1.178-.318 1.576-.422q-.095 1.075-.167 2.15c-.708.294-1.4.597-2.093.9-1.123.398-2.238.804-3.344 1.194l.032.828c-.414-.112-1.25-.335-1.664-.446l.055 1.258c-.398-.12-1.194-.35-1.592-.47l-.047 1.146c-.295-.023-.884-.08-1.179-.103-.485.247-1.465.74-1.958.98l-.072.747c-.39-.087-1.162-.254-1.544-.334l-.064.725c-4.65 1.99-8.59 5.278-12.515 8.407q-1.17 1.158-2.333 2.34c-1.305 1.553-2.595 3.113-3.75 4.785-.294.23-.875.692-1.161.915-.032.43-.096 1.282-.12 1.712-.342.39-1.019 1.162-1.361 1.544.016-.294.055-.891.08-1.194q-1.123-.167-2.222-.334l1.529-.23c-.128-.43-.39-1.29-.526-1.72l.932.143c.167-.47.517-1.394.692-1.863a412.092 412.092 0 0 1 2.07-3.073c.637-.844 1.274-1.68 1.919-2.524a24.76 24.76 0 0 1 5.565-5.636c2.762-2.317 5.787-4.291 8.733-6.37.47-.167 1.401-.517 1.87-.692l-.047-.876c.406.112 1.218.335 1.624.454l-.047-1.25c.406.112 1.226.335 1.64.446l-.048-1.258c.406.12 1.226.343 1.632.462l.008-.852c1.202-.398 2.404-.812 3.606-1.234 1.178-.27 2.365-.462 3.575-.637Z" style="fill:#fbbb9e"></path>
    <path d="M826.22 550.967c8.494-1.512 15.5 5.008 20.762 10.796 8.16 10.174 13.932 22.132 18.016 34.472 2.882 8.55 3.877 17.538 4.897 26.455l-2.564.063a112.05 112.05 0 0 0-11.337-37.998c-5.54-10.867-12.754-21.4-23.254-27.992a12.503 12.503 0 0 0-6.505-1.894c-.31-.47-.923-1.41-1.234-1.871.303-.51.916-1.521 1.219-2.03Z" style="fill:#f95939"></path>
    <path d="M946.6 583.401a82.953 82.953 0 0 1 38.118-9.131c6.433-.032 12.714 1.76 19.155 1.704 7.881.04 15.452 2.356 23.087 4.036 7.038 1.568 13.518 4.856 20.054 7.802a74.215 74.215 0 0 1 20.054 13.048 94.613 94.613 0 0 1 .016-3.98c.621.342 1.25.692 1.88 1.05l.397-.023q1.206 2.101 2.404 4.235c1.56 2.086 3.336 4.251 3.328 7.022.31.613.645 1.21.995 1.823.024-.844.008-1.68-.04-2.508l-.35-.334c-1.019-1.808-1.154-3.901-1.72-5.86-.302-.947-.54-1.918-.78-2.866.415.04 1.242.112 1.664.151 4.904 5.629 5.462 13.702 3.24 20.588-8.032 1.998-16.129-.74-24.09-1.783-14.792-2.142-28.994-7.404-43.93-8.646a287.419 287.419 0 0 0-41.206-1.974c-8.24.668-16.504.398-24.752.254-7.435-.239-14.95-.461-22.195-2.277-1.091-.143-1.027-1.361-1.45-2.078 7.444-8.176 15.907-15.73 26.121-20.253ZM1164.624 606.226c4.732-3.726 10.844-4.888 16.631-5.875 15.174-1.696 30.54-.685 45.602 1.56 8.136.971 16.01 3.24 23.979 5.04 7.205 1.91 14.609 4.147 20.5 8.916a106.752 106.752 0 0 1 17.538 17.721c1.847 2.635 5.51 5.024 4.02 8.686a81.085 81.085 0 0 1-.47-1.48 15.549 15.549 0 0 1-7.586.469 287.677 287.677 0 0 0-34.958-4.84c-22.323-1.195-84.953-5.199-93.95-5.995a43.125 43.125 0 0 0-5.74.135c-.19-.016-.572-.04-.755-.048-.255-.366-.749-1.106-.996-1.472.51-2.819.59-5.693 1.282-8.471a47.094 47.094 0 0 1 6.194-13.797c1.027-.08 2.054-.159 3.113-.207-1.346 3.503-3.567 6.592-4.761 10.159a50.47 50.47 0 0 1 10.357-10.501Z" style="fill:#193857"></path>
    <path d="M991.47 622.005a7.678 7.678 0 0 1 8.613 3.129c3.845 6.098 1.696 15.34-4.713 18.836a8.404 8.404 0 0 1-9.832-1.027 11.958 11.958 0 0 1-.486-16.44c1.856-1.831 3.87-3.719 6.417-4.498Z" style="fill:#150f0c"></path>
    <path d="M1136.14 656.533c2.913-9.634 6.567-19.163 12.3-27.49.246.366.74 1.106.994 1.472.184.008.566.032.757.048a187.475 187.475 0 0 0-15.867 52.201c-.708 6.099-1.21 12.205-1.83 18.311-.256 5.875.015 11.767-.303 17.642a61.278 61.278 0 0 1-.661-2.19l-.677.009c-.063-10.66-.645-21.376.621-31.98a120.418 120.418 0 0 1 4.665-28.024Z" style="fill:#b95d38"></path>
    <path d="M1365.779 646.62c5.277-3.018 11.138-5.906 17.41-5.03.646.78 1.307 1.56 1.967 2.356-2.866 1.337-6.146 1.322-8.98 2.754-13.414 6.107-24.162 16.607-33.803 27.514-9.991 11.735-19.974 24.25-24.448 39.257-.462 0-1.386-.008-1.848-.008.056-5.724 2.62-11.01 5.12-16.026 7.284-13.78 17.33-25.874 27.895-37.25a76.131 76.131 0 0 1 16.687-13.566Z" style="fill:#f95939"></path>
    <path d="M1014.023 653.14c2.933-1.086 5.462-3.096 8.55-3.749-.047.757-.095 1.52-.135 2.285-9.02 6.552-20.357 8.94-31.35 8.622-9.873.215-21.17-.517-28.43-8.104.04-1.02.095-2.03.151-3.034 8.057 4.84 17.523 6.083 26.726 6.736 8.224.35 16.674.142 24.488-2.755Z" style="fill:#b95d38"></path>
    <path d="M1212.694 652.83c5.402-2.56 11.631 1.927 12.069 7.524.971 6.974-4.084 15.349-11.607 15.516-7.357-.31-11.767-9.506-8.2-15.715a19.712 19.712 0 0 1 7.738-7.324Z" style="fill:#150f0c"></path>
    <path d="M1240 663.896c.04-.485.112-1.456.152-1.934a6.132 6.132 0 0 1 1.48 3.622c-.39 0-1.17-.008-1.568-.016-3.869 4.73-7.507 10.008-12.929 13.073l-.023.724c-.414-.12-1.234-.366-1.648-.486l.063 1.067c-.82-.048-1.632-.095-2.428-.127.096-.358.287-1.09.382-1.449-.414-.12-1.234-.35-1.64-.462.566-.08 1.688-.247 2.253-.326-.024-.51-.072-1.537-.087-2.046.692-.422 1.393-.836 2.101-1.25a53.217 53.217 0 0 1 7.022-5.804c2.34-1.449 4.052-4.028 6.87-4.586Z" style="fill:#b95d38"></path>
    <path d="M915.862 683.935c7.816-9.275 19.043-16.408 31.447-16.806a48.499 48.499 0 0 1 38.182 14.831c5.867 6.943 10.691 15.39 11.185 24.656a45.094 45.094 0 0 1-12.428 35.34c-6.353 7.006-15.38 10.819-24.416 12.984-4.172 12.197-7.102 25.786-2.946 38.389a21.433 21.433 0 0 1 .478 3.575c-.74-.04-1.481-.072-2.206-.096-6.448-12.89-4.275-27.92-.326-41.207a54.892 54.892 0 0 1-23.724-3.296c-11.488-3.773-21.328-13.287-23.892-25.316-1.122-5.446-2.906-10.812-2.977-16.416.517-9.92 5.328-19.168 11.623-26.638Z" style="fill:#f95939"></path>
    <path d="M1195.553 684.763c12.476.82 25.428 2.157 37.497-1.967.223 2.803-2.475 4.037-4.673 4.793-6.416 2.094-13.231 2.237-19.91 2.547-4.57-.08-9.69-.246-13.2-3.59l.286-1.783ZM1096.07 690.534q1.04-.13 2.103-.238c-.04.43-.128 1.305-.168 1.735.438-.008 1.306-.04 1.744-.055-.59 2.698-.749 5.469-1.306 8.176a75.715 75.715 0 0 0-2.094 7.579l-.748.032c.064.597.183 1.79.239 2.396l-1.035-.024c.056.605.175 1.807.23 2.404l-1.05-.024c.064.59.191 1.76.247 2.349l-.709.072a75.798 75.798 0 0 1-4.601 10.914 4.074 4.074 0 0 1-2.078 2.142 50.978 50.978 0 0 0-.924 2.69c-.294.049-.9.16-1.202.208.032-.613.08-1.21.136-1.8 2.802-3.025 2.69-7.626 4.545-11.217l.096-1.99.923-.048c-.08-.613-.223-1.839-.302-2.452l.836.135a25.076 25.076 0 0 1 .565-3.638c.653-2.07 1.162-4.171 1.696-6.265.278-1.123.597-2.214.923-3.304.032-.924.08-1.84.136-2.747h.66a18.582 18.582 0 0 1 .677-4.402c.151-.884.303-1.76.462-2.628Z" style="fill:#b95d38"></path>
    <path d="M1189.288 710.525a41.861 41.861 0 0 1 25.523-8.455c11.528-.629 22.825 3.949 31.797 10.97a44.395 44.395 0 0 1 16.727 26.177c1.696 7.937-.645 15.986-3.782 23.239-5.11 11.225-12.411 22.235-23.565 28.19-7.276 4.3-16.01 5.294-24.297 4.49-2.213-.294-4.403-.62-6.624-.708.072 12.507-4.434 24.663-10.939 35.212-.86-.112-1.72-.223-2.563-.319.27-.135.796-.406 1.059-.541a92.147 92.147 0 0 1 1.616-3.328q.812-1.636 1.632-3.264a72.159 72.159 0 0 0 5.812-29.074c-10.804-3.527-21.702-9.338-27.434-19.592-5.892-10.692-8.097-23.677-5.231-35.61 3.129-11.226 11.086-20.484 20.27-27.387Z" style="fill:#f95939"></path>
    <path d="M1049.435 721.273c.493.071 1.464.207 1.95.27-1.847 3.997-4.65 8.049-4.148 12.65 1.919 3.806 5.931 5.916 9.641 7.675a152.458 152.458 0 0 1 21.177 12.3 33.74 33.74 0 0 0 11.782 4.793c6.656 1.385 13.073-1.553 19.497-2.803 6.353-1.576 13.208-2.085 18.94-5.469 5.127-4.793 6.337-12.372 6.48-19.067.398.016 1.194.056 1.592.08 1.465 3.67 1.043 7.714.82 11.567-.342 4.506-1.839 9.458-5.827 12.054-5.525 3.534-12.252 4.076-18.518 5.437-7.627 1.338-15.198 4.315-23.055 3.177a35.515 35.515 0 0 1-16.759-7.078 104.49 104.49 0 0 0-19.807-12.077 16.991 16.991 0 0 1-9.155-9.036c-.836-5.326 2.054-10.533 5.39-14.473ZM1078.835 770.568c.971 0 1.95.016 2.93.04-.096 3.988-2.373 7.396-3.758 11.026-1.067 2.412-1.696 5.008-2.93 7.348-.62.072-1.862.207-2.491.279a49.572 49.572 0 0 1 6.25-18.693ZM997.862 783.585a24.12 24.12 0 0 1 11.528-2.683c21.877.222 42.711 8.582 64.573 9.107 7.348 1.52 14.871 2.022 22.18 3.806 5.628 1.337 11.376 2.093 17.052 3.248 9.323 2.205 18.574 4.689 27.721 7.523 3.455 1.194 7.762 1.664 9.482 5.406-.358-.24-1.067-.725-1.425-.963-3.814-.478-7.508-1.824-11.393-1.585-6.392.263-12.73-.836-19.114-.788a189.531 189.531 0 0 1-31.033-2.866c-14.115-2.396-28.27-4.625-42.21-7.937-10.708-2.564-21.447-4.984-32.123-7.69-5.024-1.354-10.286-1.195-15.35-2.285.033-.773.072-1.537.112-2.293ZM901.373 838.668c3.455.828 5.708 3.757 8.072 6.178 8.033 9.203 17.276 17.236 26.304 25.436 7.34 6.99 13.582 15.054 21.32 21.638 7.507 6.305 14.298 13.399 22.045 19.417 7.937 7.229 16.32 13.94 24.902 20.389a150.976 150.976 0 0 0 16.99 10.811c12.586 7.452 26.725 11.79 40.896 15.11a84.948 84.948 0 0 0 11.161 1.545c5.358.366 10.612-1.051 15.946-1.186 4.077.119 7.571-2.27 11.265-3.639a120.524 120.524 0 0 0 18.104-9.067c4.912-3.057 10.11-5.621 14.943-8.821 7.818-4.84 15.03-10.605 22.92-15.333 7.985-4.841 15.342-10.605 22.706-16.329 11.48-8.36 22.601-17.196 34.041-25.603a52.412 52.412 0 0 0 5.725-4.904c.342-.056 1.035-.175 1.377-.231l-.16 1.624c-4.951 5.183-10.787 9.402-16.224 14.052-6.146 4.983-11.735 10.612-18.08 15.357-5.788 4.299-11.385 8.876-17.316 13-7.324 5.183-15.102 9.713-22.346 15.023a273.677 273.677 0 0 1-33.119 20.309 123.376 123.376 0 0 1-19.967 7.786c-4.1 1.433-8.518.024-12.666 1.146-8.653 2.365-17.737.605-26.208-1.68-23.23-5.07-44.423-17.148-62.567-32.274-5.548-4.235-10.779-8.853-15.994-13.478-7.563-5.915-14.417-12.643-21.535-19.06-10.858-9.577-20.15-20.706-30.459-30.84-7.133-8.233-14.768-16.01-21.973-24.179-.024-.55-.08-1.648-.103-2.197Z" style="fill:#b95d38"></path>
    <path d="M1034.85 876.706a88.181 88.181 0 0 1 34.209-.08c8.04 1.672 16.025 3.639 23.891 6.02.796.238 1.608.493 2.42.755a56.671 56.671 0 0 1 5.732 2.086c.661.327 1.338.653 2.022.98-.167.294-.501.875-.668 1.17-2.062-.764-4.148-1.417-6.242-2.062-2.141-.422-4.267-.94-6.377-1.497-11.806-2.38-23.676-5.071-35.785-5.11-7.364-.327-14.72.437-22.084.055.087-.335.246-1.02.334-1.361.844-.319 1.688-.637 2.548-.956Z" style="fill:#b95d38"></path>
    <path d="M1387.352 668.01c-.982-9.491-7.717-17.87-17.376-19.307-8.827-1.313-22.008.718-27.95 8.016-1.909 2.346 1.425 5.719 3.352 3.351 2.852-3.503 6.87-4.887 11.177-5.77 4.559-.934 9.584-1.739 14.181-.642 9.388 2.24 13.32 12.74 11.58 21.464-1.809 9.064-7.988 16.244-14.684 22.247a204.539 204.539 0 0 1-23.569 17.905c-2.53 1.679-.159 5.785 2.392 4.092 10.007-6.638 20.145-13.872 28.561-22.489 7.447-7.624 13.478-17.828 12.336-28.866ZM849.625 620.554a166.437 166.437 0 0 0-13.553-26.7c-4.777-7.583-10.374-14.768-18.384-19.114-2.681-1.454-5.076 2.636-2.392 4.093 8.152 4.422 13.456 12.028 18.151 19.795a161.4 161.4 0 0 1 12.63 25.79 165.755 165.755 0 0 1 10.872 55.365c.072 3.045 4.812 3.056 4.74 0a169.702 169.702 0 0 0-12.064-59.229Z" style="fill:#cc492f"></path>
  </g>
</svg>
