<svg xmlns="http://www.w3.org/2000/svg" viewBox="0 0 2121 1887.494" id="man">
  <g id="art">
    <path d="M1886.963 1673.446a47.471 47.471 0 0 0 1.366-9.5c1.552-36.585-4.072-72.476-15.563-106.797a354.25 354.25 0 0 0-10.978-68.22 40.073 40.073 0 0 0-2.039-5.862c-3.145-16.212-6.745-32.332-10.962-48.3-5.076-19.511-7.328-39.996-16.134-58.343-3.416-8.472-8.978-15.743-13.73-23.461-4.847-7.48-9.496-15.103-15.094-22.069-10.479-13.038-22.774-24.396-35.53-35.11a117.832 117.832 0 0 0-22.393-13.654c-18.46-8.948-37.181-17.326-56.215-24.978-19.13-7.671-37.392-17.222-56.025-25.97-19.33-9.656-39.576-17.222-59.383-25.79-20.075-9.207-40.054-18.605-59.555-28.967-9.265-5.676-19.441-9.661-28.919-14.931-6.297-3.501-12.193-7.69-18.5-11.154-5.038-2.986-10.571-5.4-16.487-5.753-11.459-.324-22.897.454-34.338.84-25.757.868-51.54.696-77.31 1.002-20.065.019-40.115.237-60.176.84-19.046.57-38.087 1.335-57.122 2.089-41.55 1.841-83.168 4.608-124.261 11.277-22.593 3.74-44.948 8.75-67.198 14.14-19.32 4.57-38.602 9.436-58.247 12.413-4.904.763-9.713 2.204-14.703 2.251.496-.305 1.488-.906 1.984-1.211-.257-1.632.23-3.883-1.784-4.475-7.26-2.7-15.427-1.25-22.364 1.775-15.895 6.45-29.29 17.479-42.495 28.165-14.245 11.44-27.192 24.377-40.95 36.37-7.624 6.66-16.382 12.03-23.07 19.721-5.43 5.133-11.621 9.37-17.394 14.092-16.687 13.654-34.366 26.018-51.454 39.137-27.373 21.725-55.08 43.335-78.732 69.201-4.538 5.084-9.062 10.217-13.387 15.504a215.83 215.83 0 0 0-10.996 9.785 160.89 160.89 0 0 0-36.276 52.024c-3.391 7.79-6.495 15.684-9.44 23.637-19.629 39.107-33.514 81.278-45.346 123.174-4.916 17.409-9.495 34.91-14.053 52.415a28.791 28.791 0 0 0-.804 4.693Z" style="fill:#dfaf33"></path>
    <path d="M1142.19 196.928a9.888 9.888 0 0 1 4.58-2.032c.592 1.125 1.994 1.965 1.85 3.406-.095 4.408-2.28 8.415-3.95 12.394 6.555-4.542 12.91-9.37 19.455-13.92 1.689-1.422 3.854-.153 5.753.133 1.269 5.2-3.13 9.37-4.599 14.044 7.347-4.446 13.71-10.58 21.649-14.063 1.545-.802 4.16-1.098 4.751 1.05 1.842 3.415.63 7.24-.315 10.723 4.876.182 7.93-4.15 12.222-5.705 2.319-1.212 6.307-1.546 7.462 1.402.372 1.536-.268 3.073-.554 4.56 20.18 2.377 39.242 9.971 57.532 18.501 16.144 7.451 29.72 19.177 43.374 30.33 4.827 4.39 10.246 8.073 14.96 12.585 15.6 14.226 33.26 25.895 49.556 39.262 6.755 5.944 13.186 12.26 20.103 18.032 7.232 6.46 13.958 13.644 18.872 22.069a199.645 199.645 0 0 1 18.528 42.533c3.845 11.783 7.395 23.738 8.998 36.065 1.67 12.69 4.321 25.274 4.58 38.107-.01 12.088.076 24.186-.106 36.275-1.04 21.047-2.251 42.161-6.144 62.913-1.269 7.432-3.74 14.588-5.095 22.001-.973 5.487-4.064 10.534-3.635 16.258-.792 9.599-1.05 19.273-3.263 28.69-3.187 19.95-3.76 40.32-8.72 59.975-2.825 12.852-5.725 26.486-14.703 36.628-6.135 6.63-12.795 13.014-20.79 17.364-10.009 5.801-20.905 9.76-31.543 14.197a486.878 486.878 0 0 1-56.034 20.237c-14.722 4.217-29.558 8.005-44.318 12.05-13.643 3.587-27.506 6.192-41.236 9.417a281.558 281.558 0 0 1-31.447 5.63c-22.221 2.089-44.623 1.459-66.854.028-13.166-1.021-26.142-3.483-39.147-5.563-18.461-2.604-36.866-6.134-54.498-12.298-9.417-3.721-19.253-8.472-24.778-17.374-8.558-13.424-13.987-28.623-17.822-44.003a197.48 197.48 0 0 1-5.296-34.386c-1.593-13.625-.476-27.373-.992-41.045.067-12.738-.324-25.456-.734-38.174-1.794-18.07-12.957-33.136-18.376-50.1-4.723-14.521-9.122-29.214-11.526-44.318-1.317-10.542-3.55-20.961-4.436-31.561a185.869 185.869 0 0 1 1.536-32.735c1.421-12.079 2.967-24.225 6.392-35.931 4.484-16.65 11.201-32.593 18.204-48.307 4.561-10.457 8.93-21.066 15.018-30.74a392.78 392.78 0 0 1 26.705-37.258c12.919-15.504 28.814-28.165 45.139-39.891 15.141-10.877 29.748-22.469 44.985-33.203a143.732 143.732 0 0 1 24.626-13.539c3.11-.562 5-3.215 7.184-5.238 5.534-5.266 11.039-10.57 16.897-15.475Z" style="fill:#38312d"></path>
    <path d="M1321.36 318.757c5.844-2.302 11.64-5.992 18.176-5.458 4.513.2 7.776 3.654 11.182 6.193 11.802 11.057 24.673 21.744 32.335 36.294 5.047 8.634 11.277 16.677 14.845 26.113 6.46 16.22 13.32 32.688 14.836 50.272.926 8.606 1.937 17.202 3.426 25.732 2.156 11.974 2.986 24.12 4.245 36.198a260.509 260.509 0 0 1-1.46 44.566c-3.12 17.06-6.726 34.033-11.248 50.787-1.86 7.394-3.778 14.78-5.076 22.297-1.727 10.362-3.979 20.685-4.246 31.228-.849 7.26-.4 14.607-1.584 21.83-.228-1.345-.448-2.672-.686-3.988-3.655 20.35-7.576 40.74-8.855 61.425-.42 8.224.153 16.458.353 24.682.24 8.034 1.909 15.924 2.901 23.872.592 2.585.334 6.459 3.616 7.232l.467.22a79.917 79.917 0 0 0-3.291.476c1.421 11.774-.344 23.576-2.29 35.178-5.839-4.227-12.813-6.326-19.082-9.76-6.955-3.826-14.664-5.897-22.01-8.807-11.622-4.255-23.186-8.854-35.34-11.382-8.693-1.823-17.251-4.332-26.01-5.753-7.804-.41-15.628-.688-23.327-2.023-13.749-1.336-27.593-2.843-41.39-1.45-5.857.639-11.744 1.078-17.545 2.156-12.47 2.29-25.15 3.053-37.792 3.587a275.754 275.754 0 0 0-28.823 3.683c-26.381 6.831-52.37 18.185-72.083 37.458-4.532 5.01-8.863 10.209-13.977 14.636-8.043 7.566-14.98 16.172-22.106 24.577a66.5 66.5 0 0 0-4.208 6.631c-1.45-3.52-4.007-6.373-6.135-9.455-2.128-3.034-4.055-6.192-6.192-9.197-.067.82-.181 2.47-.239 3.292-1.831-6.613-2.26-13.52-3.94-20.17-2.099-8.062-2.824-16.373-4.179-24.578l.143-.286c1.279-1.994 1.336-4.398 1.26-6.688-.43-10.82-.487-21.677-1.937-32.43-1.412-11.592.896-23.442-1.508-34.892.792-10.628 2.805-21.238 2.872-31.943.267-8.911-1.126-17.737-1.899-26.59-.906-11.268-3.282-22.326-4.932-33.49-3.025-19.034-9.284-37.295-14.808-55.7-3.139-11.458-4.723-23.26-6.421-34.996-2.557-23.042-7.88-45.663-10.495-68.695-1.47-9.76-1.784-19.645-2.49-29.472a108.065 108.065 0 0 1 6-38.899c5.43-13.53 14.952-24.826 24.083-35.998 5.781-6.975 12.508-13.31 20.704-17.355a80.542 80.542 0 0 1 20.274-14.006c7.394-3.989 15.313-9.341 24.12-7.9 6.268 2.032 12.823 2.805 19.187 4.484 8.062 2.156 16.467 2.71 24.787 2.9 7.957.382 14.98-4.598 22.946-4.198 5.973-.572 10.18 5.229 16.115 4.8 3.52.095 6.898-1.24 10.428-1.289 4.465.182 7.528 4.18 11.85 4.952 4.37.773 8.711-.63 13.09-.801 4.857-.315 9.503 1.593 14.35 1.765a89.808 89.808 0 0 0 16.048-1.326c3.95-.783 7.518 2.09 11.478 1.421 3.873-.648 7.461-2.69 11.497-2.5 5.858.124 11.525-1.488 17.116-3.081a11.269 11.269 0 0 0 3.95-2.395c13.548 1.422 24.406-8.09 36.514-12.289 5.667-1.278 11.105-3.416 16.83-4.55 5.686-1.174 10.24-5.044 15.58-7.147Z" style="fill:#f2844f"></path>
    <path d="M1462.577 570.773c12.814-2.853 25.913-6.526 39.156-4.59 8.901 1.976 17.632 6.908 22.23 15.047 5.257 8.835 6.078 19.31 7.232 29.29 1.231 14.093-4.026 27.479-8.157 40.674-4.065 10.991-9.913 21.21-15.123 31.676-12.393 24.682-30.292 46.255-50.643 64.783-10.629 10.324-23.604 17.842-36.895 24.206-8.034 4.312-17.289 5.638-26.257 6.173-3.282-.773-3.024-4.647-3.616-7.232-.992-7.948-2.662-15.838-2.9-23.872-.2-8.224-.773-16.458-.354-24.682 1.28-20.685 5.2-41.074 8.855-61.425.238 1.316.458 2.643.686 3.988 0 3.063-.104 6.135.153 9.197 6.564-29.338 18.186-57.245 25.56-86.355.487-2.986 3.674-4.16 6.173-5.076 5.181-1.689 10.152-4.007 15.485-5.267 6.364-1.536 12.008-5.109 18.415-6.535ZM878.363 589.454c6.219-4.933 13.891-8.453 21.963-8.73 9.799-.477 19.635 1.526 28.842 4.818 5.572 2.662 11.755 3.73 17.317 6.43 9.303 4.6 18.949 8.454 28.385 12.767 2.662 5.61 2.309 12.021 3.93 17.937 7.738 29.147 11.402 59.125 15.781 88.903 1.842 11.01 3.054 22.202 6.498 32.869.716-3.77 1.068-7.595 1.507-11.392 2.404 11.449.096 23.299 1.508 34.891 1.45 10.753 1.507 21.61 1.936 32.43.077 2.29.02 4.694-1.259 6.688-.858-3.845-1.212-7.766-1.889-11.64-16.992-3.368-32.735-10.972-47.743-19.397a211.14 211.14 0 0 1-23.9-16.048 128.371 128.371 0 0 1-20.227-17.03c-6.64-6.536-11.764-14.37-17.642-21.554a150.744 150.744 0 0 1-13.3-19.12c-6.764-11.678-13.366-23.528-18.137-36.189a61.41 61.41 0 0 1-3.998-18.433c-1.22-11.62-.83-23.728 3.979-34.557 3.32-9.121 8.828-17.598 16.449-23.643Z" style="fill:#f95939"></path>
    <path d="M1204.302 776.887c5.802-1.072 11.688-1.517 17.546-2.156 13.796-1.393 27.64.114 41.389 1.45 7.7 1.335 15.523 1.612 23.328 2.023 8.758 1.421 17.316 3.93 26.008 5.753 12.155 2.528 23.72 7.127 35.34 11.382 7.347 2.91 15.056 4.98 22.011 8.806 6.269 3.435 13.243 5.534 19.082 9.761-3.282 17.164-6.755 34.567-14.264 50.472-2.28 4.322-4.732 8.558-6.611 13.071-.354-.372-1.06-1.116-1.403-1.498-5.39 6.516-11.898 12.098-16.477 19.263-3.483 5.982-8.501 10.82-12.356 16.535-5.076 5.228-8.74 11.544-13.414 17.097-3.502 4.475-7.156 8.835-10.295 13.577-7.156 10.2-14.904 19.96-22.66 29.71a126.355 126.355 0 0 1-14.255 15.2c-4.98 5.371-11.41 8.987-16.916 13.748-6.621 3.988-13.214 8.177-20.427 11.03-4.828 2.032-10.161 1.679-15.256 1.736-6.84-.02-13.74.181-20.475-1.174-10.762-1.383-21.734-3.415-31.323-8.74-5.591-2.957-11.497-5.38-16.64-9.092-9.044-6.907-18.251-13.586-27.115-20.713-6.173-4.895-11.096-11.115-17.164-16.124-4.923-4.647-10.429-8.626-15.123-13.501-6.22-5.591-11.554-12.06-17.784-17.622-9.036-8.501-16.449-18.452-25.064-27.335-4.885-5.305-10.543-9.904-14.684-15.838-3.607-4.35-7.032-8.93-11.459-12.46a8.372 8.372 0 0 1-2.528-3.789 66.5 66.5 0 0 1 4.208-6.63c7.127-8.406 14.063-17.012 22.106-24.578 5.114-4.427 9.445-9.627 13.977-14.636 19.712-19.273 45.702-30.627 72.083-37.458a275.754 275.754 0 0 1 28.823-3.683c12.642-.534 25.324-1.284 37.792-3.587Z" style="fill:#ca7852"></path>
    <path d="M1012.986 848.807c2.137 3.005 4.064 6.163 6.192 9.197 2.128 3.082 4.685 5.935 6.135 9.455a8.372 8.372 0 0 0 2.528 3.788c4.427 3.53 7.852 8.11 11.46 12.46 4.14 5.935 9.798 10.534 14.683 15.839 8.615 8.883 16.029 18.834 25.064 27.335 6.23 5.562 11.564 12.031 17.784 17.622 4.694 4.875 10.2 8.854 15.123 13.5 6.068 5.01 10.99 11.23 17.164 16.125 8.864 7.127 18.07 13.806 27.115 20.713 5.143 3.712 11.049 6.135 16.64 9.093 9.589 5.324 20.56 7.356 31.323 8.74 6.736 1.354 13.634 1.154 20.475 1.173 5.095-.057 10.428.296 15.256-1.737 7.213-2.852 13.806-7.04 20.427-11.029 5.506-4.76 11.936-8.377 16.916-13.749a126.355 126.355 0 0 0 14.255-15.198c7.756-9.751 15.504-19.512 22.66-29.71 3.139-4.743 6.793-9.103 10.295-13.578 4.675-5.553 8.338-11.869 13.414-17.097 3.855-5.715 8.873-10.553 12.356-16.535 4.58-7.165 11.086-12.747 16.477-19.263.343.382 1.05 1.126 1.403 1.498a179.99 179.99 0 0 0 .152 27.688c-4.246 6.211-8.005 12.728-12.25 18.939-5.677 8.205-10 17.23-15.333 25.646-7.299 11.087-14.397 22.355-22.545 32.85a387.071 387.071 0 0 1-26.133 33.002 153.761 153.761 0 0 1-14.836 15.695c-6.689 7.022-14.216 13.128-21.553 19.425-11.946 9.427-25.036 17.27-38.288 24.673-22.632 12.327-45.654 24.435-70.527 31.6-13.024 4.122-26.019 8.52-39.443 11.182-6.64 1.384-13.233 3.244-20.036 3.473-11.802.391-23.69-.095-35.273-2.49-8.062-1.927-14.474-7.547-20.141-13.29a70.714 70.714 0 0 1-13.91-15.81c-2.95-4.36-5.935-8.816-7.462-13.901 2.624-9.77 4.856-19.636 6.994-29.52 2.509-11.116 5.209-22.202 7.136-33.432 3.292-18.576 2.634-37.515 2.128-56.273-2.404-22.85-3.654-45.854-7.518-68.523-2.624-12.012-4.847-24.11-6.546-36.284.058-.821.172-2.472.24-3.292Z" style="fill:#e56324"></path>
    <path d="M1368.283 905.137c2.09 16.563 3.588 33.212 6.125 49.728 2.71 21.448 6.736 42.705 10.39 64.01 1.604 7.585 2.443 15.313 4.456 22.822 1.918 8.243 5.238 16.058 8.043 24.024a182.269 182.269 0 0 0 23.366 43.412c5.267 7.976 12.213 14.597 18.29 21.935 6.574 8.043 15.151 14.063 22.727 21.095 1.87 1.956 3.186 4.532 5.782 5.724 1.259 5.868-2.414 11.049-4.752 16.115a205.661 205.661 0 0 1-20.007 28.509c-7.986 10.313-16.82 20.17-27.402 27.878-8.062 6.297-16.697 11.831-24.558 18.395-11.622 8.893-23.347 17.756-36.285 24.692-9.474 5.84-19.883 9.875-30.226 13.873-13.987 5.553-28.556 9.408-43.173 12.861-27.669 6.24-55.414 13.892-83.99 13.797-8.233 1.135-16.562.973-24.834 1.507-8.616.363-17.212 1.422-25.818.83-10.848-.735-21.601-2.328-32.354-3.769-10.018-1.164-19.816-3.568-29.596-5.915a300.162 300.162 0 0 1-46.674-14.998c-17.89-6.85-34.796-16.039-50.835-26.448-5.305-3.282-10.476-6.755-15.828-9.932-9.226-5.773-16.945-13.53-24.52-21.248-4.704-4.837-10.085-9.198-13.396-15.19-2.462-4.588-5.076-9.15-6.755-14.091a3.992 3.992 0 0 1-1.727-6.898c5.906-5.563 11.84-11.116 17.221-17.193 5.2-5.916 11.354-10.925 16.21-17.146 10.123-11.258 20.094-22.736 28.538-35.34 11.554-15.427 18.948-33.517 23.852-52.045 1.527 5.085 4.513 9.54 7.461 13.9a70.714 70.714 0 0 0 13.91 15.81c5.668 5.744 12.08 11.364 20.142 13.29 11.583 2.396 23.47 2.882 35.273 2.491 6.803-.229 13.396-2.09 20.036-3.473 13.424-2.662 26.419-7.06 39.443-11.182 24.873-7.165 47.895-19.273 70.527-31.6 13.252-7.404 26.342-15.246 38.288-24.673 7.337-6.297 14.864-12.403 21.553-19.425a153.761 153.761 0 0 0 14.836-15.695 387.071 387.071 0 0 0 26.133-33.002c8.148-10.495 15.246-21.763 22.545-32.85 5.333-8.415 9.656-17.441 15.333-25.646 4.245-6.211 8.004-12.728 12.25-18.94ZM1266.776 821.195c4.094-.19 8.997-3.167 12.137.907-.315 1.736-.086 3.854-1.603 5.104-4.18 3.788-8.377 7.556-12.661 11.21-6.145 6.431-14.111 10.706-22.164 14.226a80.776 80.776 0 0 1-19.349 7.356c-12.661 3.054-25.522 5.572-38.546 6.374-14.54.849-28.947-2.834-42.333-8.234a51.017 51.017 0 0 0-20.599-6.307 11.17 11.17 0 0 1-6.67-3.015c1.604-2.213 4.409-3.034 6.117-5.161 2.432-2.853 6.325-3.569 9.75-4.58a164.55 164.55 0 0 1 40.511-4.76c4.666.104 8.854-2.205 13.205-3.579 5-1.984 10.467-2.013 15.676-3.167 11.45-1.641 22.975-2.748 34.405-4.59 5.104-.677 10.323.353 15.39-.849 5.505-1.173 11.153-.676 16.734-.935Z" style="fill:#f2844f"></path>
    <path d="M1202.861 470.42c.563.058 1.69.182 2.252.249 5.973 16.258 6.67 33.698 8.52 50.739.477 5.906 1.65 11.773 1.288 17.717-2.51-1.068-2.452-4.045-3.015-6.297-2.395-14.092-3.855-28.327-6.288-42.419-.887-6.67-3.081-13.195-2.757-19.988ZM1178.455 475.706a4.256 4.256 0 0 1 1.861 2.576c2.3 9.637 4.952 19.254 5.42 29.215.877 14.092 1.364 28.346 5.151 42.057-.648.171-1.278.362-1.88.553-4.846-15.37-6.458-31.514-7.756-47.514-.62-8.997-3.769-17.785-2.796-26.887Z" style="fill:#b95d38"></path>
    <path d="M1074.287 522.104c8.253-3.778 17.479-4.303 26.41-4.694 8.3.22 17.144 1.269 24.253 5.925 1.736.735 1.02 2.662.82 4.084-4.332-1.584-8.558-3.635-13.176-4.198-10.39-1.413-20.885.18-31.085 2.146a24.762 24.762 0 0 1-7.365.143q.042-1.717.143-3.406Z" style="fill:#fcb692"></path>
    <path d="M1240.663 547.264c18.76-11.27 41.026-13.186 62.245-14.827 11.125-1.45 22.316.305 33.47-.582 17.136.257 34.872.964 50.863 7.747a116.925 116.925 0 0 1 10.944 8.93c-1.079.726-1.851 2.128-3.216 2.224-7.127.591-14.283.162-21.4.715-12.556.487-25.36 0-37.592 3.31a263.116 263.116 0 0 0-31.199 9.876c-18.414 7.71-36.637 16.172-55.987 21.315-6.401 1.917-13.614.515-19.377 4.398-1.508-.038-2.996-.124-4.456-.2-.658-3.55-1.126-7.127-1.526-10.705 1.154-6.164 1.106-12.833 4.37-18.376 3.596-5.172 7.323-10.499 12.86-13.825Zm-191.517 2.06c-9.497 2.525-19.33 4.953-27.363 10.916q-11.206 8.328-22.174 16.963c-2.26 1.126-2.528 5.105-.057 6.107 7.7 1.03 15.285-1.183 22.956-1.565 12.441-.82 24.93-2.7 37.4-1.317 7.471.372 14.942.706 22.412 1.145 5 .315 9.742 2.09 14.636 3.092 9.827 1.984 19.54 4.58 29.5 5.867a199.397 199.397 0 0 0 41.046.659c4.628-.373 9.217.582 13.835.954 0 0 1.107-1.994 1.326-2.386-1.488-1.67-3.673-1.67-5.677-1.946a99.101 99.101 0 0 1 4.332-.859c.324-7.184-1.536-14.168-3.683-20.942-.792-2.347-1.832-4.761-4.045-6.087-.249 2.948.715 5.753 1.555 8.539-7.147-6.688-16.392-10.323-25.446-13.596-9.78-2.996-19.979-4.198-29.93-6.421-23.357-3.33-47.599-5.241-70.623.878Zm174.725 5.907c-3.54 5.657-4.866 12.45-5.086 19.034.134 6.04.23 12.374 3.216 17.813 2.509-.334 5.314.019 7.413-1.708-1.508-.038-2.996-.124-4.456-.2-.658-3.55-1.126-7.127-1.526-10.705a17.386 17.386 0 0 1-.783-4.265c.64-7.538 3.502-14.598 5.172-21.906-1.45.343-3.273.362-3.95 1.937Zm-11.097 14.616c-.877 7.576-.467 15.533 2.557 22.632 1.842-.659 1.279-2.71 1.174-4.199a63.329 63.329 0 0 1 .038-17.46c.343-2.995 1.06-5.972.735-8.987-3.53.963-3.864 5.009-4.504 8.014Zm-30.817-2.433a96.179 96.179 0 0 1 1.946 17.422 9.106 9.106 0 0 1-1.24 4.923c-.22.392-.649 1.164-.868 1.556 1.135-.124 2.29-.239 3.473-.344 1.717-6.707 1.45-13.749 1.603-20.618.21-3.225-1.937-5.667-4.256-7.547a5.576 5.576 0 0 0-.658 4.608Zm7.824 2.796c.01 7.661.925 15.323-.086 22.975.477-.134 1.43-.41 1.908-.544a63.072 63.072 0 0 0 1.44-12.68c-.047-3.445-.305-7.47-3.262-9.751Zm17.107 1.593a21.811 21.811 0 0 0-.44 10.314c.83 3.702 1.336 8.053 4.647 10.457-1.26-6.927-2.414-13.882-1.975-20.952-.553.048-1.67.134-2.232.181Zm-11.536 3.559c-.076 5.562.487 11.134.258 16.706.496.02 1.498.067 2.004.086.982-5.476 1.43-11.134.286-16.61-.63-.048-1.908-.144-2.548-.182Z" style="fill:#38312d"></path>
    <path d="M1323.269 589.979a7.445 7.445 0 0 1 7.394 4.293c3.187 5.801 2.29 12.766.706 18.92a11.186 11.186 0 0 1-5.162 7.213c-2.614.725-5.638.315-7.48-1.803-5.333-5.897-5.8-14.903-3.024-22.078a9.444 9.444 0 0 1 7.566-6.545Z" style="fill:#160e0b"></path>
    <path d="M888.715 601.838a5.705 5.705 0 0 1 5.104-4.341c8.92-1.03 17.593 2.223 25.885 5.114 6.326 2.519 13.1 5.648 16.945 11.564-.516.229-1.537.696-2.052.935-4.446-2.567-8.615-5.725-13.567-7.251-8.873-2.891-18.1-5.019-27.45-5.248a24.294 24.294 0 0 1-4.865-.773Z" style="fill:#fdb694"></path>
    <path d="M1076.224 599.358a6.92 6.92 0 0 1 8.434 2.385c2.49 3.32 3.397 7.518 3.826 11.583.229 4.15.19 8.74-2.233 12.307-2.404 3.53-8.024 3.683-10.848.62-5.038-5.342-7.012-13.547-4.274-20.474.954-2.576 2.414-5.315 5.095-6.421Z" style="fill:#160e0b"></path>
    <path d="M1313.432 627.713a81.301 81.301 0 0 0 31.428-3.673c-.086.573-.239 1.727-.325 2.309-6.917 3.73-14.798 4.904-22.478 5.887-5.753.62-12.012 1.23-17.308-1.556a20.745 20.745 0 0 1-.725-2.871c3.063-.992 6.27-.334 9.408-.096Z" style="fill:#bf6948"></path>
    <path d="M1064.545 635.432a8.072 8.072 0 0 1 5.992.43 47.311 47.311 0 0 0 29.176 1.278 10.399 10.399 0 0 1 3.96-.181c-1.603 4.723-7.366 5.056-11.487 6.106-8.492 1.068-18.052 1.689-25.484-3.33-1.67-.84-1.909-2.672-2.157-4.303Z" style="fill:#bb613e"></path>
    <path d="M1054.91 653.579c8.643.353 17.087 2.643 25.75 2.986 6.192.611 12.356-.286 18.52-.83l.381 2.395c-7.327 3.635-15.733 3.053-23.662 3.082-6.583-.306-13.424-.162-19.664-2.519-2.137-.85-1.975-3.34-1.326-5.114Z" style="fill:#fdb693"></path>
    <path d="M1324.337 655.974a44.407 44.407 0 0 1 41.427 16.735c7.9 9.703 9.637 23.013 7.814 35.072-1.335 7.528-2.366 15.228-5.343 22.336-3.196 7.432-7.08 14.798-13.128 20.322-11.392 11.354-29.482 15.972-44.614 9.942-14.216-4.456-26.524-15.266-31.762-29.33-2.404-5.915-2.624-12.45-1.87-18.709.687-5.505 3.35-10.505 4.189-15.962 1.87-13.233 11.525-23.872 22.125-31.237 6.44-4.237 13.435-7.962 21.162-9.17Z" style="fill:#f95939"></path>
    <path d="M1229.903 675.361c.449-.305 1.355-.916 1.813-1.221 2.891 3.272 3.835 7.652 5.839 11.44 3.072 6.621 7.852 12.336 10.333 19.253 3.034 8.577 7.127 16.935 7.976 26.123.496 6.088.802 13.014-3.12 18.138-1.708 2.013-3.845 4.331-6.688 4.284a2.272 2.272 0 0 1-1.488-3.378c2.003-2.624 5.295-4.58 5.762-8.12 1.67-8.49-.858-17.116-4.14-24.892-2.863-6.411-5.057-13.109-8.377-19.31a78.73 78.73 0 0 1-7.91-22.317Z" style="fill:#ba5f3b"></path>
    <path d="M1065.738 677.727a39.634 39.634 0 0 1 25.398 4.36c11.316 6.555 19.273 17.985 23.051 30.36 5.286 18.681 2.166 39.881-9.684 55.48-6.707 8.616-16.868 13.864-27.268 16.602a30.379 30.379 0 0 1-18.1-.868c-12.612-3.673-24.653-11.821-30.263-24.024-8.053-17.126-7.786-37.983 1.145-54.718 6.907-13.815 20.426-24.548 35.721-27.192Z" style="fill:#f95939"></path>
    <path d="M1153.076 689.587c.51-2.922.916-5.906 2.214-8.606 2.232 9.264.095 18.939-3.31 27.64-2.596 7.156-5.725 14.111-8.397 21.229-2.9 8.768-5 19.091.21 27.44 2.319 4.589 7.528 6.335 12.28 7.108 3.377.84 6.23-2.052 9.617-1.689a75.73 75.73 0 0 0-3.788 1.708c1.126.887 2.261 1.793 3.463 2.643-6.66-.134-13.91 2.881-20.065-.811-6.64-4.265-9.435-12.623-9.206-20.218-.42-9.36 2.623-18.414 6.544-26.781 4.103-9.637 8.622-19.263 10.438-29.663Z" style="fill:#b95d38"></path>
    <path d="M1193.664 692.039c1.03-.067 2.09-.134 3.158-.2a32.887 32.887 0 0 1 2.022 12.136c.03 11.745-.257 23.5-.963 35.225-.553-.134-1.68-.4-2.233-.534-1.86-6.946-1.087-14.207-1.803-21.286-.048-8.444-1.173-16.926-.181-25.341Z" style="fill:#feb797"></path>
    <path d="M1359.42 691.142c2.604 5.639 1.993 12.174.152 17.946a100.713 100.713 0 0 1-.152-17.946Z" style="fill:#fb9980"></path>
    <path d="M1084.794 688.13a24.41 24.41 0 0 1 11.375 13.778c-5.932-2.497-9.273-8.015-11.375-13.778Z" style="fill:#ff8066"></path>
    <path d="M1482.746 598.518c5.544-3.52 11.22-8.682 18.29-7.747.01.572.02 1.727.02 2.3-11.555 7.145-22.546 15.35-31.8 25.36-11.22 11.868-20.027 25.836-27.24 40.443-9.465 20.447-18.605 41.427-22.279 63.801-.963 0-1.898.01-2.814.029-.506-7.376 1.47-14.588 3.31-21.649 4.676-16.659 11.211-32.716 18.444-48.41 9.903-21.306 24.93-40.379 44.07-54.127Zm-584.939 28.25c-.01.66-.038 1.985-.057 2.644 5.514 3.1 11.774 4.856 16.782 8.863 10.524 8.158 17.709 19.655 24.454 30.932 11.182 18.462 19.988 38.212 28.404 58.048.133-2.061.39-4.103.553-6.145-.63-3.93-2.529-7.499-3.921-11.191-7.566-17.966-15.648-35.808-25.608-52.59-7.528-11.783-16.83-23.69-30.303-28.852-3.282-1.116-6.802-2.958-10.304-1.708Zm70.136 94.342c-.162 2.042-.42 4.084-.553 6.145-.477 2.09 1.288 3.444 2.67 4.675 1.413-3.721-.142-7.643-2.117-10.82Z" style="fill:#cc492f"></path>
    <path d="M1225.14 757.872c5.397-3.469 11.134-7.022 17.688-7.585.926.696 1.823 1.45 2.72 2.251-.306.63-.907 1.899-1.202 2.529a46.618 46.618 0 0 0-14.016 7.031c-6.87 5.038-15.17 7.585-23.48 8.969-11.87 2.051-23.958.2-35.655-2.052-2.004-.476-4.113-.81-5.83-1.955-1.202-.85-2.337-1.756-3.463-2.643a75.73 75.73 0 0 1 3.788-1.708c11.754 2.328 23.795 3.883 35.788 2.93 8.234-1.194 16.573-3.212 23.662-7.767Z" style="fill:#b85c37"></path>
    <path d="M1254.316 818.543c7.661-.859 15.4-3.206 23.127-1.365.458.773.945 1.556 1.45 2.357-1.927.506-3.835 1.021-5.734 1.527a181.571 181.571 0 0 1-30.216 5.343c-16.449 2.032-33.336-.544-49.518 3.759-10.361 2.872-20.799 5.896-31.619 6.325-7.518.735-15.18-.42-22.583 1.384-7.862 1.813-14.846 6.02-22.011 9.54a19.534 19.534 0 0 1-6.116 1.613c4.828-5.839 11.354-10.008 17.899-13.681 7.327-4.113 15.934-4.742 24.167-4.58a101.71 101.71 0 0 0 32.106-4.961 96.866 96.866 0 0 1 28.957-4.561c13.395-.23 26.838-.496 40.09-2.7Z" style="fill:#b75b37"></path>
    <path d="M1177.482 850.572c13.987-3.473 28.404-5.038 42.677-6.946.22 1.04.44 2.08.706 3.149-7.709 3.043-16.057 3.797-24.053 5.781-6.373 1.279-12.918 3.292-19.435 1.746.01-1.259.048-2.5.105-3.73Z" style="fill:#fcb693"></path>
    <path d="M1230.206 1038.692a28.462 28.462 0 0 1 2.767-.62c4.741 7.652 6.611 16.63 8.234 25.369 1.822 12.403 3.406 24.978 2.337 37.525a41.582 41.582 0 0 1-2.91 13.138q-1.588-.272-3.12-.516c2.376-8.663 2.204-17.765 1.164-26.61a297.377 297.377 0 0 0-8.205-43.354c-.296-1.602-.983-3.377-.267-4.932ZM1167.875 1048.757c.61-.019 1.831-.066 2.442-.086 2.204 8.921 1.336 18.176 2.242 27.25a82.675 82.675 0 0 0 10.753 36.8c1.946 3.53 5.371 6.296 6.116 10.437-2.872-.038-4.561-2.614-6.317-4.475-7.108-8.157-11.306-18.356-14.311-28.622-2.9-9.79-2.643-20.122-2.128-30.207a50.985 50.985 0 0 1 1.203-11.097Z" style="fill:#b95d38"></path>
    <path d="M1578.996 1590.686c1.536-4.045 3.94-7.986 4.16-12.375 3.635-8.052 5.915-16.63 9.14-24.845 9.236-26.247 20.313-51.798 29.997-77.873 7.757-20.98 14.436-42.343 21.21-63.648 2.432-8.768 5.371-17.47 6.602-26.505-.582.038-1.765.096-2.357.133-2.51 6.317-4.217 12.92-6.411 19.35-4.418 13.31-9.198 26.505-13.472 39.862-12.537 39.738-28.509 78.274-41.628 117.812-1.183 3.807-3.005 7.47-3.492 11.459-2.328 3.912-3.261 8.423-4.837 12.651-1.543 4.14-4.007 7.938-4.827 12.337 3.463-1.393 4.34-5.362 5.915-8.358ZM1555.993 1638.849c.591-3.463-.659-6.86-.582-10.304-.277-15.81 2.127-31.514 4.827-47.047 3.473-20.218 10.458-39.586 14.856-59.584 1.975-10.934 3.72-22.335 1.43-33.345a89.26 89.26 0 0 0-3.138-.086c-.153 17.364-4.399 34.28-9.455 50.787-7.27 23.356-10.686 47.743-12.032 72.11a85.415 85.415 0 0 0 1.68 26.973l2.414.496ZM1599.194 1610.96c7.318-21.849 15.17-43.62 20.332-66.109q-1.403-.615-2.748-1.174c-3.005 3.445-4.17 7.948-5.81 12.108a773.57 773.57 0 0 0-23.51 75.813 34.697 34.697 0 0 0-.782 11.869 45.103 45.103 0 0 1 2.825-.086c1.936-11.154 6.344-21.658 9.693-32.42ZM1465.85 1345.845c8.157-7.738 16.562-15.39 22.955-24.72 3.998-5.868 8.072-11.965 9.732-18.978a24.37 24.37 0 0 0-2.567-.563c-2.06 2.195-3.272 5-4.866 7.519-9.474 15.485-22.545 28.27-35.292 41.026-7.995 7.623-15.81 15.437-24.11 22.717-2.834 2.213-5.511 4.593-8.148 7.032-2.335 2.16-5.124 4.121-6.125 7.299a11.71 11.71 0 0 0 5.648-3.044c3.473-3.196 7.27-6.05 10.61-9.407 11-9.313 21.638-19.035 32.162-28.88ZM1097.367 1482.224c-14.58-6.831-26.458-17.966-38.117-28.814-8.5-8.053-16.658-16.544-26.056-23.557-9.493-7.079-20.79-10.981-31.123-16.572a15 15 0 0 0-7.375-2.137 8.215 8.215 0 0 0 2.404 3.215c9.856 6.812 21.334 10.772 31.342 17.317a125.54 125.54 0 0 1 16.573 13.042c14.016 12.451 27.42 25.942 43.746 35.417 5.018 2.814 10.113 5.743 15.8 6.984-1.384-2.825-4.657-3.53-7.194-4.895ZM1064.565 1535.854c3.09 3.873 6.898 7.089 10.237 10.753 11.058 12.164 24.873 21.39 38.88 29.806 10.59 6.44 22.325 10.562 33.946 14.73q.258-1.23.573-2.403c-5.83-2.987-12.088-5.01-17.956-7.881-13.253-6.479-25.427-14.941-36.876-24.177-7.547-6.097-13.863-13.606-21.715-19.311-2.09-1.26-4.79-3.645-7.09-1.517ZM1451.748 1474.858c-2.863 4.408-7.128 7.776-9.532 12.49 1.412-.344 2.987-.592 4.017-1.756 5.505-5.41 9.827-11.85 14.531-17.937 9.875-13.558 20.255-26.744 30.855-39.738 10.19-12.738 21.496-24.683 29.921-38.727 2.232-3.864 5.162-7.376 6.602-11.65-3.778.4-5.362 4.246-7.547 6.812-10.628 14.693-22.87 28.108-33.775 42.582-12.288 15.523-23.7 31.714-35.072 47.924ZM780.014 1513.242c13.062 24.062 24.883 48.85 39.652 71.948a33.522 33.522 0 0 1 2.252-.41c-12.394-21.534-23.013-44.013-33.756-66.386-7.127-14.74-13.987-29.778-23.528-43.154-.61.029-1.832.076-2.443.095a11.077 11.077 0 0 0 1.355 5.64c5.763 10.609 10.629 21.686 16.468 32.267ZM721.537 1475.316c9.97 12.919 16.172 28.137 22.946 42.858a323.274 323.274 0 0 0 26.028 46.952 104.176 104.176 0 0 0 9.99 13.395c3.988 4.313 7.384 9.274 12.088 12.861-.649-4.112-3.931-6.926-6.345-10.046-4.76-5.553-8.882-11.583-13.319-17.374a247.227 247.227 0 0 1-22.822-43.813c-5.772-14.397-10.848-29.338-19.864-42.133-6.278-9.207-14.312-17.164-19.779-26.943a16.895 16.895 0 0 0-4.913-5.916c-.449 1.689-.917 3.511-.096 5.21 3.55 9.34 10.152 17.04 16.086 24.95ZM815.487 1617.343c-.019 4.342 2.405 8.072 3.893 12.013 5.826 14.456 11.369 29.07 15.568 44.09h2.404l-.054-1.09c-2.194-11.105-6.049-21.839-9.226-32.696-2.748-7.643-4.665-15.943-9.999-22.278l-2.586-.039ZM890.728 1238.394c5.686 5.124 9.169 12.098 14.225 17.784 5.715 6.498 11.402 13.024 17.164 19.493 6.202 7.07 14.713 11.344 22.05 17.06 12.518 9.97 26.114 18.423 39.204 27.601 8.405 5.286 16.85 10.534 25.407 15.6 22.078 11.936 46.57 18.118 70.174 26.2 4.37 1.078 8.807 2.91 13.358 2.71 5.362 2.28 11.172 3.205 16.868 4.274 20.58 2.862 41.418 2.48 62.15 2.518 18.415-1.402 37.039-1.001 55.224-4.656 15.904-3.482 31.943-6.612 47.457-11.65 22.602-8.004 45.367-15.618 67.359-25.235 10.6-4.18 20.303-10.21 30.455-15.333 12.766-6.497 24.396-14.893 36.294-22.812 9.484-6.326 18.433-13.405 27.726-19.998 8.415-6.106 16.095-13.128 23.833-20.046 9.894-8.835 19.788-17.775 28.26-28.012 6.87-7.928 12.127-17.06 18.606-25.274 3.606-4.704 7.432-9.312 10.103-14.636-5.085.43-8.637 4.602-11.687 8.263-9.257 11.106-17.441 23.117-27.488 33.565-14.512 13.529-29.358 26.724-44.824 39.146-21.429 16.268-41.884 34.3-66.119 46.398-8.873 4.56-17.402 9.818-26.743 13.396-23.108 10.123-47.027 18.185-70.823 26.476-24.587 7.127-49.842 12.537-75.498 13.472-10.59.324-21.095 1.965-31.695 1.822-21.047.21-42.457.735-62.999-4.541-8.835-2.443-17.947-3.912-26.438-7.47-18.624-6.136-37.486-11.822-55.242-20.247-7.738-3.74-14.77-8.72-22.154-13.061-8.912-5.248-17.174-11.497-25.866-17.079-7.5-4.79-14.522-10.237-21.63-15.561-7.632-5.715-16.4-10.066-22.726-17.384-5.506-6.392-11.402-12.432-16.983-18.757-4.112-5.81-8.33-11.65-13.577-16.487-2.557-2.166-5.61-5.152-9.207-3.569a51.484 51.484 0 0 0 5.782 6.03Z" style="fill:#b08c29"></path>
  </g>
</svg>
