<svg xmlns="http://www.w3.org/2000/svg" viewBox="0 0 2121 1887.494" id="old-guy">
  <g id="art">
    <path d="M1087.178 308.481a188.095 188.095 0 0 1 34.472 1.616c14.02 1.903 28.39 3.615 41.382 9.586a135.77 135.77 0 0 1 29.218 16.845c6.83 5.096 13.2 10.78 20.006 15.899 5.995 4.744 12.785 8.335 18.932 12.873 10.715 7.245 21.089 14.975 31.653 22.426a255.727 255.727 0 0 1 22.57 18.789c3.781 3.662 7.945 6.942 11.432 10.923a188.893 188.893 0 0 1 35.46 57.83c4.871 12.602 10.93 24.846 13.597 38.181 2.404 12.213 4.004 24.584 7.133 36.645 1.505 7.15 3.805 14.187 4.076 21.543.51 10.636 2.834 21.161 2.3 31.853-.405 7.428-.421 14.88-1.026 22.299-.207 9.577-.422 19.17-1.314 28.716-.764 8.781-4.012 17.403-2.953 26.296.326 2.818-.988 5.445-1.887 8.033-2.253 5.692-1.983 12.116-4.872 17.594-4.084 7.794-7.993 15.683-12.468 23.278-7.666 12.945-15.006 26.105-23.573 38.484a61.376 61.376 0 0 1-23.97 20.668c-14.68 7.22-30.261 12.41-45.952 16.957a511.647 511.647 0 0 1-55.808 12.029c-19.298 2.826-38.445 6.655-57.814 9.028-22.546 3.033-45.195 5.724-67.957 6.138-20.269.47-40.418-2.237-60.456-4.952-15.978-2.237-31.972-4.57-47.736-8.033-15.556-3.327-30.825-7.817-46.158-12.013a199.888 199.888 0 0 1-38.628-14.736c-9.41-4.753-18.995-9.681-26.598-17.132-6.496-6.616-10.772-15.166-13.423-23.98-3.288-13.191-2.34-26.892-2.818-40.347.096-5.867-.955-11.687-.804-17.554.112-6.082-1.998-11.878-3.718-17.618-4.108-13.247-6.79-26.869-9.64-40.427-5.542-25.332-7.126-51.39-6.45-77.263a328.919 328.919 0 0 1 7.85-56.643c2.134-8.861 5.287-17.42 8.415-25.962 4.483-12.746 11.87-24.218 19.871-35.013 4.642-5.931 9.912-11.337 14.832-17.029 6.043-6.99 13.2-12.873 20.333-18.693 5.43-4.418 10.835-8.844 16.328-13.175 5.684-4.482 11.846-8.288 17.745-12.452 9.172-6.225 17.937-13.112 27.737-18.334 18.621-8.845 37.091-18.287 56.827-24.465 2.603-.86 4.235-3.264 6.64-4.474 6.456-3.216 13.526-4.864 20.165-7.627 13.327-5.214 27.275-8.51 41.008-12.411 8.407-2.747 17.244-3.683 26.041-4.196Z" style="fill:#c5ccc2"></path>
    <path d="M1724.309 1660.226a100.232 100.232 0 0 0 3.66-25.883c.373-14.97-2.621-30.048-5.175-44.738q-3.446-19.822-7.712-39.49c-11.13-51.33-26.129-102.194-45.849-150.903-5.763-14.234-11.728-28.483-19.06-41.998a233.966 233.966 0 0 0-25.558-37.222c-16.508-20.004-37.535-35.961-57.32-52.533l-51.649-43.259q-4.907-5.73-9.93-11.418a103.182 103.182 0 0 1-24.653-21.833 17.43 17.43 0 0 1-1.137-1.573l-40.945-28.347a13.933 13.933 0 0 1-4.303-4.646q-5.559-4.663-11.124-9.316a77.985 77.985 0 0 0-5.41-4.138c-2.222-2.201-4.53-4.312-6.883-6.384-6.798-5.984-14.338-11.09-20.803-17.451-4.41-4.354-9.203-8.28-13.541-12.698-6.6-6.68-13.16-13.406-19.378-20.444-4.084-4.904-8.144-9.848-12.937-14.083a144.22 144.22 0 0 1-14.6-15.636c-4.682-5.645-10.167-10.549-14.76-16.265-3.2-3.94-6.728-7.603-10.215-11.28-4.984-5.144-8.717-11.37-14.027-16.217-5.088-4.642-10.08-10.008-16.966-11.855-5.19-1.783-10.648-.452-15.978-.613a331.565 331.565 0 0 0-67.924 5.167c-15.549 2.237-30.765 6.312-46.438 7.826-21.389 2.067-42.87 1.33-64.254.032-16.647-1.218-33.286-2.755-49.837-4.952-19.712-2.635-38.986-7.738-58.164-12.897-13.948-4.092-28-7.985-42.425-10.04-12.38-1.647-24.664-5.35-37.266-4.075-7.603.796-16.122.19-22.403 5.334-2.309-.717-4.793-2.094-7.22-1.06-4.65 1.872-8.384 5.47-11.425 9.371-3.352 4.57-6.781 9.086-10.198 13.614-5 6.626-10.612 12.73-15.955 19.059-8.78 10.325-17.562 20.651-26.502 30.84-11.074 12.532-23.016 24.243-35.085 35.81-8.454 8.519-17.395 16.528-25.881 25.022-15.008 14.934-29.742 30.134-44.572 45.242-30.194 22.204-59.644 45.473-88.002 69.983-25.298 21.865-50.478 44.378-72.94 69.195a352.394 352.394 0 0 0-34.582 44.419c-9.156 14.124-16.373 29.238-22.836 44.727a422.3 422.3 0 0 0-26.306 56.8c-7.904 20.806-12.362 42.352-15.603 64.328a53.607 53.607 0 0 0-.669 7.947 1010.353 1010.353 0 0 0-24.598 138.532Z" style="fill:#fef3db"></path>
    <path d="M1020.312 457.283c14.354-11.6 33.342-15.429 51.421-14.895 4.292.127 8.455 1.298 12.714 1.728a28.08 28.08 0 0 1 13.932 5.556c1.378 4.45-1.568 8.447-3.662 12.101q-8.598 14.33-17.602 28.422c-9.705 14.8-19.027 29.846-28.612 44.725-3.814 5.892-7.293 11.99-10.843 18.048a11.725 11.725 0 0 0 5.533.2 61.5 61.5 0 0 0-1.465 1.767c14.553 3.224 29.504 4.267 44.383 4.187 13.43-.334 26.503-3.924 39.265-7.85 8.71-3.192 17.546-6.313 25.54-11.097a123.686 123.686 0 0 0 23.74-18.518c6.44-6.01 12.196-12.722 18.803-18.557a92.659 92.659 0 0 1 29.401-17.372 56.414 56.414 0 0 1 17.92 14.036c1.37 1.8 3.424 2.906 4.81 4.697 7.618 8.932 15.213 18.008 21.152 28.206 3.59 5.685 6.226 11.894 9.315 17.85 3.837 8.04 7.666 16.2 9.625 24.942 3.494 10.055 6.862 20.165 11.066 29.957 4.06 10.883 7.65 21.941 10.906 33.087 2.397 9.147 4.594 18.462 4.777 27.96 1.043 15.874.669 31.797.74 47.703.008 3.479.717 6.902.82 10.381.072 1.37-.04 2.858.852 4.037a35.524 35.524 0 0 0-1.672 5.445c-.931 10.365-1.13 20.779-2.014 31.152q-2.71 28.397-7.762 56.484c-.907 6.974-2.221 13.885-3.773 20.74-.598 3.04-3.32 5.094-3.901 8.16-1.696 6.814-3.328 13.645-5.088 20.451a18.197 18.197 0 0 0-.62 6.457c-.47 4.824-2.23 9.442-3.225 14.187-4.824 19.234-10.85 38.142-16.312 57.185-1.624 4.824-3.248 9.705-3.79 14.792 0 0-.98.342-1.218.422-4.036 5.795-7.388 12.045-10.875 18.183-8.009 13.502-15.429 27.346-23.995 40.506-8.383 12.619-17.124 25.046-27.227 36.359-16.67 18.677-34.87 36.207-55.624 50.314-6.003 4.315-13.017 6.767-19.712 9.745-7.42 3.4-15.612 4.482-23.621 5.573-11.114 1.456-22.331.692-33.469.063-18.326-1.33-36.693-4.49-53.857-11.209-10.549-4.458-20.993-9.315-30.635-15.54-10.914-6.895-21.917-13.9-31.128-23.04a184.493 184.493 0 0 1-26.82-33.66c-8.95-14.178-17.977-28.325-26.185-42.95-4.347-8.112-8.686-16.233-13.303-24.186-8.55-14.426-17.674-28.501-26.766-42.584-4.466-6.83-8.422-13.98-12.952-20.763-.2.374-.605 1.138-.812 1.52-2.38-18.286-6.138-36.446-9.1-54.597 1.632-5.589.303-11.329.16-16.997-.232-5.08-1.115-10.095-1.505-15.158-.319-11.448-1.704-22.825-2.429-34.249-.047-6.4-.923-12.746-1.114-19.139-.963-10.317-.207-20.69-.836-31.024-.2-3.416.947-6.982-.525-10.222a115.77 115.77 0 0 0 12.522-24.863c6.99-19.68 9.108-40.602 11.91-61.174 2.19-14.393 3.352-29.026 7.5-43.046 2.523-9.433 6.154-18.493 9.601-27.609 1.592-4.41 4.028-8.478 5.286-13.008a88.052 88.052 0 0 1 6.321-15.907 228.284 228.284 0 0 1 12.117-21.352 122.048 122.048 0 0 1 11.05-16.017c4.188-5.032 8.256-10.238 13.271-14.49a118.135 118.135 0 0 1 21.24-15.428c4.308-2.317 8.583-4.698 12.938-6.927a103.703 103.703 0 0 1 37.17-10.5c5.215-.51 10.501.031 15.684-.868 3.527-.685 7.81.326 10.564-2.532Z" style="fill:#f2844f"></path>
    <path d="M1195.84 472.656a14.19 14.19 0 0 1 8.04 1.258c6.84 3.073 12.58 8.001 18.98 11.814a92.659 92.659 0 0 0-29.4 17.372c-6.608 5.835-12.364 12.546-18.805 18.557a123.686 123.686 0 0 1-23.74 18.518c-7.993 4.784-16.83 7.905-25.54 11.098-12.761 3.924-25.833 7.515-39.264 7.85-14.88.079-29.83-.964-44.383-4.188a61.5 61.5 0 0 1 1.465-1.768c4.283-.907 8.136-3.128 12.395-4.14 8.949-3.08 17.364-7.491 26.065-11.177 15.19-6.472 30.348-13.008 45.26-20.094a118.943 118.943 0 0 0 16.837-9.474c6.695-4.538 14.115-7.937 20.588-12.817 8.852-6.584 17.705-13.168 26.948-19.194 1.728-.948 2.603-3.042 4.554-3.615Z" style="fill:#e56324"></path>
    <path d="M752.73 669.719c8.873-7.992 22.076-9.164 33.341-6.385 8.67 2.022 16.114 7.173 23.175 12.372a127.702 127.702 0 0 1 14.394 14.362 29.489 29.489 0 0 1 5.748 10.612c-.971 11.137 1.027 22.323 1.95 33.445.597-1.051 1.195-2.086 1.8-3.121 1.472 3.24.326 6.806.525 10.222.629 10.333-.127 20.707.836 31.024.191 6.393 1.067 12.738 1.115 19.14.724 11.423 2.11 22.8 2.428 34.248.39 5.063 1.273 10.079 1.504 15.158.144 5.668 1.473 11.408-.159 16.997-.31-1.29-.127-3.05-1.672-3.543-4.554-2.229-8.59-5.31-13.128-7.57-10.652-7.763-19.839-17.356-28.39-27.331q-13.493-16.54-25.554-34.162c-4.73-7.46-9.33-14.983-14.012-22.474-7.229-10.843-11.735-23.263-15.078-35.793a75.549 75.549 0 0 1-2.047-28.86c1.043-10.532 5.28-21.187 13.224-28.341ZM1330.925 688.34c11.715-13.525 29.655-20.803 47.377-21.153 5.278-.326 11.44-.414 15.46 3.614 5.748 6.385 7.993 15.07 8.566 23.462.064 6.13.566 12.372-1.05 18.366-1.736 10.167-6.226 19.513-9.856 29.082-5.693 14.88-11.823 29.608-18.956 43.866-5.74 10.963-11.424 21.965-17.443 32.776-7.213 12.714-16.718 23.948-26.956 34.313a90.629 90.629 0 0 1-15.373 12.515c-6.839 4.06-14.561 6.218-22.196 8.192a27.543 27.543 0 0 1-.486 4.1 18.197 18.197 0 0 1 .621-6.457c1.76-6.806 3.392-13.637 5.088-20.452.58-3.065 3.303-5.119 3.9-8.16 1.553-6.854 2.867-13.765 3.774-20.739q5.1-28.063 7.762-56.484c.884-10.373 1.083-20.787 2.014-31.152a35.524 35.524 0 0 1 1.672-5.446 259.883 259.883 0 0 1 8.567-27.075 21.272 21.272 0 0 1 2.571-5.374c1.99-2.38 2.907-5.443 4.944-7.794Z" style="fill:#f95939"></path>
    <path d="M896.787 712.78c9.25-8.863 21.169-15.261 34.01-16.702a67.886 67.886 0 0 1 30.284 5.358c7.794 3.527 15.413 7.587 22.093 12.969 6.28 4.553 11.798 10.03 17.984 14.696a167.57 167.57 0 0 1 14.02 11.432 76.694 76.694 0 0 1 15.882 18.414c1.353 1.553 3.169 2.604 4.586 4.092.071 1.64-2.118 1.505-2.994.613a21.155 21.155 0 0 0-8.327-3.741c-7.69-3.05-15.445-6.258-22.084-11.29-3.065-2.284-6.067-4.72-9.586-6.289-5.811-2.643-11.177-6.257-17.291-8.192a121.572 121.572 0 0 0-30.269-5.907c-10.477-1.488-20.707 1.895-30.698 4.554-5.43 1.234-10.445 4.211-16.121 4.283-6.05-.032-12.093-.525-18.112-1.123.207-3.295 2.285-6.026 4.18-8.574a124.191 124.191 0 0 1 12.443-14.592ZM1217.367 719.58c8.327-2.387 16.806-4.96 25.58-4.61 2.714.215 5.93-.462 8.127 1.552-1.488 2.293-4.545 1.242-6.687 2.333-7.046 3.861-14.45 7.038-21.391 11.098-9.936 5.079-19.044 11.631-27.697 18.637a202.47 202.47 0 0 1-34.09 23.94c-8.431 4.234-18.175 6.304-27.578 4.935-5.166-.541-10.389-1.242-15.23-3.224-3.056-1.25-6.352-2.38-8.7-4.8-1.306-1.092-.447-3.114.915-3.687 5.644-3.113 11.074-6.632 16.933-9.354 17.905-8.614 35.754-17.443 54.407-24.33 11.647-4.585 23.37-9.039 35.41-12.49ZM1024.245 908.728c4.108-.549 7.412 2.707 10.724 4.65 6.99 4.299 11.416 11.894 19.035 15.261 6.504 2.85 13.693 5.2 20.866 3.846 8.08-1.513 15.301-6.067 21.145-11.735 1.664-1.337 3.025-3.392 5.215-3.83 2.571-.04 2.937 3.297 1.082 4.554-10.325 9.57-17.57 22.411-29.727 29.974-4.904 3.431-9.521 7.508-15.166 9.673-5.11 1.09-9.99-2.412-13.16-6.09-6.376-9.76-12.77-19.633-17.33-30.404-1.912-4.267-5.28-8.176-5.2-13.072a2.896 2.896 0 0 1 2.516-2.827Z" style="fill:#e56324"></path>
    <path d="M848.487 912.39c.207-.381.613-1.146.812-1.52 4.53 6.783 8.486 13.932 12.952 20.763 9.092 14.083 18.216 28.158 26.766 42.584 4.617 7.953 8.956 16.074 13.303 24.186 8.208 14.625 17.236 28.772 26.184 42.95a184.493 184.493 0 0 0 26.821 33.66c9.211 9.14 20.214 16.145 31.128 23.04 9.642 6.225 20.086 11.082 30.635 15.54 17.164 6.72 35.53 9.88 53.857 11.21 11.138.628 22.355 1.392 33.469-.064 8.009-1.091 16.2-2.174 23.62-5.573 6.696-2.978 13.71-5.43 19.713-9.745 20.754-14.107 38.953-31.637 55.624-50.314 10.103-11.313 18.844-23.74 27.227-36.359 8.566-13.16 15.986-27.004 23.995-40.506 3.487-6.138 6.839-12.388 10.875-18.183.239-.08.725-.247.971-.335-1.87 12.324-3.2 24.91-1.592 37.338.215 2.938 1.664 5.844.948 8.805 2.659 2.898 2.181 7.189 1.878 10.811-2.062 7.683-4.314 15.365-7.706 22.594-2.778 5.692-4.896 11.711-8.152 17.18-4.26 7.26-8.168 14.728-12.46 21.973-4.888 7.356-9.712 14.752-14.162 22.387q-11.118 17.1-22.618 33.946c-8.725 12.881-17.475 25.818-27.729 37.553-18.135 22.888-39.033 44.192-64.398 59.024-5.35 3.36-10.007 8.367-16.503 9.434-15.325-.573-29.99-5.947-43.89-12.07-7.897-3.367-15.07-8.151-22.235-12.817-22.188-14.02-41.796-31.796-59.295-51.285-6.258-7.03-12.873-13.75-18.844-21.034-8.67-10.811-17.562-21.495-24.895-33.285-8.096-13.486-15.667-27.283-23.676-40.817-6.409-11.424-12.475-23.04-18.828-34.496-3.121-6.13-6.027-12.38-9.57-18.279-3.295-5.326-5.485-11.233-8.82-16.527-3.702-5.127-3.52-11.75-4.116-17.753-1.362-13.025-2.691-26.081-5.247-38.93-2.372-11.632-4.187-23.366-6.042-35.085Z" style="fill:#e56324"></path>
    <path d="M1098.85 995.242c2.324.088 3.884-1.695 5.492-3.089.167.35.494 1.043.661 1.386-2.794 6.408-5.676 12.77-8.574 19.122-1.553 3.368-3.455 6.576-4.633 10.111.764.517 1.512 1.051 2.268 1.608-2.523-.072-4.673-1.624-7.07-2.229a106.883 106.883 0 0 0-25.562-3.996c-8.097.04-16.138 1.146-24.162 2.141a2.312 2.312 0 0 1-2.763-1.274c-3.606-6.814-6.855-13.812-10.46-20.619a5.34 5.34 0 0 1-.495-3.638c2.293-.717 3.87.979 5.35 2.46 9.617-.358 19.02 2.245 28.517 3.36 3.177.135 6.107 1.95 9.33 1.44 4.586-.501 9.228-.437 13.781-1.194 4.475-.653 8.766-2.73 13.367-2.054 1.298-1.632 2.532-3.774 4.952-3.535Z" style="fill:#e56324"></path>
    <path d="M1210.656 373.548c3.964 2.5 6.75 6.448 8.932 10.517 2.866 5.692 5.74 11.599 6.146 18.071.748 10.063-.98 20.5-5.97 29.353-6.465 12.3-16.632 22.14-27.554 30.5-8.503 6.464-17.244 12.61-26.057 18.636a5.599 5.599 0 0 1-2.412 1.02c-.335-.502-.653-1.02-.996-1.505a322.734 322.734 0 0 0 32.72-25.126c10.064-9.426 19.378-20.325 23.86-33.564 2.253-8.479 3.52-17.658.972-26.216a105.344 105.344 0 0 0-8.041-18 7.313 7.313 0 0 1-.86-2.612l-.812-.095c.016-.239.056-.732.072-.98Z" style="fill:#7d8778"></path>
    <path d="M1048.718 418.202c11.36-5.005 23.19-10.007 35.793-10.302 7.507-.135 15.747 2.635 19.8 9.339 3.017 5.803 4.633 12.554 3.47 19.074-1.44 8.623-5.628 16.424-9.64 24.075-3.4 6.13-6.29 12.674-10.852 18.048.016-.454.04-1.37.056-1.823 2.978-4.427 5.016-9.402 7.468-14.131 4.96-10.437 10.755-21.384 9.872-33.294-.836-5.374-2.452-11.424-7.293-14.56-3.925-2.78-8.916-3.52-13.613-3.368-9.984.262-19.529 3.678-28.613 7.539-10.485 4.028-19.903 10.19-29.177 16.408-.51-.032-1.52-.096-2.023-.135a13.021 13.021 0 0 1 2.819-3.13 102.694 102.694 0 0 1 21.933-13.74Z" style="fill:#8c9688"></path>
    <path d="M929.26 433.877c8.967-4.684 18.423-9.02 28.59-10.102a76.658 76.658 0 0 1 38.436 6.87c7.045 3.392 14.648 8.32 16.431 16.504-.398-.024-1.186-.08-1.584-.104-3.98-7.332-11.289-11.942-18.924-14.76a86.562 86.562 0 0 0-26.359-5.573c-12.754-.43-24.982 4.18-36.08 10.08a98.115 98.115 0 0 0-31.048 25.507 174.842 174.842 0 0 0-21.249 33.277c-.12-.979-.254-1.95-.414-2.913l-.08-.502a179.14 179.14 0 0 1 21.058-32.927 102.478 102.478 0 0 1 31.223-25.357ZM1239.586 425.637c.367-.015 1.1-.055 1.465-.071a11.598 11.598 0 0 1-1.13 5.398 75.525 75.525 0 0 1-21.559 27.012c-9.88 7.818-20.126 15.27-31.184 21.344-.987.637-2.197.382-3.28.43 3.384-2.731 7.348-4.618 10.86-7.173 10.97-7.675 22.052-15.533 30.864-25.715 5.406-6.512 10.573-13.43 13.964-21.225Z" style="fill:#959e91"></path>
    <path d="M916.061 475.681a96.483 96.483 0 0 1 58.578-29.655c8.343-.995 18.462-.406 23.987 6.863-2.794-.056-4.84-2.19-7.364-3.065a34.392 34.392 0 0 0-16.448-1.282 93.739 93.739 0 0 0-44.248 17.753A100.401 100.401 0 0 0 910.488 486c-16.392 20.7-27.506 44.989-36.971 69.477-.168-1.067-.35-2.117-.526-3.168.024-1.847 1.035-3.52 1.608-5.23 9.96-25.723 22.381-51.148 41.462-71.397ZM1142.237 493.387c6.998-4.156 13.71-8.773 20.508-13.247.343.485.661 1.003.996 1.504l.414.565c-6.353 4.188-12.866 8.129-19.434 11.974a11.25 11.25 0 0 1-2.563.892c.024-.422.056-1.266.08-1.688Z" style="fill:#a6ada3"></path>
    <path d="M873.771 498.681c1.027-2.03 1.52-4.458 3.288-6.018.16.963.295 1.934.414 2.913-4.004 9.323-8.009 18.693-11.153 28.366-4.1 12.228-7.412 24.942-7.5 37.919-.422.008-1.266.032-1.696.04.319-3.973.709-7.945.988-11.926 2.388-17.81 8.614-34.854 15.66-51.294ZM871.678 554.68a8.091 8.091 0 0 1 1.313-2.372c.175 1.05.358 2.101.526 3.168-4.132 12.411-8.519 24.807-11.472 37.593-.884 3.057-1.258 6.297-2.556 9.227-.23.127-.677.398-.9.533.032-3.049.988-5.955 1.6-8.916a316.607 316.607 0 0 1 11.489-39.233Z" style="fill:#b6bcb3"></path>
    <path d="M1013.593 623.4c4.243-.326 8.503-.071 12.762-.27 11.655-.422 23.19 1.544 34.687 3.185 7.841 1.313 15.715 2.428 23.533 3.924 10.182 1.776 20.561 3.068 30.92 2.046a98.98 98.98 0 0 0 20.04-4.076c6.32-2.006 12.777-3.566 19.178-5.286a50.184 50.184 0 0 0 10.548-2.532c.048-.788.095-1.568.151-2.34-4.927 1.313-10.023 1.711-14.998 2.754l.756.494a22.438 22.438 0 0 0-6.894.788c-5.342 1.099-10.716 2.006-16.034 3.216a89.958 89.958 0 0 1-31.829 1.672c-7.985-.907-15.827-2.683-23.78-3.83-17.833-2.746-35.992-5.843-54.048-3.502a79.016 79.016 0 0 0-17.093 2.755c-.111.382-.334 1.146-.454 1.528a71.954 71.954 0 0 0 12.555-.525ZM1169.281 641.218c-7.634.94-15.357 1.417-22.927 2.754-16.87 1.792-33.712 4.886-50.721 4.514a194.675 194.675 0 0 1-52.488-8.415c-8.757-2.81-18.008-3.311-27.116-3.725-8.152.103-16.449-.386-24.432 1.72a15.564 15.564 0 0 0-6.051 2.913c1.974 1.672 4.57.732 6.854.478l-.684-.74c18.263-.526 37.043-.893 54.645 4.752a315.201 315.201 0 0 0 46.907 8.311c13.522 1.345 27.188-.5 40.411-3.399 6.496-1.425 13.104-2.3 19.593-3.726a74.806 74.806 0 0 0 16.018-3.097 76.74 76.74 0 0 1-.009-2.34ZM1136.688 665.101c-3.08-.39-6.082.55-9.107.932-9.514 1.353-19.115 3.327-28.764 2.292-17.3-1.743-34.28-5.915-51.667-6.926-8.559-1.409-17.316-.565-25.835.749-.111.374-.334 1.13-.454 1.504a56.462 56.462 0 0 0 8.185.757 83.662 83.662 0 0 1 11.639.549c7.093.94 14.235 1.513 21.32 2.571 12.817 1.959 25.563 4.499 38.492 5.66 12.515.86 24.544-3.35 36.661-5.747l.462-.327c4.554-.127 8.9-1.703 13.263-2.873.08-.406.231-1.21.31-1.617-5.246-.047-10.396 1.187-15.547 1.99Z" style="fill:#b95d38"></path>
    <path d="M931.665 674.503a57.255 57.255 0 0 1 11.918-.66c3.096-.128 5.74 1.775 8.75 2.173 12.76 2.42 24.304 8.79 35.076 15.803 13.613 8.614 24.894 20.253 37.457 30.244a78.374 78.374 0 0 1 11.687 11.465 18.39 18.39 0 0 1 4.251 13.318c-.215 5.502-3.757 10.063-4.657 15.421-.764.08-1.513.16-2.269.255-3.845-4.474-8.956-7.54-13.072-11.719-7.412-7.404-16.472-12.778-24.935-18.844a139.41 139.41 0 0 0-38.046-20.07 105.461 105.461 0 0 0-22.976-3.813c-7.364-.534-14.656 1.234-21.567 3.622-6.679 2.356-12.475 6.528-18.47 10.198-3.47 2.054-6.153 5.143-9.473 7.396-1.346 1.274-2.166-.406-2.747-1.425 3.336-3.996 3.105-9.49 4.936-14.147 2.006-5.08 3.893-10.222 6.37-15.094a50.757 50.757 0 0 1 13.159-15.39c7.133-5.293 16.04-7.131 24.608-8.733Z" style="fill:#c5ccc2"></path>
    <path d="M1187.767 705.83c19.27-3.514 39.137-2.356 58.332 1.25 7.38 1.274 14.179 4.53 20.802 7.914 3.081 1.624 6.4 2.898 9.084 5.19 1.664 1.49 4.052 2.11 5.294 4.06a53.865 53.865 0 0 1-12.085-2.523c-5.294-.319-10.588.374-15.883.27a131.914 131.914 0 0 0-27.649 2.078c-11.074 1.704-22.108 4.053-32.609 8.001-19.33 6.935-37.887 15.78-56.333 24.744-6.998 3.136-13.788 6.87-21.192 8.98a20.973 20.973 0 0 0-6.8 3.296l-.341-.112c-2.556-.207-3.034-2.85-2.922-4.943 0-3.886-1.027-7.77-.263-11.64 1.059-6.647 3.113-13.51 7.667-18.629 4.052-4.458 10.055-5.915 15.221-8.606 5.518-2.77 11.536-4.29 17.236-6.647a204.775 204.775 0 0 1 42.441-12.683Z" style="fill:#c4ccc2"></path>
    <path d="M950.175 753.446c2.388-1.274 5.437.151 6.878 2.237 1.767 2.516 1.178 5.724 1.37 8.606.159 4.857-.311 10.04-3.05 14.195-1.895 3.057-6.52 4.148-9.402 1.863-2.5-1.831-3.423-5.008-3.734-7.945a28.166 28.166 0 0 1 1.49-12.794c1.042-2.97 3.98-4.522 6.448-6.162ZM1170.022 761.559c3.432-1.704 7.595.525 8.972 3.86 1.672 4.061 1.218 8.615.454 12.826-.685 3.193-1.664 6.847-4.69 8.606-2.722 1.648-5.97.335-8.605-.812-3.71-2.364-4.466-7.428-3.344-11.384 1.059-4.825 2.358-10.687 7.213-13.096Z" style="fill:#150f0c"></path>
    <path d="M879.591 743.965a41.857 41.857 0 0 1-17.538-8.718l-1.816.16c4.745 7.952 14.108 11.623 22.825 13.207 9.88 1.544 19.855 3.288 29.894 2.659 0-.414-.008-1.258-.008-1.68-11.177-1.457-22.347-3.184-33.357-5.628ZM890.705 760.356a45.493 45.493 0 0 0 14.37-1.361c0-.804-.008-1.6-.008-2.396-5.788 1.202-11.704.008-17.53.74-9.849-1.186-19.88.064-29.688-1.17-.016.55-.032 1.632-.04 2.181 10.58 3.455 21.973 2.691 32.896 2.006ZM865.078 775.92c-.008.805-.008 1.617-.008 2.445a57.276 57.276 0 0 0 16.52-1.855c8.573-2.046 17.131-4.156 25.642-6.48.064-.677.127-1.338.2-1.999-.487-.183-1.458-.557-1.936-.748a364.195 364.195 0 0 0-40.418 8.638ZM935.542 790.712a87.79 87.79 0 0 0 19.186 4.379c5.398.08 11.29.995 16.194-1.855.063-.382.198-1.138.262-1.52-3.137-.04-6.162 1.162-9.323.724-11.607-.868-22.673-4.856-33.803-7.882-.087-.262-.27-.796-.358-1.058-.095.374-.294 1.122-.39 1.496 1.831 2.954 5.111 4.474 8.232 5.716ZM984.726 795.609a13.589 13.589 0 0 0-6.29 2.364 135.704 135.704 0 0 1-37.926 2.444c-5.095-.382-9.968-2.142-15.063-2.5.048.47.151 1.41.2 1.88 7.06 4.648 15.627 6.463 24.002 6.296a103.795 103.795 0 0 0 29.4-5.596c2.445-.438 6.25-1.736 5.677-4.888Z" style="fill:#b95d38"></path>
    <path d="M915.79 806.627a30.89 30.89 0 0 1 5.581.891c9.553 2.301 19.362 3.209 29.122 4.18l-.191 1.608c-11.4-.804-23.366-.366-34.082-4.936-.103-.43-.318-1.305-.43-1.743Z" style="fill:#fccab3"></path>
    <path d="M926.37 850.708c8.935-1.246 19.299 4.625 20.755 13.924a22.252 22.252 0 0 1-4.792 15.524c-4.968 6.042-13.956 6.743-20.922 4.283a15.666 15.666 0 0 1-10.58-10.875c-1.354-5.835.43-12.81 5.588-16.249 3.16-2.42 5.7-6.015 9.952-6.607ZM1201.007 851.496a15.11 15.11 0 0 1 11.854 2.58c4.02 2.674 6.074 7.475 6.456 12.164a16.69 16.69 0 0 1-8.048 14.457c-4.984 2.81-11.234 2.285-16.305-.016a12.515 12.515 0 0 1-7.435-10.445c-.59-8.28 5.137-17.102 13.478-18.74Z" style="fill:#f95939"></path>
    <path d="M1332.525 1067.888c-.008-1.544 2.197-3.12 3.471-1.847 1.003.653.573 2.11.788 3.137.2 9.043-1.552 17.96-2.643 26.908-2.555 16.177-5.286 32.378-9.736 48.165-5.621 18.789-13.367 36.837-20.81 54.956-5.486 14.076-12.58 27.426-19.752 40.69-6.982 13.287-14.665 26.176-22.196 39.145q-6.102 10.437-13.168 20.269c-7.547 11.32-16.838 21.304-25.26 31.956-6.473 8.327-13.431 16.463-21.966 22.753-2.818 2.3-7.578 2.317-9.664-.963-7.882-10.915-15.548-22.005-24.09-32.434-5.884-7.07-10.096-15.302-15.422-22.77-4.25-5.859-8.136-11.965-12.443-17.768a45.225 45.225 0 0 0-17.1-15.548 132.761 132.761 0 0 0-26.949 1.472c-4.474.725-9.028.167-13.494.836a78.307 78.307 0 0 1-13.526.247c-1.417-.223-2.261 1.154-3.224 1.927-6.52 6.178-9.482 15.174-10.246 23.939-.677 9.259-.406 18.573-1.195 27.832-.278 9.561.223 19.13-.183 28.7-.668 9.259-.326 18.55-.477 27.824-.024 23.637-.637 47.266-.725 70.894.247 19.657-1.37 39.257-1.918 58.889-.327 20.166-.407 40.323-.709 60.497.279 9.553-.756 19.147.287 28.668 1.504 3.67 1.241 7.659.58 11.504 15.318 5.302 31.782 6.257 46.98 11.966a65.419 65.419 0 0 1 6.09 3.606c.071.366.223 1.115.294 1.489-.286-.263-.86-.788-1.154-1.051-5.573.032-11.09-.955-16.615-1.608-8.088-.773-15.906-3.09-23.836-4.745-4.45-.82-8.582-2.723-12.96-3.806-1.935-.47-4.005-1.552-4.355-3.702.048-2.468.995-4.808.931-7.26-1.043-7.937-.597-15.954-.239-23.915-.501-11.393-.119-22.801.056-34.202-.199-20.706-.334-41.43 1.202-62.089.223-6.91.271-13.82.789-20.715.398-21.224-.621-42.448.119-63.665.016-17.785.852-35.554 1.672-53.316-.032-8.781 1.218-17.522.748-26.303-1.083-7.388-.852-14.88-.828-22.316.231-10.166 3.057-20.54 9.37-28.652 2.062-2.667 4.88-4.585 7.245-6.95-9.553-2.444-19.043-5.382-27.872-9.848-5.262-2.277-10.134-5.748-15.93-6.52a6.353 6.353 0 0 0-5.175 1.52c-5.167 4.315-10.445 8.543-14.903 13.622-11.01 10.509-21.878 21.16-32.88 31.67-9.012 8.518-16.933 18.087-25.81 26.741-4.41 4.347-8.86 8.662-13.207 13.08-2.214 2.277-5.478 2.906-7.946 4.833-1.783 1.425-4.243 1.019-6.329.668-3.495-.915-5.366-4.275-7.722-6.703-8.909-9.53-16.464-20.19-24.043-30.77q-11.965-17.972-23.573-36.191c-6.584-10.477-12.236-21.487-17.825-32.513q1.66-1.78 3.328-3.52c7.404 14.012 14.855 28.032 23.732 41.192 8.877 13.128 17.021 26.765 26.702 39.336 5.804 8.168 12.316 15.795 18.812 23.414a4.933 4.933 0 0 0 6.433.883q1.934-.776 3.861-1.56c-.51.94-1.011 1.839-1.48 2.826 3.566-1.37 4.752-5.453 7.284-8.025 9.752-9.545 18.979-19.616 28.23-29.655 5.031-5.334 10.596-10.119 15.843-15.238 8.295-8.43 16.83-16.615 25.101-25.07a85.04 85.04 0 0 1 8.598-8.08c3.368-2.874 6.457-6.982 11.281-7.141 7.078-.534 13.359 3.343 19.608 6.09a117.743 117.743 0 0 0 25.062 9.02 16.6 16.6 0 0 1 5.653 3.16c4.068-1.79 7.817-4.21 11.87-6.026 3.43-1.624 7.14-2.754 10.254-4.992 4.299-2.73 8.422-6.241 13.645-6.934-1.895 3.59-5.772 5.255-8.296 8.28-3.144 3.527-7.738 5.103-11.798 7.284-3.758 1.784-7.189 4.148-10.867 6.075a75.458 75.458 0 0 0-2.898 1.656c3.511.246 7.117.549 10.525-.502 3.423-1.003 7.014-.931 10.5-1.584 8.893-2.142 18.057-1.592 27.108-2.038 4.514-.104 8.05 3.248 11.592 5.604 6.608 4.554 11.018 11.36 15.866 17.587 4.904 7.045 10.015 13.956 14.57 21.248 7.698 12.992 17.546 24.536 25.778 37.179 2.61 3.638 4.752 7.618 7.698 11.018 5.08-2.58 8.916-6.926 12.897-10.891 6.433-6.37 11.512-13.916 17.515-20.667 5.095-6.56 10.747-12.706 15.404-19.609 4.467-6.432 9.084-12.77 13.057-19.52 7.26-12.22 14.41-24.505 21.12-37.036 6.688-12.57 13.51-25.117 19.107-38.23 8.845-21.033 17.762-42.114 24.234-64.023 5.04-18.868 8.216-38.173 11.01-57.48.852-5.389 1.115-10.842 1.537-16.264Z" style="fill:#b8a98a"></path>
    <path d="M793.634 1069.64c.733-.009 1.473 0 2.214.015.883 8.925 1.29 17.945 3.335 26.718 3.559 15.827 8.168 31.399 13.224 46.812 5.82 17.052 11.217 34.28 18.263 50.88 4.585 11.153 10.126 21.86 15.707 32.537q-1.672 1.743-3.328 3.518c-7.03-13.422-13.462-27.155-19.123-41.198-6.122-15.756-11.336-31.83-16.67-47.855-4.379-13.701-8.351-27.546-11.425-41.597a104.903 104.903 0 0 1-2.197-29.83Z" style="fill:#baac8e"></path>
    <path d="M1227.43 758.995c12.475-1.632 24.297-6.345 35.363-12.18 4.705-2.532 9.442-5.167 13.311-8.917-.047-.55-.127-1.64-.175-2.181-2.842 1.489-5.326 3.582-8.24 4.952a222.12 222.12 0 0 1-51.875 18c3.679 1.202 7.795.597 11.616.326ZM1274.369 756.527c-4.283.271-8.351 1.896-12.54 2.787-11.839 2.517-23.684 5.087-35.474 7.817l.414 1.505c8.693 1.489 17.515-.175 25.914-2.484 7.109-2.102 14.178-4.402 21.073-7.125 2.157-.35 4.514-1.513 4.912-3.9a8.955 8.955 0 0 0-5.43 1.01ZM967.984 1005.672l.382.557c.493 5.716 2.484 11.201 3.256 16.893.366 1.648.151 3.901 1.91 4.825-.843-8.614-2.276-17.148-3.335-25.73l-.653.58c.223-5.74-1.855-11.272-2.332-16.973-1.848-18.724 1.735-38.468 12.3-54.295 3.733-5.533 7.289-11.188 11.177-16.615 6.596-9.206 14.155-17.673 21.28-26.463-.095 2.89.016 5.796-.31 8.678 2.531 2.946 4.45 6.496 7.754 8.702 3.733 2.34 5.477 6.767 9.274 9.036 4.682 2.906 8.73 6.662 13.272 9.776 5.205 3.57 11.153 5.796 17.053 7.897 6.376 1.521 13.295 3.232 19.672.812l-.064 1.656-.987.064a47.737 47.737 0 0 0 1.138 15.66c.98 3.311 1.37 6.767 2.253 10.11l-.207-.461a60.152 60.152 0 0 0-19.337.445c-6.48 1.29-12.97-.597-19.474-.533.144-6.409.319-12.81.168-19.218-.152-4.673.23-9.426-1.02-13.988-.421-.024-1.273-.072-1.695-.104-1.282 5.112-1.027 10.421-.995 15.644.035 5.854-.51 11.814 1.075 17.539-14.02-.192-27.758 3.72-41.805 3.295-3.986-.12-7.977.287-11.965.056-1.768.056-3.87-.43-5.159 1.123-1.56-.152-3.017.645-4.442 1.13 7.308 3.145 15.245 3.734 23.063 4.538 19.545 2.651 39.251 4.86 59.04 3.997 11.48-.5 23.095-.167 34.368-2.723 12.07-1.831 24.21-3.312 36.232-5.477 4.323-.773 8.653-1.49 13.024-1.95 1.72.063 2.444-1.673 3.296-2.843a31.422 31.422 0 0 0-4.02-.414c-6.64-1.21-13.375.51-20.039.645-7.18 0-14.338 1.313-21.51.462-5.04-.67-10.167-.295-15.167-1.242-.637-8.686-1.234-17.507-3.574-25.93l-1.075.08.852-.526-1.935-.159c.613-1.321 2.11-1.552 3.28-2.125 5.032-2.047 9.363-5.422 13.924-8.296 4.124-3.033 8.805-5.43 12.094-9.45 4.211-3.113 8.637-6.122 11.853-10.341a18.084 18.084 0 0 0 3.026-13.741c5.628 8 13.152 14.736 17.403 23.692 2.635 5.66 5.62 11.162 8.351 16.782a75.889 75.889 0 0 1 7.738 24.64c2.627 9.577 2.819 19.56 2.5 29.424-.589 9.196-2.794 18.183-4.156 27.251-3.025 7.396-3.359 15.986-8.112 22.674.446-.032 1.33-.088 1.775-.112a35.527 35.527 0 0 0 4.45-9.267c1.123-3.399 2.66-6.679 3.24-10.222 3.767-9.649 5.622-20.014 6.593-30.3a116.23 116.23 0 0 0-7.659-47.504c-1.306-3.041-1.879-6.44-3.781-9.18-1.067-4.935-3.6-9.45-5.51-14.099-2.5-6.313-6.745-11.682-10.938-16.925a188.648 188.648 0 0 0-17.205-18.653c-4.091-5.748-6.607-12.443-10.078-18.565-2.802-4.634-3.074-10.15-3.662-15.373-.62-5.504-1.68-10.947-1.975-16.48-.222-6.886-.326-13.773-.087-20.659a191.161 191.161 0 0 1 6.6-38.42c-2.556-.208-3.034-2.85-2.922-4.944-1.282 5.182-3.029 10.232-4.14 15.468-3.44 16.213-3.837 32.784-4.02 49.264-.128 6.201 1.234 12.276 1.711 18.43-.008 2.555 1.998 4.402 2.636 6.775 1.815 6.13 4.61 11.902 6.75 17.92 2.516 5.892 5.836 11.417 7.938 17.49 1.982 5.351-.279 11.775-4.777 15.127-2.269 1.975-3.487 4.96-6.003 6.656-5.302 2.356-9.545 6.424-14.465 9.418-5 2.993-9.689 6.743-15.341 8.462-3.941 1.266-8.073.295-12.038-.254-4.466-.613-8.526-2.683-12.634-4.403-7.714-3.4-13.43-9.975-20.954-13.653-.087-.828-.15-1.648-.215-2.46-5.023-2.874-8.653-7.46-12.037-12.022-2.157-3.813-.804-8.359.996-12.013a118.869 118.869 0 0 1 12.674-19.99c2.873-3.702 4.776-8.017 7.459-11.839l-.103-1.043.358.804c5.406-17.856 4.827-36.746 5.286-55.202.1-4.007-1.05-7.842-1.887-11.703-.684-2.333-.708-5.501-3.2-6.711-.422 3.805.255 7.603.971 11.336 1.218 5.478.51 11.09.613 16.647a224.172 224.172 0 0 1-1.656 28.58c-.716 5.661-2.277 11.17-3.32 16.775-5.485 9.378-12.928 17.331-19.743 25.73-6.52 6.767-12.873 13.71-18.749 21.05-4.578 6.058-9.665 11.766-13.51 18.35-5.143 8.797-11.034 17.268-14.49 26.917-3.422 8.733-4.863 18.08-5.755 27.37-.056 6.608-.63 13.327.812 19.847.98 4.865 2.412 9.634 3.352 14.514ZM1248.51 776.55c-8.953.214-17.888.788-26.844.756l.095 1.703c9.466 3.066 19.442.988 29.146.916 5.135-.693 10.477-.215 15.42-1.943.017-.748.04-1.48.065-2.213-5.892 1.21-11.913.637-17.881.78ZM1184.885 799c5.278-.533 10.796-.756 15.564-3.344a87.102 87.102 0 0 1-.079-2.46c-10.015 2.54-20.453 1.935-30.69 1.656-6.791-.08-13.55-1.297-20.35-.78-.023.422-.079 1.282-.103 1.712 11.37 4.338 23.733 3.646 35.658 3.216ZM1188.532 808.514c5.326-1.322 10.771-2.206 15.938-4.077-.032-.851-.056-1.695-.072-2.523a298.688 298.688 0 0 1-41.86 3.622c-7.666.12-15.134-2.086-22.776-1.95-.008.413-.008 1.25-.016 1.671 15.198 6.903 32.752 7.181 48.786 3.257Z" style="fill:#b95d38"></path>
    <path d="M1073.238 873.365c.756-6.313.725-12.674 1.218-18.995.279-5.517.661-11.138-.692-16.544-.828-.007-1.656 0-2.476.016-.82 12.643-.597 25.317-.972 37.975-.135 2.906-1.297 5.637-1.568 8.534.438-.071 1.321-.206 1.767-.278a21.943 21.943 0 0 0 2.723-10.708ZM1200.274 973.326c.43 0 1.274 0 1.696-.008 1.393-2.62 1.92-5.559 2.73-8.376a526.176 526.176 0 0 1 18.328-54.136c5.079-13.215 11.408-25.905 16.646-39.049 2.516-6.64 4.928-14.123 2.818-21.16-.692.07-1.385.159-2.07.246-1.767 5-2.682 10.286-4.904 15.134-6.918 16.21-14.76 32.044-20.603 48.699a410.186 410.186 0 0 0-12.3 43.189c-.852 5.135-2.628 10.206-2.34 15.46ZM910.265 899.59a276.832 276.832 0 0 1 24.505 53.395c.987 2.372.629 7.093 4.521 6.018-.604-10.588-4.6-20.587-7.817-30.587a157.674 157.674 0 0 0-15.214-34.018c-3.949-6.528-9.34-11.99-13.598-18.302a62.097 62.097 0 0 1-8.988-19.067c-1.01 0-2.03 0-3.033.008-1.696 8.956 2.834 17.26 7.3 24.64 3.607 6.313 8.757 11.567 12.324 17.912ZM1281.582 870.372l-.613.032a312.073 312.073 0 0 1-25.922 62.12q-13.291 23.645-25.038 48.11c-1.401 3.463-3.733 6.647-4.41 10.357l-.39-.692c-2.604 5.74-5.438 11.392-7.715 17.275.502.04 1.497.128 1.999.168 1.799-4.005 3.773-7.922 5.724-11.855.987-2.022 2.245-3.98 2.563-6.257 2.356-3.153 3.638-6.966 5.613-10.35 8.28-16.59 18.19-32.282 27.044-48.563a261.348 261.348 0 0 0 18.287-42.902c1.393-5.717 3.216-11.496 2.858-17.443ZM914.333 993.539c2.691 5.286 4.761 10.938 7.826 16.01 1.37 5.469 4.363 10.413 6.52 15.611.518-.024 1.56-.08 2.078-.11-1.99-5.845-4.362-11.545-6.647-17.277l-.693.637a9.042 9.042 0 0 0-1.21-4.625c-9.816-22.053-18.828-44.543-30.667-65.624-5.429-9.68-11.638-18.916-16.527-28.899a281.51 281.51 0 0 1-12.523-29.6c-1.815-5.851-3.757-11.727-4.617-17.8l-.247.023c-.064-1.855.342-4.72-2.078-5.167a15.285 15.285 0 0 0 .024 5.35c.151.438.446 1.306.597 1.744a80.8 80.8 0 0 0 3.503 18.541 234.294 234.294 0 0 0 12.427 31.582c4.745 9.824 10.684 18.988 16.114 28.437 9.506 16.64 17.849 33.891 26.12 51.167Z" style="fill:#b95d38"></path>
    <path d="M1256.432 982.154c-3.216 4.976-7.345 9.26-10.962 13.916-5.718 7.362-10.807 15.187-16.265 22.745-12.744 17.649-26.36 34.612-40.57 51.055-4.78 5.533-10.23 10.445-15.373 15.628-10.533 9.394-21.782 18.12-34.265 24.791-7.133 3.63-15.11 4.904-22.61 7.523-5.572 1.895-11.44 2.644-17.108 4.164a110.853 110.853 0 0 1-12.355 2.572c-2.914.533-5.844-.2-8.766-.271a144.658 144.658 0 0 1-15.277-1.6c-9.57-1.537-19.21-2.827-28.477-5.756-22.57-5.796-42.998-17.777-61.564-31.574-10.11-8.375-20.126-17.045-28.318-27.363a503.668 503.668 0 0 1-30.873-44.025c-8.208-12.499-15.615-25.479-22.753-38.596-1.852-3.402-3.673-6.829-5.748-10.086-3.481-5.464-6.703-11.36-11.839-15.477-.063.597-.183 1.807-.246 2.405 4.984 8.836 9.498 17.928 14.219 26.908 6.456 12.428 13.223 24.712 20.866 36.454 8.208 13.096 16.845 25.938 26.24 38.222 7.555 11.313 17.359 20.807 27.45 29.854 10.305 9.239 22.116 16.472 34.018 23.39 15.261 9.02 32.49 13.988 49.67 17.865 9.003 1.13 17.944 2.77 26.972 3.75 17.896.732 36.207-1.266 52.854-8.177 15.906-5.493 30.287-14.583 43.277-25.213 5.543-4.536 10.198-9.999 15.62-14.656 4.665-4.076 8.559-8.913 12.674-13.518 15.506-17.353 30.623-35.203 43.07-54.86 4.312-6.812 8.685-13.574 13.207-20.238 1.489-2.595 3.599-4.96 4.57-7.77 1.998-1.433 2.635-3.972 3.43-6.17-.54-.063-1.615-.199-2.157-.262a45.562 45.562 0 0 0-2.61 4.37Z" style="fill:#b95d38"></path>
    <path d="M1089.559 1000.298c7.475-1.632 14.489-4.737 21.264-8.208-10.015 1.52-20.198 1.823-30.101 4.092-14.1 2.173-28.477 1.361-42.513-.852-6.862-.318-13.749-.995-20.62-.501 3.997.676 7.763 2.213 11.711 3.089 19.609 4.816 40.396 6.902 60.259 2.38ZM1215.918 1062.896c-3.96 7.56-8.343 14.943-11.313 22.984-6.623 17.045-12.268 34.472-19.545 51.262-6.153 14.187-12.721 28.398-22.052 40.817l-.215-.398c-.851.876-1.695 1.783-2.523 2.69.016.455.04 1.362.055 1.816.47.032 1.417.087 1.887.111 1.935-2.062 4.307-3.869 5.397-6.56a20.977 20.977 0 0 0 3.328-4.259c8.141-11.71 14.29-24.671 20.333-37.569 7.46-15.874 12.778-32.608 18.59-49.128 2.428-6.6 4.68-13.31 8.025-19.513 1.305-2.81 2.842-5.636 3.048-8.789-2.436 1.489-3.733 4.089-5.015 6.536ZM960.779 1095.004c-.462.032-1.377.08-1.831.111a74.201 74.201 0 0 0 3.821 13.112c9.482 26.431 24.425 50.713 42.465 72.144.51-.04 1.536-.135 2.046-.183-15.094-18.669-26.344-40.045-36.566-61.667-3.566-7.738-6.623-15.676-9.935-23.517ZM1171.9 1111.682c1.593-2.269 1.394-5.254 2.182-7.826a66.231 66.231 0 0 0-2.468-.183c-.47 1.099-.955 2.205-1.353 3.352-4.988 14.357-12.229 27.729-18.319 41.597-7.746 17.698-16.487 34.973-23.207 53.093a23.445 23.445 0 0 0-.175 2.508c.438-.008 1.314-.016 1.744-.024 4.29-8.75 8.2-17.682 12.579-26.383 7.77-16.13 16.288-31.909 23.35-48.372 2.316-5.756 4.832-11.584 5.668-17.762ZM1049.354 1114.875a109.67 109.67 0 0 0 43.922 2.078 74.486 74.486 0 0 0 19.704-6.37c4.888-.803 9.26-3.399 13.439-5.93-.024-.446-.088-1.338-.112-1.784a80.31 80.31 0 0 1-13.422 5.135l.812.446c-3.185-.064-6.178 1.234-9.299 1.624-4.864.709-9.633 1.935-14.473 2.747a107.063 107.063 0 0 1-28.581.55c-3.375-.144-6.695-1.092-10.087-.9-1.114-.988-2.644-1.019-4.004-1.306-4.05-.856-7.834-2.572-11.83-3.583v1.823c4.187 2.357 8.662 4.618 13.502 5.12ZM948.94 1128.648c.088-3.145-1.823-5.844-2.667-8.774-3.996-10.691-7.778-21.455-11.663-32.179-5.23-14.035-12.92-26.948-18.828-40.673-.286-1.338-.684-2.651-1.09-3.933-.51.024-1.537.08-2.046.103a24.73 24.73 0 0 0 .995 6.41l.693-.598c-.08 2.683 1.289 5.087 2.125 7.571 2.476 6.91 5.549 13.582 8.463 20.317 6.735 16.304 13.94 32.402 20.747 48.682l.286.2c1.338 5.023 4.028 9.585 6.544 14.107.541-.048 1.64-.128 2.182-.167-1.712-3.91-3.655-7.723-5.096-11.743Z" style="fill:#b95d38"></path>
    <path d="M1075.905 1261.44c5.772.875 11.52-1.123 17.276-1.569.215.287.637.86.852 1.139-3.487.653-7.078.58-10.501 1.584-3.408 1.05-7.014.748-10.525.502a75.458 75.458 0 0 1 2.898-1.656Z" style="fill:#d6cebc"></path>
    <path d="M1069.345 1288.213c2.578-2.476 4.832-6.29 8.909-6.082 3.36-.31 5.565 2.794 6.647 5.564 2.882 6.083-1.497 14.554-8.335 15.15-3.654.216-6.218-2.682-9.163-4.298.04-3.448-.844-7.658 1.942-10.334Z" style="fill:#b6a787"></path>
    <path d="M922.056 1331.426c2.5-3.073 6.241-4.88 9.665-6.759-2.532 2.572-3.718 6.656-7.285 8.025.47-.987.971-1.887 1.481-2.826q-1.923.788-3.861 1.56Z" style="fill:#d1c8b4"></path>
    <path d="M1387.52 1371.383a5.799 5.799 0 0 1 2.445-2.165c.048 4.235-2.556 7.833-4.315 11.512-7.309 13.63-19.473 23.485-29.847 34.623a340.245 340.245 0 0 0-26.622 29.934c-2.619 3.248-4.952 6.743-7.746 9.856-.62.883-1.855.51-2.73.732.636-2.388 2.507-4.092 3.805-6.106a239.625 239.625 0 0 1 25.468-32.641c9.362-10.007 19.95-18.868 28.564-29.56 4.14-5.055 7.38-10.747 10.979-16.185Z" style="fill:#bbae90"></path>
    <path d="M1080.021 1372.1a7.728 7.728 0 0 1 8.487 6.822c.334 4.594-1.68 10.215-6.417 11.807-4.323 1.576-9.187-1.776-9.737-6.218-1.05-5.143 1.529-12.42 7.667-12.411Z" style="fill:#b6a787"></path>
    <path d="M700.354 1375.117c.334.103 1.019.302 1.353.406 2.993 5.708 4.808 11.958 8.104 17.523 6.815 12.172 15.652 23.04 23.733 34.368 8.653 11.782 16.798 24.05 23.206 37.226 3.686 7.428 5.366 15.604 6.552 23.764a95.842 95.842 0 0 0-3.033.04c-1.449-7.5-3.495-14.959-7.189-21.694-12.642-23.955-31.9-43.58-45.22-67.113-4.17-7.507-7.236-15.882-7.506-24.52Z" style="fill:#b8a98a"></path>
    <path d="M1080.021 1464.457c4.562-.645 8.67 4.012 7.818 8.455-.438 3.152-2.3 6.608-5.684 7.268-2.604.422-5.804.136-7.563-2.062-3.456-4.744-.884-13.151 5.429-13.66Z" style="fill:#b6a787"></path>
    <path d="M672.41 1555.222c.493 0 1.465-.008 1.95-.008a199.898 199.898 0 0 1 5.263 20.89c4.004 17.969 10.078 35.746 20.181 51.262 1.266 2.15 3.368 4.076 3.153 6.791-.454-.016-1.362-.048-1.815-.056a132.114 132.114 0 0 1-17.65-30.889 139.813 139.813 0 0 1-8.869-29.966c-.916-5.979-2.524-11.933-2.213-18.024Z" style="fill:#bdb093"></path>
    <path d="M1078.445 1561.6c3.93-1.25 8.582 1.743 8.367 5.978.454 5.278-5.852 10.564-10.764 7.555-5.27-3.2-3.106-11.785 2.397-13.534Z" style="fill:#b6a787"></path>
  </g>
</svg>
