<svg xmlns="http://www.w3.org/2000/svg" viewBox="0 0 2121 1887.494" id="girl">
  <g id="art">
    <path d="M1065.599 293.408c13.639-5.509 27.633-11.019 42.448-12.085 11.146-.208 22.308-.303 33.461.016a171.92 171.92 0 0 1 31.288 6.265c15.747 4.283 30.73 11.026 45.012 18.86a107.145 107.145 0 0 1 17.172 12.308c16.042 15.126 30.316 32.036 43.444 49.733 13.423 17.929 25.715 36.813 35.18 57.153 4.108 8.909 8.312 17.77 12.34 26.718 5.183 10.803 10.15 21.766 13.797 33.198 5.39 15.532 9.33 31.494 14.1 47.217a234.388 234.388 0 0 1 8.772 49.806c2.222 20.101 1.29 40.355 1.473 60.544.151 19.147-.7 38.277-2.396 57.344-.175 8.766-.98 17.499-1.568 26.24-.542 15.66-1.824 31.296-1.712 46.98-.008 10.611-.064 21.231.167 31.844.756 9.8 1.011 19.68 2.978 29.337a156.07 156.07 0 0 0 6.99 27.131c5.684 15.429 11.726 30.714 17.474 46.12 2.42 7.268 5.374 14.385 6.95 21.908 2.046 9.068 4.363 18.104 5.422 27.363 2.11 11.337 2.309 22.928 2.197 34.432a327.31 327.31 0 0 1-2.094 38.19c-.445 7.244-2.571 14.226-3.733 21.36-1.131 7.81-3.838 15.245-5.9 22.832-2.436 9.06-5.899 17.793-8.359 26.837l-.127.446c-2.715 3.01-3.018 7.252-4.427 10.906-5.381 15.182-10.986 30.293-15.691 45.706-4.196 13.932-7.038 28.508-6.178 43.117.279 5.947.43 11.958 1.942 17.762-.533 9.21 1.235 18.374.701 27.6-.605 10.016-.66 20.079-1.95 30.054-1.72 13.685-4.148 27.387-9.004 40.347-3.097 9.37-7.97 17.985-12.213 26.853-5.079 10.254-11.91 19.537-16.814 29.87-7.491 10.143-10.604 22.602-13.422 34.68-4.108 18.82-3.599 38.197-5.7 57.256-2.636 19.29-9.307 38.572-21.99 53.61-4.044 4.435-8.502 8.98-14.417 10.756-5.445 2.142-11.058 4.148-16.997 4.14-17.212 1.194-34.217-8.837-42.33-23.884a87.447 87.447 0 0 1-7.81-29.615c-.795-7.643.295-15.294 1.083-22.88 1.075-9.92 3.893-19.521 5.605-29.33a69.81 69.81 0 0 1 3.312-11.798 253.967 253.967 0 0 0 7.436-25.165c2.046-8.391 2.898-17.013 3.773-25.587a121.816 121.816 0 0 0-.446-24.624c-1.027-8.057-2.595-16.137-5.82-23.629-5.604-13.032-11.44-26.104-19.68-37.736-4.856-6.56-6.551-14.688-9.688-22.084-6.122-15.062-6.003-31.717-4.402-47.64.605-6.957 2.786-13.621 4.084-20.452 1.711-8.94 5.485-17.267 8.359-25.85 4.601-13.725 11.806-26.335 18.104-39.312a142.962 142.962 0 0 0 13.016-37.194c1.919-9.506-.255-19.107-1.003-28.613a10.829 10.829 0 0 0-2.524-5.915 241.577 241.577 0 0 0-4.936 6.703c-4.227-4.967-7.945-10.35-12.499-15.022-5.549-5.613-9.577-13.065-17.037-16.464-5.676-2.611-11.209-7.077-17.825-6.114-5.095.613-10.07 1.966-15.166 2.627a213.187 213.187 0 0 1-24.671 2.11c-11.854.342-23.621-1.41-35.451-1.807a255.292 255.292 0 0 1-48.953-5.223c-7.89-1.489-15.716-3.312-23.621-4.665-.382 1.815-.788 3.63-1.234 5.445-2.93 7.762-6.64 15.214-9.386 23.056-2.27 5.899-3.758 12.06-5.852 18.024-3.63 7.443-4.315 15.763-6.584 23.636-1.21 4.793-1.974 9.681-3.089 14.506a17.85 17.85 0 0 0-.063 8.28c2.078 9.417 4.036 18.939 7.786 27.88a172.911 172.911 0 0 1 6.966 19.25c1.457 5.302 2.078 11.4 6.464 15.26 1.202 1.187 2.476 2.302 3.686 3.496 5.215 11.758 10.827 23.35 15.095 35.499 5.668 16.264 10.484 33.015 11.726 50.274.661 8.423-.907 16.806-.652 25.237-.598 11.607-1.187 23.279-3.288 34.743-2.484 14.967-7.237 29.408-10.732 44.152-1.847 7.699-5.032 14.983-7.364 22.538-2.253 7.285-5.199 14.346-7.324 21.678a80.645 80.645 0 0 1-5.932 14.577c-4.426 8.383-6.623 17.674-10.285 26.376a82.782 82.782 0 0 0-5.438 42.106c.948 10.135 3.742 19.959 5.995 29.855 1.592 7.037 3.487 14.393 1.688 21.59-1.338 5.111-3.543 10.525-8.16 13.494-6.099 3.981-13.98 4.029-20.819 2.261-14.648-4.458-28.62-12.459-38.389-24.432-4.697-6.162-9.235-12.603-11.981-19.895-2.572-6.895-5.27-13.781-6.894-20.962-2.747-12.786-3.392-25.906-5.828-38.739-3.352-18.056-6.863-36.215-13.335-53.46-6.727-18.573-14.664-37.074-26.972-52.694-4.26-6.075-9.538-11.456-12.89-18.128-6.806-12.889-9.712-27.37-11.75-41.668-2.221-28.294 3.98-56.35 3.662-84.62-.103-7.189-.008-14.417-1.115-21.535a187.637 187.637 0 0 0-6.146-26.343c-2.165-6.823-4.362-13.709-7.985-19.919-3.224-5.525-6.138-11.233-9.665-16.575-4.235-6.687-8.773-13.184-12.61-20.11a15.269 15.269 0 0 0-4.06-4.593c-8.312-15.716-18.08-30.802-24.099-47.632-3.303-7.587-4.72-15.787-6.926-23.716-4.116-19.163-4.705-38.89-4.315-58.42.956-15.054 2.237-30.132 5.446-44.9 2.874-15.238 6.345-30.348 9.481-45.522 3.01-15.142 6.895-30.093 9.864-45.243 2.548-11.839 4.196-23.852 6.114-35.802 1.378-8.327 1.473-16.782 2.357-25.157.294-11.145.127-22.299.08-33.453.04-9.856-1.569-19.616-1.752-29.464-1.305-19.648-3.933-39.2-4.896-58.88-.876-7.683-.287-15.43-1.099-23.112-.278-11.67-.135-23.358-.11-35.029 1.432-27.211 2.73-54.67 9.194-81.26 1.011-3.415 2.357-6.742 2.77-10.301.67-5.676 3.002-10.923 4.73-16.305 10.102-29.122 25.579-57.033 48.427-78.09 9.394-9.212 20.405-16.6 31.813-23.072a97.968 97.968 0 0 1 19.441-8.431 51.984 51.984 0 0 0 9.116-3.678c7.085-3.949 14.362-7.555 21.765-10.867 8.312-3.598 16.783-7.077 25.755-8.622 8.248-1.727 16.71-.74 25.062-1.027a132.607 132.607 0 0 1 14.775-16.28c9.522-9.76 21.488-16.607 33.27-23.24 8.933-4.656 17.606-9.85 26.965-13.628Z" style="fill:#a1ae9c"></path>
    <path d="M1015.125 1014.999c7.905 1.353 15.731 3.176 23.62 4.665a255.292 255.292 0 0 0 48.954 5.222c11.83.399 23.597 2.15 35.45 1.808a213.187 213.187 0 0 0 24.672-2.11c5.095-.66 10.071-2.014 15.166-2.627 6.616-.963 12.15 3.503 17.825 6.114 7.46 3.4 11.488 10.851 17.037 16.464 4.554 4.673 8.272 10.055 12.5 15.022a62.588 62.588 0 0 0-1.314 1.824c-3.432-6.194-8.184-11.457-13.009-16.568-5.055-5.294-8.9-12.069-15.612-15.5-3.725-1.871-7.396-3.861-11.217-5.501-2.205-.995-4.673-.685-6.95-.2a188.684 188.684 0 0 1-52.552 4.523c-6.663-.382-13.27-1.537-19.958-1.537-10.119.072-20.15-1.409-30.213-2.277-10.97-1.01-21.614-3.9-32.426-5.803-3.574-.677-7.133-1.441-10.675-2.221-.868 1.369-1.76 2.722-2.532 4.147.446-1.815.852-3.63 1.234-5.445Z" style="fill:#bfae67"></path>
    <path d="M1215.284 1052.854a10.829 10.829 0 0 1 2.524 5.915c.748 9.506 2.922 19.107 1.003 28.613a142.962 142.962 0 0 1-13.016 37.194c-6.298 12.977-13.503 25.587-18.104 39.312-2.874 8.583-6.648 16.91-8.36 25.85-1.297 6.83-3.478 13.494-4.083 20.452-1.6 15.923-1.72 32.577 4.402 47.64 3.137 7.396 4.832 15.524 9.689 22.084 8.24 11.632 14.075 24.704 19.68 37.736 3.224 7.492 4.792 15.572 5.82 23.629a121.816 121.816 0 0 1 .445 24.624c-.875 8.574-1.727 17.196-3.773 25.587a253.967 253.967 0 0 1-7.436 25.165 69.81 69.81 0 0 0-3.312 11.798c-1.712 9.809-4.53 19.41-5.605 29.33-.788 7.586-1.878 15.237-1.082 22.88a87.447 87.447 0 0 0 7.81 29.615c8.112 15.047 25.117 25.078 42.329 23.884 5.94.008 11.552-1.999 16.997-4.14.183.51.541 1.52.725 2.03-3.79 2.46-7.03 5.668-10.851 8.065-4.682 2.882-10.461 2.436-15.708 2.046-6.815-.86-14.027-1.752-19.791-5.796a122.843 122.843 0 0 1-12.818-9.522 52.366 52.366 0 0 1-13.16-17.872c-3.837-8.543-7.602-17.236-9.378-26.48-2.961-15.372-.382-31.016.932-46.405.716-17.976 6.416-35.228 8.494-53.013.932-8.343 2.58-16.623 2.787-25.022.167-12.324-5.064-23.876-11.003-34.384-3.63-6.536-8.645-12.141-12.507-18.51-3.383-5.541-6.257-11.36-9.179-17.14-3.742-7.34-6.178-15.238-8.845-23-5.573-16.766-6.018-34.71-5.047-52.193.629-14.354 3.75-28.494 8.08-42.163 2.5-8.017 6.186-15.66 7.89-23.915a86.417 86.417 0 0 0-5.127-46.748c-.772-2.468-2.094-5.214-.987-7.77 5.04-1.64 10.23-2.85 15.134-4.936 7.77-2.38 14.6-6.87 21.272-11.377 6.05-4.33 13.064-7.85 16.91-14.536.43-.621.867-1.227 1.313-1.824a241.577 241.577 0 0 1 4.936-6.703ZM998.653 1061.524c1.346-.048 2.707-.096 4.068-.128 3.352 6.425 8.559 11.512 13.59 16.623 2.611 2.946 5.772 5.74 7.022 9.594.461 3.678-1.21 7.188-2.27 10.636-2.841 8.39-5.795 16.75-8.2 25.284a64.79 64.79 0 0 0-2.109 26.176c.653 4.785.263 9.681 1.417 14.41a74.068 74.068 0 0 1 1.648 9.713c-1.21-1.194-2.484-2.309-3.686-3.495-.94-5.549-3.917-10.358-6.464-15.262a172.911 172.911 0 0 0-6.966-19.25c-3.75-8.94-5.708-18.462-7.786-27.88a17.85 17.85 0 0 1 .063-8.28c1.115-4.824 1.88-9.712 3.09-14.505 2.268-7.873 2.953-16.193 6.583-23.636ZM802.37 1094.539a15.269 15.269 0 0 1 4.061 4.593c3.837 6.926 8.375 13.423 12.61 20.11 3.527 5.342 6.441 11.05 9.665 16.575 3.623 6.21 5.82 13.096 7.985 19.92a187.637 187.637 0 0 1 6.146 26.342c1.107 7.118 1.012 14.346 1.115 21.535.318 28.27-5.883 56.326-3.662 84.62 2.038 14.298 4.944 28.78 11.75 41.668 3.352 6.672 8.63 12.053 12.89 18.128 12.308 15.62 20.245 34.121 26.972 52.695 6.472 17.244 9.983 35.403 13.335 53.459 2.436 12.833 3.08 25.953 5.828 38.739 1.624 7.181 4.322 14.067 6.894 20.962 2.747 7.292 7.284 13.733 11.981 19.895 9.769 11.973 23.74 19.974 38.39 24.432-.9 7.468-.455 15.405-4.03 22.276-3.112 6.504-9.027 12.42-16.598 12.817-12.666.573-25.715-4.044-34.6-13.231-8.598-8.718-15.15-19.234-21.089-29.87-6.185-10.923-11.09-22.817-12.395-35.388a252.67 252.67 0 0 1-1.162-37.385c.286-7.412.063-14.824-.35-22.22a114.078 114.078 0 0 0-7.779-36.152c-5.923-14.489-16.885-25.961-26.311-38.181-7.85-10.422-16.448-20.604-21.265-32.888-5.222-12.013-9.999-24.353-12.029-37.362-3.415-18.223-3.383-36.852-2.802-55.314.398-11.217 3.336-22.164 3.885-33.365.414-14.131.438-28.453-3.057-42.25-3.575-15.094-9.06-29.902-17.594-42.926a64.304 64.304 0 0 1-8.885-26.91c6.648-5.174 13.55-10.022 20.102-15.324Z" style="fill:#bc983c"></path>
    <path d="M1375.948 1112.411c1.36-3.673 1.712-7.897 4.427-10.906-1.393 6.464-3.814 12.65-6.059 18.852-3.734 9.53-6.71 19.33-10.015 29.01-5.167 15.134-9.434 30.945-8.893 47.075a114.56 114.56 0 0 0 1.075 18.613 51.28 51.28 0 0 0-.382 3.16l-.08.78c-1.512-5.803-1.663-11.814-1.942-17.76-.86-14.61 1.982-29.187 6.178-43.118 4.705-15.413 10.102-30.599 15.691-45.706Z" style="fill:#c0ae65"></path>
    <path d="m1380.375 1101.505.127-.446c4.992 4.379 10.612 7.937 16.026 11.767-4.267 5.803-6.425 12.801-9.737 19.154-10.628 22.005-17.657 45.45-25.38 68.57-1.504 4.88-3.049 9.752-4.928 14.505a114.56 114.56 0 0 1-1.075-18.614c-.54-16.129 3.726-31.94 8.893-47.074 3.304-9.68 6.281-19.48 10.015-29.01 2.245-6.202 4.666-12.388 6.059-18.852Z" style="fill:#dfaf33"></path>
    <path d="M1386.791 1131.98c3.215-6.403 5.47-13.35 9.737-19.155l.43-.573-.279.749c-5.382 12.18-11.416 24.082-16.376 36.462-6.066 14.871-10.7 30.268-15.795 45.482-2.723 8.24-5.421 16.495-7.85 24.83-.143-.39-.414-1.17-.557-1.56a51.28 51.28 0 0 1 .382-3.16c1.88-4.753 3.424-9.625 4.928-14.506 7.723-23.119 14.417-46.73 25.38-68.569Z" style="fill:#9d7c35"></path>
    <path d="M1333.552 1639.997a218.341 218.341 0 0 1 2.097-23.087c3.32-19.935 6.178-39.941 9.33-59.9.852-6.018 2.23-11.997 2.27-18.095.047-6.226 1.918-12.22 2.993-18.295.82-9.768 2.961-19.346 4.601-28.987 3.169-18.072 17.244-87.756 20.325-104.689 3.75-20.572 8.367-40.968 12.54-61.452 2.738-14.593 28.858-126.272 32.902-143.046 4.578-16.249 8.686-32.633 12.818-48.993-6.767-3.368-13.208-7.332-19.95-10.732-5.805-2.882-11.314-6.281-16.799-9.72-5.382 12.18-11.377 24.098-16.376 36.462-6.02 14.89-10.7 30.268-15.795 45.482-2.723 8.24-5.421 16.495-7.85 24.83 1.13 5.955 1.155 12.038 1.434 18.072.214 21.074-1.083 42.266-5.709 62.878-2.826 12.968-8.343 25.101-13.788 37.139-6.449 13.096-14.633 25.22-21.814 37.919a58.207 58.207 0 0 1-.995 7.005c-3.814 18.28-7.818 36.518-11.265 54.869-2.97 15.062-4.427 30.363-7.022 45.482-3.352 20.77-6.536 41.573-9.283 62.431-1.178 8.598-1.48 17.284-2.73 25.882-1.529 10.867-3.081 21.742-4.84 32.585-1.497 8.693-1.927 17.514-2.437 26.303-.12 3.221-.328 6.44-.522 9.657Z" style="fill:#4e3e37"></path>
    <path d="m1433.428 1133.453.414.955c-1.64 10.445-5 20.54-7.428 30.818-3.041 13.406-6.767 26.646-9.498 40.116-4.044 17.539-8.168 35.053-11.806 52.687-4.402 19.33-9.195 38.572-13.701 57.878-3.2 16.081-33.318 168.155-35.172 176.538-3.018 9.164-3.312 18.924-5.995 28.175.82-9.768 2.961-19.346 4.601-28.987 3.169-18.071 6.958-36.016 10.437-54.016 3.137-16.926 6.807-33.74 9.888-50.673 3.75-20.571 8.367-40.968 12.539-61.452 2.739-14.593 6.687-28.907 9.991-43.365 4.069-16.344 7.603-32.807 11.21-49.247 4.092-16.774 7.658-33.66 11.702-50.434 4.578-16.249 8.686-32.633 12.818-48.993Z" style="fill:#9b7a35"></path>
    <path d="M725.641 1300.98c2.301 16.606 3.495 33.349 5.772 49.964 2.914 22.681 6.671 45.243 10.167 67.845 3.335 18.135 6.138 36.35 8.988 54.565 2.707 18.685 7.109 37.06 10.46 55.633a89.201 89.201 0 0 1 1.298 17.952 477.232 477.232 0 0 0 4.666 49.718c1.48 7.802 2.093 15.89 5.39 23.238 1.806 4.347 3.948 8.598 4.951 13.24a28.135 28.135 0 0 1-5.294-7.667c.566 4.855 1.462 9.668 2.028 14.529h58.535c-1.12-5.57-2.337-11.12-3.314-16.718-2.858-15.079-4.538-30.332-7.094-45.45-3.574-21.854-6.13-43.858-9.92-65.68q-4.179-23.668-7.475-47.472c-2.532-18.39-5.501-36.71-8.67-55.004-3.43-21.798-7.212-43.547-10.293-65.4-2.253-15.103-3.623-30.333-6.322-45.371-3.144-18.184-7.252-36.184-11.05-54.232-4.084-19.361-8.168-38.739-12.937-57.941-3.662-14.64-8.693-28.9-12.268-43.556l-.246-.637c-11.783 10.812-24.29 20.843-35.515 32.26 4.307 21.12 6.838 42.528 9.585 63.887 2.93 20.755 6.098 41.478 8.558 62.297Z" style="fill:#4e3e37"></path>
    <path d="M768.464 1244.67c3.798 18.048 7.906 36.048 11.05 54.232 2.7 15.038 4.069 30.268 6.322 45.37 3.08 21.854 6.862 43.603 10.293 65.401 3.169 18.295 6.138 36.613 8.67 55.004q3.296 23.812 7.476 47.472c3.79 21.822 6.345 43.826 9.92 65.68 2.555 15.118 4.235 30.372 7.093 45.45.977 5.598 2.194 11.148 3.314 16.718h.981c-3.288-14.949-5.688-30.084-7.671-45.259-3.192-20.532-6.297-41.087-9.092-61.675-2.531-18.374-6.289-36.558-8.789-54.932-7.07-52.886-17.69-105.239-24.162-158.212-2.285-19.274-6.329-38.277-10.39-57.233-7.077-31.67-12.896-63.689-22.258-94.801-2.74-8.208-4.252-16.854-7.962-24.712 3.575 14.657 8.606 28.915 12.268 43.556 4.77 19.202 8.853 38.58 12.937 57.941Z" style="fill:#9d7c35"></path>
    <path d="M1003.669 1155.075c2.547 4.904 5.525 9.713 6.464 15.262-4.386-3.861-5.007-9.96-6.464-15.262Z" style="fill:#b0a268"></path>
    <path d="m706.67 1174.922.828-.127c4.307 21.121 6.838 42.529 9.585 63.888 2.93 20.755 6.098 41.478 8.558 62.297 2.301 16.606 3.495 33.349 5.772 49.964 2.914 22.681 6.671 45.243 10.167 67.845 3.335 18.135 6.138 36.35 8.988 54.565 2.706 18.685 7.109 37.06 10.46 55.633a89.201 89.201 0 0 1 1.298 17.952c-2.34-18.454-6.735-36.573-10.286-54.82-3.144-17.539-5.564-35.196-8.558-52.759-5.54-37.155-12.252-74.166-15.962-111.575-1.56-16.846-3.94-33.596-6.034-50.387-2.365-18-5.303-35.92-7.373-53.96-1.863-16.034-4.434-31.964-7.324-47.839Z" style="fill:#a07e35"></path>
    <path d="m1356.022 1218.995.08-.78c.142.39.413 1.17.556 1.56 1.13 5.956 1.155 12.038 1.433 18.073.215 21.073-1.082 42.265-5.708 62.877-2.826 12.968-8.343 25.101-13.789 37.139-6.448 13.096-14.632 25.22-21.813 37.919l-.04-.685v-1.377c4.904-10.334 11.735-19.617 16.814-29.87 4.243-8.87 9.116-17.483 12.213-26.854 4.856-12.96 7.284-26.662 9.004-40.347 1.29-9.975 1.345-20.038 1.95-30.053.534-9.227-1.234-18.39-.7-27.601Z" style="fill:#757166"></path>
    <path d="M1303.319 1408.4c2.731-12.098 5.93-24.537 13.422-34.68v1.378c-.947 2.524-2.126 4.96-3.192 7.436-4.164 5.405-5.366 12.236-7.11 18.66a171.143 171.143 0 0 0-5.421 45.483c-1.33 14.067-2.484 28.246-6.449 41.883-1.544 3.105-3.073 6.234-4.37 9.466-5.836 13.741-15.023 26.614-28.262 34.026l-.725-2.03c5.915-1.775 10.373-6.321 14.418-10.756 12.682-15.038 19.353-34.32 21.989-53.61 2.101-19.059 1.457-38.466 5.7-57.257Z" style="fill:#beab63"></path>
    <path d="M1277.687 1639.997c.194-3.218.401-6.436.522-9.657.51-8.789.94-17.61 2.436-26.303 1.76-10.843 3.312-21.718 4.84-32.585 1.25-8.598 1.553-17.284 2.731-25.882 2.747-20.858 5.932-41.66 9.283-62.431 2.595-15.118 4.052-30.42 7.022-45.482 3.447-18.35 7.452-36.59 11.265-54.869a58.207 58.207 0 0 0 .995-7.005l-.04-.685c-.947 2.524-2.125 4.96-3.192 7.436a88.096 88.096 0 0 1-1.712 11.161c-3.933 17.594-7.205 35.324-10.82 52.982-1.329 14.067-2.483 28.246-6.447 41.883-.574 8.28-2.23 16.416-3.384 24.624q-2.173 14.653-4.172 29.329c-1.536 11.178-1.958 22.482-3.717 33.636-2.198 16.718-5.924 33.286-6.322 50.203-.197 4.547-.53 9.095-.815 13.645Z" style="fill:#9b7a35"></path>
    <path d="M1306.44 1401.195c1.712-6.433 2.945-13.256 7.109-18.661a88.105 88.105 0 0 1-1.712 11.161c-3.933 17.594-7.205 35.324-10.82 52.982a168.195 168.195 0 0 1 5.422-45.482Z" style="fill:#deae33"></path>
    <path d="M751.22 1167.885c9.363 31.112 15.182 63.132 22.26 94.801 4.06 18.956 8.104 37.96 10.39 57.233 6.472 52.974 17.092 105.326 24.161 158.212 2.5 18.374 6.258 36.558 8.79 54.932 2.794 20.588 5.899 41.143 9.091 61.675 1.983 15.175 4.383 30.31 7.671 45.259h442.577c.285-4.55.618-9.098.815-13.645.398-16.918 4.124-33.485 6.322-50.203 1.759-11.154 2.18-22.458 3.717-33.636q1.97-14.688 4.172-29.329c1.154-8.208 2.81-16.344 3.384-24.624-1.545 3.105-3.074 6.234-4.371 9.466-5.836 13.741-15.023 26.614-28.262 34.026-3.79 2.46-7.03 5.668-10.851 8.065-4.682 2.882-10.473 2.57-15.708 2.046-6.834-.685-14.027-1.752-19.791-5.796a122.843 122.843 0 0 1-12.818-9.522 52.363 52.363 0 0 1-13.16-17.872c-3.837-8.543-7.602-17.236-9.378-26.48-2.961-15.372-.033-30.99.932-46.405 1.123-17.955 6.416-35.228 8.494-53.013.932-8.343 2.58-16.623 2.787-25.022.167-12.324-5.064-23.876-11.003-34.384-3.63-6.536-8.645-12.141-12.507-18.51-3.383-5.541-6.257-11.36-9.179-17.14-3.742-7.34-6.178-15.238-8.845-23-5.573-16.766-6.018-34.71-5.047-52.193.629-14.354 3.75-28.493 8.08-42.163 2.5-8.017 6.186-15.66 7.89-23.915a86.416 86.416 0 0 0-5.127-46.748c-.772-2.468-2.094-5.214-.987-7.77 5.04-1.64 10.23-2.85 15.134-4.936 7.77-2.38 14.6-6.87 21.272-11.377 6.05-4.33 13.064-7.85 16.91-14.536-3.431-6.194-8.184-11.457-13.009-16.568-5.055-5.294-8.9-12.069-15.612-15.5-3.725-1.871-7.396-3.861-11.217-5.501-2.205-.995-4.673-.685-6.95-.2a188.675 188.675 0 0 1-52.552 4.523c-6.663-.382-13.27-1.537-19.958-1.537-10.119.072-20.15-1.409-30.213-2.277-10.97-1.01-21.614-3.9-32.426-5.803-3.574-.677-7.133-1.441-10.675-2.222-.868 1.37-1.76 2.723-2.532 4.148-2.93 7.762-6.64 15.214-9.386 23.056-2.27 5.899-3.758 12.06-5.852 18.024 1.346-.048 2.707-.096 4.068-.128 3.352 6.425 8.694 11.383 13.59 16.623 2.687 2.877 5.772 5.74 7.022 9.593.461 3.679-1.21 7.19-2.27 10.636-2.841 8.392-5.795 16.751-8.2 25.285a64.788 64.788 0 0 0-2.109 26.176c.653 4.785.263 9.681 1.417 14.41a74.101 74.101 0 0 1 1.648 9.713c5.215 11.758 10.827 23.35 15.095 35.499 5.668 16.264 10.484 33.015 11.726 50.274.661 8.423-.907 16.806-.652 25.237-.598 11.608-1.187 23.279-3.288 34.743-2.484 14.967-7.237 29.408-10.732 44.152-1.847 7.699-5.032 14.983-7.364 22.538-2.253 7.285-5.199 14.346-7.324 21.678a80.645 80.645 0 0 1-5.932 14.577c-4.426 8.384-6.623 17.674-10.285 26.376a82.782 82.782 0 0 0-5.438 42.106c.948 10.135 3.742 19.959 5.995 29.855 1.592 7.037 3.487 14.393 1.688 21.59-1.338 5.111-3.543 10.525-8.16 13.494-6.099 3.981-13.98 4.029-20.819 2.261-.9 7.468-.454 15.405-4.028 22.276-3.113 6.504-9.028 12.42-16.6 12.817-12.665.573-25.714-4.044-34.598-13.231-8.598-8.718-15.15-19.234-21.09-29.87-6.185-10.923-11.09-22.817-12.395-35.388a252.67 252.67 0 0 1-1.162-37.385c.286-7.412.063-14.824-.35-22.22a114.078 114.078 0 0 0-7.779-36.152c-5.923-14.489-16.885-25.961-26.311-38.181-7.85-10.422-16.225-20.694-21.265-32.888-5.003-12.106-9.999-24.353-12.029-37.362-3.415-18.223-3.383-36.852-2.802-55.314.398-11.217 3.336-22.164 3.885-33.365.414-14.131.438-28.453-3.057-42.25-3.575-15.094-9.06-29.902-17.594-42.926a64.304 64.304 0 0 1-8.885-26.91c-13.375 10.533-26.55 21.337-39.257 32.673l.247.637c3.71 7.858 5.223 16.504 7.962 24.712ZM1579.109 1639.997c1.901-8.316 3.283-16.762 4.721-25.157 2.563-14.45 5.86-28.772 7.69-43.34 2.445-19.633 3.408-39.4 4.34-59.144.724-6.297.278-12.634.724-18.947 1.043-14.052-.024-28.175 1.186-42.227.207-11.137.37-22.286.12-33.42-.648-28.737-4.929-57.265-9.275-85.655a341.073 341.073 0 0 0-10.827-45.704c-2.906-10.063-5.716-20.198-10.111-29.728-4.514-10.556-11.21-19.942-17.411-29.535a163.466 163.466 0 0 0-29.432-33.453 322.334 322.334 0 0 0-27.904-22.3c-14.649-9.847-29.146-19.958-44.448-28.787-4.912-2.675-9.402-6.162-14.64-8.192-1.64 10.445-5 20.54-7.428 30.818-3.041 13.406-6.767 26.646-9.498 40.116-4.044 17.538-8.168 35.053-11.806 52.687-4.402 19.33-9.195 38.572-13.701 57.878-3.2 16.081-33.317 168.155-35.172 176.538-3.018 9.163-3.312 18.924-5.995 28.175-1.075 6.074-2.946 12.069-2.994 18.295-.04 6.098-1.417 12.077-2.268 18.095-3.153 19.959-6.011 39.965-9.331 59.9a218.341 218.341 0 0 0-2.097 23.087ZM551.634 1635.897c.202 1.358.322 2.726.402 4.1h221.558c-1.273-5.691-1.948-11.5-3.163-17.204.645-.979 1.297-1.95 1.95-2.898-3.296-7.348-4.065-15.408-5.39-23.238-2.78-16.428-3.948-33.079-4.665-49.718-2.34-18.454-6.735-36.573-10.286-54.82-3.144-17.538-5.564-35.196-8.558-52.759-5.54-37.154-12.252-74.166-15.962-111.575-1.56-16.846-3.94-33.596-6.034-50.386-2.365-18-5.303-35.921-7.372-53.961-1.863-16.034-4.435-31.964-7.325-47.839-5.66 4.984-10.787 10.538-16.535 15.437-11.477 9.782-22.896 19.632-34.719 29.002-14.417 10.987-29.026 21.766-42.632 33.78-8.82 7.85-17.84 15.73-24.75 25.388-13.105 19.083-21.703 40.928-27.578 63.22-4.419 16.558-5.462 33.73-7.309 50.696-1.6 19.011-3.837 37.955-5.174 56.994-.733 10.427-.613 20.882-1.107 31.319-.342 9.299-.382 18.597-.406 27.896-.852 13.247-.223 26.526-.732 39.79.127 7.674.413 15.359.668 23.04.708 21.318 2.643 42.568 5.12 63.736Z" style="fill:#dfaf33"></path>
    <path d="M774.067 1639.997c-.566-4.861-1.462-9.674-2.028-14.529a28.135 28.135 0 0 0 5.294 7.667c-1.003-4.642-3.145-8.893-4.952-13.24-.653.948-1.305 1.919-1.95 2.898 1.215 5.704 1.89 11.513 3.163 17.204Z" style="fill:#a07e35"></path>
    <path d="M1112.02 302.077a84.453 84.453 0 0 1 31.534 2.325c8.55 2.165 17.332 3.32 25.77 5.93a158.124 158.124 0 0 1 26.041 9.84c5.175 2.294 9.554 5.948 14.545 8.567a122.98 122.98 0 0 1 16.735 10.995c3.184 2.404 6.592 4.53 9.561 7.22 9.243 9.084 18.812 17.929 26.71 28.239 3.622 5.214 7.46 10.325 10.142 16.113 2.532 5.549 6.21 10.485 8.622 16.09 3.113 6.631 4.88 13.804 8.36 20.268 5.318 11.64 10.007 23.597 16.368 34.727 4.888 9.275 11.137 17.785 15.412 27.386 3.862 8.75 7.787 17.491 10.995 26.503 5.557 17.81 8.367 36.295 11.32 54.67a107.67 107.67 0 0 1 .096 31.541c-2.014 20.246-6.942 40.14-7.555 60.521-.852 12.475.406 24.935.645 37.402 1.17 18.16-.072 36.82-6.576 53.968a173.954 173.954 0 0 0-10.453 42.354c-1.385 10.318-.98 20.778-2.651 31.072-1.99 15.477-8.152 29.918-12.881 44.662a368.268 368.268 0 0 0-13.073 50.052 256.976 256.976 0 0 0-3.383 54.144c.98 11.95 2.181 23.883 2.946 35.849.262 8.773.772 17.538.939 26.32.613 11.145.717 22.442-1.68 33.405-3.558 15.794-9.123 31.056-13.215 46.716-4.244 15.73-6.727 31.884-8.59 48.061-1.02 10.82-2.19 21.806-.406 32.617 1.035 9.943 3.59 19.632 5.087 29.504 3.248 16.074 7.658 32.012 8.208 48.5.063 8.422.756 16.989-1.067 25.292a199.87 199.87 0 0 1-9.33 29.6c-3.073 7.348-5.072 15.078-7.58 22.625-1.926 5.557-3.168 11.297-4.72 16.965a62.082 62.082 0 0 0-2.397-.127c1.17-9.928 4.188-19.45 6.552-29.114 1.33-5.764 3.766-11.161 5.62-16.75a202.444 202.444 0 0 0 7.054-23.072c1.975-8.064 1.29-16.44 1.258-24.655-.35-14.044-3.519-27.785-6.711-41.39-1.974-7.675-2.38-15.636-4.22-23.335a186.586 186.586 0 0 1-3.168-24.663c.143-17.053 2.834-33.955 5.764-50.713 2.707-15.19 7.34-29.934 12.149-44.566 3.08-10.652 6.68-21.273 7.555-32.394 1.138-10.97-.685-21.917-1.115-32.872-.175-18.112-2.5-36.096-3.742-54.136-1.393-34.703 5.732-69.262 17.332-101.839 4.984-14.935 11.28-29.631 13.223-45.387 1.529-9.768 1.139-19.703 2.429-29.496 1.592-15.365 5.644-30.395 11.026-44.845 6.52-17.403 7.682-36.295 6.4-54.685-.421-10.612-.963-21.24-.461-31.86-.374-17.714 3.702-35.07 5.676-52.576 1.704-13.16 3.599-26.59 1.139-39.79-3.71-19.242-6.218-38.81-12.245-57.527-2.826-8.065-6.273-15.89-9.665-23.732-4.466-10.262-11.01-19.418-16.01-29.4-5.93-10.868-10.675-22.316-15.73-33.597-4.658-8.797-6.45-18.852-11.76-27.339-3.813-5.899-6.201-12.594-10.293-18.31-8.503-13.423-20.293-24.282-31.654-35.228-8.439-6.242-16.742-12.842-26.16-17.579-3.821-1.966-7.26-4.585-11.106-6.496-13.144-6.234-26.972-11.201-41.374-13.494-10.35-1.632-20.492-5.04-31.08-4.721-7.755-.39-15.381 1.258-23.096 1.608-12.069.796-24.186 2.086-35.777 5.676a22.038 22.038 0 0 1-5.716 1.195c2.102-4.944 7.722-5.995 12.332-7.34 13.327-4.037 27.389-3.766 41.095-5.494Z" style="fill:#828e7d"></path>
    <path d="M1091.313 325.284c9.216-1.226 18.59-2.635 27.88-1.25 9.235.892 17.953 4.251 27.052 5.844 7.38 1.17 14.346 3.956 21.567 5.787 6.576 1.68 12.666 4.84 19.29 6.353 9.036 2.97 18.255 6.313 25.667 12.467 3.264 2.548 7.252 3.886 10.675 6.17a92.442 92.442 0 0 1 12.905 10.947c11.879 10.158 19.155 24.297 26.766 37.664 4.729 7.754 7.547 16.496 9.53 25.317 1.512 7.212 5.063 13.733 7.443 20.659 3.885 9.896 7.396 20.022 12.85 29.21 5.66 9.967 11.113 20.15 14.385 31.199 3.718 12.674 7.659 25.412 8.94 38.62 1.1 12.626 2.134 25.34.948 38.006-1.154 9.052-2.54 18.088-4.594 26.989-2.11 9.179-2.945 18.581-4.108 27.911-2.468 17.913-2.093 36.049-2.061 54.08a283.17 283.17 0 0 1-17.778 101.768c-6.44 19.027-14.505 37.457-20.723 56.564a490.476 490.476 0 0 0-12.1 47.671c-3.161 15.437-6.083 30.993-7.086 46.74a142.77 142.77 0 0 0 6.544 53.802c2.333 7.451 5.676 14.593 7.141 22.3 2.994 17.044 4.769 34.55 2.245 51.778-2.436 18.542-8.415 36.327-13.82 54.144-4.18 14.322-9.65 28.254-13.415 42.688-4.673 17.53-3.304 36 .112 53.61a170.218 170.218 0 0 0 6.488 25.476 240.112 240.112 0 0 1 5.708 25.444c1.425 10.39 1.05 20.93 2.197 31.359a350.374 350.374 0 0 1-.024 37.927c-1.058 9.57-1.815 19.258-4.394 28.572-4.3 14.944-7.157 30.237-10.557 45.395-2.093 12.268-.437 24.807-1.902 37.13-.478 2.19-.414 5.072-2.691 6.29-.542-.223-1.616-.676-2.15-.9.78-12.371-.326-24.79.9-37.13.406-5.43 1.839-10.684 3.049-15.962 2.906-14.283 7.762-28.063 11.273-42.187 1.974-11.472 3.559-23.095 3.137-34.766-.366-9.044.215-18.143-.86-27.147-1.083-9.522-.597-19.163-2.086-28.637-1.075-7.85-3.766-15.325-5.525-23.015-6.361-20.023-10.103-41.088-9.195-62.137.613-14.14 5.35-27.594 9.689-40.92 5.23-15.708 9.776-31.622 14.457-47.489 5.557-20.118 9.41-41.27 5.915-62.097-1.72-7.563-1.958-15.42-4.362-22.84-2.182-6.744-4.952-13.296-6.823-20.142a127.497 127.497 0 0 1-4.3-23.844c-2.403-20.484.502-41.12 4.165-61.277 2.85-15.293 6.21-30.491 10.524-45.434 8.526-32.617 23.653-63.02 32.713-95.47a269.3 269.3 0 0 0 9.64-64.47c.12-16.193-.405-32.394.343-48.57.35-10.35 1.87-20.604 2.945-30.89 1.17-11.631 4.554-22.88 6.019-34.472 1.728-9.195 1.72-18.573 1.385-27.896-.97-11.066-1.449-22.243-4.124-33.079-2.316-9.163-4.728-18.318-7.817-27.258-3.288-9.618-8.582-18.343-13.128-27.379-5.016-9.314-8.264-19.41-12.189-29.194-1.903-5.676-4.785-10.994-6.226-16.821-1.464-5.597-2.595-11.305-4.72-16.71-2.548-7.333-7.118-13.678-10.485-20.612-5.422-8.94-10.54-18.359-18.43-25.412-4.674-4.084-8.87-8.734-14.044-12.197-3.558-2.412-7.722-3.805-11.114-6.456-9.163-7.548-20.818-10.867-31.972-14.235-7.563-3.256-15.643-4.968-23.382-7.698-6.305-2.174-12.984-2.827-19.377-4.618-7.627-2.133-15.429-4.028-23.39-4.036a126.65 126.65 0 0 0-32.1 4.164c-10.413 2.563-21.073 3.9-31.677 5.39-1.958.167-4.227.604-5.795-.956 7.364-3.224 15.548-3.51 23.358-5.031 8.311-1.179 16.364-3.695 24.68-4.801Z" style="fill:#828e7d"></path>
    <path d="M1090.636 343.523c12.77-.74 25.587-3.272 38.373-1.632 13.733 3.726 26.949 9.163 39.838 15.158 13.008 6.52 27.952 8.797 40.053 17.228 7.172 4.657 12.57 11.392 18.063 17.825 5.98 7.595 12.324 14.999 17.204 23.366 5.095 8.9 9.729 18.366 10.883 28.692 1.21 14.863 4.968 29.711 12.396 42.735 5.628 9.849 11.973 19.378 16.153 29.982a198.448 198.448 0 0 1 9.482 32.092 131.431 131.431 0 0 1-1.003 45.577c-2.222 11.353-3.95 22.793-5.645 34.233a126.802 126.802 0 0 0-1.083 18.31c-.103 12.476.16 24.96.032 37.434-.7 16.225-4.044 32.219-8.749 47.727-3.296 11.074-7.07 22.013-9.68 33.278-2.755 12.037-4.873 24.234-8.663 36.016-3.725 11.687-7.499 23.382-12.077 34.775-5.19 12.849-10.023 25.842-14.298 39.025-6.09 16.743-11.568 33.716-16.01 50.967-5.11 20.11-6.767 41.43-2.372 61.835a132.237 132.237 0 0 0 6.727 22.809c2.794 6.01 6.321 11.655 9.394 17.538 7.181 12.881 12.388 27.012 13.988 41.74 1.106 13.526.087 27.347-4.196 40.284-5.127 15.707-12.546 30.507-18.812 45.76-6.91 17.125-16.249 33.613-18.796 52.162-.685 6.568-1.433 13.359.183 19.855 2.213 7.754 6.082 14.887 9.752 22.02 5.056 11.114 10.636 22.1 13.686 33.995a244.087 244.087 0 0 1 7.324 61.794c-.303 19.338-3.248 38.548-7.715 57.345-3.43 15.078-8.566 29.862-9.728 45.378-.478 6.067-1.003 12.157-1.059 18.255.104 9.625 5.382 18.191 6.632 27.577-.438-.023-1.33-.055-1.776-.08a125.809 125.809 0 0 1-7.786-18.588c-2.818-8.32-.828-17.117-.342-25.62 1.011-13.852 4.785-27.266 8.367-40.617 2.826-10.573 4.825-21.328 6.895-32.068a214.557 214.557 0 0 0 1.417-61.412c-.987-7.699-1.545-15.516-3.854-22.96-1.512-5.358-2.667-10.827-4.728-16.01-2.707-7.205-6.306-14.02-9.33-21.081-3.575-8.447-8.52-16.289-11.425-25.022-2.07-6.775-1.385-13.98-.725-20.922 2.03-15.62 8.774-30.045 15.453-44.137 6.52-15.699 13.733-31.104 20.006-46.899a99.653 99.653 0 0 0 6.887-50.927 131.78 131.78 0 0 0-14.736-39.902c-3.392-6.767-7.802-13.104-9.96-20.428a151.01 151.01 0 0 1-7.189-44.001c.597-6.64.319-13.335 1.433-19.92 2.612-18.174 7.842-35.84 13.096-53.387 5.844-16.71 11.043-33.651 17.738-50.051a467.89 467.89 0 0 0 15.429-44.655c4.203-14.162 5.97-28.922 10.429-43.021 5.851-18.765 12.292-37.545 14.393-57.194 1.33-9.513.94-19.13.94-28.7.016-8.765-.096-17.53.072-26.295.199-10.015 2.229-19.847 3.622-29.735 1.903-12.618 5.007-25.126 5.238-37.943-.151-8.765-.024-17.618-2.022-26.208-3.232-13.295-6.958-26.67-13.558-38.74-4.132-7.928-9.394-15.22-13.327-23.262-6.416-12.355-9.792-26.136-10.978-39.957a51.85 51.85 0 0 0-5.12-17.188 100.269 100.269 0 0 0-11.296-19.027c-3.487-4.474-6.79-9.084-10.405-13.454-5.342-6.52-10.445-13.494-17.547-18.24-11.591-8.12-26.025-10.126-38.468-16.487-12.857-5.979-26.025-11.464-39.742-15.126-9.816-1.282-19.72.35-29.472 1.473-14.577 1.775-29.154 3.638-43.802 4.641-9.275.438-18.59-1.33-27.825.096-5.835.82-11.734.987-17.57 1.743-2.15.215-4.355.629-6.496.183-.988-.955-.319-1.52.748-1.839 8.272-2.842 17.077-3.415 25.659-4.856 6.337-1.027 12.722.071 19.09.04 8.026.326 15.947-1.186 23.94-1.672 6.122-.478 12.216-1.324 18.35-1.68Z" style="fill:#828e7d"></path>
    <path d="M988.996 347.28c2.038-.238 4.363-.158 5.199 2.11a422.717 422.717 0 0 1 18.558 40.348c1.146 3.073 2.985 5.947 3.685 9.163-.063.446-.198 1.345-.262 1.799-.9.032-1.8.08-2.683.135q-.86-1.648-1.672-3.312c-7.133-14.656-13.845-29.512-20.683-44.303a9.676 9.676 0 0 0-2.261-2.85 99.93 99.93 0 0 1 .12-3.09ZM943.244 366.905c3.627-1.276 7.292-2.651 11.169-2.898-1.48 2.134-4.004 3.065-6.178 4.283-15.62 8.16-31.39 16.034-46.843 24.505-8.837 5.549-18.064 10.715-25.595 18.04-9.888 9.585-20.198 19.33-26.225 31.932-6.082 12.562-13.12 24.703-17.824 37.871a218.175 218.175 0 0 0-9.578 31.956c-1.998 10.851-3.582 21.774-5.206 32.68-.94 6.68-2.914 13.168-3.639 19.88-.891 7.666-1.242 15.388-2.213 23.047a308.353 308.353 0 0 0-3.128 37.425c-.223 16.687 3.956 32.968 6.607 49.328 3.336 13.478 6.863 26.917 9.522 40.554a195.159 195.159 0 0 1 3.01 34.313c-.487 11.392-.47 22.8-.542 34.2a131.912 131.912 0 0 1-1.48 23.637c-2.421 12.38-4.013 25.15-2.39 37.736 1.458 12.786 7.158 24.473 10.446 36.797 3.065 10.238 3.869 20.945 4.641 31.55.358 6.663.645 13.343.406 20.014-.62 11.75-3.176 23.31-3.51 35.077a209.031 209.031 0 0 0-.088 21.424 141.055 141.055 0 0 0 8.956 36.86c3.153 7.204 6.417 14.362 9.243 21.71 3.01 8 6.44 15.882 8.351 24.25 3.622 13.748 3.614 28.086 3.36 42.201-.932 10.573-1.457 21.32.446 31.821a115.17 115.17 0 0 0 5.493 20.182c2.309 6.472 5.97 12.34 8.375 18.772a94.088 94.088 0 0 1 7.173 27.904c.541 7.165 1.425 14.386.486 21.559-.789 8.534-3.487 16.822-3.607 25.428-.43 10.405 1.8 21.08 7.213 30.045a143.895 143.895 0 0 1 7.364 13.399c3.51 6.942 5.51 14.52 7.229 22.076 2.468 10.35 1.393 21.073 1.72 31.606.47 6.09 2.834 11.838 5.063 17.467 3.089 6.337 6.17 12.833 7.14 19.895 1.346 9.792.733 19.711.869 29.575.167 11.369-.789 22.889 1.759 34.082 1.927 8.2 3.073 16.583 5.43 24.68 1.68 6.257 4.593 12.1 6.161 18.398 2.38 8.876 8.893 15.835 12.03 24.369l-2.134-.032c-3.559-4.912-7.396-9.64-10.668-14.752-3.224-5.127-4.132-11.217-6.393-16.75a106.145 106.145 0 0 1-6.257-20.731c-1.704-9.53-4.61-18.908-4.618-28.66.184-11.154-.031-22.315.024-33.46-.071-6.943.279-14.02-1.648-20.764-2.276-8.136-6.854-15.38-9.25-23.485-3.01-7.476-1.84-15.604-2.333-23.43a95.932 95.932 0 0 0-14.505-48.165 59.785 59.785 0 0 1-9.092-39.376c.74-8.566 3.447-16.853 3.527-25.483.04-11.417-.526-23-3.91-33.979-2.093-7.857-5.532-15.245-9.13-22.506-6.775-15.73-10.358-33.007-9.403-50.17a173.884 173.884 0 0 0 .518-20.668c.19-11.592-.924-23.302-4.498-34.384-4.53-13.598-10.071-26.837-15.78-39.965a144.483 144.483 0 0 1-8.709-32.904c-1.377-8.51-.493-17.132-.398-25.69.255-14.983 4.283-29.672 3.813-44.686-.382-15.214-.867-30.69-5.43-45.331-2.674-9.617-6.814-18.805-8.78-28.62-2.325-10.446-1.943-21.225-.908-31.79.772-7.738 2.803-15.309 3.145-23.095.66-14.06-.008-28.158.732-42.218a175.508 175.508 0 0 0-5.095-51.85c-2.372-12.317-6.48-24.235-8.287-36.654-1.52-8.725-3.265-17.411-4.323-26.208-1.56-14.84.032-29.759 1.576-44.527 2.532-14.784 2.03-29.934 5.238-44.622 2.644-17.037 4.037-34.337 8.583-51.023a298.64 298.64 0 0 1 10.922-32.235c3.4-7.388 6.735-14.816 10.437-22.06 2.564-5.08 4.888-10.302 8.145-14.983 5.644-8.264 12.753-15.35 19.823-22.371 7.794-8.216 17.602-13.996 27.147-19.919 6.043-3.646 12.468-6.592 18.741-9.808 9.012-4.458 18.06-8.935 27.562-12.276Z" style="fill:#828e7d"></path>
    <path d="M939.868 383.385c12.409-7.837 26.192-12.922 39.59-18.701.04.517.112 1.544.152 2.054a29.984 29.984 0 0 1-6.393 3.893c-9.115 4.227-18.334 8.35-26.884 13.661-11.202 7.213-22.666 14.02-34.098 20.866-10.86 6.52-21.05 14.402-29.098 24.242a113.66 113.66 0 0 0-11.082 16.026c-3.662 6.472-7.659 12.793-10.413 19.735-7.181 16.241-9.705 33.987-15.517 50.697-2.22 7.038-4.864 14.012-5.82 21.376-1.623 14.155-4.115 28.182-6.679 42.186-1.767 11.424-4.951 22.666-5.19 34.28-.916 18.614 2.882 37.028 7.467 54.957 1.52 6.162 3.726 12.124 5.326 18.27 4.482 16.353 7.85 33.103 8.471 50.084a382.207 382.207 0 0 1-.86 41.406 184.702 184.702 0 0 0 4.084 51.286c1.704 6.958 3.01 14.043 5.565 20.763 3.256 8.534 6.72 17.005 9.434 25.73 4.036 14.824 4.793 30.316 4.291 45.61-.74 14.282-1.767 28.58-1.536 42.902.995 12.977 2.81 26.033 7.252 38.341 6.56 18.104 10.66 36.956 15.047 55.672 4.187 18.017 2.802 36.614 3.176 54.94.805 8.567 1.648 17.18 3.933 25.5 1.998 9.943 6.138 19.234 9.8 28.636 4.268 11.759 10.835 22.69 13.447 35.037 2.476 11.807 4.546 23.756 5.103 35.825.486 7.946.637 15.899.637 23.852.653 10.071-.295 20.277 1.695 30.237 1.84 10.15 3.44 20.348 4.968 30.562a88.048 88.048 0 0 1 .032 29.926 193.7 193.7 0 0 0-2.15 25.484c.423 10.413 2.612 20.66 2.803 31.096-.056 5.557 1.433 11.138.223 16.663-1.52 7.635-.916 15.445-.661 23.167.59 9.02 1.202 18.104 3.447 26.9 1.123 5.972 3.264 11.775 3.527 17.882.318.533.645 1.074.98 1.64l-1.712.159c-1.816-9.952-6.536-19.147-8.113-29.146-1.656-14.219-3.065-28.748-.47-42.943.709-4.267-.692-8.478-.565-12.745-.032-10.724-2.436-21.24-3.001-31.917a192.98 192.98 0 0 1 2.133-28.66c1.051-7.674.574-15.452-.318-23.119-1.568-10.326-3.089-20.651-4.856-30.945a149.91 149.91 0 0 1-1.84-26.304c-.54-17.514.04-35.212-3.423-52.495-1.552-7.786-2.746-15.692-5.54-23.16-2.691-7.682-6.608-14.847-9.419-22.482-3.12-8.303-6.806-16.416-9.258-24.95-1.935-7.953-3.782-15.97-4.395-24.154-1.87-12.404-.653-24.966-1.146-37.442a126.325 126.325 0 0 0-3.846-29.448c-4.108-17.204-7.881-34.543-13.796-51.246a131.958 131.958 0 0 1-6.52-29.09c-1.808-11.106-.924-22.37-.653-33.556.414-12.451 1.934-24.887 1.146-37.362a158.458 158.458 0 0 0-2.643-21.216c-3.192-16.106-11.99-30.444-15.333-46.501a178.074 178.074 0 0 1-5.9-54.893c.956-18.024 2.158-36.12.661-54.143a243.498 243.498 0 0 0-8.75-43.7c-8.12-26.144-14.855-53.681-11.12-81.227 3.614-21.973 8.63-43.739 10.93-65.918.86-7.754 3.415-15.166 5.732-22.57 5.748-16.52 8.391-34.01 15.413-50.108 3.272-8.423 8.096-16.081 12.634-23.86 7.531-12.498 18.08-22.88 29.568-31.748 12.85-9.498 26.84-17.274 40.331-25.794ZM1011.399 365.042c4.92-2.142 10.286-.326 15.42-.334 8.225.915 16.393 2.396 24.505 4.068a218.574 218.574 0 0 0 28.047 1.56c17.523-.764 35.213-2.006 52.647.693 8.925 1.425 17.985 3.01 26.24 6.87a183.808 183.808 0 0 1 18.542 10.199c7.858 4.673 14.609 10.882 21.845 16.407a75.967 75.967 0 0 1 16.313 16.225c4.601 6.321 7.412 13.685 10.246 20.906 2.818 7.635 5.437 15.413 6.663 23.486 1.871 11.655 2.046 23.644 5.748 34.957a100.859 100.859 0 0 0 11.433 23.645c5.158 9.052 8.98 19.011 10.094 29.432a212.246 212.246 0 0 1 1.099 23.056c.111 8.439-.812 16.901.175 25.316.748 6.393.47 12.842 1.123 19.242.437 4.952 2.563 9.522 3.582 14.354 1.775 8.129 1.473 16.496 1.489 24.767.095 21.265-4.06 42.234-8.909 62.846-1.552 6.074-2.667 12.284-4.88 18.167-1.409 3.853-2.293 7.97-4.689 11.385-.374-.518-.732-1.027-1.083-1.529a44.158 44.158 0 0 0 2.643-13.112c4.73-20.444 10.445-40.825 11.902-61.85.048-9.8.749-19.624-.422-29.393-.557-12.674-4.912-24.823-5.238-37.513-.112-3.168.454-6.313.223-9.474-1.258-13.812-.326-27.704-1.194-41.525a74.168 74.168 0 0 0-9.888-31.876c-6.496-10.111-11.647-21.233-14.036-33.055-2.436-11.392-2.308-23.215-5.461-34.472a185.36 185.36 0 0 0-10.007-27.108c-3.718-7.977-9.753-14.632-16.416-20.269-4.33-3.383-8.702-6.719-12.953-10.19-9.18-7.722-19.743-13.55-30.483-18.78-7.73-3.52-16.177-4.96-24.505-6.274-17.18-2.611-34.607-1.306-51.874-.533a205.125 205.125 0 0 1-28.39-1.688 388.982 388.982 0 0 0-39.455-6.544 29.915 29.915 0 0 1-.096-2.062Z" style="fill:#828e7d"></path>
    <path d="M990.119 370.48c.78-.017 1.568-.032 2.356-.04a14.092 14.092 0 0 1-3.415 7.205c-7.666 8.996-18.04 15.134-28.756 19.815-13.43 6.042-25.706 14.25-37.56 22.904a153.37 153.37 0 0 0-30.165 26.463 91.57 91.57 0 0 0-12.698 17.523c-3.447 6.289-5.27 13.303-6.632 20.3-4.386 20.691-3.208 41.964-3.51 62.957-.16 19.855-11.075 37.665-12.173 57.392-.534 10.557-1.234 21.272.788 31.725 2.953 14.314 6.281 28.62 11.496 42.306a166.025 166.025 0 0 1 7.547 25.388 184.632 184.632 0 0 1 2.07 28.66c.111 9.689-1.465 19.29-1.927 28.963-1.043 17.212-1.457 35.013 4.315 51.524 8.312 25.452 20.691 49.28 33.03 72.957 11.314 21.248 16.568 45.45 16.305 69.445.558 23.915-5.365 47.273-10.612 70.416-4.546 19.648-5.97 40.116-3.049 60.123 1.457 13.47 5.764 26.415 10.803 38.922 6.847 16.209 15.246 31.693 23.852 47.019a160.514 160.514 0 0 1 7.54 15.476c3.31 7.444 6.392 15.086 7.809 23.151a330.793 330.793 0 0 1 5.199 53.013c.342 11.648.684 23.35-.486 34.966-1.942 17.045-5.501 33.867-9.53 50.521-1.862 8.137-4.911 16.042-5.604 24.417-1.91 15.811 2.993 31.733.064 47.48-1.927 8.272-5.318 16.29-5.486 24.903-.764 9.123 1.497 18.12 3.917 26.845a203.906 203.906 0 0 1 4.65 20.946c1.242 8.415-.048 17.244 2.993 25.372 1.393 4.92 3.105 9.816 3.734 14.927-.51-.008-1.545-.032-2.054-.04a120.527 120.527 0 0 1-5.947-13.884c-3.368-8.112-1.935-17.084-3.025-25.587a185.728 185.728 0 0 0-5.908-24.934c-1.727-8.017-3.487-16.201-2.659-24.441.7-11.456 7.11-21.83 6.8-33.413q-.144-9.147-.876-18.279c-.773-10.644-.287-21.479 2.643-31.789a472.962 472.962 0 0 0 11.392-51.102c1.154-8.678 2.563-17.396 2.309-26.169-.287-22.72-1.338-45.514-5.35-67.916-1.967-13.71-7.81-26.44-13.892-38.747-8.137-14.904-16.432-29.783-23-45.467-5.955-13.725-11.265-27.99-12.93-42.95-1.496-11.591-2.61-23.31-1.536-34.997.63-18.972 6.441-37.179 9.888-55.72 7.356-33.588 6.87-69.812-6.807-101.768-5.612-12.443-12.331-24.337-18.446-36.526-5.875-12.363-11.806-24.743-16.408-37.656-2.253-6.448-4.713-12.865-5.986-19.592-2.03-9.785-2.174-19.831-1.911-29.775-.048-10.644 1.202-21.224 2.046-31.813.884-10.095.12-20.237-.836-30.292-1.727-18.327-10.756-34.774-14.999-52.488-2.802-12.077-6.464-24.154-6.377-36.677.136-9.044-.143-18.167 1.52-27.108 2.509-14.569 9.005-28.238 10.66-42.966.781-20.15-.692-40.475 2.54-60.473 1.895-9.45 3.487-19.154 7.922-27.824 6.385-12.101 15.882-22.156 25.714-31.518 9.387-8.87 20.31-15.843 30.834-23.239 10.939-7.603 22.944-13.407 34.822-19.354 8.9-4.697 17.674-10.731 22.992-19.48ZM1009.488 374.651c.55-.27 1.648-.812 2.198-1.09 4.02 1.027 7.3 3.566 10.74 5.732 6.917 3.542 14.68 4.832 22.012 7.26 6.735 2.245 13.836 2.962 20.85 3.845 4.96.47 9.928 1.027 14.92 1.043 8.27-.175 16.503.924 24.719 1.704a132.17 132.17 0 0 1 26.94 5.74c19.17 5.127 36.383 16.065 50.633 29.719a89.733 89.733 0 0 1 21.559 34.153c5.867 15.357 8.399 31.71 10.254 47.974 1.489 11.775 1.919 23.669 3.797 35.396a170.474 170.474 0 0 0 10.788 39.79c4.267 11.36 10.445 21.908 14.314 33.428a107.828 107.828 0 0 1 5.47 20.795c3.04 18.597 5.42 37.425 4.728 56.309-.342 5.565.303 11.146-.111 16.71-1.457-.708-1.935-2.348-2.158-3.813-1.52-9.25-.94-18.66-1.887-27.96-1.217-13.637-2.762-27.25-4.927-40.777a100.813 100.813 0 0 0-5.7-21.423c-3.981-11.615-10.589-22.092-14.952-33.548a169.216 169.216 0 0 1-8.797-30.062c-3.248-16.033-3.726-32.425-5.835-48.61-1.768-14.1-4.116-28.247-9.132-41.598a84.493 84.493 0 0 0-16.957-29.265c-5.254-6.177-11.703-11.161-18.032-16.177-6.648-4.705-13.526-9.21-21.097-12.3-6.942-3.129-14.362-4.928-21.662-6.966-7.938-2.141-16.177-2.492-24.346-2.842-7.46-.931-14.99-.191-22.458-.94-9.967-.644-19.998-1.647-29.687-4.171-7.563-2.595-15.46-4.227-22.793-7.468-4.347-1.783-7.842-5.015-11.87-7.348-1.353-.565-1.41-1.99-1.52-3.24Z" style="fill:#828e7d"></path>
    <path d="M996.082 386.29c.501.008 1.504.032 1.998.04a7.833 7.833 0 0 1-1.632 4.466c-3.678 4.626-8.94 7.58-13.956 10.525a360.249 360.249 0 0 0-35.037 21.495c-12.77 8.734-23.589 20.054-32.824 32.41a80.097 80.097 0 0 0-12.228 23.215c-10.509 25.101-8.988 52.87-9.546 79.5-.414 6.194-.246 12.42-.963 18.59-1.186 10.898-4.211 21.486-5.788 32.33-1.855 12.809-2.603 26.136 1.06 38.714 4.227 13.956 9.545 27.594 13.358 41.685a192.204 192.204 0 0 1 6.035 58.148q-1.207 14.283-2.102 28.58c-.303 9.61-.374 19.426 2.452 28.709 3.837 12.53 10.063 24.186 17.092 35.188 5.677 9.124 11.44 18.207 17.85 26.853a191.825 191.825 0 0 1 31.47 67.049c2.858 12.491 3.041 25.412 2.683 38.166a204.883 204.883 0 0 1-9.92 52.289c-5.652 16.957-12.3 33.938-13.383 51.97-1.417 13.869 1.895 27.713 6.29 40.777 3.614 9.155 7.46 18.398 13.534 26.248 3.622 4.705 6.552 9.896 10.246 14.545 8.056 10.334 12.944 22.618 17.896 34.631 3.933 10.055 7.882 20.182 9.88 30.842 1.775 9.768 3.814 19.568 3.822 29.552.724 10.078 1.233 20.26-.024 30.332a214.995 214.995 0 0 1-3.63 21.566c-1.975 9.888-5.582 19.338-9.148 28.74a210.348 210.348 0 0 1-9.434 21.647c-6.043 11.217-13.932 21.972-15.93 34.861a220.025 220.025 0 0 0-2.818 24.6c-.51 8.089-3.145 15.827-4.06 23.86-.829 6.098-2.047 12.157-2.325 18.319a96.428 96.428 0 0 0 3.455 29.464c1.934 7.197 5.557 13.788 7.634 20.946 2.42 7.46 3.854 15.866.637 23.326-1.95 4.57-2.698 10.548-7.53 13.088a26.465 26.465 0 0 0 4.378-10.82c2.308-8.342 1.337-17.283-1.664-25.308-2.627-8.295-6.982-15.962-9.012-24.448a96.197 96.197 0 0 1-2.635-23.796c-.008-7.786 1.727-15.405 2.69-23.096.614-5.11 2.079-10.063 2.906-15.134.876-5.023.406-10.142 1.107-15.174 1.083-8.455 1.807-17.02 4.028-25.268 4.498-13.335 13.526-24.473 19.02-37.362 6.201-14.466 12.57-29.146 14.8-44.845 2.093-11.003 3.494-22.196 2.897-33.413-.55-9.283-.223-18.637-1.902-27.817-1.187-6.432-2.373-12.88-3.957-19.226-1.974-7.897-5.199-15.389-8.057-22.992-3.654-8.908-7.117-17.944-12.005-26.263-3.073-5.295-7.03-9.992-10.119-15.262-2.89-5-6.72-9.362-9.537-14.394a134.926 134.926 0 0 1-15.795-46.214c-2.15-13.781.127-27.833 3.726-41.168 4.545-16.59 11.607-32.441 15.022-49.35 4.052-19.84 5.947-40.308 3.463-60.474-1.68-13.223-6.392-25.826-11.567-38.022a198.985 198.985 0 0 0-16.368-29.043c-5.565-8.191-11.64-16.025-16.759-24.512-9.434-14.609-18.971-29.576-23.612-46.509-3.702-14.465-1.935-29.544-1.13-44.248 1.743-18.31 1.64-36.916-1.84-55.028-3.01-18.095-10.023-35.124-15.66-52.487a79.052 79.052 0 0 1-3.486-31.001c.445-18.032 7.332-35.212 7.547-53.268.987-13.805.175-27.657 1.281-41.462.789-16.83 3.01-33.859 9.578-49.503a83.59 83.59 0 0 1 12.363-23.525 141.786 141.786 0 0 1 33.788-33.07c11.488-7.81 23.159-15.421 35.482-21.862 5.764-3.272 11.727-6.623 15.915-11.902Z" style="fill:#828e7d"></path>
    <path d="M1011.821 397.524q.812 1.66 1.672 3.311a97.492 97.492 0 0 1 2.683-.135c1.83 3.997 5.04 7.133 7.563 10.692 4.538 5.246 8.82 10.955 14.823 14.633 5.987 3.638 11.791 7.674 18.287 10.397a132.39 132.39 0 0 1 12.531 5.708c5.135 2.778 11.042 3.917 15.899 7.245a139.821 139.821 0 0 1 24.13 20.468 235.999 235.999 0 0 1 47.838 72.287c5.032 11.822 8.423 24.25 12.133 36.534 1.441 4.753 2.85 9.513 3.973 14.354-6.56 2.436-13.399 4.203-19.688 7.324-2.3 1.258-5.278 3.065-4.88 6.13 1.154 14.848.477 29.751.748 44.63.637 13.216 4.148 26.185 9.315 38.325 5.596 14.402 14.234 27.323 22.904 40.02a239.054 239.054 0 0 0 14.402 19.824c8.088 11.202 17.076 22.1 22.132 35.117 2.706 7.897 6.01 15.843 6.066 24.33.342 8.693-2.93 16.957-6.433 24.743-3.765 8.223-9.736 15.102-14.95 22.394-7.182 9.681-15.74 18.2-24.218 26.718-9.745 9.633-19.02 19.87-30.181 27.928-6.918 5.262-13.654 11.265-22.196 13.717-8.765 2.89-18.08 1.186-27.084.987-19.48-.613-38.046-7.5-55.584-15.485-15.23-6.87-28.955-16.495-42.855-25.642-11.783-6.95-22.228-15.875-32.434-24.919-3.551-2.866-6.576-6.353-10.366-8.932a271.708 271.708 0 0 1-14.497-26.654c1.688-5.055 2.197-10.382 2.866-15.644 2.038-16.893 2.078-33.938 1.855-50.927a172.53 172.53 0 0 0-16.917-66.898c-2.094-4.426-3.734-9.092-6.473-13.184-.048.518-.135 1.56-.183 2.078-.971-2.85-1.576-5.803-2.38-8.693-2.413-8.845-5.796-17.403-7.953-26.32a190.569 190.569 0 0 1-4.586-24.76l1.536 1.824c.653-7.786.613-15.803 3.416-23.207 6.25-23.159 11.384-46.644 18.844-69.461 8.757-24.417 21.28-47.313 35.188-69.15a381.847 381.847 0 0 1 27.243-38.827c2.58-3.646 6.138-7.046 6.473-11.767l.04-.19c3.184-2.604 6.4-5.176 9.52-7.866l-.222-3.058Z" style="fill:#f2844f"></path>
    <path d="M1016.176 400.7c.063-.454.199-1.353.262-1.8 3.535 2.5 7.603 4.03 11.488 5.876a67.42 67.42 0 0 0 20.46 6.01c8.766 1.25 17.555 2.325 26.233 4.117 9.736 2.006 19.656 2.834 29.464 4.378 12.539 2.572 25.683 5.39 35.945 13.526a107.871 107.871 0 0 1 16.312 16.368c8.39 11.33 14.593 24.075 20.46 36.845 4.793 10.35 7.46 21.479 10.517 32.418a303.113 303.113 0 0 1 7.228 31.55c2.54 13.494 5.199 26.972 7.277 40.554 1.425 9.824 3.75 19.489 5.366 29.28 2.285 13.328 5.979 26.352 9.672 39.337 3.034 10.612 7.524 20.691 11.465 30.977 3.04 7.65 7.07 14.863 10.039 22.546a248.754 248.754 0 0 0 11.328 24.966 44.158 44.158 0 0 1-2.643 13.112c.35.502.709 1.011 1.083 1.528-4.514 16.767-11.576 32.69-16.726 49.248-9.092 29.91-20.938 58.897-29.775 88.895-2.755 9.784-4.602 19.791-6.735 29.727a227.233 227.233 0 0 0-3.455 25.937c-1.091 12.03-3.09 24.186-1.203 36.247 1.823 15.365 6.672 30.189 12.635 44.408 2.866 7.053 5.493 14.274 9.466 20.818a21.639 21.639 0 0 1 2.802 5.589c-.685 2.022-1.982 3.79-2.739 5.803-2.794 2.452-4.888 5.613-7.818 7.938-8.765 7.475-18.78 13.335-28.923 18.724-6.464 3.463-13.422 5.82-20.269 8.375-2.993-7.579-4.012-15.715-6.623-23.405-2.994-9.124-3.885-18.733-4.506-28.254-1.465-9.602-1.155-19.338-.382-28.98.318-10.596-.008-21.208.167-31.804-.12-8.606.302-17.228-.35-25.818-5.358 1.282-10.063 4.235-14.968 6.624-7.793 4.076-15.874 8.072-24.64 9.49-18.167 2.101-36.82-2.102-52.822-10.812-4.498-2.141-8.868-4.522-13.382-6.608.39 10.374-.581 20.715-.645 31.08-1.043 18.208-2.205 36.51-6.043 54.383-1.87 9.395-3.136 18.9-4.386 28.39-.757 5.597-.749 11.496-3.511 16.59a71.217 71.217 0 0 1-16.997-16.001c-2.818-3.646-6.727-6.95-7.714-11.615 1.544-6.146 3.614-12.197 4.498-18.502.907-6.584 2.308-13.16 2.11-19.84-.033-8.478 0-16.949-.009-25.427-.867-20.198-4.975-40.069-9.466-59.725-4.617-19.083-13.342-36.756-22.283-54.112-4.856-9.951-10.341-19.576-15.389-29.424 3.79 2.58 6.815 6.066 10.366 8.932 10.206 9.044 20.65 17.969 32.434 24.919 13.9 9.147 27.625 18.772 42.854 25.642 17.539 7.986 36.104 14.872 55.585 15.485 9.004.199 18.319 1.903 27.084-.987 8.542-2.452 15.277-8.455 22.196-13.717 11.161-8.057 20.436-18.295 30.18-27.928 8.48-8.518 17.037-17.037 24.218-26.718 5.215-7.292 11.186-14.17 14.951-22.394 3.503-7.786 6.775-16.05 6.433-24.744-.056-8.486-3.36-16.432-6.066-24.329-5.056-13.016-14.044-23.915-22.132-35.117a239.054 239.054 0 0 1-14.402-19.823c-8.67-12.698-17.308-25.619-22.904-40.02-5.167-12.141-8.678-25.11-9.315-38.326-.27-14.879.406-29.782-.748-44.63-.398-3.065 2.58-4.872 4.88-6.13 6.29-3.12 13.128-4.888 19.688-7.324-1.123-4.84-2.532-9.601-3.973-14.354-3.71-12.284-7.101-24.712-12.133-36.534a235.999 235.999 0 0 0-47.838-72.287 139.821 139.821 0 0 0-24.13-20.468c-4.857-3.328-10.764-4.467-15.899-7.245a132.39 132.39 0 0 0-12.53-5.708c-6.497-2.723-12.3-6.76-18.288-10.397-6.002-3.678-10.285-9.387-14.823-14.633-2.524-3.559-5.732-6.695-7.563-10.692ZM971.952 429.862c9.838-7.56 20.73-13.622 30.53-21.225-.334 4.721-3.892 8.12-6.472 11.767a381.847 381.847 0 0 0-27.243 38.826c-13.908 21.838-26.43 44.734-35.188 69.151-7.46 22.817-12.595 46.302-18.844 69.461-2.803 7.404-2.763 15.42-3.416 23.207l-1.536-1.823c-1.027-11.886-2.508-23.796-1.91-35.754.278-7.077.023-14.179.78-21.232.764-8.32 1.154-16.695 2.587-24.934 3.192-16.798 7.244-33.533 13.773-49.383a118.688 118.688 0 0 1 21.956-36.932c7.428-8.041 16.339-14.488 24.982-21.13Z" style="fill:#e56324"></path>
    <path d="M939.303 477.445a16.179 16.179 0 0 1 4.896-8.844 37.378 37.378 0 0 1-4.896 8.844ZM919.694 518.175c-.748-4.434 1.784-8.367 3.647-12.173-.462 4.251-2.078 8.232-3.647 12.173Z" style="fill:#f2844f"></path>
    <path d="M924.885 676.92c2.739 4.092 4.379 8.758 6.473 13.184a172.53 172.53 0 0 1 16.917 66.898c.223 16.989.183 34.034-1.855 50.927-.669 5.262-1.178 10.588-2.866 15.644-3.423-8.16-5.342-16.83-7.078-25.476a181.868 181.868 0 0 1-5.15-32.386c-1.266-8.956-.136-18.016-.956-27.004-.032-12.483-.35-25.006-2.07-37.394-.74-7.507-2.332-14.895-3.598-22.315.048-.517.135-1.56.183-2.078ZM1063.959 758.387c2.3-1.011 5.055-1.767 7.451-.573 4.506 2.038 9.561 1.464 14.37 1.791 6.902-.016 14.052.525 20.667-1.84a16.05 16.05 0 0 1 7.205-.827c.541 3.55-1.974 6.265-3.79 8.988-4.466 6.321-8.176 13.486-14.648 18.048-2.834 2.253-6.767 2.269-10.142 1.56-3.734-1.098-7.484-2.85-9.928-5.986-3.813-4.825-6.456-10.453-10.19-15.342-.98-1.616-2.58-4.187-.995-5.82Z" style="fill:#e56324"></path>
    <path d="M1340.282 760.76c.335-.025.996-.089 1.322-.112.103 9.665.709 19.321.557 28.986-.868 13.08-1.114 26.216-2.874 39.225-1.29 9.235-2.293 18.526-4.243 27.665-1.8 8.112-2.651 16.384-3.861 24.592-1.186 7.69-2.014 15.429-2.572 23.19-1.162 13.495-2.643 27.005-2.285 40.571-.406 11.233 1.545 22.347 2.42 33.516 1.123 10.278.693 20.612.837 30.937.302 17.388-3.432 34.52-7.81 51.254-2.333 8.55-3.989 17.268-5.868 25.922-2.627 12.618-5.772 25.3-5.549 38.285-.119 6.393 1.354 12.682 1.625 19.06.254 6.623.772 13.27.103 19.894-.932 10.095-4.37 19.704-6.6 29.544a102.847 102.847 0 0 0-3.041 27.036 76.848 76.848 0 0 0 .995 15.707c1.155 11.663 2.826 23.709-.406 35.205-1.775 6.193-4.235 12.164-6.305 18.27-.971 2.206-1.592 5.541-4.61 5.51 1.816-8.192 4.737-16.106 6.52-24.298 2.747-14.338-.206-28.899-1.345-43.245-.12-8.797.088-17.658 1.879-26.304 1.84-10.771 5.453-21.12 7.563-31.82 1.457-6.536 1.027-13.256 1.05-19.887-.15-10.087-2.626-20.062-1.758-30.173a125.272 125.272 0 0 1 2.627-19.998c2.03-10.08 4.163-20.126 6.337-30.173 4.084-17.602 9.084-35.204 9.649-53.372.446-8.248-.263-16.487-.16-24.727-.47-11.17-1.966-22.26-2.961-33.381-1.441-21.32 1.162-42.584 3.145-63.777.828-7.866 2.388-15.628 3.28-23.485 1.01-8.957 3.351-17.682 4.593-26.599 1.505-11.13 3.256-22.243 3.933-33.46.597-12.523 2.556-24.943 2.818-37.474.319-4.028.98-8.033.995-12.085Z" style="fill:#828e7d"></path>
    <path d="M1106.383 836.414c4.315-.86 8.48-2.388 12.81-3.152.2.222.59.676.78.907-1.067 2.707-.732 6.01-2.914 8.192-4.601 5.103-8.064 11.098-12.538 16.289-2.986 1.743-6.728 1.385-10.055 1.823-5.183.151-10.398 1.751-15.556.613.007-.868.047-1.712.08-2.564-1.394-.422-2.954-.51-4.109-1.465-5.78-5.357-11.687-10.675-16.233-17.164-.748-1.8-.477-3.837-.605-5.732 4.053-.167 7.715 1.95 11.72 2.27 12.092 1.472 24.687 3.534 36.62-.017Z" style="fill:#e56324"></path>
    <path d="M1347.424 856.054c-.048-1.528 1.576-2.491 2.006-.573 2.038 18.868.756 37.95 3.144 56.803 2.102 21.177 9.633 41.51 10.374 62.87-.048 6.105.31 12.251-.74 18.302-2.683 19.306-7.691 38.166-11.33 57.28a131.49 131.49 0 0 0-1.162 28.74c.582 9.84-.207 19.943-3.909 29.162-2.913 7.165-6.544 14.067-8.733 21.511a122.009 122.009 0 0 0-4.442 31.303c-1.362 21.209.86 42.45-.144 63.674-1.855 19.417-2.635 39.129-7.754 58.06a92.07 92.07 0 0 1-8.988 23.924c-3.543 5.517-7.213 10.946-10.358 16.702-4.282 6.687-7.547 13.956-11.686 20.723-3.463 5.843-6.067 12.125-8.965 18.255a83.185 83.185 0 0 0-6.926 23.907c-1.186 6.449-1.138 13.407-4.753 19.147-4.792 7.643-9.338 15.62-11.63 24.425-2.07 7.881-3.894 15.954-3.568 24.154-.668 8.566.263 17.252-1.273 25.754-1.346 7.356-5.637 13.685-10.119 19.505a21.896 21.896 0 0 1-4.26 4.363c-1.297.485-2.746.207-4.1.31.033-.374.096-1.122.128-1.497 3.057-1.655 4.419-4.967 6.01-7.841 2.373-4.562 5.645-8.781 6.664-13.932 2.206-9.283.39-18.82.948-28.215.08-9.513 2.11-18.923 4.88-27.983 2.58-7.97 6.783-15.278 11.25-22.315 3.144-5 3.104-11.082 4.258-16.687a85.097 85.097 0 0 1 8.025-25.213c3.296-6.29 5.828-12.977 9.593-19.011 3.217-5.103 5.732-10.604 8.996-15.668 3.686-5.684 6.847-11.687 10.716-17.251 4.578-6.465 7.38-13.98 9.665-21.511 1.863-7.38 3.87-14.76 4.8-22.331 1.577-11.624 2.238-23.359 3.074-35.046 1.074-10.054.374-20.173.565-30.26-.565-18.12-1.011-36.335 1.258-54.367a109.473 109.473 0 0 1 7.348-26.216c2.715-6.743 6.217-13.27 7.436-20.516 2.292-11.567.08-23.358.836-35.013.605-15.62 5.341-30.626 8.247-45.888 1.712-8.534 3.248-17.1 4.419-25.722 1.273-9.347.501-18.805-.454-28.135-2.532-17.793-7.85-35.117-9.402-53.053a309.901 309.901 0 0 1 .056-54.63ZM802.228 861.953c1.687 2.667 1.29 5.892 1.767 8.885.907 6.298 1.417 12.802-.024 19.06-2.683 11.79-6.027 23.691-5.47 35.904.096 5.246 2.118 10.182 3.958 15.023 4.147 10.978 7.093 22.538 7.594 34.304.35 6.688-1.226 13.264-1.839 19.895-.35 7.133-1.003 14.354.383 21.44 1.472 10.07 5.517 19.497 9.792 28.66 3.16 6.313 5.43 13.016 8.287 19.465 3.384 7.507 5.008 15.612 7.014 23.557 1.401 6.624 2.675 13.359 2.5 20.158-.382.063-1.139.19-1.52.246a240.004 240.004 0 0 0-7.07-26.693c-1.91-8.272-5.477-15.987-8.654-23.82-2.746-7.643-6.783-14.728-9.617-22.34a80.28 80.28 0 0 1-5.963-37.504c.263-8.001 2.651-15.867 1.927-23.9-1.13-12.634-4.69-24.894-9.315-36.66-4.442-11.513-2.118-24.051.27-35.73 1.49-7.739 4.658-15.182 4.698-23.151.342-5.605-.526-11.377 1.282-16.798Z" style="fill:#828e7d"></path>
    <path d="M1037.886 954.43c4.514 2.086 8.885 4.467 13.383 6.608 16.002 8.71 34.654 12.913 52.822 10.811 8.765-1.417 16.846-5.413 24.64-9.49 4.904-2.388 9.609-5.341 14.967-6.623.652 8.59.23 17.212.35 25.818-.175 10.596.151 21.208-.167 31.805-.773 9.64-1.083 19.377.382 28.978.62 9.522 1.512 19.131 4.506 28.254 2.611 7.691 3.63 15.827 6.624 23.406-7.19 2.213-14.53 3.87-21.87 5.454-13.343 2.802-27.044 1.95-40.578 1.83-6.886-.381-13.828.311-20.651-.899-9.267-1.656-18.74-2.309-27.729-5.302-7.706-1.95-14.585-6.01-21.32-10.079l.056-.127c2.763-5.095 2.755-10.994 3.51-16.591 1.25-9.49 2.517-18.996 4.388-28.39 3.837-17.873 4.999-36.175 6.042-54.382.064-10.366 1.035-20.707.645-31.08Z" style="fill:#f2844f"></path>
    <path d="M995.82 445.044c1.488-1.473 3.502-.995 5.285-.454.128 1.99-.326 3.957-2.078 5.135a75.276 75.276 0 0 0-18.215 21.75l-2.324.19c.023-4.346 2.388-8.144 4.418-11.83a59.717 59.717 0 0 1 12.913-14.791Z" style="fill:#fcb491"></path>
    <path d="M1158.457 587.62a158.036 158.036 0 0 1 26.09-4.466 41.731 41.731 0 0 1 12.642.995 2.741 2.741 0 0 1 2.356 1.982l1.974.128c.072 4.187 1.011 8.622-.557 12.634a40.252 40.252 0 0 0-12.443 1.449c-13.797 4.052-28.223 5.406-41.963 9.68-4.825 1.02-9.41 3.424-14.394 3.488-1.855-.072-3.71-.032-5.557.048-.032-1.131-.072-2.27-.064-3.392-.127-.931.852-1.465 1.361-2.094 4.722-4.283 8.599-9.521 14.036-12.969 5.103-3.287 10.843-5.421 16.52-7.483ZM952.797 592.094c14.932-4.22 30.842-6.385 46.246-3.367a77.599 77.599 0 0 1 18.255 5.827c6.345 3.4 12.595 6.966 18.948 10.35a32.49 32.49 0 0 0 5.182 5.222 16.591 16.591 0 0 1-2.953-.103c-9.02-2.213-18.374-2.134-27.514-3.567-23.342-3.312-46.891-.31-70.17 2.046-5.517.12-10.994 1.147-16.51.836-1.482-1.648-3.695-.613-5.55-.62.04-1.044.096-2.079.16-3.106 4.808-1.703 9.107-4.546 13.907-6.257 6.664-2.42 13.168-5.33 19.999-7.26Z" style="fill:#b65a35"></path>
    <path d="M1121.367 618.836c1.6-2.962 3.439-5.78 5.174-8.67-.008 1.123.032 2.261.064 3.391 1.847-.08 3.702-.119 5.557-.047l1.162.334a32.33 32.33 0 0 1-6.321 1.202 69.366 69.366 0 0 0-3.479 7.436s-1.552-2.603-2.157-3.646Z" style="fill:#b95d38"></path>
    <path d="M1121.367 618.836c.605 1.043 1.233 2.086 1.846 3.136-3.837 12.237-7.666 24.577-9.21 37.362-2.19 12.595-1.935 25.476-.614 38.15.972 9.068 3.663 17.825 5.239 26.79 1.146 7.188 4.785 13.98 4.18 21.415a66.6 66.6 0 0 1 1.886-.247c-1.17 3.4-3.36 6.29-5.39 9.219-3.088 4.323-8.47 5.963-13.318 7.46-10.016 2.396-20.413 1.178-30.587.812-6.162-.359-13.064-2.142-16.575-7.69-3.312-4.085-.486-11.576 5.015-11.632l-.032 1.743c-1.4 1.903-2.738 4.674-1.21 6.895 3.415 4.864 9.848 5.66 15.27 6.64 8.096 1.727 16.503 1.202 24.623-.136 6.115-1.242 13.248-3.264 16.281-9.259.669-7.969-2.364-15.564-3.94-23.246-2.07-10.207-5.757-20.087-6.592-30.54-2.054-17.41.023-35.084 4.346-51.994a153.866 153.866 0 0 1 8.782-24.878Z" style="fill:#b9623f"></path>
    <path d="M1179.228 623.692c3.47-1.875 7.81-.12 9.657 3.137 4.052 6.257 2.516 14.505-.748 20.754-2.102 4.443-8.47 5.526-12.046 2.246-3.964-3.647-4.49-9.721-3.264-14.697.932-4.251 2.25-9.197 6.401-11.44ZM973.09 630.172c2.993-.939 5.931 1.107 7.746 3.32 2.34 3.495 1.99 7.977 2.038 11.998-.286 4.912-.844 10.66-4.936 14.003-2.706 2.349-7.053 1.529-9.155-1.218-3.933-5.286-4.498-12.443-2.842-18.669a15.103 15.103 0 0 1 7.149-9.434Z" style="fill:#150f0c"></path>
    <path d="M1198.152 659.183c3.056-1.061 5.461-3.32 8.232-4.912-.175 1.218.517 2.81-.573 3.75-3.28 3.59-7.93 5.493-12.523 6.767a51.964 51.964 0 0 1-19.88 1.83 15.012 15.012 0 0 1-6.91-3.168q.06-1.254.144-2.484c4.14-.438 8.144.987 12.268 1.043a55.202 55.202 0 0 0 19.242-2.826Z" style="fill:#b9623f"></path>
    <path d="M957.82 659.334c1.72.008 3.551-.127 5.056.884 6.87 3.885 14.752 5.174 22.355 6.894-.024.948-.04 1.91-.048 2.866a71.054 71.054 0 0 1-19.696-2.794c-2.452-.78-5.071-1.656-6.79-3.686-1.06-1.123-.678-2.787-.876-4.164Z" style="fill:#fcb694"></path>
    <path d="M997.22 667.526c.725 0 1.457.008 2.197.016-.063 1.505.494 3.4-1.13 4.291-7.706 6.297-18.167 8.503-27.92 7.468-4.14-.613-8.478-1.76-11.615-4.681-1.393-.972-.725-2.835-.884-4.252 3.217.47 6.13 2.03 9.33 2.556 10.191 1.83 21.36.645 30.022-5.398Z" style="fill:#b75c38"></path>
    <path d="M1091.544 668.163c1.107.008 2.938-.653 3.232.923a24.971 24.971 0 0 1 .08 5.924c-1.282 18.239-1.13 36.868 3.455 54.669-1.02-.127-2.03-.223-3.017-.43-3.2-6.17-4.283-13.176-5.398-19.959-1.544-11.52-2.874-23.342-.589-34.853a17.519 17.519 0 0 1 2.237-6.274Z" style="fill:#fcb491"></path>
    <path d="M949.095 694.944c.318-.597.955-1.783 1.274-2.372a15.228 15.228 0 0 1 7.603 4.625 91.083 91.083 0 0 1 12.188 17.818 27.94 27.94 0 0 1 2.428 7.173c-.477.031-1.425.103-1.902.143a89.504 89.504 0 0 0-14.259-19.943c-1.632-1.64-3.2-3.949-5.788-3.837l1.163-.74c-.9-.964-1.807-1.911-2.707-2.867Z" style="fill:#fcaf8c"></path>
    <path d="M1182.484 693.854c10.176-1.793 20.85 1.902 28.549 8.693 6.783 5.541 10.74 13.789 12.89 22.132 2.316 11.425.843 23.82-5.215 33.907a32.953 32.953 0 0 1-24.728 16.249c-10.07.31-20.683-.613-29.568-5.78a37.395 37.395 0 0 1-17.387-24.815c-2.921-12.842 1.425-26.989 10.644-36.31 6.815-6.744 15.262-12.394 24.815-14.076ZM957.972 697.197a55.743 55.743 0 0 1 29.074 4.865c7.475 3.733 14.49 9.179 18.167 16.87a44.396 44.396 0 0 1-.876 39.439c-4.92 10-13.916 17.403-23.604 22.538-9.26 3.965-19.72 6.003-29.711 4.036-3.456-.58-5.963-3.383-9.355-4.092-4.108-.732-6.17-4.944-7.403-8.502a48.104 48.104 0 0 1-2.373-15.39c.16-6.639-.43-13.262-.374-19.894-.151-7.436.573-14.864.12-22.283-.009-2.062-.295-4.268.596-6.194 1.21-2.221 3.4-3.654 5.366-5.135 3.782-2.914 8.694-3.264 13.04-4.904 2.588-.112 4.156 2.197 5.788 3.837a89.504 89.504 0 0 1 14.259 19.943c.477-.04 1.425-.112 1.903-.144a27.94 27.94 0 0 0-2.429-7.173 91.083 91.083 0 0 0-12.188-17.817Z" style="fill:#f95939"></path>
    <path d="M1158.68 741.35a25.371 25.371 0 0 1-.008-10.302 35.733 35.733 0 0 1 .008 10.302Z" style="fill:#fa8069"></path>
    <path d="M1208.207 731.407c-.868 4.856-1.847 9.768-4.037 14.234-.708 1.998-3.16 2.134-4.768 3.081a41.05 41.05 0 0 0 8.805-17.315Z" style="fill:#fff"></path>
    <path d="M949.246 763.673c1.107.86.725 4.1-.135 5.127a6.953 6.953 0 0 1 .135-5.127Z" style="fill:#fb9c8a"></path>
    <path d="M1090.071 767.614c1.003.048 2.014.103 3.033.175 1.099 5.58.82 11.568 3.193 16.822-1.163-.032-2.3-.12-3.44-.2-1.798-5.405-3.534-11.033-2.786-16.797ZM1080.526 768.458c.78.04 1.576.095 2.38.151 1.417 4.992 1.067 10.262 2.197 15.317.136 1.011.271 2.03.414 3.065a93.336 93.336 0 0 0-2.428-.254c-.485-.86-.971-1.704-1.409-2.556-1.887-4.896-3.153-10.668-1.154-15.723Z" style="fill:#b95d38"></path>
    <path d="M1060.56 789.236c6.74-2.661 13.804-4.848 21.12-5.055.438.852.924 1.696 1.41 2.555.795.072 1.607.16 2.427.255-.143-1.035-.278-2.054-.414-3.065 2.58.088 5.175.263 7.755.486 1.138.08 2.276.167 3.439.199 6.329.127 12.53 1.56 18.685 2.945a61.405 61.405 0 0 1 18.58 7.603c3.504 2.23 7.31 4.371 9.61 7.97a12.183 12.183 0 0 0 3.463 3.192c.112.493.327 1.489.438 1.982-11.408.287-22.864-.111-34.217 1.202-13.216 1.8-26.59.542-39.854 1.696a314.737 314.737 0 0 0-33.413 2.325 37.359 37.359 0 0 0-10.954 3.24 12.905 12.905 0 0 1 3.368-6.847 78.914 78.914 0 0 1 12.706-11.288c5.07-3.456 10.104-7.126 15.85-9.395Z" style="fill:#f95939"></path>
    <path d="M1081.688 791.633c2.5.008 5.39-1.481 7.563.382-3.51 2.3-7.794 2.468-11.742 3.534-7.874 1.792-15.238 5.191-22.96 7.436-.319-.565-.956-1.703-1.274-2.277 8.12-6.138 18.573-7.825 28.413-9.075Z" style="fill:#fca986"></path>
    <path d="M1112.856 809.505c11.339-1.427 22.809-.915 34.217-1.202l1.919.096c-.008.915 0 1.847.008 2.778-.852.375-1.648.836-2.5 1.179-4.793 1.266-9.784 1.186-14.696 1.456-5.796.247-11.568.996-17.372.988-11.17-.12-22.323.629-33.5.597-11.082.135-22.228.159-33.166 2.181-6.584 1.059-13.057 3.129-19.784 2.906l-.533.008a141.599 141.599 0 0 1-.183-3.129c.342-.151 1.027-.446 1.369-.597a37.359 37.359 0 0 1 10.954-3.24 314.737 314.737 0 0 1 33.413-2.325c13.264-1.154 26.621-.03 39.854-1.696Z" style="fill:#a23c28"></path>
    <path d="M1131.804 813.812c4.913-.24 9.903-.19 14.696-1.456-2.818 3.256-6.536 5.5-9.832 8.208-11.536 9.41-25.587 15.946-40.411 17.817-6.154.366-12.348 1.345-18.502.461-6.4-.86-12.833-1.807-18.947-3.925-5.486-1.751-10.748-4.1-16.137-6.098a67.313 67.313 0 0 1-14.689-8.335c6.727.223 13.2-1.847 19.784-2.906 10.938-2.022 22.084-2.046 33.166-2.181 11.177.031 22.33-.717 33.5-.597 5.804.008 11.578-.705 17.372-.988Z" style="fill:#f95939"></path>
    <path d="M1098.438 823.573c5.954-.693 12.117-.55 17.817-2.66.383.71.773 1.434 1.17 2.158a21.13 21.13 0 0 1-5.341 1.393c-7.723.637-15.326 2.691-23.127 2.357-10.27-.342-20.66.454-30.77-1.76-.016-.867-.016-1.727-.016-2.579 5.517-.438 10.962.852 16.463.971 7.922.446 15.89 1.04 23.804.12Z" style="fill:#fb9c7a"></path>
    <path d="M1053.601 824.79a1.772 1.772 0 0 1 2.603.542c-.103 1.338-2.953.7-2.603-.541Z" style="fill:#fb8d78"></path>
    <path d="M1091.87 830.754a30.956 30.956 0 0 1 8.575-1.314 13.259 13.259 0 0 1-8.575 1.314Z" style="fill:#fa7b63"></path>
    <path d="m1217.004 838.842 1.433-.382a10.912 10.912 0 0 1-1.592 6.656 144.814 144.814 0 0 1-13.972 18.589 121.029 121.029 0 0 1-14.792 15.5c-5.788 5.072-10.716 11.019-16.448 16.146-4.41 3.932-8.463 8.35-13.446 11.583a37.797 37.797 0 0 1 5.533-6.29c-.9.176-1.783.351-2.667.55 5.7-5.851 12.109-11.002 17.554-17.1 3.893-4.34 8.208-8.272 12.093-12.619 4.809-5.541 9.992-10.763 14.657-16.44 4.171-5.183 7.921-10.684 11.647-16.193Z" style="fill:#bd6a49"></path>
    <path d="M954.668 845.243c10 7.348 17.897 17.093 27.657 24.735 7.26 6.353 14.999 12.11 22.697 17.913 13.574 10.302 29.194 17.475 45.14 23.27 6.703 2.763 13.733 4.658 20.436 7.444 9.753 3.503 19.84 6.496 30.205 7.332 8.829.804 17.721-1.186 25.77-4.752 7.874-3.59 16.09-6.664 23.048-11.934 3.964-2.46 7.332-5.867 11.432-8.057.884-.199 1.767-.374 2.667-.55a37.797 37.797 0 0 0-5.533 6.29c-3.583 3.814-8.168 6.48-12.292 9.649-7.46 5.453-16.066 9.084-24.823 11.886-5.756 1.919-11.87.764-17.801 1.13-8.965 1.179-17.698-1.846-26.296-3.932-5.939-1.362-11.432-4.084-17.236-5.836-5.899-1.767-11.496-4.355-17.276-6.44-9.959-4.1-19.942-8.28-29.098-14.012-7.89-4.61-14.887-10.525-22.211-15.946-12.316-9.355-23.048-20.54-33.509-31.853-1.568-1.791-3.001-3.861-2.977-6.337Z" style="fill:#b85e3a"></path>
    <path d="M1082.795 883.83c7.722-4.051 17.355-6.432 25.778-3.2-.016.47-.056 1.417-.072 1.887-8.717-1.998-17.244 1.847-25.547 4.005-.064-.908-.12-1.808-.16-2.691Z" style="fill:#fcbc9e"></path>
    <path d="M1334.816 1639.997c.19-3.245.365-6.49.594-9.728.677-10.159 2.595-20.166 4.196-30.205 2.3-14.943 4.482-29.902 6.91-44.821.995-6.743 1.632-13.598 3.87-20.07 4.362-14.498 8.804-29.043 15.324-42.744a319.92 319.92 0 0 1 19.903-43.093c12.905-23.59 25.81-47.29 41.557-69.135 9.036-12.929 18.645-25.444 27.825-38.261a16.557 16.557 0 0 0 2.61-7.046 10.825 10.825 0 0 0-7.936 4.132 302.75 302.75 0 0 0-29.297 35.18c-14.538 19.425-25.985 40.904-37.171 62.368-3.368 6.448-6.29 13.128-9.928 19.433 1.131-7.706 3.177-15.23 4.905-22.817a237.679 237.679 0 0 1 15.667-45.689c6.934-15.795 15.198-31.048 20.81-47.392-1.456.023-3.24-.359-4.227 1.026-3.2 3.67-5.055 8.256-7.467 12.444-8.137 15.62-16.154 31.383-22.196 47.95-7.858 20.548-11.13 42.425-13.765 64.15a65.12 65.12 0 0 1-4.22 17.284c-2.786 7.158-4.903 14.561-7.873 21.655.382-4.068.756-8.136 1.33-12.173-3.018 9.163-3.312 18.924-5.995 28.175-1.075 6.074-2.946 12.069-2.994 18.295-.04 6.098-1.417 12.077-2.268 18.095-3.153 19.959-6.011 39.965-9.331 59.9a218.341 218.341 0 0 0-2.097 23.087ZM637.647 1387.095c4.521 2.389 7.045 6.982 10.31 10.708 4.951 5.724 8.804 12.308 14.075 17.77a183.726 183.726 0 0 1 14.21 16.05c6.974 9.449 13.741 19.058 21.2 28.15a400.548 400.548 0 0 1 23.996 32.513c8.526 13.152 12.49 28.509 19.839 42.258 2.69 5.445 5.111 11.185 5.716 17.3.486 3.996.223 8.343 2.516 11.87a102.51 102.51 0 0 1 6.942 12.204c4.036 8.36 6.552 17.324 9.935 25.945.216-1.751.454-3.487.606-5.206 1.48 7.802 2.093 15.89 5.39 23.238-.654.948-1.306 1.919-1.951 2.898a67.872 67.872 0 0 0-3.973-10.62c-1.704-3.718-5.501-6.042-6.799-9.983-2.762-8.017-5.477-16.058-8.86-23.836-4.204-8.67-9.8-16.56-15.437-24.337-7.388-10.54-15.46-20.572-23.653-30.483-8.16-9.339-16.543-18.486-24.942-27.618-5.605-6.186-12.587-10.803-19.139-15.882-3.16-2.635-7.26-5.557-6.743-10.222 3.599 2.563 6.799 5.652 10.533 8.049 4.028 2.563 8.168 4.983 11.99 7.873 7.849 5.883 14.13 13.486 20.826 20.588 9.426 9.768 17.904 20.388 26.216 31.104 3.98 4.824 7.125 10.278 11.249 14.99a45.06 45.06 0 0 0-6.504-19.743c-4.14-7.571-8.08-15.246-12.15-22.848a133.262 133.262 0 0 0-11.216-19.052q-13.399-18.772-27.347-37.162c-7.627-10.143-14.083-21.217-22.912-30.412-5.23-5.525-9.498-11.838-13.645-18.191-3.71-5.796-8.67-11.034-10.278-17.913ZM1058.156 1639.997c.696-4.01 1.316-8.032 2.212-11.997a169.401 169.401 0 0 1 9.275-28.15c5.063-12.317 11.814-23.844 17.355-35.937a194.324 194.324 0 0 0 13.311-47.33c.613-5.214 1.553-10.468 1.107-15.73a18.148 18.148 0 0 0-2.667-1.338c-2.994 5.485-4.22 11.655-5.995 17.594-2.444 9.052-5.167 18.024-8.096 26.933-3.965 11.989-9.41 23.39-14.346 34.989-6.457 15.317-12.675 30.945-15.43 47.417-.566 4.51-1.221 9.021-1.702 13.549ZM835.768 1553.101c2.77 14.275 3.455 29.019 8.08 42.895 5.247 13.892 10.183 27.952 16.838 41.255q.67 1.368 1.321 2.746h8.672a289.906 289.906 0 0 1-12.843-30.085c-3.16-9.41-7.252-18.557-9.044-28.366-2.42-12.73-4.131-25.587-7.292-38.157-2.03-8.582-4.084-17.268-8.272-25.094-1.934-3.447-3.144-8.248-7.587-9.171.805 5.788 3.527 11.058 4.793 16.742 2.165 8.996 3.646 18.136 5.334 27.235ZM1191.154 1570.656c1.497.294 3.4.19 4.307 1.703 2.38 3.487 3.097 7.77 4.196 11.783 4.354 18.104 8.454 36.319 11.535 54.67-1.107 2.26-3.391-.423-3.781-1.888-2.365-6.416-3.806-13.136-5.963-19.624-2.54-9.1-7.5-17.419-8.965-26.837-.963-6.536-2.483-13.2-1.33-19.807Z" style="fill:#bb9533"></path>
  </g>
</svg>
