<svg xmlns="http://www.w3.org/2000/svg" viewBox="0 0 2121 1887.494" id="man">
  <g id="art">
    <path d="M1703.417 1632.835a1930.924 1930.924 0 0 0-100.95-249.063c-5.994-12.234-11.35-24.365-20.363-34.76q-.57-.657-1.171-1.298a132.345 132.345 0 0 0-16.62-25.341c-6.844-7.823-15.229-14.044-23.33-20.488a86.41 86.41 0 0 0-18.677-11.249c-6.13-2.807-12.648-4.548-18.916-6.963-17.675-6.81-35.137-14.117-52.757-21.072-16.916-6.552-32.879-15.233-49.382-22.695-16.641-7.685-33.328-15.265-49.94-23.03-7.603-3.553-15.37-6.748-22.738-10.776-7.453-4.07-15.267-7.47-22.463-11.987-7.015-4.405-14.116-8.647-21.114-13.06-7.05-4.465-14.933-7.385-22.137-11.532-2.542-2.593-4.697-5.538-7.359-8.012-2.713-2.558-4.662-6.31-8.346-7.573l-1.872.275c2.464 2.61 5.22 5.272 5.976 8.939a46.97 46.97 0 0 1-1.03 22.806c-2.06 7.29-3.735 14.709-6.449 21.801-5.435 14.237-10.555 28.592-16.924 42.462-6.967 15.173-13.49 30.543-20.454 45.724-8.063 17.122-17.036 33.789-25.811 50.559-11.876 23.2-23.133 46.771-36.39 69.234-5.565 7.29-9.077 15.817-12.846 24.103-8.244 17.139-16.564 34.321-26.928 50.3-.996 1.109-2.68 1.177-4.002 1.71-6.543-3.427-13.704-5.333-20.608-7.84-17.147-6.371-34.27-12.992-50.438-21.613-13.756-7.444-28.216-13.653-41.293-22.291-6.775-4.637-13.736-9.059-20.11-14.228-6.335-5.137-12.984-9.875-19.003-15.362-3.933-3.555-7.951-6.99-11.978-10.415-10.811-9.506-20.05-20.617-29.067-31.788-5.28-7.316-11.325-14.083-16.03-21.802-2.585-3.967-5.042-8.081-8.313-11.515-3.97-4.168-6.895-9.136-10.046-13.902-8.175-12.983-14.263-27.116-20.763-40.975a263.484 263.484 0 0 1-9.445-23.33c-6.972-19.552-14.941-38.881-19.045-59.309-1.228-6.895-3.847-13.756-2.868-20.848.626-5.436 3.09-10.399 5.28-15.336a188.5 188.5 0 0 0-1.51-1.185 9.811 9.811 0 0 0-2.997 2.301c-5.393 6.037-11.558 11.335-16.805 17.508-2.12 2.448-3.915 5.204-6.414 7.308-7.084 6.079-14.357 11.935-21.192 18.307a223.689 223.689 0 0 1-21.252 16.555c-10.338 7.084-20.273 14.743-30.629 21.81a297.943 297.943 0 0 0-38.752 30.715c-6.25 5.781-12.914 11.094-19.32 16.7-12.262 9.463-23.673 19.99-36.133 29.196-6.603 5.675-13.37 11.188-19.68 17.199-7.909 6.74-16.057 13.189-24.19 19.663a93.897 93.897 0 0 0-15.996 13.258c-7.748 8.392-17.184 15.005-25.296 22.999a35.576 35.576 0 0 0-13.156 11.488c-25.506 35.808-45.659 74.888-61.272 115.955-4.431 11.655-8.085 23.518-11.733 35.357-7.76 25.188-14.72 50.633-19.924 76.406Z" style="fill:#d1434f"></path>
    <path d="M1024.904 382.91c8.484-.624 16.993-.566 25.494-.592 13.765 0 27.546 0 41.302.567 23.588.652 46.875 6.972 68.058 17.267 9.549 4.25 18.23 10.158 26.456 16.555 3.53 2.173 7.41 3.865 10.476 6.758 8.346 7.359 16.735 14.847 23.364 23.854 9 12.45 17.87 25.125 24.515 39.027 4.732 10.037 9.428 20.195 11.953 31.058 1.683 9.557 5.066 18.702 7.127 28.173 3.864 18.727 5.427 37.807 7.453 56.784 1.194 18.641 4.723 37.129 4.628 55.848.18 4.276-.317 8.57.086 12.837 1.065 7.118.756 14.365.412 21.526-1.7 12.743-2.163 25.838-6.534 38.048-5.04 13.327-9.806 26.808-16.195 39.576-2.55 4.972-4.284 10.347-7.298 15.087-3.246 5.135-6.921 10.193-11.816 13.868-6.276 4.508-14.142 5.864-21.698 6.174a164.315 164.315 0 0 1-20.668.231c-16.856-.979-33.72.3-50.576.541-23.081 1.306-45.87 5.41-68.848 7.754-23.897 3.22-47.966 4.74-72 6.329q-32.664 1.957-65.147 6.105c-16.924 1.76-33.849 3.374-50.747 5.323-7.943.31-16.212.833-23.82-1.914-4.534-1.572-7.977-5.118-10.93-8.75-8.673-10.58-14.684-22.961-20.884-35.06-5.014-10.124-9.677-20.428-15.181-30.31-5.083-9.824-9.548-19.965-15.061-29.573q-5.152-10.55-9.3-21.544a229.04 229.04 0 0 1-9.307-26.774c-1.778-6.955-3.993-13.816-5.006-20.943-2.044-14.614-1.452-29.444-.413-44.118 1.125-9.815 3.959-19.303 6.423-28.834 3.512-12.27 7.196-24.55 12.571-36.15 9.291-20.488 23.991-38.271 41.336-52.457 8.922-7.135 17.715-14.511 27.495-20.479a166.227 166.227 0 0 1 38.58-16.315c3.332-10.93 9.72-20.66 17.697-28.765 7.256-7.333 13.584-15.68 22.042-21.733 6.226-4.817 13.55-7.797 20.643-11.068 6.466-2.954 13.55-4.062 20.256-6.329 6.105-2.086 12.58-2.653 18.813-4.259 7.943-1.966 16.108-2.724 24.25-3.323Z" style="fill:#764074"></path>
    <path d="M861.457 1098.715a34.96 34.96 0 0 1 9.6-8.475c1.227-.799 2.713-.12 4.044-.043-.155 2.155-.292 4.319-.464 6.483 13.996 2.825 27.606 7.522 41.852 9.042 21.071 3.168 42.229 6.551 63.576 6.895 10.003.893 20.04-.112 30.062-.18 5.693-.172 11.42-.146 17.07-.98 19.646-1.236 39.301-2.73 58.81-5.383 22.867-1.958 45.656-4.843 68.333-8.295 8.784-1.709 17.689-2.8 26.593-3.624 4.946-.025 10.064-.618 14.872.85 6.655 2.156 10.305 8.587 15.542 12.769a80.84 80.84 0 0 1 17.612 19.251c4.087 6.732 8.011 13.593 12.811 19.861a65.077 65.077 0 0 1 5.384 7.05l-1.872.275c2.465 2.61 5.22 5.272 5.976 8.939a46.97 46.97 0 0 1-1.03 22.806c-2.06 7.29-3.735 14.709-6.449 21.801-5.435 14.237-10.295 28.715-16.924 42.462q-10.02 22.952-20.454 45.724c-8.063 17.122-17.036 33.789-25.811 50.559-11.876 23.2-23.133 46.771-36.39 69.234-5.565 7.29-9.077 15.817-12.846 24.103-8.244 17.139-16.564 34.321-26.928 50.3-.996 1.109-2.68 1.177-4.002 1.71-6.543-3.427-13.704-5.333-20.608-7.84-17.147-6.371-34.27-12.992-50.438-21.613-13.756-7.444-28.216-13.653-41.293-22.29-6.775-4.638-13.653-9.163-20.11-14.229-6.252-5.238-12.984-9.875-19.003-15.362-3.932-3.555-7.951-6.99-11.978-10.415-10.811-9.506-20.05-20.617-29.066-31.788-5.281-7.316-11.326-14.083-16.032-21.802a89.321 89.321 0 0 0-8.312-11.515c-4.07-4.07-6.895-9.136-10.046-13.902-8.175-12.983-14.263-27.116-20.763-40.975a263.502 263.502 0 0 1-9.445-23.33c-6.973-19.552-14.941-38.881-19.045-59.309-1.228-6.895-3.847-13.756-2.868-20.848.627-5.436 3.09-10.399 5.28-15.336-.377-.3-1.133-.893-1.51-1.185 10.999-17.689 16.589-38.323 28.687-55.393 1.967-2.67 5.024-4.044 7.582-6.002Z" style="fill:#fff3db"></path>
    <path d="M938.187 500.119c3.675-1.09 7.23 1.039 10.922.816 11.24-.172 22.103 3.185 33.265 3.846 7.145.713 13.834 3.478 20.832 4.92a263.313 263.313 0 0 1 43.431 13.963 141.473 141.473 0 0 1 21.57 10.218c7.634 3.88 13.953 9.78 21.39 13.979 7.393 4.474 15.619 7.23 23.458 10.768 13.79 7.178 24.842 18.46 38.323 26.146a67.723 67.723 0 0 1 13.996 10.03c7.453 5.95 14.555 12.33 21.802 18.53 7.264 7.865 15.25 15.052 22.12 23.287a137.485 137.485 0 0 1 15.18 21.844c3.006 5.152 5.213 10.75 8.527 15.73-1.005 1.126-2.387.284-3.503-.076a85.127 85.127 0 0 1-16.358-8.707c-6.483-4.594-12.039-10.338-18.376-15.104-13.129-9.574-26.867-18.247-40.1-27.667-14.829-10.441-29.16-21.672-44.917-30.723-7.9-5.066-16.529-8.793-25.073-12.596a198.403 198.403 0 0 1-32.492-16.418c-15.722-9.377-32.81-16.152-48.644-25.322-14.064-8.158-27.33-17.723-41.997-24.816-7.977-3.804-16.624-6.724-23.356-12.648Z" style="fill:#e56324"></path>
    <path d="M929.446 503.716a22.359 22.359 0 0 1 8.741-3.597c6.732 5.924 15.379 8.844 23.356 12.648 14.666 7.093 27.933 16.658 41.998 24.816 15.834 9.17 32.921 15.945 48.643 25.322a198.403 198.403 0 0 0 32.492 16.417c8.544 3.804 17.174 7.531 25.074 12.597 15.756 9.05 30.087 20.282 44.917 30.723 13.232 9.42 26.97 18.093 40.1 27.667 6.336 4.766 11.892 10.51 18.375 15.104a85.127 85.127 0 0 0 16.358 8.707c1.116.36 2.498 1.202 3.503.077 4.336 6.148 11.017 9.97 16.383 15.113 3.04 2.928 7.746 5.272 8.038 10.003a154.139 154.139 0 0 1-1.434 29.298c-.352 1.434.086 3.254-1.014 4.413-2.026 1.932-2.224 4.904-3.005 7.445-1.657 5.934-1.537 12.125-2.172 18.204-.97 10.519-1.082 21.098-2.259 31.608-.721 6.912-.592 13.867-1.099 20.797-.91 7.676-.49 15.421-.369 23.124 1.27 14.966-1.108 29.967.189 44.934l1.554-.034c-3.907 10.759-6.26 22.007-8.183 33.273-1.872 11.704-5.246 23.09-8.741 34.398-5.341 18.848-13.748 36.623-22.42 54.122-4.122 8.69-9.437 16.77-13.37 25.554 0 0-.515-1.253-.661-1.588-4.62 6.826-9.342 13.644-13.146 20.977-2.816 6.509-7.762 11.738-11.12 17.946-7.556 13.593-16.083 26.619-23.399 40.34-4.894 8.004-10.02 16.006-16.76 22.61a43.822 43.822 0 0 1-21.957 12.484c-10.579 3.435-21.759 3.83-32.784 4.13-11.429.79-22.9.61-34.347.499-9.694-.73-19.543.068-29.109-2.01-10.484-2.026-20.428-6.096-30.08-10.561-9.504-4.869-18.924-10.416-26.197-18.384-9.325-10.193-16.701-21.922-23.897-33.652-11.884-19.766-22.883-40.04-34.51-59.952a206.405 206.405 0 0 0-16.873-22.626c-3.743-4.851-8.174-9.162-11.489-14.323a111.245 111.245 0 0 0-9.385-12.09c-1.116-1.227-2.284-2.747-4.13-2.636l-.464-.068a191.931 191.931 0 0 1-15.602-32.055c-2.207-6.629-4.937-13.283-5.17-20.359l.456-.6c1.606-1.718 1.468-4.182 1.735-6.355 1.777-19.75 3.958-39.464 6.783-59.094 1.606-14.056 4.147-28.173 2.945-42.366-.66-5.436-.919-11.043-3.091-16.152.953-5.453 2.147-10.862 2.756-16.366.516-12.769-2.576-25.262-4.542-37.782-.936-11.102-.79-22.97 4.645-33.024 4.964-9.72 9.875-19.63 12.46-30.286 0 0 2.146-.755 2.722-.961a156.637 156.637 0 0 0 8.887-19.612c4.886-11.764 10.167-23.58 11.815-36.34 1.95-9.264 2.01-18.77 3.452-28.112 1.632-10.7 3.117-21.493 6.698-31.754 3.632-11.471 9.437-22.102 16.048-32.105 1.426-2.035 3.383-3.804 4.019-6.286.129-.91.953-1.382 1.588-1.923 5.298-4.165 10.54-8.413 16.049-12.297Z" style="fill:#f2844f"></path>
    <path d="M898.955 530.748c3.988-4.531 7.977-9.214 12.854-12.812-.636 2.482-2.593 4.25-4.019 6.286-6.611 10.003-12.416 20.633-16.048 32.105-3.581 10.261-5.066 21.055-6.698 31.754-1.442 9.342-1.503 18.848-3.452 28.113-1.648 12.76-6.93 24.575-11.815 36.339a156.637 156.637 0 0 1-8.887 19.612c-.576.206-1.71.6-2.284.807 1.966-7.496 4.147-14.95 5.34-22.626 2.482-10.957 4.938-22.016 5.11-33.3.137-8.638.635-17.259 1.082-25.88 2.335-22.729 13.916-43.47 28.817-60.398Z" style="fill:#e56324"></path>
    <path d="M1296.596 695.801c8.513-3.282 17.672-6.371 26.945-4.86 9.36 1.16 18.427 5.77 24.24 13.31 7.196 8.38 10.82 19.397 11.644 30.293a129.426 129.426 0 0 1-4.354 34.433c-4.85 17.697-12.399 34.759-23.14 49.7a184.118 184.118 0 0 1-16.822 20.848c-7.634 8.27-16.778 14.915-25.812 21.544-5.555 4.208-11.446 7.952-17.31 11.704-7.136 4.628-15.774 6.32-24.172 6.329l-1.554.034c-1.297-14.967 1.082-29.968-.189-44.934-.12-7.703-.541-15.448.37-23.124.506-6.93.377-13.885 1.098-20.797 1.177-10.51 1.288-21.09 2.259-31.608.635-6.08.515-12.27 2.172-18.204.781-2.541.979-5.513 3.005-7.445-.18 4.74-1.408 9.369-1.691 14.108 3.7-12.785 9.127-24.97 14.94-36.922.756-1.426 1.332-3.152 2.894-3.907 8.252-4.062 16.907-7.198 25.477-10.502ZM757.858 738.185a36.684 36.684 0 0 1 27.46-5.684c11.841 1.477 23.768 6.543 31.402 15.988 5.761 7.883 9.42 17.019 13.833 25.666 3.057 7.78 7.264 15.01 11.635 22.12.197-1.916.412-3.813.661-5.71 2.172 5.108 2.43 10.715 3.091 16.15 1.202 14.194-1.34 28.31-2.945 42.367-2.825 19.63-5.006 39.345-6.784 59.094-.266 2.172-.128 4.637-1.734 6.354-5.186-1.794-10.785-1.957-15.86-4.147-10.415-3.031-19.878-8.415-29.538-13.224-6.766-3.477-12.468-8.62-18.023-13.747-6.286-6.655-12.408-13.541-17.251-21.347-9.712-14.296-17.491-30.336-20.102-47.544-1.305-15.808-.987-32.157 4.277-47.279 3.606-11.291 9.894-22.356 19.878-29.057Z" style="fill:#f95939"></path>
    <path d="M855.257 967.613c1.846-.111 3.014 1.408 4.13 2.636a111.245 111.245 0 0 1 9.385 12.09c3.315 5.161 7.745 9.472 11.49 14.323a206.405 206.405 0 0 1 16.872 22.626c11.626 19.913 22.626 40.186 34.51 59.952 7.196 11.73 14.572 23.46 23.897 33.652 7.273 7.968 16.692 13.515 26.198 18.384 9.651 4.465 19.595 8.535 30.08 10.561 9.565 2.078 19.414 1.28 29.108 2.01 11.446.111 22.918.292 34.347-.498 11.025-.3 22.205-.696 32.784-4.13a43.822 43.822 0 0 0 21.956-12.486c6.74-6.603 11.867-14.606 16.761-22.609 7.316-13.721 15.843-26.747 23.4-40.34 3.356-6.208 8.302-11.437 11.119-17.946 3.804-7.333 8.526-14.15 13.146-20.977.146.335.42 1.013.567 1.348-1.331 4.894-.541 9.952-.713 14.95.25 12.587.155 25.175.3 37.764.035 7.71 1.177 15.361 1.4 23.072.988 9.085 1.735 18.573 6.2 26.74.987 6.37-1.906 12.725-4.688 18.34-12.614 20.935-23.073 43.208-37.404 63.095-4.32 6.5-8.638 13-13.267 19.295-5.392 7.504-10.467 15.25-15.902 22.737-6.818 8.398-12.605 17.586-19.87 25.632-9.376 11.73-19.492 22.823-29.667 33.848-7.857 10.081-12.811 22.06-16.512 34.218a78.027 78.027 0 0 0-3.169 12.15c-6.483-13.283-13.558-26.592-23.742-37.455-6.457-6.972-12.906-14.013-20.264-20.05a164.608 164.608 0 0 1-15.937-14.108 104.698 104.698 0 0 0-18.522-13.249c-8.432-4.765-15.696-11.24-23.622-16.735-7.238-5.633-14.872-10.777-21.492-17.157-7.127-5.701-13.052-12.708-19.913-18.693-7.814-7.135-13.79-15.945-20.917-23.708-8.312-9.789-13.713-21.698-17.663-33.823-2.86-9.625-6.397-19.14-7.548-29.16-.498-3.555-1.073-7.101-1.58-10.648-1.245-10.26-5.547-20.127-4.782-30.62.875-7.72 2.095-15.413 2.447-23.184.129-16.667-1.443-33.3-3.546-49.811-1.246-8.27-.37-16.641-1.065-24.945-.455-5.452.137-11.12-1.743-16.358-1.349-4.044-4.38-7.16-6.57-10.733ZM1087.063 884.503c1.683-2.147 3.684-5.247 6.887-4.414 1.863.043 2.68 2.396 2.112 3.941a48.815 48.815 0 0 1-4.362 8.638c-3.486 5.814-9.179 9.85-12.785 15.577a63.951 63.951 0 0 1-8.759 10.99c-3.598 3.573-6.234 8.064-10.312 11.155-4.938 3.967-11.884 5.521-17.912 3.314-7.385-2.258-11.781-9.033-15.748-15.164-2.945-4.98-7.247-8.99-10.004-14.09-1.923-3.581-4.55-7.033-5.014-11.18a5.7 5.7 0 0 1 5.109-2.843c1.76.464 3.297 1.512 5.023 2.095 1.52.18 3.022-.6 4.55-.317 1.323.54 2.242 1.717 3.315 2.636 9.97 1.185 19.69 4.37 29.788 4.456 4.56.275 8.578-2.215 12.828-3.443 5.573-3.014 11.635-5.916 15.284-11.351Z" style="fill:#e56324"></path>
    <path d="M1093.64 980.382c4.122-1.333 8.047-3.65 12.52-3.504-.18 3.538-3.194 5.71-5.4 8.08-3.839 3.787-6.192 8.707-9.412 12.966a135.06 135.06 0 0 1-9.007 11.687c-2.147 2.464-3.933 5.624-7.265 6.62-10.664 3.7-22.11 3.4-33.179 4.869-4.284.111-9.53 1.915-13.086-1.297-2.086-1.666-4.817-2.464-6.414-4.705-5.676-6.913-11.249-13.928-17.405-20.42-3.598-3.649-6.449-7.994-10.528-11.162.447-.327 1.331-.988 1.778-1.314 6.088.49 11.987 2.293 18.058 2.971a95.234 95.234 0 0 1 10.407 1.82c19.148 2.928 38.606.893 57.59-2.24 4.105-.533 7.478-3.121 11.344-4.371Z" style="fill:#e56324"></path>
    <path d="M1109.707 636.115c-11.756-1.177-23.554-1.666-35.335-2.379-9.694-.395-19.394-.79-29.1-.309-18.704.929-37.541 2.362-55.513 7.848-6.183 2.027-12.597 3.59-18.41 6.552-3.392.98-7.101 1.838-9.634 4.482a20.552 20.552 0 0 0 12.141-2.833c9.987-2.842 19.921-6.045 30.225-7.608 24.37-4.225 49.194-3.151 73.812-3.349 10.88.172 21.75.739 32.612 1.28 5.934-.13 11.841 1.442 17.757.472.01-.558.01-1.675.018-2.241-6.217-.43-12.374-1.417-18.573-1.915Z" style="fill:#b95d38"></path>
    <path d="M1070.165 644.813c-11.442-.352-22.867.902-34.27 1.726a174.005 174.005 0 0 0-32.123 5.461c-3.074.92-6.337 1.752-8.767 3.976 6.724-.584 13.284-2.301 19.956-3.263 19.088-3.186 38.47-4.08 57.78-4.113 18.002-.03 35.892 2.55 53.813 4.122l-.069-1.975c-18.659-2.868-37.434-5.353-56.32-5.934ZM1087.338 659.874a318.186 318.186 0 0 0-52.19-1.39 35.642 35.642 0 0 0-8.655 1.485c.112.49.343 1.477.464 1.966 18.22.773 36.51-.54 54.723.936 4.705.3 9.42.833 14.142.404-.103-.55-.31-1.64-.412-2.19a58.35 58.35 0 0 0-8.072-1.21ZM1069.658 708.149c.017-.996 1.117-1.408 1.675-2.087.3 11.781 5.778 22.506 7.985 33.9-2.92-2.06-3.374-5.855-4.637-8.938-2.404-7.402-5.907-14.898-5.023-22.875ZM1030.898 708.681c3.22 4.07 3.778 9.428 4.396 14.409.593 8.011.618 16.22-1.649 24-.454.077-1.347.248-1.803.326a66.85 66.85 0 0 0 1.065-22.635c-.266-5.426-2.01-10.664-2.01-16.1Z" style="fill:#b95d38"></path>
    <path d="M1280.341 734.416a46.856 46.856 0 0 1 23.34-9.291c7.126-.825 15.31.841 19.937 6.757 5.247 6.604 4.552 15.98 2.55 23.665-.506.662-.987 1.323-1.52 1.958.258-4.86 1.315-9.806 0-14.606-1.004-4.766-3.52-9.66-8.337-11.472-8.913-3.563-18.84-.618-27.185 3.152-6.037 2.481-10.58 7.384-16.375 10.27.472-4.577 4.156-7.834 7.59-10.433Z" style="fill:#cc492f"></path>
    <path d="M1223.978 746.256c-6.757-.918-12.983-4.276-19.844-4.593-6.354-.335-12.596-1.692-18.942-2.113-8.939-.575-17.585-3.555-26.584-3.451q-13.331-.232-26.645.343c-7.032.48-13.919 2.19-20.926 2.945-4.044.378-8.123.086-12.141.747-4.508-1.202-7.548-4.937-10.708-8.088-3.486-3.598-5.916-8.828-4.044-13.825 2.894 2.816 4.8 6.414 7.092 9.694a26.802 26.802 0 0 1-3.657-16.392l2.07.172c1.888 5.84 3.537 11.764 5.787 17.483.163-.335.48-1.022.643-1.366-3.194-7.187-3.683-15.361-3.194-23.115 1.83-5.65 7.393-9.3 13.172-9.91 6.037-.557 12.099-1.296 18.17-.918 10.166.678 20.093 3.151 29.907 5.745 11.12 3.288 22.935 5.942 32.14 13.42 7.136 2.654 12.94 7.703 18.994 12.15a15.888 15.888 0 0 1 6.895 4.303c-.026.584-.069 1.76-.095 2.344-2.704-1.022-5.4-2.044-8.002-3.289a76.05 76.05 0 0 0-14.503-1.34 51.812 51.812 0 0 1 20.96 6.149l.567-.163a19.376 19.376 0 0 1 7.745 5.907c-2.301.43-4.293-1.021-6.337-1.794a40.833 40.833 0 0 0-9.342-2.508 51.938 51.938 0 0 0-11.077-1.605c5.203 1.228 10.046 3.512 15.078 5.289 5.779 2.112 11.867 4.01 16.821 7.78Zm-202.774-30.577a34.915 34.915 0 0 0-.524 6.887 43.372 43.372 0 0 0-3.787-11.317c-2.533 1.133-2.593 3.992-3.177 6.345-4.534-3.623-7.582-8.707-10.768-13.472-.618-.06-1.863-.19-2.482-.25a75.018 75.018 0 0 1 .361 8.896 76.632 76.632 0 0 0-12.536-5.41c-8.005-2.349-16.357-2.893-24.618-3.185a54.196 54.196 0 0 0-22.206 3.873c-6.603 2.705-13.292 5.298-19.466 8.93-8.028 4.645-16.873 7.874-24.412 13.37-3.975 2.919-8.38 5.52-11.188 9.702.575.052 1.726.155 2.301.198 3.684-1.537 7.161-3.53 10.7-5.375-4.509 4.027-8.802 8.26-13.104 12.502-2.49 2.516-5.667 4.628-6.844 8.149 2.954-.653 5.521-2.276 8.175-3.641-1.537 4.456-6.346 7.144-6.818 12.004 5.873-2.241 10.768-6.371 16.53-8.87 17.087-6.895 35.368-9.892 53.477-12.751 11.438-.953 22.987-1.597 34.424-.352 10.536.55 21.132 1.468 31.668.43 2.456 0 3.47-2.448 4.216-4.389 2.353-6.775 4.019-14.262 1.88-21.303-.454-.24-1.356-.73-1.802-.97Z" style="fill:#764074"></path>
    <path d="M1324.649 742.9c1.314 4.8.257 9.745 0 14.605.532-.635 1.013-1.297 1.52-1.958-.919 5.281-3.229 10.158-5.487 14.975-5.195 11.395-12.236 21.828-19.5 31.977-4.32 5.565-8.587 11.498-14.607 15.345 2.362-3.83 6.123-6.466 8.888-9.97 7.187-8.844 13.189-18.59 18.77-28.507 6.183-11.137 10.528-23.605 10.416-36.468Z" style="fill:#cc492f"></path>
    <path d="M1032.392 392.81c3.59-1.253 7.427-.857 11.145-.824 3.505.031 7.102-.206 10.502.868 8.707-.035 17.234 1.837 25.803 3.16 15.722 2.103 31.393 5.41 46.076 11.557a144.048 144.048 0 0 1 33.952 19.252c8.192 6.217 16.478 12.39 23.931 19.483l.576-.146c6.19 5.504 12.364 11.04 18.22 16.899 2.456 2.456 6.106 4.215 6.87 7.89-3.65-1.983-6.56-5.013-9.626-7.753-6.073-5.43-12.27-10.716-18.178-16.324-12.373-10.063-24.901-20.118-38.872-27.906a173.493 173.493 0 0 0-50.404-17.534c-9.574-1.537-19.131-3.152-28.688-4.775-6.87-1.193-13.91-1.081-20.754-2.292a20.947 20.947 0 0 1-10.553-1.554Zm-87.98 31.462a195.434 195.434 0 0 1 24.25-19.612 10.082 10.082 0 0 0 3.735-4.044c-3.435 1.168-6.278 3.453-9.214 5.496-8.37 5.824-16.632 12.055-23.579 19.569-5.624 5.143-10.99 10.568-16.16 16.16-5.904 6.385-11.884 13.163-14.64 21.587.755.189 1.528.378 2.3.558a86.923 86.923 0 0 0 3.539-5.1c7.59-12.262 17.422-22.936 27.597-33.085.936-.052 1.46-1.022 2.172-1.529Zm84.794-15.37a229.64 229.64 0 0 1 73.975 12.631c19.75 6.312 38.382 15.705 56.07 26.439 13.31 8.458 26.259 17.654 37.705 28.542 2.49 2.902 5.358 5.47 7.763 8.458 1.51 1.606 2.799 4.259 5.426 3.53a103.219 103.219 0 0 0-12.717-14.71A265.69 265.69 0 0 0 1083.2 411.59c-10.365-2.696-20.995-4.079-31.6-5.35-10.759-.936-21.544-.412-32.311-.077-1.263.258-4.895.773-3.066 2.645 4.293.661 8.664.197 12.983.094ZM943.348 447.2c13.232-10.716 27.172-20.52 41.328-29.994 3.448-2.307 7.204-4.284 10.063-7.35a3.181 3.181 0 0 0-2.533.404c-13.19 8.45-26.498 16.761-38.975 26.267-10.295 7.865-21.127 15.422-29.306 25.58-2.542 3.157-5.513 6.5-5.685 10.784a6.306 6.306 0 0 0 2.774-2.456c5.676-9.265 14.056-16.383 22.334-23.235Zm39.473-6.062c8.32-4.062 16.761-8.089 25.812-10.253.103-.463.309-1.374.412-1.829a32.783 32.783 0 0 0-10.433 2.241c-14.907 5.315-28.92 12.863-42.444 21.02-11.833 7.325-23.906 14.71-33.394 25.048-1.1.756-.627 2.087-.61 3.186 5.032-3.315 9.265-7.694 14.237-11.12a339.62 339.62 0 0 1 46.42-28.293Zm221.082 66.16a451.166 451.166 0 0 0-44.565-35.283 256.072 256.072 0 0 0-84.047-38.674 164.846 164.846 0 0 0-28.319-3.958 28.197 28.197 0 0 0-10.45 1.476c5.504.481 11.017.97 16.538 1.383a239.722 239.722 0 0 1 69.853 21.939c15.894 7.513 30.637 17.182 45.054 27.168a444.582 444.582 0 0 1 34.974 27.684c1.878 1.648 3.76 3.572 6.363 3.958-1.254-2.361-3.459-3.946-5.401-5.693Zm-224.86-43.285c14.76-5.135 29.942-9.635 45.586-10.88a35.041 35.041 0 0 0 4.174-.987c-1.34-2.01-3.787-1.469-5.83-1.434-19.304 1.485-37.954 7.316-55.96 14.16-8.99 3.528-17.998 7.255-26.12 12.562-4.002 2.593-8.15 5.272-10.872 9.3 2.336.815 4.13-1.16 5.96-2.26 13.197-9.015 28.095-15.078 43.062-20.461Zm125.606 12.785c29.839 13.086 58.475 29.17 84.382 48.987a17.606 17.606 0 0 0-.104-2.61c-22.969-19.08-49.21-33.728-75.88-46.944-16.512-8.028-34.038-14.253-52.147-17.439-4.113-1.082-8.621-2.293-12.777-.773a26.483 26.483 0 0 0 8.269 2.808 249.997 249.997 0 0 1 48.257 15.971Zm-78.886 1.537c8.363 1.34 16.624 3.28 24.833 5.367 16.53 4.474 32.938 9.445 48.996 15.43a13.681 13.681 0 0 0 3.709.885l-.704.18c4.018 1.898 8.237 3.306 12.365 4.963 4.108 1.65 8.131 3.64 12.536 4.43-.094-.506-.266-1.519-.352-2.017-6.87-2.662-13.42-6.251-20.505-8.286-20.376-8.39-41.422-15.036-62.606-21.012-18.452-5.238-37.878-6.227-56.946-4.293-13.677 1.387-27.314 4.166-39.894 9.677-4.814 2.109-9.978 3.933-13.713 7.797 3.967.051 7.376-2.147 11.025-3.384a167.69 167.69 0 0 1 31.402-8.337c16.438-2.524 33.29-3.847 49.854-1.4ZM1240 508.99a251.427 251.427 0 0 1 11.111 24.266 5.84 5.84 0 0 0 2.55 3.151c-3.417-12.227-8.99-23.742-14.726-35.033-3.443-6.681-7.633-13.353-14.202-17.363-.438.155-1.314.472-1.76.627 2.438 2.765 5.212 5.238 7.427 8.209a110.798 110.798 0 0 1 9.6 16.143ZM829.36 591.567c-.861 9.002-1.94 18.53 1.314 27.186.524-.765 1.443-1.443 1.142-2.49-1.64-10.304-.163-20.754 1.34-30.981 2.404-14.194 5.59-28.328 10.613-41.852a125.779 125.779 0 0 1 28.044-44.11 47.712 47.712 0 0 1 11.987-9.368l-.756-1.648c-6.92 1.408-11.806 6.895-16.598 11.643-13.996 14.306-23.519 32.526-28.954 51.683-3.761 13.07-6.836 26.395-8.132 39.937Zm180.759-97.072c19.878.72 39.404 5.169 58.475 10.587 19.681 6.157 39.139 13.197 57.755 22.102 9.574 4.49 18.667 9.91 27.864 15.104 4.138 3.46 9.05 5.83 13.532 8.827 2.276 1.271 4.568 3.658 7.393 2.473a210.992 210.992 0 0 0-18.195-12.348c-13.242-8.076-26.352-16.46-40.435-22.986a458.481 458.481 0 0 0-43.045-16.993c-20.814-6.449-42.401-11.129-64.272-11.386-6.852-.618-13.704.24-20.565.232-9.986.094-19.933 1.073-29.855 2.052-4.193.414-9.188.12-12.451 3.22 6.638.566 13.292-.326 19.938-.232 4.362.077 8.716-.18 13.07-.532 10.26.12 20.53-.756 30.791-.12Zm-123.923 8.036c2.267-2.515 5.263-4.473 6.783-7.599-1.648-1.133-3.486-.103-4.757 1.056-11.987 10.52-21.02 24.12-27.34 38.692-5.066 11.73-7.968 24.232-10.518 36.709a27.357 27.357 0 0 0-.713 5.907 11.91 11.91 0 0 0-1.288 4.216c-1.185 8.621-2.487 17.312-1.984 26.018.079 1.359-.18 3.28 1.511 3.83.395-2.903.344-5.84.455-8.759.267-6.277 1.787-12.434 2.019-18.702 1.811-9.213 3.64-18.435 6.354-27.434a132.359 132.359 0 0 1 29.478-53.934Zm-4.946 20.832c-5.942 8.114-10.124 17.336-13.525 26.765a287.64 287.64 0 0 0-10.183 32.698c-1.202 5.41-2.533 10.836-2.825 16.4l-.49-.403a60.114 60.114 0 0 0-.335 11.188l2.07-.103c.112-3.065.214-6.122.575-9.162 1.766-14.845 6.707-29.117 11.652-43.182 3.169-8.51 6.483-17.036 11.249-24.799 7.058-11.489 16.495-21.346 26.988-29.752 1.915-1.744 4.783-3.135 4.774-6.106a10.034 10.034 0 0 0-5.092 1.512c-9.861 6.594-17.972 15.404-24.858 24.944Zm335.886-14.683c4.268 4.396 7.685 9.505 11.248 14.477 5.762 8.226 11.618 16.4 17.105 24.824.37-.12 1.09-.352 1.451-.472-5.04-9.557-11.386-18.333-17.199-27.426-4.173-6.243-8.518-12.648-14.769-17.01-1.133-.936-2.662-.816-4.019-.988 1.554 2.636 4.096 4.414 6.183 6.595Zm-49.142 66.272a332.288 332.288 0 0 0-36.176-26.533c-30.414-20.007-64.7-33.651-99.932-42.444a37.173 37.173 0 0 0-8.088-1.417c-2.61-1.27-5.573-1.391-8.364-2-5.53-.902-11.068-2.465-16.718-1.898.18.352.54 1.073.73 1.425a185.81 185.81 0 0 0 22.806 4.989c12.734 3.177 25.4 6.758 37.816 11.051 16.856 5.702 33.024 13.25 48.738 21.57 28.079 15.482 53.435 35.368 77.546 56.389 12.348 10.802 24.478 21.978 34.94 34.639 1.097 1.328 2.413 2.472 4.259 2.387-.928-2.989-3.443-5.006-5.281-7.41-15.284-18.977-33.814-34.966-52.276-50.748Zm65.714 15.018a18.445 18.445 0 0 0 3.967 2.98 15.648 15.648 0 0 0-2.18-3.049c-11.507-11.678-23.047-23.347-35.052-34.518-11.274-10.88-23.033-21.414-36.167-29.96-3.839-2.497-7.986-5.083-12.691-5.306 3.091 3.04 7.144 4.774 10.57 7.376 25.589 18.745 48.618 40.641 71.553 62.477Zm-36.39-70.308c-.37.232-1.125.696-1.494.936 2.936 3.031 6.173 5.77 9.084 8.844 6.57 6.998 12.202 14.795 17.878 22.515 3.46 4.894 7.215 9.602 10.175 14.82a10.103 10.103 0 0 0 2.748 3.074 12.802 12.802 0 0 0-2.078-5.718c-4.165-6.887-8.621-13.585-13.172-20.222-4.233-5.985-8.217-12.236-13.593-17.285-2.885-2.67-5.77-5.624-9.548-6.964Zm43.002 45.716c.326 4.688 3.493 8.457 5.324 12.64 5.987 13.68 12.605 27.15 17.156 41.396a5.957 5.957 0 0 0 1.992 2.765c-.739-7.119-3.473-13.86-5.976-20.505-4.195-11.135-8.503-22.301-14.615-32.587a9.144 9.144 0 0 0-3.881-3.71Zm15 103.52c.448 0 1.35.01 1.804.018a87.572 87.572 0 0 0-6.388-20.436c-11.009-24.953-25.718-48.807-46.214-67.08-2.147-1.64-4.44-3.924-7.367-3.374 15.413 15.92 29.538 33.222 40.82 52.353 7.025 12.202 13.714 24.833 17.346 38.52Zm-432.365-59.771c.283-.112.85-.344 1.133-.464.069-2.103-.36-4.19-.49-6.277-.514-5.83.258-11.677-.12-17.508.816-3.563.936-7.239 1.563-10.836 3.048-20.394 8.063-40.985 19.011-58.69 3.186-5.006 6.303-10.184 10.674-14.263a6.732 6.732 0 0 0 1.545-2.396c-4.68-.712-7.244 3.989-9.815 7.033-14.99 17.752-19.706 41.456-23.184 63.893a69.74 69.74 0 0 0-1.073 11.945c-1.554 2.953-.781 6.423-1.022 9.625.155 5.968-.55 12.297 1.778 17.938Zm-38.142 6.088c.704-6.912 2.515-13.644 3.572-20.497-.447.146-1.323.447-1.76.602-4.371 14.185-5.015 29.22-4.818 43.972.035 5.401-.204 10.866.885 16.186.39 1.906.334 4.31 2.198 5.478-.387-4.362-1.374-8.655-1.615-13.026a200.301 200.301 0 0 1 1.538-32.715Zm477.377 37.996c.344-3.959-1.073-7.72-2.292-11.403a229.73 229.73 0 0 0-11.172-25.674c-2.782-5.307-5.676-10.682-9.806-15.087-.738-.92-1.983-.876-3.005-1.142.532 2.73 2.456 4.817 3.941 7.075a184.293 184.293 0 0 1 10.519 18.77c3.52 7.257 7.161 14.521 9.488 22.275a19.021 19.021 0 0 0 2.327 5.186Zm-465.287 29.16c.429.13 1.279.395 1.708.524-3.589-14.82-3.683-30.182-3.314-45.337.154-6.312 1.554-12.511 1.691-18.814-.489.112-1.46.352-1.94.472-3.452 12.983-2.599 26.57-1.89 39.825a98.154 98.154 0 0 0 3.745 23.33Zm49.785-53.349c-.257 3.194-.018 6.394-.18 9.592-.484 9.55-2.576 18.89-4.628 28.181-2.018 7.891-3.598 16.023-7.445 23.287q.824.142 1.675.284c3.932-6.784 5.916-14.434 8.045-21.922 2.404-9.042 5.075-18.092 5.985-27.435-.008-4.62.756-9.59-1.477-13.841a26.863 26.863 0 0 0-1.975 1.854Zm383.482 11.816a13.198 13.198 0 0 0 .91 5.89 179.378 179.378 0 0 0 14.701 27.357c3.203 4.68 6.646 9.403 11.403 12.623-11.36-12.837-19.062-28.396-25.657-44.093a14.688 14.688 0 0 0-1.357-1.777Zm-418.558 15.937c1.4-5.213 1.605-10.622 2.275-15.954.498-8.682 1.803-17.457.447-26.121-.705-.018-2.113-.069-2.817-.086-.49 10.175-.24 20.376-.584 30.568a94.814 94.814 0 0 0-1.631 17.165c.48-.128 1.425-.377 1.906-.506a32.412 32.412 0 0 0 .404-5.067Zm460.333 17.68c-.893-7.437-1.718-14.993-4.526-22-.558-.008-1.674-.025-2.232-.025.816 4.868 2.576 9.514 3.418 14.382a171.593 171.593 0 0 1 2.859 26.31c.258 0 .764-.017 1.022-.026.06-6.216.317-12.468-.541-18.641Zm-12.022-3.598c-.266.275-.816.824-1.09 1.108 1.09 6.517 3.915 12.579 5.29 19.036.583 2.087.54 4.603 2.36 6.114.61-6.097-1.468-11.953-2.979-17.757-.962-2.911-1.554-6.097-3.58-8.501Zm-471.22 9.454c-.439-.138-1.314-.404-1.744-.533-.223 6.818 3.22 12.966 5.47 19.217 2.98 6.612 5.478 13.645 10.02 19.39a7.31 7.31 0 0 0-.18-2.036c-5.41-11.626-10.63-23.502-13.567-36.038Zm36.845 7.307c2.928-10.682 6.523-21.174 9.471-31.848 1.444-5.227 2.816-10.768 1.743-16.203-.678 0-2.035.008-2.705.017-1.262 6.088-2.224 12.236-3.77 18.264-2.137 9.497-5.263 18.813-6.542 28.474l-.103-.937a59.442 59.442 0 0 0-2.336 10.373l2.13-.137a41.027 41.027 0 0 0 2.112-8.003Zm-13.954 7.264a14.414 14.414 0 0 0 2.654-8.432c1.073-2.567 1.45-5.358 2.215-8.028 3.813-14.821 9.36-29.607 8.767-45.14.163-1.203-.79-1.933-1.528-2.688a14.418 14.418 0 0 0-1.323 4.534 176.236 176.236 0 0 1-3.546 22.385c-1.932 9.634-5.083 19.071-6.13 28.851-1.366 2.55-2.654 5.753-1.109 8.518Zm-2.876 7.402c-.3 4.31.876 8.561 2.044 12.674a186.573 186.573 0 0 0 7.375 20.144c.499.06 1.495.172 1.993.232-3.753-11.875-8.063-23.699-9.223-36.175-.875.927-2.284 1.657-2.19 3.125Zm22.652 38.15c-.327-3.485-1.744-6.723-2.542-10.097a104.481 104.481 0 0 1-2.988-25.443l-2.73-.025a20.217 20.217 0 0 0-.714 9.033 84.318 84.318 0 0 0 7.119 26.06c.463.12 1.39.353 1.855.473Zm-4.972 6.26c.43 3.504 2.842 6.235 4.38 9.291 2.798 4.869 4.67 10.176 6.662 15.405.344-.198 1.048-.601 1.4-.799a65.293 65.293 0 0 0-6.2-17.422c-1.528-2.593-2.601-6.5-6.242-6.475Z" style="fill:#4f2a4d"></path>
    <path d="M1015.545 751.108c.412.086 1.245.249 1.657.326 4.147 8.579 7.745 17.543 8.93 27.066 2.207 11.257 1.709 22.789.79 34.149-.884 10.93-3.572 21.596-6.182 32.209-2.662 9.282-4.44 19.337-10.974 26.859-1.005 0-2 .017-2.988.034.876-3.46 2.292-6.749 3.357-10.15a24.45 24.45 0 0 0-9.145 11.593c-1.228 4.07 2.035 7.513 5.135 9.591 4.002 2.516 8.724 3.478 13.206 4.817 9.068 2.345 18.29 4.079 27.444 6.106 6.302 1.142 12.82 2.79 19.234 1.476 5.169-1.76 9.54-5.203 14.254-7.9 6.689-4.25 14.34-8.921 16.58-17.078 1.615-4.122-1.433-8.175-.523-12.374 1.752.043 3.976-.79 5.35.713a11.728 11.728 0 0 1 2.06 12.657c-3.074 7.273-9.445 12.442-15.705 16.915a115.95 115.95 0 0 1-17.749 9.643c-4.37 1.88-9.196 1.477-13.833 1.4-6.732-.189-13.215-2.25-19.878-3.04a135.165 135.165 0 0 1-28.55-6.68 19.96 19.96 0 0 1-11.782-10.45c-2.164-6.449 1.83-12.794 6.088-17.328a24.031 24.031 0 0 1 10.562-6.698c4.929-18.556 9.385-37.472 9.591-56.783a110.542 110.542 0 0 0-2.593-28.714c-1.305-6.166-5.023-11.867-4.336-18.359Z" style="fill:#b95f3b"></path>
    <path d="M1189.52 756.08c6.337-2.25 12.751-4.98 19.586-4.946-.146.85-.275 1.7-.403 2.55-9.205 3.057-18.393 6.268-26.963 10.837-4.396 2.052-8.251 5.091-12.725 6.972.215-1.554.197-3.289 1.408-4.465 5.015-5.59 12.357-8.097 19.097-10.948Z" style="fill:#b95d38"></path>
    <path d="M950.294 753.804a5.998 5.998 0 0 1 6.835 2.774c1.675 3.46.636 7.436.112 11.06-.618 3.297-1.614 7.298-5.032 8.74-3.237 1.752-7.324-.592-8.252-3.949a20.175 20.175 0 0 1 .799-12.966c1.082-2.43 2.81-4.951 5.538-5.659Z" style="fill:#160e0b"></path>
    <path d="M915.535 758.063c.464-.386 1.374-1.167 1.838-1.554a42.121 42.121 0 0 1 17.268 7.144c1.305.678 1.253 2.25 1.563 3.512-3.942-.936-7.531-2.876-11.386-4.061-3.28-1.254-7.187-1.924-9.283-5.04Z" style="fill:#b95d38"></path>
    <path d="M1151.25 759.068a7.014 7.014 0 0 1 7.882 4.173c1.605 4.147.67 8.707-.284 12.906-.893 3.623-2.301 7.702-5.933 9.42-2.748.884-6.208.377-7.917-2.147-2.722-3.967-2.68-9.17-1.906-13.73 1.039-4.362 3.339-9.566 8.157-10.622Z" style="fill:#160e0b"></path>
    <path d="M898.637 760.433c5.513-1.382 11.128.679 16.358 2.302a109.083 109.083 0 0 1 19.217 10.784c.034.567.103 1.718.128 2.293-4.465-1.614-8.586-4.01-12.966-5.822-7.213-3.28-14.915-5.229-22.454-7.556-.068-.498-.214-1.494-.283-2ZM1197.025 763.645c3.485-1.681 6.998-3.684 10.965-3.899.026.928.051 1.855.094 2.782-10.544 7.325-21.484 14.083-32.38 20.858-4.568 2.49-8.99 6.2-14.477 5.976-.172-2.988 2.24-4.877 4.25-6.663 9.48-7.926 20.483-13.718 31.548-19.054Z" style="fill:#b95d38"></path>
    <path d="M774.85 775.872c6.689-2.54 15.088-2.602 20.755 2.293 6.569 5.487 9.36 14.022 11.334 22.06 1.185 5.778 2.722 11.557 2.843 17.49-.018 2.37-.043 4.74 0 7.11a365.119 365.119 0 0 0-1.263-5.47c-2.378-11.137-3.77-22.944-10.27-32.63-2.936-4.516-7.521-8.449-13.128-8.706-4.826-.206-10.605.661-13.61 4.886-2.447 3.4-2.645 7.693-3.813 11.583-.403.962-.858 1.915-1.296 2.877-.24-3.238-.455-6.466-.395-9.703.781-5.075 3.92-9.92 8.844-11.79Z" style="fill:#cc492f"></path>
    <path d="M917.27 778.474c3.976.798 7.548 2.808 11.395 4.027a115.168 115.168 0 0 0 17.293 4.216c10.132 1.554 20.385.043 30.414-1.546 4.749-.738 9.3-2.378 14.04-3.142-.91 2.344-3.487 2.868-5.6 3.623-8.457 2.688-17.284 4.036-26.086 5.058a57.531 57.531 0 0 1-21.131-1.752c-6.157-1.674-12.494-3.409-17.8-7.092a7.075 7.075 0 0 1-2.525-3.392Z" style="fill:#b95d38"></path>
    <path d="M765.886 800.121a26.46 26.46 0 0 1 .12-12.46c-.06 3.238.155 6.467.396 9.704.438-.962.893-1.915 1.296-2.877a62.064 62.064 0 0 1 .052 6.569l-1.864-.936Z" style="fill:#cc492f"></path>
    <path d="M1121.857 788.89c4.259.403 7.762 3.185 11.892 4.121 11.979 3.237 24.558 2.507 36.829 2.052a95.77 95.77 0 0 0 19.68-2.747c-.051.523-.163 1.571-.223 2.095-7.445 3.297-15.705 3.735-23.69 4.525-12.89 1.133-26.748 1.795-38.58-4.336-2.267-1.477-5.505-2.688-5.908-5.71ZM970.516 793.921c4.43-.84 8.621-2.636 13.078-3.366-1.194 2.439-3.976 3.083-6.303 3.967a122.91 122.91 0 0 1-28.216 5.582 37.58 37.58 0 0 1-22.755-5.822l-.412-2.13c4.852 1.52 9.48 3.933 14.606 4.397 10.072 1.039 20.133-.755 30.002-2.628ZM1119.933 799.048c4.903 1.262 9.506 3.546 14.529 4.413 13.61 2.576 27.58 2.035 41.31.79 3.513-.378 6.939-1.33 10.485-1.537-1.837 2.67-5.392 2.757-8.243 3.503a182.846 182.846 0 0 1-29.702 2.061c-9.952-.103-21.217-1.623-28.379-9.23Z" style="fill:#b95d38"></path>
    <path d="M912.367 801.59c5.264-.258 9.918 2.618 14.924 3.769 12.433 3.263 25.382 5.075 38.253 4.285 1.34.034 2.92-.318 3.985.755.55 1.958-2.018 1.88-3.263 2.216a106.175 106.175 0 0 1-34.716-1.297c-6.69-1.425-13.387-3.503-19.106-7.333-.017-.601-.06-1.795-.077-2.396ZM1049.376 811.644c.519-2.875.98-6.431 4.105-7.633.197 13.232-1.323 26.421-2.216 39.61-.48 7.977-.163 15.971-.283 23.966-.532-.052-1.58-.146-2.112-.198-2.138-9.497-1.572-19.286-1.554-28.937.377-8.956.469-17.976 2.06-26.808Z" style="fill:#fdb897"></path>
    <path d="M809.782 817.715a12.853 12.853 0 0 1 .867 2.774 148.443 148.443 0 0 1 .627 27.966c-.24 1.7-.06 3.907-1.838 4.852-.257-5.787.232-11.583.035-17.37 0-5.548-1.1-11.035-.954-16.582.43 1.812.859 3.641 1.263 5.47-.043-2.37-.018-4.74 0-7.11ZM1263.056 832.235a79.955 79.955 0 0 1 26.868-13.318c.25.73.507 1.46.764 2.207-7.264 3.46-14.657 6.74-21.286 11.378-4.731 3.177-9.763 6.422-12.476 11.626a138.34 138.34 0 0 0-1.89-.017c-.36-5.341 4.165-9.033 8.02-11.876ZM1293.204 823.7a30.306 30.306 0 0 1 3.736-1.554c-1.726 5.847-8.235 7.694-13.13 10.08a60.219 60.219 0 0 0-16.941 11.49c-2.576 2.37-3.555 6.25-6.852 7.814 1.477-7.789 8.063-13.207 14.065-17.75 5.727-4.516 12.712-6.78 19.122-10.08ZM773.322 837.267c3.744 2.13 4.74 6.715 7.308 9.918a151.865 151.865 0 0 0 27.958 29.658 32.877 32.877 0 0 1 6.492 6.38c-3.435-1.107-6.226-3.452-9.068-5.573-8.982-7.23-17.62-15.078-24.558-24.343a44.872 44.872 0 0 1-8.131-16.04ZM787.757 868.471a11.724 11.724 0 0 1 3.572 3.306c2.73 3.572 6.414 6.243 9.986 8.922a78.792 78.792 0 0 0 14.537 8.68c2.25 1.014 4.843 1.727 6.303 3.9-4.336-.353-8.338-2.208-12.15-4.157-7.376-4.001-14.417-8.878-19.878-15.301a10.148 10.148 0 0 1-2.37-5.35Z" style="fill:#cc492f"></path>
    <path d="M1065.897 904.39c1.786 1.184 1.468 3.46 1.675 5.323.515 8.69-.996 17.32-2.851 25.777a24.34 24.34 0 0 0-2.774 1.246c3.624-10.408 2.164-21.648 3.95-32.347ZM1054.812 906.442l1.983.412c1.718 11.617-3.134 22.703-4.98 33.986q1.932.077 3.89.129c-1.142.24-2.284.438-3.426.644-1.09-1.314-2.164-2.628-3.272-3.916a6.568 6.568 0 0 0 2.018-3.34c2.01-9.196 2.877-18.573 3.787-27.915Z" style="fill:#b95d38"></path>
    <path d="M1104.555 934.486c8.443.34 16.512-3.907 24.97-2.07-.352 1.786-.765 3.572-1.288 5.324-9.025 3.46-18.805 3.915-28.105 6.32-12.39 3.418-25.159 5.212-37.936 6.406-21.132 1.047-42.238-.85-63.3-2.233-11.447-.927-22.841-2.713-34.339-2.645-3.46.035-7.084-.326-10.33 1.1a20.213 20.213 0 0 0-1.52 3.013q-1.687.013-3.348.052c.034-1.674-.198-3.41.326-5.023a13.174 13.174 0 0 1 7.977-3.564c3.452-.309 6.843-1.073 10.278-1.477 8.27-1.15 16.633-.841 24.944-.764a118.647 118.647 0 0 0 26.73-1.58 111.807 111.807 0 0 1 23.975-2.07c2.043.06 4.242.576 5.418 2.422 1.108 1.288 2.181 2.602 3.272 3.916 1.142-.206 2.284-.404 3.426-.644 2.456-.799 4.121-2.885 6.242-4.233a24.34 24.34 0 0 1 2.774-1.246c13.283-.06 26.545-1.538 39.834-1.004ZM967.073 961.233a57.979 57.979 0 0 1 13.842 9.566c-5.607-1.374-10.167-5.272-13.842-9.566ZM1051.128 985.027c6.835-2.112 13.98-3.065 21.063-3.967a3.066 3.066 0 0 1-2.043 1.597c-6.217 1.537-12.588 2.782-19.02 2.37Z" style="fill:#e56324"></path>
    <path d="M1233.02 768.694c-.069 20.436 2.885 40.77 2.628 61.232-.12 7.667.154 15.37-.721 23.012-.378 3.95.017 7.977-.954 11.875.516 6.87-.635 13.696-1.159 20.531-1.288 11.747-2.576 23.545-5.324 35.06a4.179 4.179 0 0 1-1.726 2.395c.052-3.563.98-7.015 1.58-10.501 2.199-13.627 3.169-27.4 4.276-41.148.284-3.228-.188-6.586 1.005-9.668 1.168-29.427-2.722-58.768-1.52-88.194.069-1.71.352-3.59 1.915-4.594ZM852.638 884.88c.069-17.937 2.8-35.703 5.04-53.452 1.108-7.917 1.07-15.91 1.546-23.87a16.542 16.542 0 0 0-.31-3.582 9.164 9.164 0 0 0-2.034 4.775c-1.16 7.71-1.623 15.516-2.628 23.244-1.417 11.3-3.04 22.583-3.821 33.952a253.023 253.023 0 0 0-.61 34.38c.881 19.364 5.318 38.434 11.009 56.982a79.751 79.751 0 0 0 7.024 15.645l2.129.24c-2.653-5.95-5.28-11.918-7.488-18.057-6.663-22.764-10.415-46.506-9.857-70.257Zm394.86-40.64c.326-6.483.191-12.989-.104-19.467-.716-15.753-1.634-31.487-2.207-47.244-.383-10.555-1.219-21.08-.927-31.633.678-3.108 1.546-6.294 1.1-9.497-2.259-.386-2.877 2.688-2.354 4.362-2.232 7.754-1.66 15.918-1.674 23.888-.036 20.079.541 40.212 3.048 60.167.55 4.148.31 8.39 1.185 12.503-.369 10.536.61 21.106-.55 31.607-.351 4.525-1.339 9.008-1.124 13.567a4.692 4.692 0 0 0 1.631-2.533 117.587 117.587 0 0 0 2.336-19.99c.163-5.246.799-10.561-.36-15.73Zm-280.94 27.588a95.725 95.725 0 0 1-14.151 12.924c-10.122 7.818-20.638 15.354-29.195 24.901-8.935 9.967-15.757 22.351-17.362 35.824a51.777 51.777 0 0 0 3.692 25.356 104.97 104.97 0 0 0 14.117 25.331l2.24.172c-1.717-4.577-4.655-8.53-6.723-12.932-5.69-12.112-10.312-25.468-8.355-38.975 2.113-14.503 11.12-26.945 21.562-36.777 7.84-7.668 16.33-14.626 24.755-21.638 4.973-4.14 10.064-8.32 13.764-13.705l.593.078c1.614-1.795 2.636-4.002 1.915-6.432a27.21 27.21 0 0 0-6.852 5.873Zm202.26 49.202c-2.869-10.003-6.2-20.11-12.22-28.696.361-1.03-.506-1.992-.79-2.92a92.626 92.626 0 0 0-6.053-10.355c-1.603-2.393-3.315-5.067-6.26-5.917a26.081 26.081 0 0 0 3.555 6.93c3.263 4.971 5.461 10.519 7.883 15.928l.249-.524c4.594 11.232 8.767 22.78 10.424 34.862 2.138 13.086.713 26.396-1.16 39.413a255.733 255.733 0 0 1-7.453 34.236c.541-.026 1.64-.086 2.19-.112 4.963-9.033 6.887-19.311 9.342-29.212 3.787-17.56 5.04-36.133.292-53.633Zm-265.347-1.889c3.443-7.539 8.81-13.979 14.469-19.955a24.14 24.14 0 0 0 2.91-3.933 8.14 8.14 0 0 0-5.718 2.018 60.421 60.421 0 0 0-16.83 24.3c-3.58 10.253-3.959 21.235-4.26 31.977.439 5.504.181 11.103 1.624 16.487.687-1.374 1.709-2.74 1.374-4.362a62.4 62.4 0 0 1-.146-16.35c.713-10.286 2.155-20.754 6.577-30.182Zm270.636-10.235a110.97 110.97 0 0 1 5.246 31.77c.262 15.06-3.855 29.968-10.012 43.664 2.645-1.571 3.739-4.619 4.826-7.324a164.461 164.461 0 0 0 5.298-16.264c3.083-10.973 3.941-22.694 1.511-33.883-1.425-6.251-2.739-12.846-6.87-17.963ZM844.17 927.728c-1.082-11.979-2.825-23.931-2.816-35.987-.395-14.614.91-29.203 2.284-43.74.884-9.48 2.697-18.878 2.894-28.405.121-5.864.438-11.919-1.58-17.543-.009-2.413-.266-5.736-2.963-6.62.258 4.353 1.443 8.595 1.537 12.965.103 4.122-.051 8.244.172 12.357-2.078 14.743-4.594 29.46-5.34 44.35-1.237 15.782.05 31.616 1.588 47.33.91 5.642 1.039 11.523 2.765 16.985.3 6.86 2.79 13.386 5.452 19.637.644-.18 1.28-.36 1.932-.532a77.074 77.074 0 0 1-3.752-11.627c-.721-3.056-.868-6.276-2.173-9.17Zm190.883 101.486c15.85-2.12 31.805-3.297 47.776-3.88.009-.5.034-1.487.043-1.976-17.19-.446-34.45.232-51.417 3.16-3.297.756-7.05.962-9.574 3.486 4.405.584 8.81-.249 13.172-.79Zm57.436 4.542c-24.704.782-49.63.67-73.948 5.633a4.76 4.76 0 0 0-1.812 1.392c5.813.111 11.574-.768 17.362-1.228 13.172-1.047 26.317-2.42 39.516-2.894 8.102-.29 16.28-.172 24.3-1.537-1.21-1.846-3.563-1.297-5.418-1.366Z" style="fill:#b95d38"></path>
    <path d="M1190.714 1032.056a70.8 70.8 0 0 0-6.277 9.291c-4.963 9.033-11.197 17.294-16.238 26.258-8.269 12.185-15.997 24.73-24.437 36.803-5.204 9.007-11.558 17.671-20.308 23.545-7.668 5.1-17.148 5.667-25.614 8.81-9.935 3.494-20.531 3.855-30.792 5.847-10.236-.996-20.487.378-30.732-.524-11.235-.988-22.497-1.717-33.66-3.349-5.29-.72-10.2-2.85-15.215-4.542-4.07-1.442-8.287-2.773-11.721-5.478-1.314-.79-2.422-2.164-3.976-2.387-4.362-4.998-10.235-8.432-14.211-13.8-7.968-10.14-15.916-20.34-22.84-31.263-5.506-8.686-10.453-17.688-15.276-26.756-6.799-12.782-13.877-25.4-21.708-37.567-4.224-6.767-9.72-12.588-14.657-18.814-4.113-5.298-9.102-9.789-13.756-14.589a25.16 25.16 0 0 0-5.813-4.379c3.812 6.792 9.076 12.605 13.601 18.917 5.487 7.668 12.185 14.451 16.89 22.669 2.593 4.508 5.578 8.784 8.08 13.343 4.653 8.479 9.935 16.59 14.331 25.211a386.558 386.558 0 0 0 20.136 33.926c5.384 7.187 10.674 14.46 16.478 21.33a74.162 74.162 0 0 0 14.898 12.424 56.706 56.706 0 0 0 20.72 11.103c9.213 4.053 19.337 4.869 29.246 5.727 10.261.807 20.514 2.087 30.835 1.872 6.672-.172 13.361.558 20.033.009a22.232 22.232 0 0 0 4.834.378c10.742-.516 21.618-1.552 31.797-5.359 3.718-1.39 7.118-3.795 11.171-4.147 5.96-.524 11.025-4.104 15.55-7.736 7.05-5.71 12.116-13.361 16.796-21.03a203.525 203.525 0 0 0 12.434-20.092c3.325-6.29 7.315-12.21 10.372-18.642l.473.198c5.006-8.699 10.853-16.916 15.147-26.018 2.138-3.615 4.8-7.093 5.59-11.309-.55.034-1.64.095-2.181.12Z" style="fill:#b95d38"></path>
    <path d="M951.385 1083.56c6.406 8.354 12.528 17.087 20.505 24.06a23.342 23.342 0 0 0 8.235 4.636c-2.937-2.86-6.831-4.48-9.592-7.547a219.858 219.858 0 0 1-17.998-23.245c-7.702-11.618-16.512-22.428-24.609-33.763a64.284 64.284 0 0 0-5.307-7.47c.73 5.667 4.122 10.424 7.213 15.06 6.81 9.704 14.589 18.677 21.553 28.269ZM976.836 1096.173a50.59 50.59 0 0 0 10.33 9.377c-.043-1.056.317-2.31-.653-3.048-2.576-2.782-5.34-5.384-8.097-7.969a441.483 441.483 0 0 1-35.249-48.24c-.412.215-1.227.627-1.64.842 1.658 6.173 5.568 11.334 9.197 16.46a379.527 379.527 0 0 0 26.112 32.578ZM905.24 1113.218c-3.83-16.796-4.628-34.588-12.485-50.224-1.786-3.306-2.86-6.98-5.092-10.02a19.252 19.252 0 0 0 1.262 9.711 141.399 141.399 0 0 1 7.23 25.46c4.706 23.682 10.828 47.21 20.342 69.458 1.228 2.91 2.104 6.148 4.32 8.5.394-.06 1.184-.163 1.57-.214a64.065 64.065 0 0 0-3.923-9.497c-5.814-13.91-9.832-28.5-13.224-43.174ZM934.744 1148.157c-3.297-11.102-6.792-22.145-10.7-33.05-4.447-12.992-9.032-25.966-14.991-38.348-1.297-2.293-1.658-5.616-4.474-6.56.137 4.018 1.82 7.71 3.314 11.377q15.714 37.172 27.71 75.769c.103 5.118 1.846 10.038 2.756 15.053.618-.215 1.245-.421 1.88-.627-1.305-6.2-1.803-12.666-4.336-18.53a25.08 25.08 0 0 0-1.16-5.084ZM1145.324 1190.258a86.912 86.912 0 0 1 2.465-26.834 220.807 220.807 0 0 1 9.187-30.302c5.9-15.903 13.696-31.264 16.882-48.043-.945.052-1.88.12-2.808.19-3.606 8.32-6.346 16.984-9.858 25.347-7.745 18.925-14.33 38.46-17.637 58.69-1.013 6.835-1.777 14.005-.094 20.789.464.043 1.4.12 1.863.163Z" style="fill:#b95d38"></path>
    <path d="M1165.4 1127.773c-4.216 13.566-5.839 27.734-9.128 41.516a157.071 157.071 0 0 1-18.822 44.634c3.4-1.675 4.955-5.307 6.861-8.346a198.1 198.1 0 0 0 15.19-36.408c3.349-11.687 5.126-23.734 7.273-35.67.678-3.932 1.812-7.805 1.88-11.815-2 1.417-2.507 3.907-3.254 6.089ZM1101.815 1223.016c-2.715 9.068-6.405 17.8-9.282 26.782-3.254 4.654-4.465 10.339-6.998 15.379-2.61 6.44-6.225 12.46-8.45 19.045 3.599-2.396 4.672-6.878 6.733-10.441 3.511-7.952 7.78-15.62 10.407-23.923a311.747 311.747 0 0 0 12.339-32.355 186.102 186.102 0 0 0 8.192-49.296c.24-5.066 2.404-9.72 3.451-14.623-4.052 4.165-5.942 9.892-6.44 15.593-1.82 18.17-4.694 36.283-9.952 53.84ZM1046.483 1235.699c-6.964-12.202-11.704-25.89-12.511-39.98-.42-4.826 1.27-9.66.129-14.434-.516.103-1.555.3-2.078.403-3.41 6.354-3.71 13.868-3.177 20.917.678 8.99 4.104 17.457 8.097 25.443a66.766 66.766 0 0 0 13.619 19.028c2.052 1.89 4.164 4.19 7.186 4.233 0-.515.009-1.554.009-2.078-4.242-4.078-8.398-8.346-11.274-13.532ZM986.84 1214.601c-2.44-5.693-5.865-11.077-7.007-17.233a5.489 5.489 0 0 0-1.168-2.705c-.318 3.838-.206 7.814 1.33 11.412 3.882 9.814 7.772 19.715 13.302 28.748 7.83 12.888 17.027 24.884 24.936 37.73 1.64 2.55 2.636 5.727 5.392 7.35a20.15 20.15 0 0 0-2.241-6.285c-10.863-20.05-25.314-38.065-34.544-59.017ZM1019.512 1241.203c-2.98-6.337-7.153-12.013-10.047-18.376a10.679 10.679 0 0 0-1.82-2.361c-.48 5.212 2.653 9.634 4.783 14.116 8.346 15.345 15.046 31.51 22.257 47.407 1.175 2.592 1.846 5.71 4.379 7.394-1.048-4.611-3.06-8.911-4.809-13.275-4.699-11.726-9.248-23.528-14.743-34.905Z" style="fill:#b95d38"></path>
    <path d="M957.945 1297.351a13.652 13.652 0 0 1 13.06.163 74.744 74.744 0 0 1 14.898 10.777c5.496 4.662 10.416 10.304 12.88 17.173 1.288 3.246 2.456 7.093 5.83 8.776 7.11 3.709 15.689 1.099 22.824 4.73 2.061.894 4.045 2.225 6.372 2.328 3.392.197 6.457 1.786 9.48 3.211 6.543 3.169 12.76 7.522 16.683 13.773a162.22 162.22 0 0 1 1.683-2.318c.97.335 1.95.678 2.937 1.039-4.07 11.309-8.664 22.42-13.24 33.531a63.417 63.417 0 0 1 5.967-6.81c-.635 1.598-1.176 3.247-1.734 4.887 2.232-1.452 4.542-2.783 6.869-4.08-3.606 4.183-8.054 7.506-12.28 11.018a7.881 7.881 0 0 0-2.463 3.512 119.653 119.653 0 0 0-6.312 23.785c-1.588 9.522-.67 19.2-.369 28.791.103 4.894 1.571 9.66 1.4 14.58a23.89 23.89 0 0 1-3.22-.816 13.36 13.36 0 0 1-1.95-5.847c-1.494-12.056-2.936-24.266-1.46-36.399a106.69 106.69 0 0 1 8.15-28.723c5.006-10.742 9.831-21.56 14.777-32.337a67.253 67.253 0 0 0-14.597-10.69c-8.192-4.491-16.804-9.12-26.336-9.575-6.2-.566-13.18-.017-18.358-4.13-5.264-4.225-5.899-11.523-10.064-16.555-3.572-4.44-8.062-8.003-12.227-11.833a48.98 48.98 0 0 0-10.785-7.255c-3.392-1.503-6.749.833-9.18 3.03-5.357 4.947-10.14 10.485-15.541 15.388-12.502 11.584-24.077 24.42-38.657 33.488a12.275 12.275 0 0 1-4.671 1.357c.953-2.585 3.245-4.216 5.194-6.002 5.908-5.556 12.425-10.442 18.093-16.255 6.637-6.818 13.798-13.112 20.221-20.153 5.35-5.195 9.517-11.778 16.126-15.559Z" style="fill:#ba9f80"></path>
    <path d="M1106.916 1320.905c4.465-1.477 8.836 1.219 12.786 3.014 4.713 2.215 8.114 6.877 13.24 8.182 4.929-.884 8.69-5.108 13.79-5.684a21.614 21.614 0 0 1 18.608 5.11c4.267 3.803 9.196 6.766 13.447 10.57 1.631 1.244 2.026 3.237 1.932 5.186-5.616 1.434-10.416-2.353-14.821-5.22-4.113-2.68-7.179-7.033-12.03-8.493a20.93 20.93 0 0 0-7.702-.043c-4.878 1.477-8.69 6.2-14.151 5.659-5.144-.37-8.888-4.2-12.906-6.947a45.041 45.041 0 0 0-9.634-5.058c-2.62 4.165-3.778 9.016-6.208 13.267a88.951 88.951 0 0 1-10.888 15.722c-6.329 6.826-13.12 13.215-19.939 19.552-3.297 2.971-6.165 6.483-9.986 8.81-2.327 1.296-4.637 2.627-6.87 4.079.559-1.64 1.1-3.29 1.735-4.886 8.896-11.3 20.127-20.497 29.813-31.093a71.353 71.353 0 0 0 13.601-22.488c1.503-3.34 2.62-7.522 6.183-9.24ZM1057.602 1410.764a5.248 5.248 0 0 1 6.372 4.835c.592 4.894-3.907 8.99-8.424 9.728-3.331-.223-5.478-4.07-4.25-7.075 1.099-3.065 2.914-6.638 6.302-7.488Z" style="fill:#ba9f80"></path>
    <path d="M1350.79 1632.835c1.153-5.102 1.35-10.407 1.791-15.603a60.204 60.204 0 0 0 1.623-6.913c5.401-29.418 13.516-58.243 20.11-87.386.644-2.654 1.718-6.071-.12-8.381-1.786.232-2.01 2-1.442 3.4-2.396 5.839-4.19 11.91-6.243 17.878-6.053 18.238-9.414 37.197-12.622 56.088-1.373 8.083-3.306 16.126-3.667 24.343-1.537 3.547-1.305 7.514-1.734 11.292-.016 1.647-.397 3.59-.104 5.282ZM1391.282 1586.345a55.131 55.131 0 0 0 1.966-6.543c8.681-34.14 19.973-67.577 32.784-100.387 5.89-16.083 13.292-32.217 13.953-49.58-2.36 1.52-3.417 4.19-4.43 6.681-2.533 6.603-4.895 13.266-7.746 19.75a444.204 444.204 0 0 0-16.297 42.057c-7.084 21.982-12.64 44.41-18.307 66.787-1.503 6.758-3.606 13.413-4.388 20.308-1.786 5.29-2.953 10.785-4.302 16.203.576-.017 1.718-.043 2.293-.052a49.874 49.874 0 0 0 4.474-15.224ZM1161.2 1477.423a241.316 241.316 0 0 1 21.554-42.015c4.113-6.156 6.629-13.55 5.435-21.011-1.829 2.206-2.147 5.134-3.177 7.728-2.155 5.71-6.38 10.27-9.428 15.49-8.948 16.057-15.379 33.334-21.184 50.73.55-.043 1.649-.12 2.199-.163 1.683-3.53 3.15-7.144 4.602-10.76ZM1159.612 1517.85c7.852-10.566 15.414-21.39 22.326-32.613a126.197 126.197 0 0 0 11.66-26 6.608 6.608 0 0 0-3.717 3.013c-2.817 4.38-5.204 9.016-8.003 13.413-12.949 20.367-25.177 41.362-40.735 59.892.3.463.901 1.4 1.202 1.863 7.023-5.272 12.089-12.6 17.267-19.569ZM631.393 1614.759a168.215 168.215 0 0 0-10.596-53.023c-.97.043-1.94.103-2.92.18.421 4.852 2.18 9.44 3.28 14.16 3.869 16.594 5.883 33.513 7.222 50.464.221 2.092.414 4.193.608 6.295h3.51c-.402-6.024-.696-12.056-1.104-18.076ZM1414.311 1619.026c.533-19.14 3.23-38.52 10.862-56.217 1.314-3.58 3.907-6.783 3.864-10.75-3.15.858-4.745 3.92-6.32 6.5-8.674 14.214-12.527 30.972-13.128 47.553-.17 8.906-.653 18.108 1.92 26.723h3.957a65.925 65.925 0 0 1-1.155-13.809ZM1035.758 1524.152a17.168 17.168 0 0 0 3.349 3.1c.3-.481.91-1.443 1.21-1.924a16.173 16.173 0 0 0-5.014-5.16 153.11 153.11 0 0 1-20.617-21.708c-3.572-4.654-7.324-9.376-12.322-12.562-1.314-1.065-2.962-.49-4.413-.189 2.524 3.272 5.578 6.095 8.131 9.342 8.615 10.955 18.891 20.377 29.676 29.1ZM632.166 1508.3c8.398 18.771 13.635 38.873 16.478 59.215 1.502 9.694 1.064 19.509 1.116 29.289.893.017 1.786.043 2.687.086a164.354 164.354 0 0 0-1.253-43.157c-2.834-17.165-6.312-34.407-13.086-50.498-6.432-15.018-13.705-29.753-22.72-43.406-4.148-6.372-7.634-13.344-8.596-20.969-1.305.146-3.106.167-3.314 1.89-1.015 8.37 2.524 16.443 6.62 23.5 8.303 14.186 15.336 29.067 22.068 44.05ZM664.004 1632.835c-.219-2.044-.42-4.091-.583-6.14-.3-2.938.25-6.32-2.043-8.579-1.391.859-3.194 1.666-3.237 3.59a48.223 48.223 0 0 0-.209 11.13ZM1020.456 1588.835a34.888 34.888 0 0 0 5.925 4.465c-.524-3.022-3.095-4.902-5.229-6.8-12.877-11.45-25.333-23.328-37.627-35.395-3.628-3.56-7.058-7.83-12.116-9.35 1.752 4.241 5.427 7.187 8.278 10.664 12.33 13.464 26.803 24.718 40.77 36.416ZM660.596 1513.401c3.514 18.5 5.788 37.19 9.72 55.6 4.036 19.448 8.639 39.094 17.912 56.817.447 1.357 1.924 1.46 3.126 1.709.077-4.19-2.327-7.762-3.624-11.592-6.826-18.71-10.235-38.443-13.103-58.089-2.233-18.324-4.902-36.787-11.223-54.182-.983-2.704-1.314-5.942-3.632-7.9a2.159 2.159 0 0 0-1.529 2.37c-.206 5.186 1.393 10.212 2.353 15.267Z" style="fill:#a3343e"></path>
  </g>
</svg>
